<svg width="24" height="23" viewBox="0 0 24 23" fill="none" xmlns="http://www.w3.org/2000/svg">
<g clip-path="url(#clip0)">
<path d="M22.8073 13.9377L23.099 11.7986L20.6744 11.2716C20.6382 9.92992 20.2627 8.65032 19.6203 7.5205L21.4426 5.89839L20.0702 4.1886L17.9667 5.45907C16.9927 4.57404 15.7985 3.89816 14.4538 3.52003L14.5453 1.13984L12.3132 0.860352L11.7633 3.183C10.3623 3.21771 9.02703 3.57666 7.84905 4.19317L6.1545 2.44867L4.36942 3.76389L5.69608 5.77966C4.77161 6.7131 4.0673 7.85662 3.67178 9.14536L1.18714 9.05767L0.895508 11.1967L3.3201 11.7237C3.35631 13.0655 3.73182 14.3451 4.37418 15.4749L2.55193 17.097L3.92434 18.8068L6.02774 17.5363C7.00177 18.4213 8.19596 19.0972 9.54073 19.4754L9.44924 21.8555L11.6813 22.135L12.2312 19.8124C13.6322 19.7777 14.9675 19.4187 16.1454 18.8022L17.8381 20.5476L19.6232 19.2324L18.2965 17.2166C19.221 16.2832 19.9262 15.1397 20.3208 13.8509L22.8073 13.9377ZM11.3897 15.9626C8.81545 15.6402 7.00177 13.3806 7.3382 10.9145C7.67464 8.44847 10.0335 6.71036 12.6067 7.03278C15.1809 7.35519 16.9946 9.61482 16.6582 12.0809C16.3227 14.5469 13.9629 16.285 11.3897 15.9626Z" stroke="#606E7B" stroke-width="1.55275" stroke-miterlimit="10"/>
</g>
<defs>
<clipPath id="clip0">
<rect width="24" height="22.9954" fill="white"/>
</clipPath>
</defs>
</svg>
