<svg width="23" height="31" viewBox="0 0 23 31" fill="none" xmlns="http://www.w3.org/2000/svg">
<g clip-path="url(#clip0)">
<path d="M11.4996 0C5.14833 0 0 5.30558 0 11.8508C0 16.6266 2.74255 20.7405 6.69247 22.6161V25.3169H10.156V15.7045L7.16987 10.7358C6.77935 10.086 6.97371 9.23216 7.60427 8.82972C8.23572 8.42727 9.06332 8.62757 9.45383 9.27739L11.5479 12.7609L13.8588 9.23123C14.2735 8.59711 15.1082 8.43004 15.7244 8.85833C16.3398 9.28569 16.5019 10.1469 16.0863 10.781L12.8431 15.734V25.3169H16.3066V22.6161C20.2565 20.7396 22.9991 16.6266 22.9991 11.8508C23 5.30558 17.8508 0 11.4996 0Z" fill="#F2EED1"/>
<path d="M11.4995 26.7024C10.7578 26.7024 10.156 26.0821 10.156 25.3179H6.69238V28.4405H8.87603V30.8154H14.1229V28.4405H16.3074V25.3179H12.8439C12.8439 26.0821 12.242 26.7024 11.4995 26.7024Z" fill="#44ADBF" stroke="#44ADBF" stroke-width="2" stroke-miterlimit="10"/>
<path d="M11.4998 26.7024C12.2414 26.7024 12.8433 26.0821 12.8433 25.3179H10.1562C10.1563 26.0821 10.7581 26.7024 11.4998 26.7024Z" fill="#B5555D"/>
<path d="M11.4998 26.7024C12.2414 26.7024 12.8433 26.0821 12.8433 25.3179H10.1562C10.1563 26.0821 10.7581 26.7024 11.4998 26.7024Z" fill="url(#paint0_linear)"/>
</g>
<defs>
<linearGradient id="paint0_linear" x1="6.69261" y1="26.0098" x2="16.3076" y2="26.0098" gradientUnits="userSpaceOnUse">
<stop stop-color="#2CABAE"/>
<stop offset="1" stop-color="#187E89"/>
</linearGradient>
<clipPath id="clip0">
<rect width="23" height="31" fill="white"/>
</clipPath>
</defs>
</svg>
