<svg width="41" height="41" viewBox="0 0 41 41" fill="none" xmlns="http://www.w3.org/2000/svg">
<path d="M20.5 39C30.7173 39 39 30.7173 39 20.5C39 10.2827 30.7173 2 20.5 2C10.2827 2 2 10.2827 2 20.5C2 30.7173 10.2827 39 20.5 39Z" stroke="#44ADBF" stroke-width="2.55328" stroke-miterlimit="10"/>
<path d="M20.3356 34.972C28.2837 34.972 34.7269 28.5288 34.7269 20.5807C34.7269 12.6327 28.2837 6.18945 20.3356 6.18945C12.3876 6.18945 5.94434 12.6327 5.94434 20.5807C5.94434 28.5288 12.3876 34.972 20.3356 34.972Z" stroke="#3B4B5B" stroke-width="2.55328" stroke-miterlimit="10"/>
<path d="M20.4995 30.511C25.9838 30.511 30.4297 26.0651 30.4297 20.5808C30.4297 15.0965 25.9838 10.6506 20.4995 10.6506C15.0152 10.6506 10.5693 15.0965 10.5693 20.5808C10.5693 26.0651 15.0152 30.511 20.4995 30.511Z" stroke="#44ADBF" stroke-width="2.55328" stroke-miterlimit="10"/>
<path d="M20.3368 26.1496C23.4126 26.1496 25.906 23.6562 25.906 20.5804C25.906 17.5046 23.4126 15.0112 20.3368 15.0112C17.261 15.0112 14.7676 17.5046 14.7676 20.5804C14.7676 23.6562 17.261 26.1496 20.3368 26.1496Z" stroke="#3B4B5B" stroke-width="2.55328" stroke-miterlimit="10"/>
<path d="M20.4997 22.7368C21.6904 22.7368 22.6557 21.7715 22.6557 20.5808C22.6557 19.3901 21.6904 18.4248 20.4997 18.4248C19.309 18.4248 18.3438 19.3901 18.3438 20.5808C18.3438 21.7715 19.309 22.7368 20.4997 22.7368Z" stroke="#44ADBF" stroke-width="2.55328" stroke-miterlimit="10"/>
</svg>
