<svg id="Layer_1" data-name="Layer 1" xmlns="http://www.w3.org/2000/svg" viewBox="0 0 79.45 61.83"><defs><style>.cls-1{fill:#3b4b5b;}.cls-2{fill:#fff;}</style></defs><path class="cls-1" d="M77.2,8.19A8,8,0,0,0,74.94,2.3,8.14,8.14,0,0,0,69,.09H14.89A8.16,8.16,0,0,0,9,2.22,7.55,7.55,0,0,0,6.8,7.31h0c-.07,15.85-.07,30.62,0,46.48A8.09,8.09,0,0,0,9,59.7a8.05,8.05,0,0,0,5.89,2.21v0H69.05a8.18,8.18,0,0,0,5.89-2.21,8,8,0,0,0,2.26-5.9C77.24,38.49,77.24,23.14,77.2,8.19Zm-4,45.6a4.15,4.15,0,0,1-1.07,3.06A4.26,4.26,0,0,1,69,57.91H14.9a4.2,4.2,0,0,1-3.07-1,4.28,4.28,0,0,1-1.06-3.09c-.07-15.62-.07-30.18,0-45.76h0a3.9,3.9,0,0,1,1-2.91,4.38,4.38,0,0,1,3.09-1H69a4.3,4.3,0,0,1,3.09,1A4.18,4.18,0,0,1,73.2,8.2Z" transform="translate(-0.87 -0.08)"/><path class="cls-2" d="M39.42,29.18c0-6.23,0-12.47,0-18.7,0-1,.2-1.62,1.23-1.78a1.7,1.7,0,0,1,1.93,1.47,5,5,0,0,1,.09,1.17q0,18.53,0,37.07a3.4,3.4,0,0,1-.33,1.77,1.42,1.42,0,0,1-1.28.82,1.3,1.3,0,0,1-1.15-.84,5.32,5.32,0,0,1-.48-2.4Z" transform="translate(-0.87 -0.08)"/><path class="cls-2" d="M41.06,51.13h0a1.4,1.4,0,0,1-1.27-.92,5.38,5.38,0,0,1-.49-2.45V24.5c0-4.59,0-9.34,0-14,0-.88.16-1.72,1.34-1.91a1.83,1.83,0,0,1,2.08,1.57,5.22,5.22,0,0,1,.09,1.2q0,9.27,0,18.53V48.41a3.46,3.46,0,0,1-.35,1.83A1.53,1.53,0,0,1,41.06,51.13ZM40.91,8.81l-.26,0c-.94.15-1.12.72-1.12,1.65,0,4.68,0,9.43,0,14V47.76A4.91,4.91,0,0,0,40,50.1a1.13,1.13,0,0,0,1,.77h0a1.29,1.29,0,0,0,1.16-.76,3.27,3.27,0,0,0,.31-1.7V29.87q0-9.27,0-18.53a4.59,4.59,0,0,0-.09-1.14A1.6,1.6,0,0,0,40.91,8.81Z" transform="translate(-0.87 -0.08)"/><path class="cls-1" d="M34.92,30.62c0,4.76,0,9.52,0,14.28a4,4,0,0,1-.42,1.85,1.35,1.35,0,0,1-1.72.69A1.32,1.32,0,0,1,31.69,46c0-1,0-2.07,0-3.11V16.09c0-1.46,1-2.21,2.31-1.69A1.5,1.5,0,0,1,34.93,16C34.91,20.89,34.92,25.75,34.92,30.62Z" transform="translate(-0.87 -0.08)"/><path class="cls-1" d="M47,29.64V15.26a2.3,2.3,0,0,1,.36-1.53c.36-.46,1-.66,1.3-.27.74.86,1.62,1.58,1.61,3-.08,9.59,0,19.17-.05,28.75a3,3,0,0,1-.11,1.16c-.24.52-.36.91-1.3.47-1.7-.8-1.84-2-1.83-3.57C47,38.72,47,34.18,47,29.64Z" transform="translate(-0.87 -0.08)"/><path class="cls-2" d="M56.62,30.58c0,4.4,0,8.81,0,13.21,0,1.42-.87,2.19-2.17,2-.67-.11-1.07-.4-1-1.2.06-1.72,0-3.44,0-5.15q0-10.53,0-21a7.37,7.37,0,0,1,.11-1.49,1.65,1.65,0,0,1,1.66-1.53c.85,0,1.38.73,1.42,1.83,0,.43,0,.86,0,1.28Z" transform="translate(-0.87 -0.08)"/><path class="cls-2" d="M54.87,45.92a2.35,2.35,0,0,1-.45,0,1.18,1.18,0,0,1-1.15-1.34c0-1.21,0-2.45,0-3.64V18.36a7.14,7.14,0,0,1,.12-1.52,1.75,1.75,0,0,1,1.76-1.63h0c.91,0,1.51.76,1.55,1.95,0,.3,0,.6,0,.91V34.42c0,3.12,0,6.25,0,9.37a2.18,2.18,0,0,1-.68,1.73A1.78,1.78,0,0,1,54.87,45.92Zm.3-30.45c-.8,0-1.31.48-1.51,1.42a7.28,7.28,0,0,0-.11,1.47V40.9c0,1.2,0,2.43,0,3.65,0,.66.23,1,.93,1.08a1.75,1.75,0,0,0,1.43-.31,1.9,1.9,0,0,0,.59-1.53c0-3.12,0-6.25,0-9.37V18.06c0-.29,0-.59,0-.89,0-1-.53-1.69-1.29-1.7Z" transform="translate(-0.87 -0.08)"/><path class="cls-1" d="M10,30.72V42.53A1.93,1.93,0,0,1,7.2,44.45c-.62-.23-.46-.74-.46-1.18q0-8.39,0-16.76V19.32A3,3,0,0,1,7,18a1.6,1.6,0,0,1,1.9-1c.86.17,1.08.85,1.09,1.62V30.72Z" transform="translate(-0.87 -0.08)"/><path class="cls-1" d="M19,29.91V17.56a2,2,0,0,1,.22-1.24c.37-.52,1-.92,1.43-.4A3.66,3.66,0,0,1,22,18.37Q22,31,22,43.71c0,1.19-.26,1.23-1.42.86A2.2,2.2,0,0,1,19,42.05C19,38,19,34,19,29.91Z" transform="translate(-0.87 -0.08)"/><path class="cls-2" d="M28,31c0,3.44,0,6.87,0,10.3a1.75,1.75,0,0,1-1.45,1.93c-1.77.53-1.77.54-1.77-1.38,0-6.61,0-13.23,0-19.84a4.53,4.53,0,0,1,1-2.71A1.13,1.13,0,0,1,27.18,19,1.18,1.18,0,0,1,28,20.17c0,2.18,0,4.36,0,6.54Z" transform="translate(-0.87 -0.08)"/><path class="cls-2" d="M25.32,43.67a.6.6,0,0,1-.34-.1c-.28-.21-.28-.68-.28-1.71v-5c0-4.85,0-9.87,0-14.8a4.66,4.66,0,0,1,1-2.78,1.26,1.26,0,0,1,1.51-.4,1.32,1.32,0,0,1,1,1.34c0,1.54,0,3.08,0,4.63V31c0,1,0,1.92,0,2.88,0,2.43,0,4.94,0,7.41a1.86,1.86,0,0,1-1.54,2.05A5.89,5.89,0,0,1,25.32,43.67ZM26.68,19a.9.9,0,0,0-.76.37,4.36,4.36,0,0,0-1,2.64c.05,4.93,0,10,0,14.8v5c0,.86,0,1.38.17,1.51s.64,0,1.42-.25a1.63,1.63,0,0,0,1.37-1.81c0-2.47,0-5,0-7.41V24.8c0-1.55,0-3.09,0-4.63a1,1,0,0,0-.78-1.09A1.33,1.33,0,0,0,26.68,19Z" transform="translate(-0.87 -0.08)"/><path class="cls-1" d="M74.29,31.21c0,3.15,0,6.29,0,9.44A2.42,2.42,0,0,1,71.68,43c-.38,0-.54-.29-.68-.59a2.43,2.43,0,0,1-.13-1.16c0-6,0-11.94,0-17.92a3,3,0,0,1,1.19-2.79c.49-.34.82-.56,1.42-.35a1.21,1.21,0,0,1,.82,1.34c0,1.71,0,3.43,0,5.15C74.29,28.21,74.29,29.71,74.29,31.21Z" transform="translate(-0.87 -0.08)"/><path class="cls-1" d="M62.47,32c0,2.19,0,4.37,0,6.55,0,1.12-.46,1.54-1.59,1.52s-1.42-.3-1.42-1.49c0-4.26,0-8.52,0-12.78,0-.6,0-1.13.67-1.44a2.61,2.61,0,0,1,2.07,0c.43.15.27.62.28.95C62.48,27.53,62.47,29.74,62.47,32Z" transform="translate(-0.87 -0.08)"/><path class="cls-2" d="M80.18,32.14c0,1.61,0,3.21,0,4.82,0,1-.68,1.17-1.42,1.16s-1.59,0-1.59-1.13V27.12c0-.62.27-.94.91-.89h.32c1.77,0,1.77,0,1.77,1.73Z" transform="translate(-0.87 -0.08)"/><path class="cls-2" d="M78.88,38.25h-.11c-.73,0-1.72,0-1.72-1.27V27.12a1,1,0,0,1,.28-.81,1,1,0,0,1,.77-.21h.31c.92,0,1.38,0,1.64.25s.26.71.26,1.61v5.63c0,1.11,0,2.25,0,3.37a1.19,1.19,0,0,1-.31.94A1.55,1.55,0,0,1,78.88,38.25ZM78,26.35a.66.66,0,0,0-.47.15.82.82,0,0,0-.19.62V37c0,.91.58,1,1.46,1a1.44,1.44,0,0,0,1.06-.27,1,1,0,0,0,.23-.75c0-1.13,0-2.27,0-3.38V28c0-.8,0-1.24-.18-1.42s-.63-.18-1.45-.18a1.93,1.93,0,0,1-.34,0Z" transform="translate(-0.87 -0.08)"/><path class="cls-2" d="M68.53,32.29c0,1.42,0,2.85,0,4.28,0,.3.13.68-.24.86a.63.63,0,0,1-.83-.28.57.57,0,0,0-.35-.23c-1.64-.17-1.64-1.28-1.61-2.55.07-2.43,0-4.86,0-7.28,0-.46-.09-1,.51-1.16a1.62,1.62,0,0,1,1.53.43,2.85,2.85,0,0,1,1,2.71C68.48,30.14,68.53,31.22,68.53,32.29Z" transform="translate(-0.87 -0.08)"/><path class="cls-2" d="M68,37.63a.85.85,0,0,1-.66-.4.44.44,0,0,0-.26-.18c-1.79-.19-1.75-1.52-1.72-2.69,0-1.71,0-3.45,0-5.14,0-.71,0-1.42,0-2.13v-.16c0-.42,0-.95.6-1.13a1.78,1.78,0,0,1,1.65.46,3,3,0,0,1,1,2.82c0,.74,0,1.49,0,2.22,0,.33,0,.66,0,1v1.07c0,1.07,0,2.14,0,3.21a1.09,1.09,0,0,0,0,.18.7.7,0,0,1-.33.8A.8.8,0,0,1,68,37.63ZM66.41,26a1.63,1.63,0,0,0-.36.05c-.41.12-.42.41-.41.87v.17c0,.71,0,1.42,0,2.13,0,1.69,0,3.43,0,5.15,0,1.4,0,2.27,1.49,2.42a.68.68,0,0,1,.44.28c.27.37.5.32.67.24s.2-.27.18-.54a1.41,1.41,0,0,1,0-.2c0-1.07,0-2.14,0-3.21V32.29c0-.33,0-.66,0-1,0-.73,0-1.49,0-2.23a2.69,2.69,0,0,0-.94-2.6A1.69,1.69,0,0,0,66.41,26Z" transform="translate(-0.87 -0.08)"/><path class="cls-2" d="M4,32v4.29c0,.39,0,.76-.5.9A2.17,2.17,0,0,1,1,35.39q0-4.07,0-8.14c0-1.21.35-1.36,1.5-1.06A1.79,1.79,0,0,1,4,28.41,34.81,34.81,0,0,0,4,32Z" transform="translate(-0.87 -0.08)"/><path class="cls-2" d="M3.13,37.32a2.44,2.44,0,0,1-1.45-.54,1.83,1.83,0,0,1-.8-1.39c0-3.12,0-5.71,0-8.14,0-.64.1-1,.34-1.18s.74-.16,1.32,0a1.92,1.92,0,0,1,1.62,2.37,19.87,19.87,0,0,0,0,2.44c0,.36,0,.72,0,1.08V36.3c0,.37,0,.8-.6,1A1.75,1.75,0,0,1,3.13,37.32ZM1.72,26.18a.55.55,0,0,0-.34.1c-.17.12-.24.42-.24,1,0,2.43,0,5,0,8.14a1.62,1.62,0,0,0,.7,1.19A2,2,0,0,0,3.46,37c.41-.11.41-.35.41-.71V32c0-.36,0-.72,0-1.07a20.53,20.53,0,0,1,0-2.48,1.67,1.67,0,0,0-1.43-2.08A3.11,3.11,0,0,0,1.72,26.18Z" transform="translate(-0.87 -0.08)"/><path class="cls-2" d="M12.48,32.46c0-1.36,0-2.72,0-4.07-.05-.85.27-1.13,1.07-1.19,1.56-.14,2,.15,2,1.66,0,2.57,0,5.15,0,7.72,0,1.19-.34,1.49-1.56,1.46-1,0-1.43-.42-1.43-1.51C12.47,35.17,12.48,33.82,12.48,32.46Z" transform="translate(-0.87 -0.08)"/><path class="cls-2" d="M14.05,38.18h-.14c-1.12,0-1.56-.48-1.56-1.64,0-.9,0-1.81,0-2.71V32.46c0-.41,0-.81,0-1.22,0-.94,0-1.9,0-2.85s.28-1.25,1.19-1.32a2.18,2.18,0,0,1,1.68.27c.29.26.41.7.41,1.52v2.19c0,1.84,0,3.68,0,5.53a1.67,1.67,0,0,1-.35,1.27A1.61,1.61,0,0,1,14.05,38.18Zm.06-10.88-.57,0c-.77.07-1,.32-.95,1.06.05.95,0,1.92,0,2.86,0,.41,0,.81,0,1.22v1.36c0,.9,0,1.8,0,2.71s.33,1.36,1.3,1.38c.62,0,1-.06,1.16-.25a1.46,1.46,0,0,0,.27-1.08c0-1.85,0-3.69,0-5.53V28.86c0-.74-.1-1.12-.33-1.33A1.3,1.3,0,0,0,14.11,27.3Z" transform="translate(-0.87 -0.08)"/></svg>