<svg width="42" height="42" viewBox="0 0 42 42" fill="none" xmlns="http://www.w3.org/2000/svg">
<path d="M20.9998 41.0722C32.0853 41.0722 41.0719 32.0856 41.0719 21.0001C41.0719 9.91456 32.0853 0.927979 20.9998 0.927979C9.91432 0.927979 0.927734 9.91456 0.927734 21.0001C0.927734 32.0856 9.91432 41.0722 20.9998 41.0722Z" stroke="#3B4B5B" stroke-width="1.85581" stroke-miterlimit="10"/>
<path d="M21.8923 8.48193C24.5755 8.58942 27.0127 9.89389 28.6389 12.5531C29.9008 14.6169 30.1668 16.8493 29.508 19.1776C29.174 20.3583 28.4239 21.2831 27.5803 22.1422C27.0166 22.7167 26.4405 23.282 25.9093 23.8859C24.8693 25.0682 24.4069 26.4786 24.3821 28.0367C24.3636 29.2183 24.1131 30.324 23.2068 31.3362C21.6904 33.0304 19.0506 33.2106 17.2705 31.7963C16.1965 30.9426 15.6258 29.8214 15.581 28.4288C15.5678 28.0313 15.7372 27.746 16.0596 27.606C16.3844 27.4653 16.6805 27.5264 16.9396 27.756C17.1584 27.9501 17.1948 28.2146 17.2071 28.4899C17.2427 29.2322 17.5296 29.8732 18.094 30.3712C19.0088 31.1777 20.3922 31.3076 21.4422 30.6882C22.2611 30.2057 22.7011 29.4216 22.7428 28.4032C22.7784 27.5333 22.8418 26.6727 23.0668 25.8291C23.404 24.5664 24.0527 23.4769 24.9342 22.525C25.4817 21.9342 26.0477 21.3597 26.6269 20.7999C27.9407 19.5302 28.3938 17.9597 28.1804 16.2013C27.8316 13.3194 26.2526 11.3669 23.5068 10.4236C20.877 9.51964 17.8126 10.514 16.1431 12.7248C15.2446 13.9148 14.7667 15.2471 14.7381 16.7403C14.7281 17.2777 14.4041 17.6311 13.9324 17.6357C13.4808 17.6396 13.1166 17.229 13.1182 16.7774C13.1244 15.2193 13.5512 13.7447 14.4134 12.3745C15.0536 11.3569 15.9228 10.4908 16.9303 9.83435C18.3268 8.92423 19.7913 8.49353 21.8923 8.48193Z" fill="#44ADBF"/>
<path d="M18.8328 18.0854C19.5449 18.2122 20.1898 18.4612 20.7187 18.9406C21.8315 19.9481 22.2405 21.2031 21.8423 22.6445C21.4479 24.0727 20.4721 24.9526 19.0044 25.2472C18.143 25.4205 17.3257 25.2704 16.5571 24.8452C16.1419 24.6155 15.981 24.1608 16.179 23.7587C16.3762 23.3582 16.8401 23.1912 17.2685 23.4015C17.918 23.7201 18.583 23.8507 19.3439 23.4146C19.838 23.1316 20.1937 22.636 20.3105 22.0785C20.4945 21.2024 20.1504 20.4608 19.3184 19.911C18.9944 19.6968 18.5977 19.6551 18.2103 19.6783C17.6018 19.7146 17.2515 19.3953 17.2291 18.7975C17.2066 18.1983 17.1556 17.5982 17.1687 16.9997C17.2051 15.3164 17.9026 13.9531 19.3207 13.0329C21.7874 11.4331 24.9631 12.3695 26.2042 15.0264C26.4849 15.6272 26.621 16.2651 26.6248 16.9286C26.6272 17.3949 26.3063 17.7467 25.8686 17.7683C25.4062 17.7915 25.0459 17.4907 25.0142 17.0082C24.9832 16.5311 24.9121 16.0695 24.7033 15.6349C24.1226 14.4279 22.7802 13.6956 21.509 13.8943C20.0824 14.1178 19.016 15.1431 18.8436 16.5226C18.7794 17.0338 18.8328 17.5596 18.8328 18.0854Z" fill="#44ADBF"/>
</svg>
