<svg id="Layer_1" data-name="Layer 1" xmlns="http://www.w3.org/2000/svg" xmlns:xlink="http://www.w3.org/1999/xlink" viewBox="0 0 363.29 64"><defs><style>.cls-1,.cls-2,.cls-3,.cls-4{fill:none;}.cls-1,.cls-2,.cls-3{stroke:#fff;stroke-linecap:round;stroke-linejoin:round;}.cls-1{stroke-width:0.55px;}.cls-2,.cls-3{stroke-width:0.14px;}.cls-3{stroke-dasharray:2.21 2.21;}.cls-4{clip-rule:evenodd;}.cls-5{opacity:0.7;}.cls-6{mask:url(#mask);}.cls-7{clip-path:url(#clip-path);}.cls-8{fill:#9bb5d1;}.cls-9{fill:#9ab4d0;}.cls-10{fill:#99b3cf;}.cls-11{fill:#98b2ce;}.cls-12{fill:#97b1cd;}.cls-13{fill:#96b0cc;}.cls-14{fill:#95afcb;}.cls-15{fill:#94aeca;}.cls-16{fill:#93adc9;}.cls-17{fill:#92acc8;}.cls-18{fill:#92abc7;}.cls-19{fill:#91aac6;}.cls-20{fill:#90a9c5;}.cls-21{fill:#8fa8c4;}.cls-22{fill:#8ea7c3;}.cls-23{fill:#8da6c2;}.cls-24{fill:#8ca5c1;}.cls-25{fill:#8ba4c0;}.cls-26{fill:#8aa3bf;}.cls-27{fill:#89a2be;}.cls-28{fill:#88a1bd;}.cls-29{fill:#87a0bc;}.cls-30{fill:#869fbb;}.cls-31{fill:#859eba;}.cls-32{fill:#849eb9;}.cls-33{fill:#839db8;}.cls-34{fill:#829cb7;}.cls-35{fill:#819bb6;}.cls-36{fill:#809ab5;}.cls-37{fill:#8099b4;}.cls-38{fill:#7f98b3;}.cls-39{fill:#7e97b2;}.cls-40{fill:#7d96b1;}.cls-41{fill:#7c95b0;}.cls-42{fill:#7b94af;}.cls-43{fill:#7a93ae;}.cls-44{fill:#7992ad;}.cls-45{fill:#7891ac;}.cls-46{fill:#7790ab;}.cls-47{fill:#768faa;}.cls-48{fill:#758ea9;}.cls-49{fill:#748da8;}.cls-50{fill:#738ca7;}.cls-51{fill:#728ba6;}.cls-52{fill:#718aa5;}.cls-53{fill:#7089a4;}.cls-54{fill:#6f88a3;}.cls-55{fill:#6e87a2;}.cls-56{fill:#6e86a0;}.cls-57{fill:#6d859f;}.cls-58{fill:#6c849e;}.cls-59{fill:#6b839d;}.cls-60{fill:#6a829c;}.cls-61{fill:#69819b;}.cls-62{fill:#68809a;}.cls-63{fill:#677f99;}.cls-64{fill:#667e98;}.cls-65{fill:#657d97;}.cls-66{fill:#647c96;}.cls-67{fill:#637b95;}.cls-68{fill:#627a94;}.cls-69{fill:#617993;}.cls-70{fill:#607892;}.cls-71{fill:#5f7791;}.cls-72{fill:#5e7690;}.cls-73{fill:#5d758f;}.cls-74{fill:#5c748e;}.cls-75{fill:#5c738d;}.cls-76{fill:#5b728c;}.cls-77{fill:#5a718b;}.cls-78{fill:#59708a;}.cls-79{fill:#586f89;}.cls-80{fill:#576f88;}.cls-81{fill:#566e87;}.cls-82{fill:#556d86;}.cls-83{fill:#546c85;}.cls-84{fill:#536b84;}.cls-85{fill:#526a83;}.cls-86{fill:#516982;}.cls-87{fill:#506881;}.cls-88{fill:#4f6780;}.cls-89{fill:#4e667f;}.cls-90{fill:#4d657e;}.cls-91{fill:#4c647d;}.cls-92{fill:#4b637c;}.cls-93{fill:#4a627b;}.cls-94{fill:#4a617a;}.cls-95{fill:#496079;}.cls-96{fill:#485f78;}.cls-97{fill:#475e77;}.cls-98{fill:#465d76;}.cls-99{fill:#455c75;}.cls-100{fill:#445b74;}.cls-101{fill:#435a73;}.cls-102{fill:#425972;}.cls-103{fill:#415871;}</style><mask id="mask" x="-42.93" y="-321.07" width="475.15" height="514.73" maskUnits="userSpaceOnUse"><g id="mask0"><path class="cls-1" d="M157.59-3.46a5.51,5.51,0,0,0,2.75.6c3.28-.22,5.33-4.5,7.34-6.53,3.9-3.92,9.4-4.59,14.78-4.39,5.95.23,12.66.72,17-3.23,5.38-4.83,6.61-19.74-2.44-21.66-2.75-.58-5.6.22-8.22,1.21s-5.22,2.2-8,2.46c-3,.27-6-.55-9-.82-9.57-.85-13.29,11.17-16.5,18.34-1.22,2.73-2.47,5.64-2.05,8.59A7.93,7.93,0,0,0,157.59-3.46Z"/><path class="cls-1" d="M204.23,39.67Q208.06,38,212,36.52c3.65-1.4,7.56-2.7,11.43-2.08,3.34.54,6.85,2.46,9.87,1,2.58-1.26,3.39-4.8,6.1-5.77,2.35-.85,3.57.82,5.69,1.31,7.1,1.62,7.1-8.14,6.19-12.55-.76-3.63-1.9-7.49-4.89-9.77-7.86-6-20,1.29-29.24-3.67C208.72.43,199.73-1.83,189.93.49c-10.58,2.5-18.85,14.8-15.1,25.14,1.5,4.14,4.18,7.76,6.32,11.62,1.39,2.5,2.85,5.31,2.68,8.17-.1,1.79-2,4.6.86,5.63,1.66.61,3.27-1,4.22-2.42C191.92,44,199.26,41.82,204.23,39.67Z"/><path class="cls-1" d="M142.36,4.06a22.15,22.15,0,0,1,4.18,1.64C150.7,7.91,154.93,10.35,158,14c3.34,4,3.74,9.49,1.94,14.3-2.57,6.88-11.95,10.33-8.47,18.6a16,16,0,0,0,7.17,7.39c5.3,2.94,11.34,4.23,16.7,7.05a58,58,0,0,0,12.62,5.11c4.46,1.15,9.26,2,12.89,5,3.87,3.2,5.59,8.16,7.44,12.78,2.13,5.32,4.85,10.94,9.91,14.28,5.61,3.69,13.81,2.9,19.26-.81a12.17,12.17,0,0,0,5.38-7.52,29.6,29.6,0,0,0,.08-5.49,8.3,8.3,0,0,1,1.41-5.23c2.18-2.73,6.75-2.7,9.92-2.4a36.48,36.48,0,0,1,13,4c4.63,2.3,9.27,5,14.44,5.43,6.07.56,12.18-2.12,16.53-6.31s7.09-9.78,8.72-15.55c1.68-5.92.67-12.25,2.89-18,1.53-4,4.88-7.6,9.19-8.24,3.81-.57,6.92,1.24,10.26,2.69,2.61,1.13,5.48,2.9,8.42,2.94,6.33.08,11.36-5.34,14-11,4.19-9,4.54-19.05,3.19-28.71-.61-4.36-1.27-8.73-2.3-13C350.18-19,344-33.67,330.87-32.14c-5.06.58-9.75,2.86-14,5.57-4.57,2.88-8.93,6.47-11.16,11.32C302.34-8,308.4-3.88,307.41,2.39s-8.73,9.69-14.4,9.67C278.81,12,264.75-.08,256.82-10.67c-2.76-3.67-5.86-9-10.88-9.48A27,27,0,0,0,229.61-16c-3.56,2.21-10.11,7.73-14.55,5.45-1.84-1-2.6-3.13-3-5.14-1.51-7.87-.38-15.8-.25-23.76.08-4.77,1-10.65-1.13-15.11a5.37,5.37,0,0,0-4.89-3.27,7.94,7.94,0,0,0-3.49,1.45c-5.52,3.41-11.05,6.86-16.64,10.11a33,33,0,0,1-16.47,4.86,26.27,26.27,0,0,1-12.68-3c-2.94-1.71-4.3-5.29-7.56-6.57-5.23-2.06-12.52,1.8-16.75,4.55a40.23,40.23,0,0,0-12.86,13,24.53,24.53,0,0,0,.93,25.65c2.72,4.23,7.18,7,11.77,9C135.27,2.48,139,3.06,142.36,4.06Z"/><path class="cls-1" d="M257.42,30.14a13.93,13.93,0,0,1-4.05,5,15.29,15.29,0,0,1-9.65,3.15c-2-.05-4-.46-5.92.16a35.07,35.07,0,0,0-4.1,1.86c-4.31,2.05-7.93,1.46-12.56,1.2A26.54,26.54,0,0,0,205,46c-4,2.68-8.27,7.41-5.89,12.58A5.6,5.6,0,0,0,201.5,61c3.21,1.79,7.19,1.33,10.86.94,9.61-1,19.31,3.67,28.16,6.69,1.4.47,3.7,1.23,5.2.68,1.68-.61,2.33-2.9,3.35-4.18,2.29-2.86,6.42-3.79,10.08-3.25a18.75,18.75,0,0,1,8.18,3.18c1.78,1.34,2.61,2.86,5.06,3,5.54.27,9.82-5.1,11-9.91.67-2.8.67-5.74,1.64-8.44,1.2-3.34,6-8,8.75-3.21,1,1.72,1,3.82,1.39,5.78s1.27,4.09,3.18,4.77c2.07.73,4.41-.65,5.53-2.5s1.39-4.07,1.79-6.19A23.49,23.49,0,0,1,311,36.77c4.37-4.76,9-4.14,14.79-4.66,6.1-.55,9.3-7.23,11.09-13,2.05-6.57,3.84-13.66,1.72-20.21s-9.71-11.83-16.17-9.16S314.51.38,310.86,6.14c-4,6.24-10.51,8.87-17.67,9.85-4.23.59-8.79-.18-12.94-1q-6.63-1.24-13.32-2.19a9.13,9.13,0,0,0-4.35.09c-2.2.77-2.6,3.19-2.74,5.2C259.55,22.27,259.19,26.52,257.42,30.14Z"/><path class="cls-1" d="M327.17,2c-2.63,0-6,3.86-6.1,7.57A4.65,4.65,0,0,0,327,14c3-1,3.33-5,3.11-7.62C329.86,3.25,328.63,2,327.17,2Z"/><path class="cls-1" d="M257.08,52.87c5.31-2.49,10.74-4.64,16.13-6.92,2-.84,8.09-6,3-7.23-1.73-.43-3.21,1.38-5,1.69-1.34.24-2.68-.42-4-.39-2.57,0-4.48,2.55-6.38,3.95a28,28,0,0,1-7.79,4.34c-1.43.46-3.12,1-3.59,2.37-.54,1.58,1.07,3.23,2.76,3.44A9.06,9.06,0,0,0,257.08,52.87Z"/><path class="cls-1" d="M119.79,175.62a49.77,49.77,0,0,0-8.23,8c-1.69,2.08-3.9,4.54-6.54,3.94-2.13-.49-3.23-2.75-4-4.75q-3.43-8.55-6.88-17.12c-1.89-4.71-5.45-10.35-5.06-15.53.46-6.14,5.78-11.11,11.71-13.12,4.64-1.57,9.82-1.77,14-4.34a14.74,14.74,0,0,0,6-7.81,18.13,18.13,0,0,0,.82-8.39c-.89-6.33-4.74-10-8-15.08-3.1-4.93-6.36-10.07-9.14-15.22a8.61,8.61,0,0,1-1.37-4.48,3.32,3.32,0,0,1,2.9-3.23c1.64,0,2.84,1.44,3.88,2.69a27.75,27.75,0,0,0,14.33,9c3.12.81,6.38,1.07,9.42,2.14a12,12,0,0,1,6.82,5.87c1.58,2.9,1,5.91,1.26,9.11a16.83,16.83,0,0,0,6,11.51A18.13,18.13,0,0,0,160.23,123c2.79-.17,5.5-1,8.27-1.32s5.75-.24,8.09,1.26c6.36,4.09.67,17.45-2.39,22.31-3.26,5.18-8.82,10.73-14.9,12.62-6.57,2-13.09,4.66-19.57,7.16C132.38,167.83,125.68,171.05,119.79,175.62Z"/><path class="cls-2" d="M177.66-32.91c-5.29.89-10.24,2.24-13.46,7.3a39.56,39.56,0,0,0-4,9.82,6,6,0,0,0-.3,3.88c1,2.65,4.83.92,6.45-.18,3-1.46,4.47-4.49,8-5,4.52-.62,9.6.11,14.17.18,3,0,6.15,0,8.65-1.57s3.76-4.43,4.36-7.25a12.28,12.28,0,0,0-.11-6.48,6.9,6.9,0,0,0-4.48-4.53c-2.59-.71-5.27.47-7.79,1.41C185.49-33.94,181.49-33.55,177.66-32.91Z"/><path class="cls-2" d="M172.26-27.83a8.43,8.43,0,0,0-1.76,1.61c-2.79,3.42-1.29,7,3,7.19,4.64.21,8.87-1.11,13.45-1.55a23.25,23.25,0,0,0,7.81-1.7c2.42-1.13,4.52-3.26,4.88-5.86A6.26,6.26,0,0,0,195-34.83c-2-.45-4.13.13-6.13.7a95,95,0,0,0-13.53,4.62A18.6,18.6,0,0,0,172.26-27.83Z"/><path class="cls-2" d="M167.34-37.85l-.62.07c-6.92.92-13.78,4-18.44,9.18a31.33,31.33,0,0,0-5.75,9.15c-4,9.76,3.58,22.29,14.63,22.71,8.31.31,13.36-6.76,20.5-9.55,5.43-2.12,14.69-3.67,20.19-2.18,1.2.32,2.48.79,3.67.42,1.71-.53,2.45-2.47,2.94-4.15,1.61-5.43,3.53-11.18,3-16.9a25.53,25.53,0,0,0-3.26-10.42,8.69,8.69,0,0,0-6.93-4.33c-2.77-.14-4.82,1.37-7.27,2.3a48,48,0,0,1-7.28,1.89A143.89,143.89,0,0,1,167.34-37.85Z"/><path class="cls-2" d="M301.2,74.15c3.75-6.07,4.91-13.51,6.07-20.4.79-4.71,1.87-9.65,4.7-13.64,2.62-3.71,7.14-4.42,11.52-4.06,4.73.39,8.9,2.34,13.72,1.44a14.62,14.62,0,0,0,7.59-3.89,18.72,18.72,0,0,0,4.32-7.3,39.14,39.14,0,0,0,1.33-5.11,55.1,55.1,0,0,0-.06-23c-2.61-11.38-10.92-26.64-25.13-23.53A18.7,18.7,0,0,0,311.38-11.2C310.22-5.73,311.63,1,308,5.71c-3.07,4-8.14,6.29-13.12,7a36.89,36.89,0,0,1-27.44-7.53C261.2.25,256.93-6.39,251.82-12.3c-7.38-8.54-18.38-4.35-25.85,1.89-2.17,1.81-4.28,3.78-6.9,4.88-12.35,5.15-9.82-13.32-9-19.7.89-7.28.22-15.77-2.47-22.64-.83-2.12-2.36-4.43-4.68-4.47A6.64,6.64,0,0,0,199.36-51c-3.31,2-6.72,4.84-10.31,6.37a67.86,67.86,0,0,1-8.29,2.51,39.9,39.9,0,0,1-21.86-.24c-3.34-1-6.56-2.46-10-3-12.81-2-19.95,10.74-22.2,21.08A20.65,20.65,0,0,0,129-8.95c2.87,4.8,8.43,7.82,13.3,10.39,5,2.65,10.27,5.12,14.41,9,6.43,6,9.85,16.72,3.52,23.78-2.37,2.65-6,5.46-6.45,9.19-.53,4,4,6.78,7,8.61a208.91,208.91,0,0,0,19.62,10.65c5.78,2.68,12.74,1.57,18.29,4.88,3.12,1.87,5.31,5,7,8.11,2.42,4.47,3.45,9.44,5.89,13.92a20,20,0,0,0,8.51,8.65c6,2.91,15.62.63,18.7-5.6A26,26,0,0,0,240.57,86,14.9,14.9,0,0,1,243,79.58a10.35,10.35,0,0,1,8.06-3.64c1.38,0,2.69,0,4,0a24.85,24.85,0,0,1,8.44,1.57c4.4,1.69,8.24,4.58,12.8,5.89a21,21,0,0,0,13.45-.88c3.21-1.27,7.25-2.89,9.47-5.56A25.77,25.77,0,0,0,301.2,74.15Z"/><path class="cls-2" d="M338.46,30.42a19.38,19.38,0,0,0,5.25-5.24c3.74-5.58,4.57-12.8,4.37-19.32-.18-6-1.53-13.95-5.29-18.86-4.7-6.15-14.84-9.67-22-5.54C317.71-16.76,315-12.39,314-9c-1.4,5.11-2,10-5.11,14.5a18.65,18.65,0,0,1-13.3,8.38c-6.1.59-13.19.26-18.93-1.94-7.25-2.79-13.13-6.53-18.13-12.51-3.2-3.83-7.24-8.77-11.71-11.28s-11.91-.44-16.33,1.53a27.75,27.75,0,0,0-7.37,4.82c-1.91,1.74-3.8,3.54-6.49,4-3.25.57-6.25-1.34-7.9-4-2.68-4.28-1.44-10.26-1-15,.63-7.17,1.4-14.47-1.42-21.32-.87-2.12-2.24-4.35-4.5-4.91a8.72,8.72,0,0,0-5,.73c-4.89,1.74-9.72,3.91-14.81,4.84a158.52,158.52,0,0,1-20.27,2.39c-4.34.24-8.74.3-13,1.34a20.68,20.68,0,0,0-7.36,3.32,18.05,18.05,0,0,0-6.95,11c-1.54,6.89,0,14,5.12,19.08C145,1.35,152.66,4,158,9.75c5.59,6.1,10.32,17.59,4.59,25-2,2.59-5.52,4.71-6.31,8.06-1,4,4,6.65,7.11,8.07,4.39,2,7.22,5.47,11.49,7.68,2.88,1.5,5.81,3.38,8.95,4.21a64.34,64.34,0,0,0,10.77,1.76c2.63.24,5.46.39,7.55,2,1.51,1.15,2.26,3,3.13,4.59,1.45,2.69,2.56,5.58,3.81,8.36,1,2.27,1.49,4.76,2.62,7a27.14,27.14,0,0,0,6.74,8.62c3.78,3.2,10.36,4.32,14.24.54,4.28-4.17,5-9.72,6.67-15.06,1.62-5,8.31-6,12.85-6.27,5.68-.39,11.84-1.58,16.68,2.13,1.94,1.49,3.69,3.3,6,4.22s4.93.81,7.43.62c3.77-.29,7.63-.75,11-2.49,4.93-2.58,8-7.61,9.89-12.78a72.71,72.71,0,0,0,2.67-9.4c.93-4.48,1.39-9.32,3.18-13.58a13,13,0,0,1,6.22-6.93c3.89-1.79,8.31-.93,12.44-1.21C331.45,34.61,335.32,32.57,338.46,30.42Z"/><path class="cls-3" d="M164.64-1.07c2-1.28,3.9-2.86,5.88-4.24a36,36,0,0,1,21.13-6.29c2.94.07,6.09.46,8.65-1,3.41-1.87,4.46-6.17,4.66-10,.29-5.69,1.26-13.64-5.36-16.59a14,14,0,0,0-8.55-.43c-4.56,1-9,2.31-13.66,2.47a49.06,49.06,0,0,0-9.55.77c-8.05,1.9-12.67,10.33-15.6,17.24-1.47,3.46-3,7-2.93,10.77s1.94,7.74,5.51,9.08c2.75,1,5.9.31,8.5-1.06C163.77-.54,164.21-.8,164.64-1.07Z"/><path class="cls-2" d="M246.18,34.88c2.61-.07,4.7-2.24,6-4.47,4.1-6.92,4.94-20.5-2.74-25.66-3.12-2.09-7.22-1.89-11-1.61-6.44.48-12.86,1.74-19.07-.08s-11.76-4.85-17.77-7.44c-8.58-3.68-18.35-2.75-23.21,5.44-4.26,7.17-8.41,16-5.07,24.35,1.3,3.25,3.52,6.06,5.37,9.05s3.38,6.37,3.06,9.86c-.13,1.44-.58,2.83-.71,4.28a5,5,0,0,0,1.14,4,4.73,4.73,0,0,0,5.23.55,12.79,12.79,0,0,0,4.15-3.64c4.21-5,11.49-7.36,17.52-9.79,4-1.61,7-3.08,11.59-2.82,3.06.18,6.2.92,9.27.74a10.63,10.63,0,0,0,6-2.41c2.2-1.76,3.58-2.34,6.43-1.33a10.9,10.9,0,0,0,3.69.93Z"/><path class="cls-3" d="M200.74,2.26A24.22,24.22,0,0,0,178.61,10c-5,5.87-3.68,13.37.25,19.38,1.92,2.95,3.7,7.32,6.31,9.61s6.54,2.47,9.77,1.43c3.63-1.18,6.7-3.57,10-5.39a35.15,35.15,0,0,1,20.94-4c2.69.33,5.31,3.11,7.94,1.71,2.24-1.21,2.82-4.21,5.24-5.26s5.63.81,8.25-.11a5.29,5.29,0,0,0,3.16-4.79,15.34,15.34,0,0,0-1.26-5.88c-1.31-3.68-3.39-6.9-7.51-7.89a22.1,22.1,0,0,0-8.61.14,33.38,33.38,0,0,1-8.62.69c-4.26-.45-8-2.69-11.79-4.45C208.71,3.32,205,3,200.74,2.26Z"/><path class="cls-3" d="M282,25.62a12.38,12.38,0,0,0-6.56,0c-4.56,1.37-7.42,5.63-10.38,9.28A17.73,17.73,0,0,1,255,41.44c-3.77,1-5.29,3.81-8.37,6.23-2.66,2.09-6,3.23-8.92,4.94-.86.51-1.81,1.16-1.87,2.13-.1,1.42,1.65,2.17,3.06,2.44a49.25,49.25,0,0,0,31.3-4.39c5.07-2.58,10.76-5.66,13.35-10.76,1.25-2.43,2.94-5.14,5.7-5.47,1.47-.17,3.12.37,4.34-.45s1.29-2.72.51-4a9.07,9.07,0,0,0-3.46-2.76A35.55,35.55,0,0,0,282,25.62Z"/><path class="cls-2" d="M286,43.6a6.83,6.83,0,0,1,3.65-2.17c2.16-.25,4,1.43,6.38.82,1.94-.5,3.07-2.47,3.67-4.35,1-2.94,1.27-6.29,3.46-8.51s6-2.67,9.31-2.56c3.94.12,10.22.8,13.8-1.06s5.27-6.37,6.42-9.9C334.55,10,337.36.5,331.87-4.52,325.9-10,321-4.48,318,.57c-6.61,11.25-18.69,19.56-32.13,18.94-2.21-.11-4.45-.37-6.67-.31-4.37.13-9.95,2.3-12.92,5.41-2.25,2.34-3.92,5.15-6,7.63a32.71,32.71,0,0,1-15.1,10.14c-7,2.24-12.29,6.55-20.05,6.39-2.35-.05-4.74-.48-7,0s-4.61,2.18-4.7,4.48,1.9,4.07,4.08,4.64c2.76.72,5.69.36,8.51.52a23,23,0,0,1,8.57,2.68c2.35,1.12,4.93,2.22,7.59,2.15,2.83-.08,5.07-1.7,7.77-2.32a32.66,32.66,0,0,1,13.39-.25c4.1.79,8.56,2.32,12.22.36,3.44-1.84,3.86-5.25,5.1-8.49a31.82,31.82,0,0,1,3.93-7.28A14.11,14.11,0,0,1,286,43.6Z"/><path class="cls-2" d="M317.23,10.43a18.54,18.54,0,0,1-6.67,4.77,20.4,20.4,0,0,0-4.23,1.9A3.82,3.82,0,0,0,304.55,21a4.64,4.64,0,0,0,2,2.31,15.37,15.37,0,0,0,15.76.58c5.39-3.08,7.1-9.13,8.82-14.6,1.25-4,1.65-12.85-4.8-12.25-5,.47-5.14,4.8-6.2,8.35A13.67,13.67,0,0,1,317.23,10.43Z"/><path class="cls-2" d="M232.33,24.68c3.25-.43,7-2,7.47-5.17.56-3.64-3.71-6.36-7.45-6.4s-7.35,1.53-11.1,1.65c-6.71.2-11.5-5.19-17-8.14a20.55,20.55,0,0,0-13.86-1.91c-5.18,1.13-14.05,6-12,12.53.72,2.24,2.46,4,4.14,5.68,3.41,3.41,5.05,8.07,10.22,9.35,4.05,1,7.9-.69,11.28-2.74A30,30,0,0,1,216.83,25c2.37-.23,4,.45,6.27.76C226,26.16,229.52,25.37,232.33,24.68Z"/><path class="cls-2" d="M182.44,17.27c1.12.86,2.39,1.67,3.16,2.28,2.73,2.16,5.53,4.24,8.3,6.35a6.42,6.42,0,0,0,3.35,1.64c3,.16,8.45-2.75,10.47-4.75a6.41,6.41,0,0,0,2.06-5.68c-.62-2.9-5.18-8.09-7.65-9.78C198,4.51,191.7,5.64,187.34,7.22c-2.92,1-8.54,4.09-7,7.8A6.79,6.79,0,0,0,182.44,17.27Z"/><path class="cls-2" d="M229.66,22.47c8.3-.47,3.41-9.28-1.9-6.49-1.49.78-2.9,3-2.41,4.71C225.93,22.76,227.6,22.59,229.66,22.47Z"/><path class="cls-2" d="M323.56,33.66a22,22,0,0,0,3.63-.29c6.49-1.21,10.17-7.52,12.66-13a30.76,30.76,0,0,0,2.2-17.61A22.73,22.73,0,0,0,337.47-8.3a13.2,13.2,0,0,0-10.72-5c-4.46.31-9.28,3-11,7.15-.95,2.3-2.18,4.47-3.18,6.7-.9,2-1.46,4-2.83,5.77a23,23,0,0,1-10.14,7.28c-3.09,1.21-6.41,1.19-9.65,1.44-7.11.55-13.24-2-19.67-4.41-2.49-.95-8.1-4.32-10.73-2.66a5,5,0,0,0-2.08,3.63,22.79,22.79,0,0,0,.07,4.29,28.15,28.15,0,0,1-3.3,14.68,11.83,11.83,0,0,1-11.51,6.21,17.89,17.89,0,0,0-4.47-.47c-2,.27-3.55,1.68-5.33,2.53-3.62,1.72-7.88,1.09-11.9.84-4.83-.31-8.6,1.26-13,2.95-4.16,1.61-9,4.69-11.11,8.68-1.74,3.3-1.35,7.82,1.54,10.23,2,1.7,4.86,2.12,7.53,2.17a80.61,80.61,0,0,1,15.73,1.65c2.87.61,6,.83,8.81,1.8A47.85,47.85,0,0,1,238,70.33c1.88,1,3.45,2.4,5.81,2.22,3.38-.26,4.3-2.24,6.05-4.49a11.33,11.33,0,0,1,8.48-3.69c4.59.29,7.82,3.38,11.71,5.23,5,2.36,10.62-2.14,12.77-6.27,1.86-3.58,2.5-7.62,3.8-11.43.66-1.93,2.13-4.17,4.18-3.78,1.88.35,2.51,2.62,3,4.45a11,11,0,0,0,2.94,5.6l.49.42c5.62,4.57,7.87-4.06,8.8-8C307.5,44,309.5,35.7,317.32,34A30.18,30.18,0,0,1,323.56,33.66Z"/><path class="cls-1" d="M193,20.87a4.54,4.54,0,0,0,1.92.66c1.56,0,2.68-1.4,3.52-2.69a13.47,13.47,0,0,0,1.81-3.54,4.44,4.44,0,0,0-.52-3.81,5.84,5.84,0,0,0-3.88-1.88c-3.39-.52-12.07-.5-11.94,4.66C184,18.08,190.29,19.46,193,20.87Z"/><path class="cls-1" d="M233.87,75.4a3.19,3.19,0,0,0-1.09-2.57,6.47,6.47,0,0,0-4.45-1.25,28.88,28.88,0,0,1-4.74.08c-2.22-.31-4.18-1.54-6.21-2.48-3.46-1.59-9.21-1.53-7,3.77a33.85,33.85,0,0,0,2.22,3.7c1.49,2.59,2,5.58,2.86,8.42s2.28,5.75,4.89,7.24a7.71,7.71,0,0,0,10.25-3c1-2,1-4.56,1.32-6.86C232.19,80.52,233.87,77.73,233.87,75.4Z"/><path class="cls-3" d="M224.43,74.43c-1.83-.62-6.64-1.91-8.07-.19-2.19,2.63,2.86,6.93,3.31,9.64.2,1.22.09,2.64,1,3.51a2.82,2.82,0,0,0,3,.36C229.11,85.46,230.85,76.6,224.43,74.43Z"/><path class="cls-2" d="M221.92,81a3.31,3.31,0,0,0,3.42-.19c1.22-1.06.88-3.19-.37-4.22-.94-.78-5.64-1.84-6.53-.67C217.26,77.48,219.51,80,221.92,81Z"/><path class="cls-2" d="M212.66,84.82c3,6.62,7.86,13.34,15,11.45,3.48-.91,5.1-5.06,6.44-7.92,1.77-3.77,3.26-7.66,4.76-11.54a4.55,4.55,0,0,0,.37-1.39c.26-5.47-10.06-6.53-13.62-6.66-5-.19-9.62-4.56-14.77-2.67-5.36,2-2.14,7.52-1,11.2A63.75,63.75,0,0,0,212.66,84.82Z"/><path class="cls-2" d="M262.28,70a1,1,0,0,1,.25.75c-.11.43-.67.55-1.12.58-2,.14-10.36,2.16-8-2.08C255.3,65.9,260.47,67.41,262.28,70Z"/><path class="cls-1" d="M207.45,93.84c-3.35-5.15-4-11.38-8-16.34A20.34,20.34,0,0,0,181,70.19c-1.34.19-2.76.65-4,.13s-1.94-2-2.69-3.19c-1.65-2.58-5.81-3-8.51-3.9A45.08,45.08,0,0,1,156,58.78c-1.56-1-3.13-2.13-5-2.26-2.91-.18-5.22,2.19-7.49,4a23.42,23.42,0,0,1-11.13,4.82c-4.15.61-8.7.2-12.19,2.47-6.45,4.19-4.07,13,2.26,15.78,5.68,2.47,12.14,3,17.56,6.11,4.29,2.41,9.64,8.55,9.71,13.61,0,3.2-1.7,6.46-.61,9.46A7.49,7.49,0,0,0,154,117c3.2,1.06,7.47,1.57,10.68.55,3.63-1.16,7.06-3.42,11-3.19,6.4.38,7.61,6.91,11.83,10.11,2.83,2.15,6.88,2,10.27.85s6.46-3,9.85-4.18c4.82-1.61,10-1.54,15-2.45s10.24-3.2,12.41-7.72c.63-1.31.83-3.13-.36-4a4.42,4.42,0,0,0-3.08-.3C222.41,107.78,212.28,101.27,207.45,93.84Z"/><path class="cls-1" d="M208.85,154.13a22.54,22.54,0,0,0-3.69-.18,28.67,28.67,0,0,1-11.08-1.47c-4.42-1.67-8.32-5.17-9.46-9.68-1.17-4.67,1.33-10.88,6.6-11.56a48.76,48.76,0,0,0,5.67-.69c3.27-.83,6-3,9-4.56,4.16-2.11,8.88-2.85,13.51-3.51s9.36-1.28,13.6-3.21a17.35,17.35,0,0,0,8.08-7.19c1.94-3.44,1.47-6.41,2.41-10.12,1.39-5.51,6-9.33,10.75-12.16,5.48-3.28,10.78-5.68,17.22-3.25,2.83,1.06,5.43,2.67,8.25,3.77A14.72,14.72,0,0,0,291.55,90c3.12-1.49,6.86-6.89,10.39-6.57a4.25,4.25,0,0,1,3.79,5.16c-.67,2.41-3,4.28-5.06,5.52s-4.45,2.31-6.14,4.09c-4.26,4.46-1.44,15.07.28,20s3.5,9.81,7.6,13.15c2.6,2.13,5.57,3.88,7.76,6.42a8.13,8.13,0,0,1-1.79,12.14c-4.49,2.7-12.69,1.46-17.36,0-5.93-1.85-11-5.44-17.44-5.56-4.43-.08-9.84,1.81-12.84,5.09-3.36,3.69-4.66,9.66-6.82,14.06-1.3,2.66-4.66,9.86-8.8,7.25a15.72,15.72,0,0,1-3.17-3.24,17.84,17.84,0,0,0-18.87-4.73c-2,.71-4.25,1.73-5.94.54-2.16-1.52-1.09-4.83-2.86-6.79A9,9,0,0,0,208.85,154.13Z"/><path class="cls-1" d="M325.32-33.62c10.68-6.11-7.52-21.52-13-24.29a49.63,49.63,0,0,0-9.61-3.37c-7.87-2.15-15.59-5.79-23.22-8.64-3.75-1.4-8.08-2.78-11.61-.92-3,1.59-4.42,5.06-4.95,8.36C261.69-55,261.76-43,252.33-40.56c-5.11,1.33-8.83-2.71-11.23-6.59a27.83,27.83,0,0,0-3.8-5.47c-5.46-5.35-12.86.25-15.79,5.35s-4,11.71-1.68,17.11c1.55,3.65,6,6.39,9.7,4.76,3.48-1.53,5-5.6,8.09-7.7,3.74-2.55,8.75-.71,12,2,3,2.52,5.06,6,6.79,9.49C260.16-14,263.73-5,271.62-.74c4.22,2.3,10.89,4.34,15.74,3,4.42-1.24,8.56-5.84,10.84-9.57a47.74,47.74,0,0,0,2.22-5.11,35.23,35.23,0,0,1,7.33-10.22,48.51,48.51,0,0,1,15-9.74A27,27,0,0,0,325.32-33.62Z"/><path class="cls-1" d="M319.89,73.29A14.82,14.82,0,0,1,334.53,68c5,1.13,14,6.62,17.51,0,1.25-2.37.55-5.26-.44-7.74a27.87,27.87,0,0,0-2.81-5.42c-1.74-2.56-4-5.75-6.89-7.2-2.61-1.33-5.74-1.4-8.54-1.17-3.62.3-7.36.3-10.64,2.15a23,23,0,0,0-9,9.84,28.85,28.85,0,0,0-2.62,6.54c-.75,3.46-3,6.86-2.92,10.48A4,4,0,0,0,310.43,79a5.48,5.48,0,0,0,2.9.07c3.19-.58,4.22-2,5.76-4.59A9.63,9.63,0,0,1,319.89,73.29Z"/><path class="cls-1" d="M387.07,147.19a61.1,61.1,0,0,0,6.57-10.76A84.35,84.35,0,0,0,401,110.91c1.15-9-1-17.7-3.88-26.22-2-5.86-4.91-11.3-6.5-17.26-2.81-10.52-5.93-21.57-3.95-32.4,1.09-5.91,2.22-11.13-.92-16.79a16.78,16.78,0,0,0-4.92-5.55c-2.09-1.46-4-1.73-6.4-2.41a19.09,19.09,0,0,1-11-8.19,18.79,18.79,0,0,1-2.64-11.31c.22-2.82,1-7.86,3.55-9.57a6.88,6.88,0,0,1,5.3-.56A49.73,49.73,0,0,0,375-18a9.7,9.7,0,0,0,7.32-2.27A9,9,0,0,0,385.38-28c-.18-2.74-.22-5.84,1.81-8,2.26-2.41,6.25-2.49,9.31-1.18s5.46,3.73,7.94,5.92,5.32,4.27,8.63,4.68c7.77,1,14.32-6.46,15.1-13.47.85-7.65-4.86-14.39-6.74-21.54-1.38-5.26-1.31-11.14,1.55-15.78,2.27-3.69,6.32-6.87,6.09-11.17-.21-3.62-4.66-8.42-8.37-9-4.82-.79-10.89,2.46-14.42,5.37-4.77,3.94-7.26,9.71-10,15a69.54,69.54,0,0,1-8,12.18c-5.38,6.56-13.06,9.57-21.56,10.28q-1.79.15-3.57.15a46.08,46.08,0,0,1-13.68-1.77c-4.42-1.42-8.6-4.91-12.55-7.42a14.88,14.88,0,0,0-4.29-2.1c-3.18-.76-6.45.64-9.41,2s-4.35,3-2.73,5.86c1.43,2.58,3.87,4.47,5.69,6.76,2.72,3.43,4.15,7.84,7.44,10.76,2.93,2.61,6.91,3.65,10.52,5.25,6.29,2.79,9.34,8.53,11.06,14.8a113,113,0,0,1,3.21,39.24,41.7,41.7,0,0,1-3.19,13.79c-2.1,4.53-4.66,8.37-5,13.53-.34,5,1.34,9.54,3.82,13.8,1.83,3.14,4.13,6.13,5.23,9.63,1,3.15-.76,7-2.94,9.39-6.27,6.85-18.17,5.8-26.21,3.18-12.11-3.94-17,3.13-24.58,11.39-5.52,6-8.65,14.68-7.32,22.79a19.44,19.44,0,0,0,5.39,10.7c4.36,4.33,9.54,4.27,14.95,6.28,5.69,2.12,10.69,6,15.06,10.06s8.32,8.4,13.12,11.85a30,30,0,0,0,11.11,5.2c6.57,1.41,14.75-1.61,20.27-5A34.24,34.24,0,0,0,387.07,147.19Z"/><path class="cls-1" d="M75.37,45.19a51.6,51.6,0,0,0,5.91,4.21A138.8,138.8,0,0,0,94,56.52a77.1,77.1,0,0,0,23,6.64c6.6.89,14.23.84,20-3,6.73-4.49,7.2-13.88,7.58-21.13.4-7.62-.47-16.07-5.85-22-3.15-3.49-8.08-5.52-11.83-8.33-7.43-5.57-11.44-12.83-15.12-21-3-6.73-8.2-9.68-15-12.18a9.94,9.94,0,0,0-4.72-.89c-2.13.32-3.76,1.95-5.53,3.16a15.75,15.75,0,0,1-15.74.94c-2.42-1.25-4.76-3.22-7.49-2.94-3.09.33-5.06,3.43-5.89,6.36s-1,6.14-2.78,8.66C52.81-6.6,49.42-5,48.27-2c-1,2.66,0,5.6,1.15,8.23A151.22,151.22,0,0,0,56.09,20C61.26,29.4,67.11,38.39,75.37,45.19Z"/><path class="cls-2" d="M107.88,97.11A115.45,115.45,0,0,1,116,110.64c2.55,5.18,3.49,11.81-.09,16.37-2.36,3-7.83,6-11.75,6-7.65,0-10.33-6.66-15.48-10.84-3-2.41-6.89-4.68-10.83-3.8-1.67.37-3.27,1-4.72,0s-2.32-3.45-2.91-4.93c-1.48-3.7-2-7.7-2.69-11.59C65.75,91.92,62.05,82.49,58.73,73c-1.51-4.35-3.58-9-3.87-13.63-.26-3.93-1.84-7.19-2.55-11a13.84,13.84,0,0,1,1.52-9.9C56,35,59,32.64,57.82,28.33a32.66,32.66,0,0,0-6-11.34A113,113,0,0,0,40.72,5.29c-2.08-2-4.18-4.12-5.22-6.79S34.78-7.56,37-9.4c2.48-2.06,6.22-1.52,9.26-2.66a11,11,0,0,0,5.91-6A25.46,25.46,0,0,0,54-26.3c.16-1.68.37-3.57,1.74-4.6a4.27,4.27,0,0,1,3.92-.34,14.86,14.86,0,0,1,3.5,2.1c4,2.85,8.61,5.13,13.55,5.55S87-24.87,90-28.72c1.12-1.43,2.33-3.34,4.17-3.16,2,.2,2.71,2.65,3.87,4.28,1.75,2.47,5,3.27,7.88,4.35,5.53,2.09,6.4,6.9,8.51,11.75a61.59,61.59,0,0,0,9.22,14.89c3.44,4.1,8.9,5.47,13.27,8.48,5.75,4,7.79,8.64,9,15.29A68.86,68.86,0,0,1,146.13,46c-.48,4.95-.8,9.82-5,13.26-3.17,2.6-7.29,3.8-11.37,4.44-2.51.4-5.06.6-7.6.89-1.57.17-3.13.37-4.67.68a10.17,10.17,0,0,0-5.09,2.77c-2,1.91-1.4,6.2-4.56,6.81-1.1.21-2.26,0-3.35.3-2.14.51-3.53,2.68-3.8,4.82-.73,5.85,3.11,11.19,6.25,15.77Q107.42,96.42,107.88,97.11Z"/><path class="cls-2" d="M318.67-41.08a4.9,4.9,0,0,0-.07-3c-1.31-4-6.19-7.28-9.76-9.14-4.43-2.3-9.3-3.63-14-5.28a48.43,48.43,0,0,1-8.5-3.74c-2.3-1.36-3.76-2.67-6.4-3.2-4.54-.9-9.52-1.38-11.86,3.47-1.27,2.62-.83,5.67-.88,8.57a24.63,24.63,0,0,1-3.11,11.53c-1.67,3-5.1,4.81-6.12,8.09a9.61,9.61,0,0,0-.34,1.65c-.4,3.48.75,6.93,2.11,10.16a75.83,75.83,0,0,0,6.14,11.66c2.61,4.07,6.69,7.18,11.88,7,5-.19,8.88-5.15,12.35-8.11,4.36-3.71,4.7-8.42,6.27-13.69,1.2-4,3.38-8.14,7.29-9.81,2.63-1.13,5.63-1,8.46-1.44S317.87-38.53,318.67-41.08Z"/><path class="cls-2" d="M304.15,143a9,9,0,0,0,0-5.18c-1.24-3.93-4.93-6.51-7.67-9.63-1.86-2.11-2.88-4.72-4.64-6.87-1.13-1.38-2.55-2.38-3.51-3.91a19.71,19.71,0,0,1-2.2-14.92c.54-2.17,1.27-4.89-.51-6.27-1.15-.9-2.79-.69-4.27-.72-4.86-.06-9.18-3-13.94-4A17.36,17.36,0,0,0,251,97.3c-5.1,6.21-5.46,14.69-11.77,20.32-3.76,3.36-8.69,5.16-13.61,6.41s-10,2-14.79,3.67c-5.76,2-10.28,6-16.42,7.54a7.43,7.43,0,0,0-3.5,1.47,4.84,4.84,0,0,0-1.27,3.3c-.4,7.82,7.22,9.77,13.65,9.89,6.18.11,12.51-.4,15.56,6,.73,1.54,1.18,3.35,2.58,4.36,1.89,1.36,4.51.63,6.83.34a16.55,16.55,0,0,1,10.4,2.12c2,1.14,3.92,2.76,6.18,2.51,2.93-.33,4.44-3.47,5.79-6a32.17,32.17,0,0,1,6.8-8.78c2.48-2.26,5.38-5.29,8.65-6.32a25.21,25.21,0,0,1,18.12,1.17c3.37,1.6,6.52,4,10.26,4.31a9.6,9.6,0,0,0,8-3.4A9.14,9.14,0,0,0,304.15,143Z"/><path class="cls-2" d="M113.25,72a8.14,8.14,0,0,0-.3,5.12,12.24,12.24,0,0,0,6.63,7.69c3.71,1.83,8,1.9,11.94,3.17,4.51,1.46,8.47,2.9,11.61,6.62a17.86,17.86,0,0,1,4,8.44c.41,2.44-.64,4.24-.75,6.57-.32,6.28,6.71,10.31,12.27,10.65a27.43,27.43,0,0,0,11-2c1.93-.71,3.93-1.55,6-1.25,4.83.72,7.4,6.06,10.78,8.92,4.25,3.61,10.25,1.44,14.87-.65a51.46,51.46,0,0,1,13.85-4.3c5.81-.89,11.8-1.6,17.06-4.36,3-1.56,5.63-4.09,6.52-7.29s-.4-5.82-3.93-5.31A31.21,31.21,0,0,1,218.14,102c-4.28-1.85-7.89-6.23-10.31-10s-3-8-5.19-11.89a20.7,20.7,0,0,0-10.3-9.41,29.84,29.84,0,0,0-7.46-2.17c-2-.34-5.17-.3-6.91-1.31-1.41-.81-2.38-2.2-3.83-3A42.69,42.69,0,0,0,168.81,62c-4.54-1.7-9.22-3.28-13.11-6.14-1.49-1.1-3.09-2.75-5-2.62s-3.91,1.87-5.14,3.13a55.23,55.23,0,0,1-4.26,4.52c-2.67,2.19-6.17,3.14-9.61,3.63s-6.94.61-10.32,1.4C117.71,66.78,114.51,68.93,113.25,72Z"/><path class="cls-2" d="M355.67,1.15c.52,6.68,1.22,13.47.49,20.15a39.41,39.41,0,0,1-3.31,12.51,22.23,22.23,0,0,1-3.62,5.54c-1.22,1.34-2.63,3.52-4.2,4.39-1.39.78-3.73.5-5.33.69a12.79,12.79,0,0,1-5.79-.63c-3.92-1.39-8.12-3.1-12.35-2.14a13,13,0,0,0-7.35,5.21c-1.64,2.24-2.51,4.74-3.65,7.22-1,2.24-1.11,4.44-1.37,6.89l0,.22a34.76,34.76,0,0,1-2,8.47c-.95,2.52-2.92,4.37-3.31,7.11a5,5,0,0,1-.47,1.88c-.62,1-1.91,1.23-2.88,1.77a23.54,23.54,0,0,0-2.86,2.09,27.12,27.12,0,0,1-7.74,4.57c-4.4,1.52-9.31,1.09-13.75-.32s-8.24-4.53-12.6-5.88c-3.92-1.2-8.42-1.37-12.5-1.38-1.93,0-4,.19-5.44,1.48-2,1.85-1.7,5-2,7.66a15.78,15.78,0,0,1-6,10.76c-3.62,2.83-7.23,3.64-11.9,3-7.31-1-12.28-4.7-16.13-10.71-1.94-3-2.47-6.24-3.83-9.39a25.57,25.57,0,0,0-14.14-13.27c-3-1.08-5.87-1.67-8.79-2.88Q177.54,64,172.18,62c-4.43-1.66-9.55-3.36-14-5.79a27.51,27.51,0,0,1-5-3.45c-2.89-2.57-5-6.4-4.9-10.31s4-7.07,6.36-9.93c4.17-5.09,5.67-10.5,2.56-16.53-4.48-8.67-13.82-9.77-22.48-11.85A29,29,0,0,1,124.28-.77a26.25,26.25,0,0,1-6.14-7.52c-3.59-5.91-5.19-13.28-3.58-20,3-12.45,15.05-21.77,27.13-25.07,4-1.09,6.87-.72,10,2.11,1.55,1.41,2.89,3,4.56,4.3a19.73,19.73,0,0,0,15.57,3.87c4.82-.83,9.27-3.08,13.43-5.62s8.6-5,13-7.42c3-1.69,7.94-6.2,11.53-3.85a8.92,8.92,0,0,1,3.16,4.5c1.94,5.14,1,11.6,1,17,0,6-1,12.31-.77,18.33.18,4,2.91,6.94,7.11,6.52,2.56-.27,4.69-1.92,6.87-3.25C231.52-19.58,237.3-23,242.66-23c4.15,0,8.87,1.72,11.14,5.2,2.59,4,4.53,7.93,7.79,11.49A49.24,49.24,0,0,0,282.2,7.12C288.57,9.25,298,8.92,302,2.84c3.9-5.81,0-12.59,2.89-18.8,1.5-3.26,4.33-5.72,7.17-8A63.14,63.14,0,0,1,323-31.06c3.41-1.71,8.35-3.84,12.3-3.18C350-31.8,354.7-11.51,355.61.4Z"/><path class="cls-2" d="M288.71,5.21c4.69.06,9.23-2.12,10.79-6.59.68-1.95,1.42-3,1.55-5.07a20.62,20.62,0,0,1,1.12-5.49,26.88,26.88,0,0,1,6-9.65c4.51-4.77,10.37-8.09,16.38-10.84,1.48-.67,3.72-1.4,4.72-2.74,1.12-1.5.54-4.22,0-5.84-1.42-4.33-4.06-6.69-6.73-10.12a32.86,32.86,0,0,0-9.12-8.54c-1.8-1.06-3.75-2.17-5.63-3-5.17-2.41-11.43-3.58-16.89-5.28-5.1-1.59-9.4-5-14.72-6-4-.76-8.41-.1-11.31,2.64-4,3.74-3.86,9.67-4.84,14.6-1,5.12-3.81,10.76-9,12.89-5.45,2.24-9.2-5.3-11.8-8.85-2-2.71-6.26-4.13-9.62-3.46-5.23,1-10.72,4.66-12.71,9.66-2.44,6.1-2.08,13.62-1.8,20.05.1,2.2.56,4.53,2.12,6.11,2.71,2.73,7.44,2,10.83.11s6.28-4.68,10-5.8a15,15,0,0,1,17.42,6c2.47,3.59,4,7.74,6.36,11.38C267.46,0,278.38,5.08,288.71,5.21Z"/><path class="cls-2" d="M404,104.05a60.43,60.43,0,0,0-2.78-15.46c-1.86-5.81-4.42-11.11-6.22-16.93a184.49,184.49,0,0,1-5.35-19.81,42.13,42.13,0,0,1,.84-19.46c2.41-9.51-3.11-18.82-12.35-22.32-3.07-1.16-6.45-1.65-9.17-3.46-6.48-4.3-10.91-19.44-1-22.78,2.49-.84,5.2.08,7.82.25a13.56,13.56,0,0,0,9.78-3.38c.18-.16.35-.33.52-.5a13,13,0,0,0,3.74-8.77c0-1.77-.24-3.77.94-5.11s3.32-1.39,5.07-.91c5.1,1.37,8.69,5.85,13.47,8.07a16.61,16.61,0,0,0,14.4-.33c4.41-2.29,8.3-7.3,8.47-12.32.42-11.54-9.41-20.75-7.63-32.39a23,23,0,0,1,3.36-8.89c1.56-2.45,3.65-3.69,3.76-6.7.18-4.81-2.59-10.08-7.39-11.76-10.59-3.69-19.36,3.79-24.6,12.15-2.73,4.35-4.84,9.08-7.75,13.32-9.11,13.27-25.05,21-41,15.2a49.16,49.16,0,0,1-12-6.59c-2.45-1.79-6.89-7.33-10.36-6.46a5.6,5.6,0,0,0-2.47,2,13.9,13.9,0,0,1-3.38,2.71c-2.2,1.27-5.58,1.14-5.6,4.4a7.25,7.25,0,0,0,1.5,4c1.73,2.54,4.06,4.56,5.94,7,3.63,4.62,5.09,11.82,10.78,14.44,3.85,1.78,8.34,2,11.48,5,3.56,3.41,5.34,8.24,6.69,12.83C356.24-9.85,357.11.4,357.31,10c.11,5,.23,10.3-.66,15.34-.95,5.39-3.43,9.23-6.27,13.83-3.29,5.34-1.71,12.32.83,17.63,2.43,5.08,6.78,12.18,3.43,17.8-2,3.32-6,5.06-9.85,5.45-7.92.8-17.45-4.32-24.85-.1-2,1.16-3.9,2.66-6.15,3.32a9.65,9.65,0,0,0-3.5,1.26c-1.08.87-1.42,2.32-1.85,3.63-1.53,4.77-6.37,5.91-9,9.64a21.81,21.81,0,0,0-3.74,14.67c.7,6.66,4.87,15.53,11,19,2.4,1.36,5.17,1.89,7.82,2.65a28.24,28.24,0,0,1,14.73,10.05,55.64,55.64,0,0,0,17.79,15.29c3.25,1.78,6.62,3.66,10.34,3.78h.72a41.37,41.37,0,0,0,23.15-6.56c7.78-5.12,11.08-12.11,15.29-19.94a63,63,0,0,0,6.57-19A62.24,62.24,0,0,0,404,104.05Z"/><path class="cls-2" d="M131.06,55.35c6.29-5.22,6.82-15.81,5.74-23.28a35.18,35.18,0,0,0-11.21-21c-4.79-4.32-10.23-8.14-13.67-13.56-2.48-3.89-4.47-8.62-7.66-12C100-19,95-17.7,91.33-13.35c-1.63,1.92-3.33,4-5.79,4.68-3.06.8-6.16-1-8.77-2.72S71.2-15,68.07-14.53c-2.52.41-4.47,2.31-6.25,4.1-2.73,2.76-5.52,5.61-7,9.17C52.79,3.77,54.48,10,55.93,15a54.91,54.91,0,0,0,7.91,16.4,55.07,55.07,0,0,0,8.32,9.28,57,57,0,0,0,11.93,8.15c5.7,2.9,11.89,6.09,18.21,7.43C111.42,58.22,123.05,62,131.06,55.35Z"/><path class="cls-1" d="M71.45,105.31c.57,2.67,1,5.33,1.5,8,.64,3.55,3.5,2.22,6.38,1.83,3.3-.45,6.57,1,9.35,2.76s5.3,4,8.29,5.44,6.67,2,9.58.42c3.74-2,4.85-7,4.1-11.11-.64-3.58-2.41-6.74-3.51-10.17-1.32-4.09-3.39-6.68-5.69-10.23-1.8-2.78-4-6.36-4.73-9.62-.62-2.82-1-5-4.39-5.94-2.5-.74-5.19-.29-7.74.25s-5.17,1.14-7.74.69a9.61,9.61,0,0,1-6.83-5,9.28,9.28,0,0,1,0-8.34c1.22-2.38,3.47-4.24,4.21-6.81.78-2.76-.44-5.78-2.46-7.86S67.4,47,65.32,45.38C63.7,44.14,62.29,42,60,42.1c-2,.1-3.08,2.34-3.41,4.28-1,5.67.76,11.28,2.57,16.61S62.31,73.55,64,78.84q3.84,11.79,6.82,23.83Q71.18,104,71.45,105.31Z"/><path class="cls-2" d="M95.54,117.53a9.64,9.64,0,0,0,1.42,1,4.12,4.12,0,0,0,3.69.44,4.74,4.74,0,0,0,2.16-2.64c1.45-3.46,1.23-7.35.8-11-.47-4-3.58-7.18-5.66-10.51s-4.33-6.78-6.57-10.12c-1.16-1.75-3-3.73-5-3C82.72,83,84.72,89.12,80,89.26c-1.52,0-3.08-.41-4.54,0-4.26,1.25-3.33,6.63-2.66,9.87.83,4,1,10.61,5.58,12.21,2.22.78,4.65.62,7,.94A17.08,17.08,0,0,1,94,116.15C94.51,116.6,95,117.08,95.54,117.53Z"/><path class="cls-3" d="M165.37,138.06a5.11,5.11,0,0,0-.29-1.65c-.69-1.87-3.06-2.71-5.05-2.36a19.24,19.24,0,0,0-8.4,4.41c-1.4,1.48-2.64,3.17-4.38,4.24-4.18,2.57-10.12.53-12.93-3.43s-3.06-9.21-2.16-14,2.58-8.63,2-13.48a11.58,11.58,0,0,0-2.6-6.31c-1.41-1.57-3.81-2.63-5.69-1.63a4.31,4.31,0,0,0-2,4.05c.15,2.81,1.77,5.56,2.3,8.34a18.9,18.9,0,0,1-.16,8.2c-2.74,10.72-15.8,10.93-23.83,15.41-5,2.8-8.87,7.69-8.5,13.46.43,6.84,3.76,13.17,7,19.12,1.73,3.25,3,5.19,6.92,4.68,4.21-.54,5.93-2.91,8.87-5.31,3.42-2.79,9-4.32,13-6,6.95-2.79,14-5.42,20.39-9.29a42.5,42.5,0,0,0,10.92-9.23C162.6,145.14,165.42,141.37,165.37,138.06Z"/><path class="cls-2" d="M131.48,151c.33-.13.64-.27.94-.4a23.49,23.49,0,0,1,6.5-2.27c2-.25,4.35.31,5.07,2.12s-.7,3.88-2.25,5.21c-4.54,3.87-10.38,5.68-15.78,8.06s-10.35,6-15.29,9.3c-1.38.92-2.92,1.88-4.59,1.73-2.14-.2-3.63-2.15-4.67-4-3.62-6.48-7.79-18.88-2.66-25.6,1.71-2.22,4.47-3.38,7.09-4.43,4.75-1.91,9.36-3.06,14.56-2.59,1.41.12,3.15.69,3.27,2.08.29,3.6-8.12,5.43-4.27,9.83C122.48,153.57,127.64,152.57,131.48,151Z"/><path class="cls-2" d="M202,92.72a29.78,29.78,0,0,1-2.35-7.57c-.55-2.71-2.75-5.09-4.73-7-3.43-3.27-9.86-6.1-13.81-2-.75.76-1.31,1.7-2.06,2.47a3.53,3.53,0,0,1-2.87,1.23,3.43,3.43,0,0,1-2.55-3c-.24-1.38,0-2.79-.15-4.17-.64-5.89-6.87-7.58-11.81-8.86-6.07-1.57-12.7-1.77-18.48.62-4.31,1.78-8.75,4.35-13.47,4.81-2,.19-4.15.35-5.68,1.62a5.45,5.45,0,0,0-1.23,6.3c2.22,4.95,7.41,4,11.53,5.9a35.13,35.13,0,0,1,11.54,8.51c4.08,4.77,7.44,11.06,11.32,14.79,4.83,4.64,11.6,4.57,17.83,3.37,6.07-1.17,11.74-3.8,17.22.73,1.91,1.58,3.42,3.79,5.79,4.57,3.85,1.26,7.74-1.84,11.79-2.19a30,30,0,0,1,5.88.52c2,.21,4.11.1,5.67-1.09s2.11-3.76.65-5.06a5.29,5.29,0,0,0-1.78-.92c-4.44-1.64-10.86-2.68-13.85-6.51A41.16,41.16,0,0,1,202,92.72Z"/><path class="cls-2" d="M146.74,86.2c-2-2.47-4.49-5-7.63-5.88-2.76-.82-6.45-1.56-7.65-4.55-1.27-3.16,2.64-4.69,5-5.62,2.57-1,5-2.32,7.52-3.4,5.26-2.26,11.39-1.64,16.83.15a18.21,18.21,0,0,1,6.8,3.65,8.37,8.37,0,0,1,2.88,6.83c-.29,2.5-2,4.6-3.74,6.42s-3.69,3.6-4.66,5.92a7.32,7.32,0,0,0,2.48,8.39c2.91,2.19,7,1.2,9.84-.59a16.67,16.67,0,0,0,7-9.18c.7-2.36.87-4.87,1.81-7.15s3-4.39,5.52-4.34c3.15.06,5.16,3.28,6.24,6.18a46.94,46.94,0,0,1,2.56,10.17c.39,2.9.41,6.15-1.5,8.41-1.65,2-4.4,2.71-7,2.82s-5.2-.3-7.79-.14c-4.2.26-8.26,2-12.46,1.76-5.16-.32-9.66-3.64-13-7.51S150,90.15,146.74,86.2Z"/><path class="cls-2" d="M264.07,124.81c-.49-.33-1-.66-1.43-1a26.82,26.82,0,0,0-6.49-3.94c-2.4-.85-5.3-.82-7.28.76a7.78,7.78,0,0,0-2.53,5.91c-.08,2.2.36,4.39.48,6.59.21,4.19-1.27,9-5.21,10.68-3,1.26-6.48.31-9.31-1.24-5.36-2.92-10.19-7.69-16.79-6.83-1.46.19-3.07.79-3.57,2.15a3.18,3.18,0,0,0,.67,3,11.69,11.69,0,0,0,2.45,2.08,38,38,0,0,1,8.45,8.39,9,9,0,0,0,2.31,2.53c2.55,1.63,6.78.08,9.57.09s5.71,1.7,8.43.72a8.83,8.83,0,0,0,3.25-2.58c3.07-3.36,6.34-6.61,9.54-9.84,3-3,6.47-5.78,10.75-6.68,5.52-1.16,11.34,1,16.86-.14a6.87,6.87,0,0,0,3.3-1.46,3.27,3.27,0,0,0,1.07-3.24c-.42-1.39-1.92-2.15-3.33-2.62a22.23,22.23,0,0,0-8.1-1.12c-2.59.13-5.21.71-7.76.22A14.42,14.42,0,0,1,264.07,124.81Z"/><path class="cls-2" d="M339.09,75c-1.25-.27-2.48-.58-3.73-.84a16.35,16.35,0,0,0-8.39,0c-2.84.93-5.06,3.08-7.48,4.82-3.12,2.23-9.14,4.41-12.42,1.32-2.73-2.56-1-6.75.39-9.52,2.82-5.52,2.87-11.66,5.65-17.25a14.9,14.9,0,0,1,7.29-7.33c3.41-1.42,7.17-1.26,10.79-1.1s7.12-.38,10.58.75c2.76.91,4.07,3.12,5.62,5.38a44.56,44.56,0,0,1,4.33,7.55c1.39,3.23,3.26,9,1.4,12.35-1.65,3-6.17,4.68-9.42,4.56A25.61,25.61,0,0,1,339.09,75Z"/><path class="cls-1" d="M274.27-36.71A7.53,7.53,0,0,0,279-34.85c2.49.08,4.86-1,7-2.26a30.46,30.46,0,0,0,6.44-4.61c1.54-1.48,3.58-2.38,5-4s1.94-3.87.85-5.57c-1.34-2.07-4.28-2.22-6.77-2.49a27.67,27.67,0,0,1-10-3,17.79,17.79,0,0,0-3.92-1.79,4.28,4.28,0,0,0-4,.86,5.85,5.85,0,0,0-1.19,3.8q-.25,4-.53,8a17.51,17.51,0,0,0,.29,6A6.82,6.82,0,0,0,274.27-36.71Z"/><path class="cls-2" d="M236.87-45a9.07,9.07,0,0,1-1.64,4.63q-1.83,3.13-3.64,6.28a7.38,7.38,0,0,1-2.28,2.75,4.63,4.63,0,0,1-5.52-1c-4.56-4.78-.61-13.83,3.51-17.49a7.07,7.07,0,0,1,3.77-1.94C233.9-52,236.79-47.49,236.87-45Z"/><path class="cls-1" d="M62.61,22.74a46.69,46.69,0,0,0,5.27,9.66A38.82,38.82,0,0,0,87.21,46.82c6.49,2.09,13.4,3.15,20,.94,11.45-3.82,23-16.89,16.4-29A42.75,42.75,0,0,0,105.59,1.14c-1.55-.8-3.45-1.5-5-.69a4.15,4.15,0,0,0-1.95,3.24,29.89,29.89,0,0,0,0,3.9,12.61,12.61,0,0,1-5.55,10.53,11.42,11.42,0,0,1-11.92.29c-4.19-2.6-5.89-7.73-6.64-12.53C74,2.23,73.49-2,70.25-3.9,67.22-5.66,63-4.19,61-1.38c-3.7,5.07-2.22,10.73-.82,16.47A54.46,54.46,0,0,0,62.61,22.74Z"/><path class="cls-2" d="M215.24,167.84a3.28,3.28,0,0,0,3.12,0,16,16,0,0,0,2.7-1.79,15.35,15.35,0,0,1,11.2-2.54,15.13,15.13,0,0,1,6.16,2.54,14.89,14.89,0,0,1,3.55,3.49c1.13,1.59,2.06,3.51,3.86,4.31,5.31,2.39,9.19-5.22,10.63-9.07,1.88-5,2.18-11.05,6.16-15.1,3.23-3.28,8.31-4.31,12.92-3.68,7.21,1,13.62,5.08,20.86,6.35,5.44.95,11.1,1.68,16.64,1a16.24,16.24,0,0,0,7.44-2.44c5.09-3.62,4.43-9.48-.52-12.55-4.27-2.64-9.54-3.3-13.73-6.08-6.46-4.29-9.76-11.92-11.32-19.4-1-4.89-1.29-10.4,1.74-14.4,1.64-2.17,4.06-3.62,6.25-5.26s4.29-3.71,4.82-6.36a4.77,4.77,0,0,0-6.35-5.6c-3.5,1.12-5.81,4-8.76,6a14.46,14.46,0,0,1-10.13,2.13,35.2,35.2,0,0,1-11.73-4c-3.43-1.85-7.58-1.32-11.23-.16-5.61,1.79-13.14,5.49-16.22,10.69a14.23,14.23,0,0,0-2,6.6c.05,3.68,0,6.51-2.18,9.71-7.2,10.44-23.57,7.79-34.15,12.62-4.34,2-8.45,5.14-13.24,5-1.54,0-3.07-.43-4.61-.33-6.47.42-4.6,9.72-3.47,13.62a16.85,16.85,0,0,0,15.75,12.22c2.2,0,4.37-.37,6.56-.47a10.76,10.76,0,0,1,6.33,1.31c2.18,1.4,2.61,3.37,2.24,5.67C214.25,163.8,213.26,166.5,215.24,167.84Z"/><path class="cls-2" d="M144.17,106.85c0-3.12.49-6.32-.74-9.17C139.68,89,127,90,119.71,87c-3.29-1.37-6.75-4.43-9.21-7-1.86-1.91-3.78-5-6.9-2.74a5.84,5.84,0,0,0-2,5.79c1,5.94,5.54,10.4,8.91,15.16,1.68,2.36,2.81,4.9,4.44,7.32a32.64,32.64,0,0,1,4.71,9.49c1.34,4.87.64,10.6-3.07,14.1-5.09,4.81-13,3.92-19,6.92-7,3.48-10.14,10.56-9.65,18.08.36,5.69,2.84,10.79,4.36,16.16,1.67,5.91,4.59,11.62,6.7,17.41.74,2,1.62,4.21,3.52,5.28,2.34,1.32,5.42.39,7.42-1.37s3.24-4.18,4.65-6.43a42.31,42.31,0,0,1,14.6-14c7.84-4.53,16.57-7.21,25-10.43,3.77-1.44,7.74-2.88,11.38-4.55,3.79-1.74,7.4-6,9.94-9.14a25.26,25.26,0,0,0,5.85-14.74c.14-4.27-.43-9.92-5-11.82-3.79-1.57-7.17-.28-10.91.47a21,21,0,0,1-11.55-.7c-4.84-1.81-8.87-6-9.64-11.07A17.67,17.67,0,0,1,144.17,106.85Z"/><path class="cls-2" d="M382.74,27.77A10.68,10.68,0,0,0,374,21.62c-4.82-.36-9.52,2.79-11.59,7-1.93,3.89-2.16,8.38-1.89,12.69.32,5.25.58,10.45.81,15.68.25,5.61,1.77,11.72.36,17.26A15.38,15.38,0,0,1,351.78,85,21,21,0,0,1,344,86.08c-1.2,0-2.47.09-3.66,0-3.29-.38-6.77-1-10-1.38a23.33,23.33,0,0,0-10.94,1c-10.89,3.85-17.63,17-13.57,27.79a19,19,0,0,0,10.95,10.88c4.47,1.69,9.41,1.67,14,2.94a33.74,33.74,0,0,1,13.36,7.8c4.86,4.41,9.55,13.85,17.18,13.88,4,0,7.19-3.24,9.72-6.31,3.66-4.43,7.3-9,10.81-13.51a63.91,63.91,0,0,0,8.31-14.24c2.81-6.67,6.26-16.41,4.5-23.64-1.31-5.4-4.45-10.51-6.36-15.77A138,138,0,0,1,383.47,59c-.69-3-.55-5.87-.64-8.88a47.47,47.47,0,0,1,.31-9.07,36.61,36.61,0,0,0,.76-9.2A11.63,11.63,0,0,0,382.74,27.77Z"/><path class="cls-1" d="M380.5,50.12c.41-3.36,1.21-6.68,1.54-10.06.62-6.26-1.13-14.87-8.64-16.28-5.48-1-9.67,5.79-10.77,10.1a30,30,0,0,0-.49,11.64c.54,3.32.78,6.65,1.16,10,.83,7.45,1.93,14.57-1.34,21.72a16.38,16.38,0,0,1-8.5,8.54c-5.92,2.36-13.52.75-19.66.18-3.45-.33-7.14-1.31-10.59-.63a17.51,17.51,0,0,0-9.08,5.34c-6.46,6.8-8.46,14.88-2.81,22.85,4.21,5.94,13.24,7.6,19.94,9.41,4.94,1.34,10.05,3.07,13.5,6.78,3.91,4.2,5.54,10.75,10.87,13,5.52,2.32,11.7-1.42,15.95-5.58a72.7,72.7,0,0,0,13.17-18.23c3.5-6.68,6-13.26,6-20.91s-2.89-14.74-5.4-21.91C382.43,67.85,379.42,58.9,380.5,50.12Z"/><path class="cls-2" d="M353.59-33.43a31,31,0,0,1,3.29,7.86c.43,1.62,1.12,3.64,2.82,3.79a5.09,5.09,0,0,0,2.51-.8c5.28-2.42,12.88,3.19,17.48-1.44,4.31-4.34.37-12.72,5.3-17.36,4.13-3.89,10.92-1.64,16,.94s11.59,5.2,16.1,1.74c4.26-3.26,3.62-9.77,1.58-14.67s-5.12-9.81-4.43-15.05c.31-2.33,1.36-4.51,1.78-6.83s0-5-1.91-6.41c-2.52-1.78-6.26-.27-8.09,2.19-1.57,2.12-1.83,4.64-3,6.92a51.3,51.3,0,0,1-3.19,5.69A29.27,29.27,0,0,1,389-57.55C382.9-54.42,376.06-53,369.27-52a52.22,52.22,0,0,1-23.95-2.33,12.17,12.17,0,0,0-3.13-.78,3.63,3.63,0,0,0-2.94,1c-1.05,1.2-.74,3-.23,4.52s.41,3.43,1.13,4.62,3.05,2.29,4.39,3a19,19,0,0,1,7.8,6.58C352.78-34.75,353.2-34.1,353.59-33.43Z"/><path class="cls-1" d="M379.79-37.42c-.24,3.12.87,6.39-.26,9.29-.91,2.35-3.52,3.73-6.07,4-2.4.24-4.42-.71-6.73-.87-1.73-.11-3.36.79-5.16.16-2.77-.95-3.78-4.18-4.68-6.91a44.94,44.94,0,0,0-4.08-8.89,8.77,8.77,0,0,1-1.53-3.54c-.48-4.81,6.46-4.29,9.44-4,7,.66,14.38.52,21.19-1.52,7.28-2.19,13-6.6,18.81-11.2a5.38,5.38,0,0,1,2.12-1.19,4.22,4.22,0,0,1,3,.79A8.69,8.69,0,0,1,409-50.9,8.86,8.86,0,0,1,403-46c-5.29,1.31-10.32-3-15.84-1.2-3.49,1.16-5.95,4.37-7,7.82A7.93,7.93,0,0,0,379.79-37.42Z"/><path class="cls-3" d="M375.58,101.8c2.64,2.71,2.64,7,1.93,10.67-1.66,8.57-4.66,17.92-11.84,23.59-2.32,1.83-5.27,3.34-8.19,2.71-3.77-.82-5.8-4.7-7.92-7.87a35.25,35.25,0,0,0-12.74-11.19c-4.08-2.23-9.69-4.18-11.43-8.85-.56-1.5-.6-3.37.52-4.53a6.1,6.1,0,0,1,3.84-1.35c8.63-1,17.61-1.14,25.87-4.08C361,99,371,97.08,375.58,101.8Z"/><path class="cls-1" d="M367.89,115.53c-3.27-5-10.85-9.34-16.71-7.2-1.47.53-2.1,1.52-3.28,2.33s-2.71.94-3.63,2.26a4,4,0,0,0-.31,4c.86,1.79,2.87,2.68,4.59,3.71a19.42,19.42,0,0,1,6.18,5.85c1.43,2.13,2.58,4.68,4.93,5.76a6.35,6.35,0,0,0,6-.59,9.45,9.45,0,0,0,3.64-4.87,12.89,12.89,0,0,0-1-10.64C368.14,115.93,368,115.73,367.89,115.53Z"/><path class="cls-1" d="M167.63,2.69c-2.29,1.64-4.77,2.1-7.51,2.42-1.45.17-4.18.1-2.73,1.9.52.64,1.83.7,2.52,1.18a6.55,6.55,0,0,1,2,2.51c1,1.94,1.38,4.24,3,5.89,2.53,2.64,4.6,1.12,5.29-2.15a49.11,49.11,0,0,1,3.08-9.56c.51-1.15,4.06-6.13,3.54-6.81C175.2-4,168.82,1.85,167.63,2.69Z"/><path class="cls-3" d="M167,25.41a13.25,13.25,0,0,1-2.91,10.92c-1.14,1.36-2.51,2.53-3.58,3.93-2.32,3-2.27,6.65,1.63,7.58,3.63.87,5.82,3,8.36,5.37a34.15,34.15,0,0,0,14.18,8c2,.56,6.56,1.86,8.51.58,1.7-1.13.45-5.12.41-7,0-.86-.11-1.86-.85-2.3a2,2,0,0,0-2.28.46c-.61.56-1,1.3-1.6,1.88-2,2-5.57,1.55-7.6-.37-3.09-2.94-2.11-6.8-2.86-10.47a61.65,61.65,0,0,0-3.9-11.88c-1-2.45-2.75-5-3.43-7.55-.38-1.46-.31-4.18-2.8-3.6C166.2,21.46,166.7,24,167,25.41Z"/><path class="cls-2" d="M164.4,40.35a3.76,3.76,0,0,0-.25.31,2,2,0,0,0-.24,2.17,2.69,2.69,0,0,0,2.63.87,6.32,6.32,0,0,1,2.9,0,3.64,3.64,0,0,1,2,2.58,25.84,25.84,0,0,0,.8,3.26,2.91,2.91,0,0,0,2.52,1.95A2.62,2.62,0,0,0,177,49.64a6.21,6.21,0,0,0,.07-3c-.68-4-2.4-7.7-4.11-11.37a3.27,3.27,0,0,0-1.3-1.68c-1.23-.61-2.66.49-3.31,1.68a17.26,17.26,0,0,1-1.66,3.08C166,39.11,165.09,39.61,164.4,40.35Z"/><path class="cls-3" d="M189.54,17.4c-5.72-2.37-2.35-6.69,2.53-6.46a4.08,4.08,0,0,1,3.6,2.13,3.44,3.44,0,0,1-1.48,4.12A5.17,5.17,0,0,1,189.54,17.4Z"/><path class="cls-1" d="M178.11-29.09l-1.29.4c-3.06.86-9,5.74-2.82,7.37a10.3,10.3,0,0,0,4.38-.14l10.21-1.8a14.16,14.16,0,0,0,5.93-2c1.69-1.24,2.75-3.57,1.83-5.43a4.52,4.52,0,0,0-3.21-2.23,11.21,11.21,0,0,0-4,.08C184.93-32.2,181.87-30.36,178.11-29.09Z"/><path class="cls-3" d="M193.84-27.52c1.33-1.21,0-3.12-1.31-3.59a7.7,7.7,0,0,0-3.28-.14,9.19,9.19,0,0,0-3.88,1c-2.58,1.53-1.76,5.06,1.45,3.44a6.56,6.56,0,0,1,2.24-.94,6.64,6.64,0,0,1,2.42.51A2.51,2.51,0,0,0,193.84-27.52Z"/><path class="cls-3" d="M148.55,21.47a21.59,21.59,0,0,1-.27,8.9c-.29,1.48-.31,3.48,1.15,4,1.21.41,2.4-.64,3.12-1.67,2.17-3.09,4-8.69,3.67-12.51s-4.82-7.93-8-9.92c-2.52-1.58-5.48-2.49-8.18-3.66-2.32-1-4.26.74-2.28,3.07a13.47,13.47,0,0,0,3.65,2.46A14.6,14.6,0,0,1,148.55,21.47Z"/><path class="cls-2" d="M73.29-8.33a13.66,13.66,0,0,0-6.47-.41c-2.49.46-4.47,2.27-6.2,4.08C55.3.92,56.23,8.48,58,15.4A46.87,46.87,0,0,0,72.11,38.61,47.74,47.74,0,0,0,90.62,48.87a75.23,75.23,0,0,0,20.27,2.86,20.88,20.88,0,0,0,16.19-7.11c6.67-7.89,4.68-18.06-.1-26.33C122,9.6,112.94,4,107.35-4.4c-1.82-2.73-3.91-5.4-7.57-5.58a7.64,7.64,0,0,0-6.31,2.89,15.37,15.37,0,0,0-2.28,5.74,12.5,12.5,0,0,1-2.57,5.61c-1.44,1.51-3.94,2.26-5.71,1.13a6.74,6.74,0,0,1-2.07-2.61C79.27-.08,77.69-5,75.29-7.2A5.73,5.73,0,0,0,73.29-8.33Z"/><path class="cls-3" d="M91.44,25l-.9.18c-4.49.95-6.72,3.76-3.8,7.92A11.1,11.1,0,0,0,92.28,37c4.77,1.65,10.67,3.19,15.7,2.18a13.74,13.74,0,0,0,7.36-3.83,12.73,12.73,0,0,0,3.16-9.71,19.84,19.84,0,0,0-3.79-9.68c-1.68-2.39-5-5.85-8.41-4.3a6.72,6.72,0,0,0-3,3.43c-.64,1.41-1,2.92-1.78,4.29C99.3,23.46,95.53,24.17,91.44,25Z"/><path class="cls-1" d="M161.52,71.14A59.06,59.06,0,0,0,149.14,69c-3.17-.14-8.12-.56-10.55,1.83a3.12,3.12,0,0,0-.82,3.53c.86,1.61,2.72,1.41,4.24,1.77a11.25,11.25,0,0,1,4.93,2.63c2.05,1.9,3.38,4.6,5.83,6,3.19,1.79,7.29.77,10.47-1.05a11.51,11.51,0,0,0,3.84-3.25,5.54,5.54,0,0,0,.9-4.77C167.15,73.1,164.2,71.85,161.52,71.14Z"/><path class="cls-3" d="M277,70.32c-2,.62-4.62,1.28-4.92,3.34s1.83,3.32,3.71,3.92a20.9,20.9,0,0,0,13.83-.46,20.3,20.3,0,0,0,10.32-9c.68-1.23,1.22-2.71.66-4-1.15-2.63-5.15-2.28-6.78-4.58-1.1-1.55-2-6.62-5.17-3.93-1.23,1-1.19,3.42-1.66,4.84a15,15,0,0,1-2.12,4.19A15.51,15.51,0,0,1,277,70.32Z"/><path class="cls-2" d="M298.76-40.49c3-1.9,9.51-5.39,6-9.66-3.79-4.63-10.12-4.85-15.28-7-4.22-1.77-8.29-4-12.74-5.08a5.7,5.7,0,0,0-4.07.07c-2.07,1.08-2.23,3.85-2.31,6.15a42.55,42.55,0,0,1-2.2,12.18c-1.15,3.42-3.32,6.69-3.94,10.25-.74,4.24,1.56,8.9,4.65,11.71a15.59,15.59,0,0,0,11.15,4c4.5-.23,7.31-2.66,8.8-6.67,1.1-2.95,1.4-5.92,3-8.72A20.73,20.73,0,0,1,298.76-40.49Z"/><path class="cls-3" d="M248.42.37c1.17.65,2.84,1.36,3.66.31a2.26,2.26,0,0,0,.06-2.16c-1.68-4.49-6.77-7.09-11.63-7.2s-9.55,1.8-13.86,4a5.54,5.54,0,0,0-1.81,1.27,1.92,1.92,0,0,0-.38,2c.52,1,1.95,1.09,3.11,1,4.14-.29,8.28-.11,12.37-.69A11.76,11.76,0,0,1,248.42.37Z"/><path class="cls-2" d="M189.2,14.39h4"/><path class="cls-2" d="M191.23,12.41v4"/><path class="cls-2" d="M225.85-41.27h4"/><path class="cls-2" d="M227.88-43.25v4"/><path class="cls-2" d="M325,56.06h4"/><path class="cls-2" d="M327,54.08v4"/><path class="cls-2" d="M370.6,37.22h4"/><path class="cls-2" d="M372.62,35.24v4"/><path class="cls-2" d="M323.61,8.13h4"/><path class="cls-2" d="M325.63,6.15v4"/><path class="cls-2" d="M362.46-36.45h4"/><path class="cls-2" d="M364.48-38.43v4"/><path class="cls-2" d="M276.15-46.86h4"/><path class="cls-2" d="M278.16-48.84v4"/><path class="cls-2" d="M359,121.29h4"/><path class="cls-2" d="M361,119.3v4"/><path class="cls-2" d="M342.45,53.69c-3.4-4.17-10.64-4.67-15.51-3.43-6.42,1.62-10.71,6.58-13.18,12.41a6.9,6.9,0,0,0-.73,3.84,4.09,4.09,0,0,0,2.19,2.91c2.87,1.44,5.81-1.54,8.3-2.71a31.44,31.44,0,0,1,9.41-2.9,52.25,52.25,0,0,0,5.6-.71,7.26,7.26,0,0,0,4.6-3A5.74,5.74,0,0,0,342.45,53.69Z"/><path class="cls-2" d="M378.25-56.41A43.35,43.35,0,0,0,386.17-60a34.7,34.7,0,0,0,12.35-12c3-5,4.31-10.72,7.35-15.68,2.4-3.9,8.57-8,12.69-3.65,2.72,2.84,1.55,7.36.71,11.17A43.67,43.67,0,0,0,420.14-58c1.3,4.24,3.26,8.35,3.69,12.76s-1.13,9.42-5.15,11.45c-5.18,2.62-11.24-.75-16.25-3.65s-12-5.23-16.14-1.24C381.23-33.81,386-22,377.8-20.32c-2.49.52-5.07-.07-7.56-.62s-5.4-1-7.38.63a9.94,9.94,0,0,0-3.78,6.92,22.61,22.61,0,0,0,.77,7.12c1.56,7,3.48,13.5,10.64,16.84,3.92,1.82,8.62,2.25,11.86,5.09,4,3.5,4.12,8.84,4,13.67-.19,5.31-1.83,10.44-2.18,15.79-.51,7.9,1.55,16,4.13,23.37,2.71,7.81,7.15,14.71,8.54,22.94,3.28,19.36-6.51,39.36-19.93,53.11-3.95,4.05-9.34,7.2-15.06,7-7.73-.33-12.83-6.58-18.68-10.67-3.26-2.28-5.89-5.19-9.35-7.24a35.45,35.45,0,0,0-11.22-4.31c-4-.78-8.19-.91-11.84-2.66a16.79,16.79,0,0,1-8.15-9.28,25.36,25.36,0,0,1-1-13.32c.91-5,4-9.32,7.51-13,2.59-2.77,5.54-5.37,9.13-6.7,6.65-2.46,13.88-.26,20.64.48,6,.66,14.27-.14,18.71-4.67a10.77,10.77,0,0,0,3-7.86c-.22-5.74-4.52-10.32-6.81-15.46-3.37-7.55-1.12-13.59,1.77-20.8a86.42,86.42,0,0,0,5.17-19,54.88,54.88,0,0,0,1-8.82c-.06-3.37-1.22-7-1.84-10.3a235.25,235.25,0,0,0-6.49-27.57c-1.3-4.15-4.81-7.49-8.58-9.72-3.4-2-8.16-1.71-10.81-4.94a12.21,12.21,0,0,1-2-4.73,19.7,19.7,0,0,0-1.44-4.42c-.68-1.28-1.81-2.38-1.87-3.9-.09-2.1,2.14-3.71,4.28-3.8s4.16.9,6,1.87c4.11,2.1,7.88,4.18,12.41,5.27,5.76,1.39,11.5.77,17.32-.09A53.69,53.69,0,0,0,378.25-56.41Z"/><path class="cls-3" d="M179.79,97.6c-1.28.75-3,1.65-2.76,3.09a2.22,2.22,0,0,0,1.81,1.67,6.47,6.47,0,0,0,2.62-.17q3.42-.72,6.8-1.62c1.89-.5,3.91-1.14,5.06-2.69a7.64,7.64,0,0,0,1-5.16c-.25-3.36-2.47-15.87-7.71-9.14-1.81,2.33-1.07,5.07-1.85,7.71A11,11,0,0,1,179.79,97.6Z"/><path class="cls-1" d="M191.31,88.07a2.57,2.57,0,0,0-2.9-1.68c-2.66.52-.71,3.41-.3,5,.18.71.44,1.52,1.14,1.77a1.87,1.87,0,0,0,2-1A4.68,4.68,0,0,0,191.31,88.07Z"/><path class="cls-3" d="M160.53,82.86c2.94-.85,5.62-3.87,3.12-6.63-1.79-2-5.8-2.19-8.31-1.7s-4,2.4-3.19,5C153.25,83,157.38,83.78,160.53,82.86Z"/><path class="cls-2" d="M156.91,78.76h4"/><path class="cls-2" d="M158.92,76.79v3.95"/><path class="cls-2" d="M220.16,78.38h4"/><path class="cls-2" d="M222.18,76.4v4"/><path class="cls-2" d="M105.81,28.41h4"/><path class="cls-2" d="M107.83,26.43v4"/><path class="cls-2" d="M62.65,55.06h4"/><path class="cls-2" d="M64.67,53.08v4"/><path class="cls-2" d="M85.93,103.49h4"/><path class="cls-2" d="M88,101.51v4"/><path class="cls-2" d="M103.83,152.45h4"/><path class="cls-2" d="M105.85,150.47v4"/><path class="cls-2" d="M166.18,168h4"/><path class="cls-2" d="M168.2,166v4"/><path class="cls-2" d="M92.44,156.18c1.68,6.28,4.59,12.15,7.63,17.87,1.77,3.32,4.07,8,8.79,6.44,2.49-.8,4.31-2.85,6.24-4.61,4.68-4.3,11.05-7.26,16.81-9.9,10.34-4.74,22.08-6.66,31.24-13.66,5.12-3.91,9.21-9.62,10.35-16,.38-2.08.95-6-.12-8-1.37-2.47-5.53-2.42-7.9-2-4.64.77-9,1.85-13.55,3-2.86.75-6,1.12-8.67-.14-3-1.44-4.76-4.7-5.37-8-.86-4.62.43-8.84.12-13.43a14,14,0,0,0-2.75-7.75,14.87,14.87,0,0,0-7.34-4.7c-2.39-.74-5.09-.59-7.41-1.36-1.73-.57-2.68-2.21-4.43-2.87a2.62,2.62,0,0,0-3,.61c-.78,1.08-.18,2.58.45,3.76,3,5.74,6.56,11.42,8.85,17.5,2.79,7.43.66,15.37-6.42,19.58-5.28,3.14-11.75,3.42-17,6.4a17.2,17.2,0,0,0-6.67,7.34c-1.65,3.15-.86,6,0,9.41C92.37,155.93,92.4,156.06,92.44,156.18Z"/><path class="cls-1" d="M122.36,162.7c1.36-1,2.81-2.56,2.16-4.09a3,3,0,0,0-3-1.5c-1.19,0-2.33.46-3.51.61-4.21.54-8.63-2.72-8.3-7,.09-1.19,1-2.64.73-3.81-.45-2.16-3.45-2.89-5.27-2-4.61,2.12-5.48,7.51-4.84,12.31.35,2.57.46,5,1.52,7.46a8.3,8.3,0,0,0,3.34,4,8.67,8.67,0,0,0,6.51.52C115.69,168,119.1,165.08,122.36,162.7Z"/><path class="cls-1" d="M289.63,143c2.59,0,7.3-1.15,7.73-4.09.32-2.17-.89-4.78-1.83-6.68-1.72-3.48-6.43-6.89-10-8.34s-7.27-1.39-11-1.67a20.63,20.63,0,0,1-10.61-3.36c-3.14-2.26-5.49-5.3-9.71-5.59-7.51-.51-14.09,8.22-14.38,15-.1,2.28.13,5-1.76,6.35-1.73,1.22-4.12.43-6.08-.39a37.43,37.43,0,0,0-10.37-3.15c-4.7-.48-17.95,3.7-13.25,10.69,1.11,1.65,3.22,2.29,5.06,3.09a20.53,20.53,0,0,1,8.37,6.65c1.38,1.86,2.57,4.09,4.75,5,2.66,1.08,5.64-.3,8.52-.46,3.94-.21,8.13,1.88,11.69.18,2.27-1.09,3.56-3.43,5-5.48,3.16-4.54,7.23-7.16,11.87-10,5.09-3.13,9.5-2.58,15.1-.49C282.26,141.52,285.85,143,289.63,143Z"/><path class="cls-2" d="M271.18,104.7a18,18,0,0,0-5.59-2.09A17.52,17.52,0,0,0,253,105.35a14,14,0,0,0-4.45,4.85,21.13,21.13,0,0,1-3.92,4.71c-3.85,3.86-6.4,8.18-9.23,12.8-.82,1.34-1.87,2.82-3.45,3-1.36.11-2.53-.83-3.75-1.43-3.65-1.81-10-.6-13.92.18a26.57,26.57,0,0,0-10.08,4.68,9.69,9.69,0,0,0-3.71,4.76c-2.82,8.87,8.1,6.1,12.73,7.91a18,18,0,0,1,6.57,5c1.88,2.21,2.88,5.38,5.57,6.85,3.39,1.85,7.65-.16,11.48.45,2.73.44,5.35,2.24,8,1.6,2.36-.55,3.85-2.77,5.28-4.69a41,41,0,0,1,8.46-8.43c2.21-1.63,4.63-4.29,7.16-5.39,7.67-3.32,17.21,2.54,25,2.83,2.84.11,6-.47,7.77-2.63,2.22-2.67,1.55-6.68,0-9.76a33.08,33.08,0,0,0-11.88-12.31c-4.46-2.73-6.23-7.28-9.79-11A24.72,24.72,0,0,0,271.18,104.7Z"/><path class="cls-3" d="M245.23,89a1.79,1.79,0,0,0-.09.6,1.14,1.14,0,0,0,1.4.78,3.51,3.51,0,0,0,1.51-.93c3.31-2.88,6.41-3.7,10.35-5.35.61-.25,1.32-.71,1.22-1.35s-.95-.88-1.63-1c-2.55-.26-5.36-1-7.8.06C247.34,83.11,246,86.2,245.23,89Z"/><path class="cls-3" d="M247.14,142.09c-.33.59-.65,1.33-.28,1.89s1.26.58,1.95.41c5.77-1.44,8-9,13.62-10.9,1.2-.41,2.69-.68,3.15-1.85,1.64-4.18-8.23-7.55-11.17-7.4-1.64.09-3.61.63-4.29,2.27-.86,2,.81,4.57.63,6.75C250.46,136.45,248.68,139.34,247.14,142.09Z"/><path class="cls-3" d="M227.06,143.19c-.31-1.47-2.7-3.39-4.11-3.81a2.84,2.84,0,0,0-2.8.62c-2.36,2.42,2.45,4.37,4.17,4.88a2.43,2.43,0,0,0,2.35-.23A1.62,1.62,0,0,0,227.06,143.19Z"/><path class="cls-3" d="M326,52.7a14,14,0,0,0-6.34,3.87A5.57,5.57,0,0,0,318,59.76a2.65,2.65,0,0,0,1.83,2.84c1.33.29,2.54-.7,3.65-1.48a14,14,0,0,1,6.5-2.44,17.73,17.73,0,0,0,3.72-.51A3.2,3.2,0,0,0,336,55.6a2.83,2.83,0,0,0-1.26-2.33,6.2,6.2,0,0,0-2.59-1,14.43,14.43,0,0,0-9.83,1.89"/><path class="cls-2" d="M364.39-27.54a5.78,5.78,0,0,1-3.73-.16,4.92,4.92,0,0,1-2.29-3.15c-.38-1.27-.53-2.6-1-3.84s-1.34-2.43-1.93-3.69a4.73,4.73,0,0,1-.29-4,4.58,4.58,0,0,1,4.19-2.15,26.56,26.56,0,0,1,4.91.85c4.05.76,8.21-.59,12.08-1.56,1-.26,2.32-.39,3,.43a2.18,2.18,0,0,1-.15,2.47c-1.44,2.21-2.38,3.37-2.22,6.17.12,2.17,1.05,4.63.15,6.75-1.1,2.57-3.47,3.09-6,2.35a15.26,15.26,0,0,0-3.56-.85A14,14,0,0,0,364.39-27.54Z"/><path class="cls-3" d="M360.35-31.08A2.16,2.16,0,0,0,362-29.5c1,.1,1.85-.79,2.76-1.28,1.58-.85,3.64-.52,5.18-1.44A4.24,4.24,0,0,0,371.63-37a7,7,0,0,0-3.52-4,21.61,21.61,0,0,0-5.18-1.79,9.51,9.51,0,0,0-3.38-.63,2.65,2.65,0,0,0-2.15,1.31c-1.1,2.29,2,3.68,2.54,5.55S359.78-32.85,360.35-31.08Z"/><path class="cls-2" d="M96.6,76.21c1.92,2.32,2,6,3.22,8.84a80.69,80.69,0,0,0,4.74,9.43c3.53,6.18,7.49,12.16,10.23,18.73,1,2.38,1.82,5,1.39,7.49-.85,5.11-5.8,10.13-11.18,10.4-3.84.19-6.58-2.18-9.11-4.6a91.63,91.63,0,0,0-9.22-7.69c-2.37-1.73-4.55-2.49-7.44-1.7-2.71.75-4.93,1-6.69-1.72a14.42,14.42,0,0,1-1.65-5.28,196.73,196.73,0,0,0-6.46-24.76c-2.57-7.95-5.68-15.6-7.24-23.78L54.46,47.24a12.39,12.39,0,0,1-.22-5.41A4.37,4.37,0,0,1,58,38.38a6.28,6.28,0,0,1,3.52,1.41C68.5,44.48,81.33,52.43,76.5,62.47,75.3,65,73.06,67.28,73.38,70c.28,2.46,2.67,4.27,5.14,4.79s5,0,7.52-.43,5.08-.84,7.51-.14A5.87,5.87,0,0,1,96.6,76.21Z"/><path class="cls-3" d="M100.83,73.1a5.77,5.77,0,0,0,3-.27c2.81-.91,6-2.49,7-5.47,1.63-4.79-7.73-3.49-10.29-4.37a60.54,60.54,0,0,1-15.61-8.22,8.41,8.41,0,0,0-2.82-1.56,2.63,2.63,0,0,0-2.88.94c-.64,1.06-.09,2.39.19,3.58a7.65,7.65,0,0,1-.88,5.63c-1.3,2.17-3.78,4.19-3.1,6.61.54,1.9,2.9,2.76,4.9,2.53s3.8-1.23,5.71-1.84a15.29,15.29,0,0,1,9.64.2C97.84,71.62,99.13,72.77,100.83,73.1Z"/><path class="cls-2" d="M81.62,68.48a10.2,10.2,0,0,0,1.68-1,11.75,11.75,0,0,1,6.26-1.91c1,0,2.37-.09,2.7-1,.65-1.9-4.67-5.09-6.2-5.2a5.64,5.64,0,0,0-4,1.46,12.76,12.76,0,0,0-2.61,3.36C78.46,65.9,78.24,69.78,81.62,68.48Z"/><path class="cls-2" d="M58.87,51.24c0-.56,0-1.12.05-1.68.06-.79.26-1.71,1-2a1.82,1.82,0,0,1,1.74.31A14.49,14.49,0,0,1,63,49.12a12.86,12.86,0,0,0,3.45,2.05,8.64,8.64,0,0,1,3.28,2.27c2.38,3-1,9.54-5,9.26-2.05-.15-3.46-2.08-4.27-3.94A19.28,19.28,0,0,1,58.87,51.24Z"/><path class="cls-2" d="M89.5,23.66a15.3,15.3,0,0,1-10.29-2.39c-2.13-1.3-6.21-5.95-9-4.93A3.73,3.73,0,0,0,68,19.19a8.42,8.42,0,0,0,.3,3.69A28.81,28.81,0,0,0,84.66,41.81c14.6,6.25,41.64-1.93,36.08-21.59a19.45,19.45,0,0,0-5.52-8.54c-2.25-2.17-5.17-5.41-8.1-6.6a4.43,4.43,0,0,0-4.42.41C101.42,6.56,101.2,8.38,101,10c-.52,3.62-1.66,7.28-4.15,10A12.08,12.08,0,0,1,89.5,23.66Z"/><path class="cls-1" d="M101.11,31.11a5.62,5.62,0,0,0,3.54,3.48,7.73,7.73,0,0,0,5.09-.12,9.16,9.16,0,0,0,1.42-.66,7.65,7.65,0,0,0,3-3.19,6.16,6.16,0,0,0-.14-5.74C110,18,98.86,24,101.11,31.11Z"/><path class="cls-2" d="M371.54,135.77a45.88,45.88,0,0,0,11.11-20.83c1.91-8.14,1.29-15.42-2.49-22.9-1.68-3.33-4.8-6.46-8.58-6.33-2.42.08-4.56,1.46-6.65,2.65a38,38,0,0,1-18.65,5.31c-8.17,0-16.39-3.28-24.31-1.35-2.7.66-5.38,2.05-6.69,4.45a9.12,9.12,0,0,0-.68,6.07c1.35,7.13,7.63,12.33,14.08,15.88,6.94,3.83,14.39,6.39,19,13.13,2.7,4,4.84,9,10.08,9.81,5,.78,9.92-1.89,13.27-5.32Z"/><path class="cls-2" d="M366.6,59.79a45,45,0,0,1,1.22,14.33,8.48,8.48,0,0,0,.25,4.48c1.09,2.39,4.15,3.08,6.78,3.48a11,11,0,0,0,3.74.12A3.58,3.58,0,0,0,381.38,80c.53-1.66-.68-3.31-1.65-4.76a15.74,15.74,0,0,1-2.88-7.63c-.08-2,.57-4.1.6-6.16a108,108,0,0,1,1.79-17.84c.85-4.53,1.77-8.92-.18-13.38-1.19-2.72-3.82-5.06-6.85-5a7.53,7.53,0,0,0-5.95,3.69,16.67,16.67,0,0,0-2.11,6.84c-.91,7.12.15,13.89,1.74,20.82C366.14,57.66,366.38,58.72,366.6,59.79Z"/><path class="cls-2" d="M373.5,58.28a3.2,3.2,0,0,0,1.6-2.51c.3-2.38,1.11-4.64,1.62-7a92.37,92.37,0,0,0,1.64-11.09,15.48,15.48,0,0,0-.11-4.61,6,6,0,0,0-2.46-3.81c-2.56-1.61-6.21-.24-7.93,2.22s-2,5.62-1.88,8.6a49.54,49.54,0,0,0,1,8.75c.57,2.77,1,8.3,4.23,9.52A2.72,2.72,0,0,0,373.5,58.28Z"/><path class="cls-2" d="M362.67,95.51a86.5,86.5,0,0,1-23.53,1.95c-5.38-.28-13.76-3.18-18.51.68-2.61,2.12-2.62,5.87-1.5,8.75,2.14,5.49,8.36,9.49,13.4,12.15A52.6,52.6,0,0,1,345,127.55c5.05,5,7.77,13.5,16.4,12.21,6.14-.91,9.43-5.09,12.59-9.81a37.4,37.4,0,0,0,6.37-20.28,20,20,0,0,0-1.69-9,10.86,10.86,0,0,0-6.82-5.91C368.82,94,365.69,94.84,362.67,95.51Z"/><path class="cls-2" d="M361,126.6a2.11,2.11,0,0,0,1.77,1.05,1.49,1.49,0,0,0,1.06-.77,3.89,3.89,0,0,0,.43-1,10.92,10.92,0,0,0-.43-6.82c-1.1-2.72-3.93-3.59-5.93-1C356.09,120.45,359.52,124.62,361,126.6Z"/><path class="cls-2" d="M301.87,87.59c.3,1.32-.68,2.79-1.56,3.74a3.56,3.56,0,0,1-2.6,1.25,2.24,2.24,0,0,1-2.19-1.65c-.27-1.49,2.35-2.41,3.2-3.45.58-.69,1.43-1.47,2.27-1.12A1.67,1.67,0,0,1,301.87,87.59Z"/><path class="cls-2" d="M154.67,161.8c-1.35.51-3.22.87-4.35,1.8-3,2.44,3.37,5.19,5,6.63,2.93,2.54,5.82,5.38,9.81,6.15,7.92,1.54,14.47-3,21.25-6.21a66.75,66.75,0,0,0,13.9-8.79c.92-.76,1.91-1.73,1.81-2.91a2.84,2.84,0,0,0-2.47-2.23,17.35,17.35,0,0,0-3.6.06c-6.08.18-9.24-4.44-12.31-8.77-.77-1.08-2.32-4.14-3.87-3.95-2,.25-3.11,4.17-4.26,5.48a45,45,0,0,1-5.9,5.56C165.12,158.23,159.9,159.82,154.67,161.8Z"/><path class="cls-3" d="M275.32-39.18c1.13.85,2.95.87,5.81-.53A17.89,17.89,0,0,0,285-42.1a6.49,6.49,0,0,0,2.32-3.81c.63-4.12-8.29-13.82-12-9.07a7.7,7.7,0,0,0-1.2,3.86C273.69-47.28,272.76-41.1,275.32-39.18Z"/><path class="cls-2" d="M274.92-45.22a2.72,2.72,0,0,0,1.43,2.92,4.09,4.09,0,0,0,3.32-.19,4.2,4.2,0,0,0,1.26-1,5.39,5.39,0,0,0,.71-1.05c.81-1.55,1.76-7.63-2.31-7.2C276.33-51.41,275-46.83,274.92-45.22Z"/><path class="cls-1" d="M186.51,163.41c2.84-6.88-4.28-14.59-11.43-10.73a33.38,33.38,0,0,0-5.13,4c-3,2.42-6.55,3.69-10.18,4.82-1.71.53-9,1.71-7.48,4.76a3.84,3.84,0,0,0,1.61,1.42c3.3,1.94,6,5.46,9.68,6.7C172.13,177.27,183.2,171.41,186.51,163.41Z"/><path class="cls-3" d="M227.61-33.72a3.09,3.09,0,0,0,1.1-1.41c1.12-2.19,3.94-5.8,3.52-8.37s-3-3.12-5-1.88a9.46,9.46,0,0,0-3.78,6.4C223.28-37.15,224.7-32.08,227.61-33.72Z"/><path class="cls-1" d="M80.75,108.23a12.49,12.49,0,0,0,5.15,1.69c3,.39,6.3.52,8.5,2.54.62.58,1.11,1.28,1.78,1.8a2.45,2.45,0,0,0,2.38.53,2.87,2.87,0,0,0,1.35-1.62c4.37-10.09-6.42-19.08-16.18-15.33a9.3,9.3,0,0,0-4.17,2.92,5.35,5.35,0,0,0-1,4.81A5.07,5.07,0,0,0,80.75,108.23Z"/><path class="cls-3" d="M90.2,107.2c1.47-.25,3.14-.63,3.88-1.91,2.88-5-7.54-7.72-10.86-5.79-1.78,1-3.14,4-2.26,5.92C82.41,108.59,87.52,107.66,90.2,107.2Z"/><path class="cls-3" d="M362.86,11c0-.45.06-.89.12-1.33a1.81,1.81,0,0,1,.36-1.07,1.36,1.36,0,0,1,1.67-.1,5.39,5.39,0,0,1,1.25,1.27c2.28,2.75,5.46,3.6,8.82,4.17a12.73,12.73,0,0,1,8.34,5.26c.83,1.23,1.3,3.11.09,4a2.46,2.46,0,0,1-2.56-.08,13.51,13.51,0,0,1-2.05-1.73,10.3,10.3,0,0,0-11.51-1.14,21.24,21.24,0,0,1-2.31,1.33,3,3,0,0,1-2.59,0c-2.27-1.35,0-5.93.16-7.74C362.75,12.86,362.79,11.92,362.86,11Z"/><path class="cls-2" d="M359.62,56.86a5.8,5.8,0,0,0,0-.93q-.25-6.85-.53-13.73c0-.78-.19-1.74-.94-2s-1.48.38-1.95,1c-1.81,2.43-3.18,6.64-2.75,9.63a14,14,0,0,0,2.7,6.46c.6.78,1.57,1.57,2.5,1.19A1.84,1.84,0,0,0,359.62,56.86Z"/><path class="cls-1" d="M367.87,36.64a6.76,6.76,0,0,1,1.08-2.9c1.7-2.44,4.72-3.33,7-1.05a5.37,5.37,0,0,1,1.4,4.59A7.66,7.66,0,0,1,375,41.57a4.73,4.73,0,0,1-3.31,1.49,4.24,4.24,0,0,1-3.51-3.1A7.57,7.57,0,0,1,367.87,36.64Z"/><path class="cls-2" d="M233.65-32.55C232.08-30.6,230-28,227.17-28c-2.37,0-4.88-2.69-6-4.62-2.82-4.85.2-12.64,3.57-16.46,1.77-2,4.2-3.7,6.91-3.76,4.08-.08,6.72,4.94,8.12,8.14a6.08,6.08,0,0,1,.13,5C238.62-37.1,235.49-34.84,233.65-32.55Z"/><path class="cls-3" d="M159,164.53c-.93.1-2,.24-2.49,1a2.48,2.48,0,0,0,.49,2.53A12.79,12.79,0,0,0,177,169.48c2.68-2.94,4.2-12-2.25-11.32-2.34.26-4.56,2.26-6.53,3.36A24,24,0,0,1,159,164.53Z"/><path class="cls-2" d="M171,171.05a3.93,3.93,0,0,0,2.71-3.59c0-2.36-2.27-3.53-4.47-3.13s-8.16.43-7.76,3.79c.33,2.77,4.52,3.81,6.77,3.61A9.16,9.16,0,0,0,171,171.05Z"/><path class="cls-2" d="M103.65,158.87a5.29,5.29,0,0,0,2.91,2.48,3.08,3.08,0,0,0,3.46-1.17c.68-1.19.22-2.66-.25-3.94-.73-2-2.28-10.06-5.3-7.44C101.92,151,102.1,156.28,103.65,158.87Z"/><path class="cls-1" d="M48.6,147.19a60.46,60.46,0,0,0,6.56-10.76,84.35,84.35,0,0,0,7.38-25.52c1.16-9-1-17.7-3.87-26.22-2-5.86-4.91-11.3-6.51-17.26C49.35,56.91,46.23,45.86,48.22,35c1.08-5.91,2.21-11.13-.92-16.79a16.7,16.7,0,0,0-4.93-5.55c-2.08-1.46-4-1.73-6.4-2.41A19.12,19.12,0,0,1,25,2.09,18.94,18.94,0,0,1,22.35-9.22c.22-2.82,1-7.86,3.56-9.57a6.88,6.88,0,0,1,5.3-.56A49.15,49.15,0,0,0,36.53-18a9.7,9.7,0,0,0,7.32-2.27A9,9,0,0,0,46.91-28c-.18-2.74-.23-5.84,1.8-8C51-38.45,55-38.53,58-37.22S63.48-33.49,66-31.3,71.28-27,74.6-26.62c7.77,1,14.32-6.46,15.09-13.47.86-7.65-4.85-14.39-6.73-21.54-1.38-5.26-1.32-11.14,1.54-15.78,2.28-3.69,6.33-6.87,6.09-11.17-.2-3.62-4.65-8.42-8.36-9-4.83-.79-10.89,2.46-14.42,5.37-4.78,3.94-7.27,9.71-10,15a70.11,70.11,0,0,1-8,12.18c-5.38,6.56-13.06,9.57-21.56,10.28-1.19.1-2.39.15-3.58.15A46,46,0,0,1,11-56.35c-4.42-1.42-8.6-4.91-12.55-7.42a14.88,14.88,0,0,0-4.29-2.1c-3.18-.76-6.45.64-9.42,2S-19.62-60.9-18-58c1.43,2.58,3.86,4.47,5.68,6.76,2.73,3.43,4.16,7.84,7.44,10.76C-1.95-37.86,2-36.82,5.64-35.22c6.3,2.79,9.34,8.53,11.07,14.8a113.49,113.49,0,0,1,3.21,39.24,42.21,42.21,0,0,1-3.19,13.79c-2.1,4.53-4.66,8.37-5,13.53-.34,5,1.34,9.54,3.81,13.8,1.83,3.14,4.14,6.13,5.23,9.63,1,3.15-.75,7-2.93,9.39-6.27,6.85-18.17,5.8-26.22,3.18C-20.5,78.2-25.41,85.27-33,93.53c-5.53,6-8.66,14.68-7.33,22.79a19.52,19.52,0,0,0,5.4,10.7c4.36,4.33,9.54,4.27,14.94,6.28,5.7,2.12,10.69,6,15.06,10.06s8.33,8.4,13.13,11.85a29.86,29.86,0,0,0,11.1,5.2c6.58,1.41,14.75-1.61,20.28-5A34.39,34.39,0,0,0,48.6,147.19Z"/><path class="cls-2" d="M65.5,104.05a60.43,60.43,0,0,0-2.78-15.46c-1.86-5.81-4.42-11.11-6.23-16.93a182.14,182.14,0,0,1-5.34-19.81A42.27,42.27,0,0,1,52,32.39c2.42-9.51-3.1-18.82-12.34-22.32-3.07-1.16-6.45-1.65-9.18-3.46-6.48-4.3-10.9-19.44-1-22.78,2.49-.84,5.19.08,7.82.25a13.59,13.59,0,0,0,9.78-3.38l.52-.5a13,13,0,0,0,3.73-8.77c0-1.77-.23-3.77,1-5.11s3.32-1.39,5.06-.91c5.1,1.37,8.69,5.85,13.48,8.07a16.59,16.59,0,0,0,14.39-.33c4.42-2.29,8.3-7.3,8.48-12.32.41-11.54-9.41-20.75-7.64-32.39a22.87,22.87,0,0,1,3.37-8.89C91-82.9,93-84.14,93.15-87.15c.18-4.81-2.6-10.08-7.39-11.76-10.59-3.69-19.36,3.79-24.6,12.15-2.74,4.35-4.84,9.08-7.76,13.32-9.11,13.27-25,21-40.95,15.2a49.4,49.4,0,0,1-12-6.59C-2-66.62-6.41-72.16-9.88-71.29a5.6,5.6,0,0,0-2.47,2,14.29,14.29,0,0,1-3.38,2.71c-2.2,1.27-5.58,1.14-5.6,4.4a7.17,7.17,0,0,0,1.5,4c1.72,2.54,4.06,4.56,5.93,7,3.64,4.62,5.09,11.82,10.79,14.44,3.85,1.78,8.33,2,11.48,5,3.55,3.41,5.33,8.24,6.68,12.83C17.77-9.85,18.63.4,18.84,10a79.81,79.81,0,0,1-.66,15.34c-.95,5.39-3.43,9.23-6.27,13.83-3.29,5.34-1.71,12.32.82,17.63,2.43,5.08,6.79,12.18,3.44,17.8-2,3.32-6,5.06-9.86,5.45-7.92.8-17.45-4.32-24.84-.1-2,1.16-3.9,2.66-6.15,3.32a9.65,9.65,0,0,0-3.5,1.26c-1.08.87-1.43,2.32-1.85,3.63-1.53,4.77-6.37,5.91-9,9.64a21.77,21.77,0,0,0-3.73,14.66c.7,6.66,4.87,15.53,11,19,2.39,1.36,5.17,1.89,7.82,2.66a28.2,28.2,0,0,1,14.73,10A55.48,55.48,0,0,0,8.58,159.47c3.25,1.78,6.62,3.66,10.35,3.78h.72a41.32,41.32,0,0,0,23.14-6.56c7.78-5.12,11.08-12.11,15.3-19.94a63,63,0,0,0,6.57-19A62.11,62.11,0,0,0,65.5,104.05Z"/><path class="cls-2" d="M44.27,27.77a10.68,10.68,0,0,0-8.78-6.15c-4.82-.36-9.52,2.79-11.59,7C22,32.46,21.74,37,22,41.26c.32,5.25.58,10.45.81,15.68.25,5.61,1.77,11.71.36,17.26A15.38,15.38,0,0,1,13.31,85a20.73,20.73,0,0,1-7.78,1c-1.21,0-2.48.1-3.67,0-3.29-.38-6.77-1-10-1.39a23.46,23.46,0,0,0-10.94,1c-10.88,3.85-17.63,17-13.57,27.79a19,19,0,0,0,11,10.88c4.47,1.69,9.41,1.67,14,2.94A33.67,33.67,0,0,1,5.69,135c4.86,4.41,9.55,13.85,17.18,13.88,4,0,7.19-3.24,9.72-6.31,3.66-4.43,7.3-9,10.81-13.51a64.13,64.13,0,0,0,8.31-14.24c2.82-6.68,6.26-16.41,4.5-23.64-1.31-5.4-4.45-10.51-6.36-15.77A138,138,0,0,1,45,59c-.69-3-.55-5.87-.63-8.88a46.66,46.66,0,0,1,.3-9.07,36.61,36.61,0,0,0,.76-9.2A11.63,11.63,0,0,0,44.27,27.77Z"/><path class="cls-1" d="M42,50.13c.41-3.37,1.21-6.69,1.55-10.07.62-6.26-1.13-14.87-8.65-16.28-5.47-1-9.66,5.79-10.76,10.1a30.21,30.21,0,0,0-.5,11.64c.54,3.32.78,6.65,1.16,10,.83,7.45,1.94,14.57-1.33,21.72A16.36,16.36,0,0,1,15,85.8c-5.92,2.36-13.51.76-19.65.18-3.45-.33-7.14-1.31-10.59-.63a17.51,17.51,0,0,0-9.08,5.34c-6.47,6.8-8.47,14.88-2.82,22.85,4.21,5.94,13.25,7.6,20,9.41,4.94,1.34,10,3.07,13.5,6.78,3.9,4.2,5.54,10.75,10.87,13,5.52,2.32,11.7-1.42,15.94-5.58a72.49,72.49,0,0,0,13.18-18.23c3.5-6.68,6-13.26,6-20.91s-2.89-14.74-5.41-21.91C44,67.85,41,58.9,42,50.13Z"/><path class="cls-2" d="M15.12-33.43a30.61,30.61,0,0,1,3.29,7.86c.43,1.62,1.12,3.64,2.82,3.79a5.09,5.09,0,0,0,2.51-.8C29-25,36.62-19.39,41.22-24c4.31-4.34.37-12.72,5.3-17.36,4.13-3.89,10.92-1.64,16,.94s11.59,5.2,16.1,1.74c4.26-3.26,3.62-9.77,1.58-14.67s-5.12-9.81-4.43-15.05c.31-2.33,1.36-4.51,1.78-6.83s0-5-1.91-6.41c-2.52-1.78-6.26-.27-8.08,2.19-1.58,2.12-1.83,4.64-3,6.92a51.3,51.3,0,0,1-3.19,5.69A29.27,29.27,0,0,1,50.5-57.55C44.43-54.42,37.59-53,30.8-52a52.22,52.22,0,0,1-24-2.33,12.17,12.17,0,0,0-3.13-.78,3.63,3.63,0,0,0-2.94,1c-1,1.2-.74,3-.23,4.52S1-46.12,1.69-44.93s3,2.29,4.38,3a19,19,0,0,1,7.8,6.58C14.31-34.75,14.73-34.1,15.12-33.43Z"/><path class="cls-1" d="M41.32-37.42c-.23,3.12.88,6.39-.26,9.29-.91,2.35-3.51,3.73-6.06,4s-4.43-.71-6.74-.87c-1.73-.11-3.36.79-5.16.16-2.77-.95-3.77-4.18-4.68-6.91a43.83,43.83,0,0,0-4.08-8.89,9.05,9.05,0,0,1-1.53-3.54c-.47-4.81,6.46-4.29,9.45-4,7,.66,14.38.52,21.18-1.52,7.29-2.19,13-6.6,18.82-11.2a5.41,5.41,0,0,1,2.11-1.19,4.21,4.21,0,0,1,3,.79A8.69,8.69,0,0,1,70.58-50.9a8.88,8.88,0,0,1-6,4.88c-5.3,1.31-10.33-3-15.84-1.2-3.49,1.16-5.95,4.37-7,7.82A8.43,8.43,0,0,0,41.32-37.42Z"/><path class="cls-2" d="M39.78-56.41A43.35,43.35,0,0,0,47.7-60a34.7,34.7,0,0,0,12.35-12c3-5,4.31-10.72,7.35-15.68,2.4-3.9,8.56-8,12.69-3.65,2.72,2.84,1.55,7.36.7,11.17A43.78,43.78,0,0,0,81.67-58c1.3,4.24,3.26,8.35,3.69,12.76s-1.14,9.42-5.15,11.45C75-31.18,69-34.55,64-37.45s-12-5.23-16.14-1.24c-5.06,4.88-.26,16.64-8.5,18.37-2.49.52-5.06-.07-7.55-.62s-5.41-1-7.38.63a10,10,0,0,0-3.79,6.92,23.21,23.21,0,0,0,.77,7.12C22.93.73,24.86,7.23,32,10.57c3.92,1.82,8.62,2.25,11.86,5.09,4,3.5,4.12,8.84,3.95,13.67-.18,5.31-1.82,10.44-2.17,15.79-.51,7.9,1.55,16,4.13,23.37,2.71,7.81,7.15,14.71,8.54,22.94,3.27,19.36-6.52,39.36-19.93,53.11-4,4.05-9.34,7.2-15.06,7-7.73-.33-12.83-6.58-18.68-10.67-3.26-2.28-5.9-5.19-9.35-7.24a35.45,35.45,0,0,0-11.22-4.31c-4-.78-8.19-.91-11.84-2.66a16.79,16.79,0,0,1-8.15-9.28,25.36,25.36,0,0,1-1-13.32c.91-5,4-9.32,7.51-13,2.6-2.77,5.54-5.37,9.13-6.7,6.65-2.46,13.88-.26,20.64.48,6,.66,14.27-.14,18.71-4.67a10.77,10.77,0,0,0,3-7.86c-.22-5.74-4.52-10.32-6.81-15.46C12,49.22,14.2,43.18,17.09,36a86.42,86.42,0,0,0,5.17-19,54.88,54.88,0,0,0,1-8.82c-.05-3.37-1.22-7-1.84-10.3a235.25,235.25,0,0,0-6.49-27.57c-1.3-4.15-4.81-7.49-8.58-9.72-3.4-2-8.16-1.71-10.81-4.94a12,12,0,0,1-2-4.73A20.25,20.25,0,0,0-7.9-53.52c-.68-1.28-1.81-2.38-1.87-3.9-.09-2.1,2.14-3.71,4.29-3.8s4.15.9,6.05,1.87c4.11,2.1,7.87,4.18,12.41,5.27,5.76,1.39,11.49.77,17.31-.09A54.11,54.11,0,0,0,39.78-56.41Z"/><path class="cls-1" d="M119.79-45.51a50.24,50.24,0,0,0-8.23,8c-1.69,2.07-3.9,4.53-6.54,3.93-2.13-.49-3.23-2.75-4-4.74q-3.43-8.57-6.88-17.12c-1.89-4.72-5.45-10.36-5.06-15.53.46-6.14,5.78-11.11,11.71-13.13,4.63-1.57,9.82-1.76,14-4.33a14.77,14.77,0,0,0,6-7.82,18.12,18.12,0,0,0,.82-8.39c-.89-6.32-4.74-10-8-15.08-3.1-4.93-6.36-10.07-9.14-15.22a8.55,8.55,0,0,1-1.37-4.47,3.3,3.3,0,0,1,2.9-3.23c1.64,0,2.84,1.44,3.88,2.69a27.75,27.75,0,0,0,14.33,9c3.12.8,6.38,1.07,9.41,2.14a12,12,0,0,1,6.83,5.87c1.58,2.89,1,5.9,1.26,9.1a16.87,16.87,0,0,0,6,11.52,18.07,18.07,0,0,0,12.53,4.08c2.79-.16,5.5-1,8.26-1.32s5.76-.23,8.1,1.27c6.36,4.09.67,17.44-2.39,22.31-3.26,5.18-8.82,10.72-14.9,12.62-6.57,2-13.09,4.66-19.57,7.16C132.38-53.29,125.68-50.07,119.79-45.51Z"/><path class="cls-1" d="M208.86-67a20.67,20.67,0,0,0-3.7-.18,28.47,28.47,0,0,1-11.07-1.48c-4.42-1.67-8.32-5.16-9.46-9.67C183.45-83,186-89.21,191.22-89.88a48.68,48.68,0,0,0,5.68-.7c3.27-.82,6-3,8.95-4.56,4.16-2.1,8.88-2.84,13.52-3.5s9.35-1.29,13.6-3.22a17.35,17.35,0,0,0,8.08-7.19c1.94-3.43,1.47-6.4,2.41-10.11,1.39-5.51,6-9.33,10.75-12.16,5.48-3.28,10.78-5.68,17.22-3.26,2.83,1.07,5.42,2.68,8.25,3.77a14.72,14.72,0,0,0,11.88-.35c3.12-1.49,6.86-6.89,10.39-6.57a4.25,4.25,0,0,1,3.79,5.16c-.68,2.41-3,4.28-5.07,5.51s-4.44,2.32-6.13,4.09c-4.26,4.47-1.44,15.07.28,20.06,1.65,4.83,3.5,9.8,7.59,13.15,2.61,2.13,5.58,3.88,7.76,6.42a8.11,8.11,0,0,1-1.78,12.13c-4.49,2.71-12.69,1.46-17.37,0-5.92-1.84-11-5.44-17.43-5.55-4.43-.08-9.85,1.8-12.84,5.08-3.36,3.7-4.66,9.67-6.82,14.07-1.31,2.66-4.66,9.85-8.8,7.25A15.72,15.72,0,0,1,242-53.6a17.83,17.83,0,0,0-18.87-4.73c-2,.7-4.25,1.73-5.94.54-2.16-1.52-1.09-4.83-2.86-6.79A8.93,8.93,0,0,0,208.86-67Z"/><path class="cls-1" d="M387.08-73.93a60.54,60.54,0,0,0,6.56-10.77A84.35,84.35,0,0,0,401-110.22c1.16-9-1-17.69-3.87-26.21-2-5.86-4.91-11.3-6.51-17.27-2.81-10.52-5.92-21.57-3.94-32.4,1.08-5.91,2.21-11.13-.92-16.78a16.51,16.51,0,0,0-4.93-5.55c-2.08-1.46-4-1.74-6.4-2.41a19.15,19.15,0,0,1-11-8.19,19,19,0,0,1-2.64-11.31c.22-2.82,1-7.86,3.56-9.57a6.88,6.88,0,0,1,5.3-.56,46.87,46.87,0,0,0,5.32,1.3,9.7,9.7,0,0,0,7.32-2.26,9,9,0,0,0,3.06-7.73c-.18-2.75-.23-5.85,1.8-8,2.27-2.41,6.25-2.48,9.32-1.17s5.45,3.73,7.94,5.91,5.31,4.28,8.63,4.69c7.77,1,14.32-6.47,15.1-13.47.85-7.65-4.86-14.4-6.74-21.55-1.38-5.25-1.32-11.13,1.55-15.78,2.27-3.69,6.32-6.86,6.08-11.17-.2-3.61-4.65-8.41-8.36-9-4.83-.79-10.89,2.46-14.42,5.37-4.78,3.94-7.27,9.71-10,15.05a70.41,70.41,0,0,1-8,12.17c-5.38,6.57-13.06,9.57-21.56,10.29-1.19.09-2.39.14-3.58.14a45.68,45.68,0,0,1-13.67-1.76c-4.42-1.43-8.6-4.92-12.55-7.42a14.38,14.38,0,0,0-4.29-2.1c-3.18-.77-6.45.64-9.42,2s-4.34,2.94-2.72,5.85c1.43,2.59,3.86,4.47,5.68,6.77,2.73,3.43,4.16,7.84,7.44,10.76,2.93,2.6,6.92,3.65,10.52,5.25,6.3,2.79,9.34,8.53,11.07,14.8a113.49,113.49,0,0,1,3.21,39.24,42,42,0,0,1-3.19,13.79c-2.1,4.53-4.66,8.37-5,13.53-.34,5,1.34,9.54,3.82,13.8,1.82,3.14,4.13,6.13,5.22,9.63,1,3.15-.75,7-2.93,9.4-6.27,6.84-18.17,5.79-26.22,3.17-12.11-3.94-17,3.13-24.57,11.39-5.52,6-8.66,14.68-7.33,22.79a19.52,19.52,0,0,0,5.4,10.7c4.36,4.33,9.54,4.27,15,6.28,5.69,2.12,10.68,6,15,10.06s8.33,8.4,13.13,11.85a30,30,0,0,0,11.1,5.2c6.58,1.41,14.75-1.61,20.28-5A34,34,0,0,0,387.08-73.93Z"/><path class="cls-2" d="M304.16-78.17a9.08,9.08,0,0,0-.05-5.19c-1.25-3.92-4.94-6.51-7.67-9.62-1.86-2.12-2.89-4.72-4.65-6.87-1.13-1.38-2.54-2.38-3.51-3.91a19.82,19.82,0,0,1-2.2-14.93c.54-2.16,1.28-4.88-.5-6.27-1.15-.9-2.79-.69-4.27-.71-4.86-.06-9.18-3-13.95-4a17.32,17.32,0,0,0-16.37,5.8c-5.1,6.21-5.46,14.69-11.77,20.32-3.76,3.35-8.69,5.16-13.62,6.4s-10,2-14.78,3.67c-5.76,2-10.29,6-16.43,7.55a7.52,7.52,0,0,0-3.5,1.47,4.84,4.84,0,0,0-1.26,3.29c-.4,7.83,7.21,9.78,13.65,9.9,6.17.11,12.51-.4,15.55,6,.73,1.54,1.19,3.34,2.59,4.35,1.89,1.36,4.5.64,6.82.34a16.72,16.72,0,0,1,10.41,2.12c1.95,1.15,3.92,2.76,6.18,2.51,2.92-.33,4.44-3.47,5.78-6a32.56,32.56,0,0,1,6.8-8.78c2.48-2.26,5.39-5.29,8.66-6.32a25.16,25.16,0,0,1,18.12,1.17c3.37,1.6,6.52,4,10.26,4.31a9.59,9.59,0,0,0,8-3.41A9,9,0,0,0,304.16-78.17Z"/><path class="cls-2" d="M404-117.08a60.35,60.35,0,0,0-2.78-15.45c-1.86-5.81-4.42-11.11-6.22-16.93a184.67,184.67,0,0,1-5.35-19.82,42.14,42.14,0,0,1,.84-19.46c2.41-9.5-3.11-18.82-12.35-22.31-3.07-1.16-6.45-1.65-9.17-3.46-6.48-4.31-10.91-19.44-1-22.78,2.49-.84,5.19.08,7.82.25a13.52,13.52,0,0,0,9.78-3.39l.52-.49a13,13,0,0,0,3.74-8.77c0-1.77-.24-3.77.94-5.12s3.32-1.38,5.07-.91c5.1,1.38,8.69,5.86,13.47,8.08a16.62,16.62,0,0,0,14.39-.33c4.42-2.3,8.31-7.3,8.48-12.33.42-11.54-9.41-20.74-7.63-32.39a22.91,22.91,0,0,1,3.36-8.89c1.56-2.44,3.65-3.68,3.76-6.7.18-4.8-2.59-10.08-7.39-11.75-10.59-3.7-19.36,3.79-24.6,12.14-2.73,4.36-4.84,9.09-7.75,13.33-9.11,13.27-25.06,21-41,15.19a49.12,49.12,0,0,1-12-6.58c-2.45-1.79-6.89-7.33-10.36-6.46a5.53,5.53,0,0,0-2.47,2,14.05,14.05,0,0,1-3.38,2.7c-2.2,1.27-5.58,1.14-5.6,4.41a7.25,7.25,0,0,0,1.5,3.95c1.73,2.54,4.06,4.56,5.94,7,3.63,4.62,5.09,11.81,10.78,14.44,3.85,1.77,8.34,2,11.48,5,3.55,3.41,5.33,8.24,6.69,12.82,2.71,9.22,3.58,19.46,3.78,29.07.11,5,.23,10.3-.66,15.34-.95,5.38-3.43,9.23-6.27,13.82-3.29,5.34-1.71,12.33.83,17.64,2.43,5.08,6.78,12.17,3.43,17.8-2,3.31-6,5.05-9.86,5.45-7.91.79-17.44-4.32-24.84-.1-2,1.16-3.9,2.66-6.15,3.32a9.82,9.82,0,0,0-3.5,1.25c-1.08.87-1.42,2.33-1.85,3.64-1.53,4.76-6.37,5.91-9,9.63a21.85,21.85,0,0,0-3.74,14.68c.7,6.66,4.87,15.52,11,19,2.4,1.37,5.17,1.9,7.82,2.66a28.18,28.18,0,0,1,14.73,10,55.61,55.61,0,0,0,17.79,15.28c3.24,1.78,6.62,3.67,10.34,3.78l.72,0a41.37,41.37,0,0,0,23.15-6.56c7.78-5.13,11.08-12.12,15.29-19.94a63,63,0,0,0,6.57-19A62.2,62.2,0,0,0,404-117.08Z"/><path class="cls-3" d="M165.37-83.07a4.67,4.67,0,0,0-.29-1.65c-.69-1.87-3.05-2.7-5.05-2.35a19.29,19.29,0,0,0-8.4,4.41c-1.4,1.47-2.63,3.16-4.38,4.23-4.17,2.58-10.12.54-12.93-3.43s-3.06-9.21-2.15-14,2.58-8.63,2-13.48a11.57,11.57,0,0,0-2.61-6.31c-1.4-1.58-3.81-2.64-5.68-1.63a4.28,4.28,0,0,0-2,4c.15,2.8,1.78,5.55,2.31,8.34a18.91,18.91,0,0,1-.17,8.2c-2.73,10.72-15.8,10.92-23.83,15.4-5,2.8-8.86,7.7-8.5,13.46.44,6.84,3.76,13.17,7,19.13,1.74,3.25,3,5.18,6.92,4.68,4.21-.54,5.93-2.92,8.87-5.31,3.42-2.79,9-4.33,13-6,6.94-2.78,14-5.41,20.38-9.29a42.71,42.71,0,0,0,10.93-9.22C162.6-76,165.42-79.76,165.37-83.07Z"/><path class="cls-2" d="M131.49-70.11l.94-.41a23.47,23.47,0,0,1,6.5-2.26c2-.25,4.35.31,5.07,2.11s-.71,3.89-2.25,5.21c-4.54,3.88-10.39,5.69-15.78,8.07s-10.35,6-15.29,9.3c-1.39.92-2.92,1.88-4.59,1.73-2.14-.2-3.63-2.16-4.67-4C97.8-56.84,93.63-69.24,98.76-76c1.7-2.23,4.46-3.38,7.09-4.44,4.75-1.91,9.36-3.06,14.56-2.59,1.41.13,3.15.7,3.26,2.08.29,3.6-8.11,5.44-4.26,9.84C122.49-67.56,127.64-68.55,131.49-70.11Z"/><path class="cls-2" d="M215.24-53.29a3.28,3.28,0,0,0,3.12.06,16.63,16.63,0,0,0,2.7-1.79,15.31,15.31,0,0,1,11.2-2.54A15.12,15.12,0,0,1,238.42-55a14.75,14.75,0,0,1,3.55,3.5c1.13,1.59,2.06,3.51,3.86,4.31,5.31,2.38,9.19-5.23,10.63-9.08,1.88-5,2.18-11,6.16-15.09,3.23-3.29,8.31-4.31,12.92-3.69,7.21,1,13.62,5.09,20.86,6.36,5.44,1,11.1,1.68,16.64,1a16,16,0,0,0,7.44-2.44c5.09-3.61,4.43-9.48-.52-12.54-4.27-2.65-9.54-3.31-13.73-6.09-6.46-4.28-9.76-11.91-11.32-19.4-1-4.88-1.29-10.39,1.74-14.4,1.64-2.17,4.06-3.62,6.25-5.26s4.29-3.7,4.82-6.36a4.77,4.77,0,0,0-6.35-5.59c-3.5,1.12-5.81,4-8.76,5.95a14.43,14.43,0,0,1-10.14,2.13,35.2,35.2,0,0,1-11.72-4c-3.43-1.85-7.59-1.32-11.23-.16-5.61,1.78-13.14,5.48-16.22,10.68a14.27,14.27,0,0,0-2,6.61c.05,3.67,0,6.51-2.19,9.71-7.19,10.44-23.56,7.78-34.14,12.62-4.34,2-8.46,5.14-13.24,5-1.54-.05-3.07-.44-4.61-.34-6.47.42-4.6,9.73-3.47,13.62A16.86,16.86,0,0,0,199.41-65.7c2.19,0,4.37-.38,6.56-.48a10.77,10.77,0,0,1,6.33,1.32c2.18,1.4,2.61,3.36,2.24,5.66C214.25-57.33,213.26-54.62,215.24-53.29Z"/><path class="cls-2" d="M144.18-114.27c0-3.13.49-6.32-.74-9.17-3.76-8.7-16.42-7.71-23.72-10.73-3.3-1.36-6.75-4.42-9.22-7-1.86-1.9-3.77-5-6.89-2.73a5.84,5.84,0,0,0-2,5.79c1.05,5.93,5.53,10.39,8.91,15.16,1.68,2.36,2.81,4.9,4.44,7.32a32.77,32.77,0,0,1,4.71,9.49c1.33,4.87.63,10.6-3.07,14.1-5.09,4.81-13,3.92-19,6.91C90.66-81.6,87.52-74.52,88-67c.37,5.69,2.85,10.78,4.37,16.15C94-44.93,97-39.22,99.07-33.44c.74,2,1.62,4.22,3.52,5.29,2.34,1.31,5.42.38,7.42-1.37s3.24-4.19,4.65-6.43a42.22,42.22,0,0,1,14.6-14c7.84-4.53,16.57-7.21,25-10.43C158-61.86,162-63.31,165.65-65s7.4-6,9.94-9.14a25.42,25.42,0,0,0,5.85-14.74c.14-4.27-.43-9.93-5-11.82-3.79-1.58-7.18-.29-10.91.47a21.21,21.21,0,0,1-11.55-.7c-4.85-1.82-8.87-6-9.64-11.08A17.39,17.39,0,0,1,144.18-114.27Z"/><path class="cls-2" d="M166.19-53.12h4"/><path class="cls-2" d="M168.21-55.1v4"/><path class="cls-2" d="M92.44-64.94c1.69,6.28,4.59,12.14,7.64,17.87,1.77,3.32,4.06,8,8.78,6.44,2.49-.8,4.32-2.85,6.24-4.61,4.69-4.3,11.05-7.27,16.81-9.9C142.26-59.88,154-61.8,163.16-68.8c5.12-3.92,9.2-9.62,10.35-16,.37-2.09.94-6-.13-8-1.36-2.47-5.53-2.42-7.89-2-4.65.77-9,1.84-13.56,3-2.85.75-6,1.12-8.66-.14-3-1.44-4.76-4.71-5.37-8-.86-4.62.42-8.84.11-13.44a14,14,0,0,0-2.74-7.74,14.83,14.83,0,0,0-7.35-4.7c-2.38-.75-5.08-.59-7.4-1.36-1.73-.57-2.68-2.21-4.43-2.87a2.6,2.6,0,0,0-3,.61c-.79,1.08-.18,2.58.45,3.76,3,5.74,6.56,11.42,8.85,17.5,2.79,7.43.66,15.37-6.43,19.58-5.28,3.14-11.74,3.42-17,6.4a17.29,17.29,0,0,0-6.68,7.34c-1.65,3.14-.85,6,0,9.4C92.38-65.19,92.41-65.07,92.44-64.94Z"/><path class="cls-1" d="M122.36-58.42c1.36-1,2.81-2.56,2.17-4.09a3,3,0,0,0-3-1.51c-1.19,0-2.34.47-3.52.62-4.21.53-8.63-2.72-8.3-7,.1-1.19,1-2.64.73-3.81-.45-2.17-3.45-2.89-5.27-2.05-4.61,2.11-5.48,7.51-4.83,12.31.35,2.56.45,5,1.52,7.46a8.27,8.27,0,0,0,3.34,4,8.6,8.6,0,0,0,6.5.53C115.69-53.12,119.1-56,122.36-58.42Z"/><path class="cls-1" d="M289.63-78.15c2.59,0,7.31-1.15,7.74-4.09.31-2.16-.9-4.78-1.84-6.67-1.72-3.48-6.42-6.89-10-8.35s-7.27-1.38-11-1.66A20.69,20.69,0,0,1,264-102.28c-3.14-2.27-5.49-5.31-9.71-5.59-7.51-.51-14.09,8.22-14.38,15-.1,2.27.13,5-1.76,6.35-1.73,1.22-4.13.43-6.09-.39a37,37,0,0,0-10.36-3.16c-4.7-.48-18,3.71-13.25,10.69,1.11,1.66,3.21,2.29,5.06,3.09a20.68,20.68,0,0,1,8.37,6.65c1.38,1.87,2.57,4.1,4.75,5,2.66,1.08,5.64-.31,8.51-.46,3.95-.21,8.14,1.87,11.69.17,2.27-1.08,3.56-3.42,5-5.47,3.17-4.55,7.24-7.16,11.88-10,5.08-3.14,9.49-2.58,15.09-.49C282.27-79.6,285.86-78.08,289.63-78.15Z"/><path class="cls-2" d="M271.19-116.42a17.7,17.7,0,0,0-5.6-2.09A17.5,17.5,0,0,0,253-115.78a14,14,0,0,0-4.45,4.86,21.13,21.13,0,0,1-3.92,4.71c-3.85,3.85-6.4,8.18-9.23,12.8-.82,1.33-1.87,2.81-3.45,3-1.36.11-2.53-.83-3.75-1.44-3.65-1.81-10-.6-13.92.19A26.21,26.21,0,0,0,204.17-87a9.77,9.77,0,0,0-3.72,4.76c-2.82,8.87,8.1,6.1,12.74,7.91a17.88,17.88,0,0,1,6.57,5c1.88,2.21,2.88,5.38,5.56,6.84,3.4,1.85,7.65-.16,11.49.46,2.73.44,5.35,2.23,8.05,1.6,2.36-.56,3.85-2.77,5.28-4.69a40.49,40.49,0,0,1,8.46-8.43c2.21-1.64,4.63-4.3,7.16-5.39,7.66-3.32,17.21,2.54,25,2.83,2.84.1,6-.48,7.77-2.64,2.22-2.67,1.54-6.68,0-9.76a33.13,33.13,0,0,0-11.88-12.3c-4.47-2.73-6.23-7.29-9.8-11.06A24.84,24.84,0,0,0,271.19-116.42Z"/><path class="cls-2" d="M154.67-59.33c-1.35.52-3.22.87-4.35,1.81-3,2.44,3.37,5.18,5,6.62,2.93,2.54,5.82,5.38,9.81,6.16,7.92,1.54,14.47-3,21.25-6.22a66.34,66.34,0,0,0,13.9-8.79c.92-.76,1.91-1.73,1.81-2.9a2.83,2.83,0,0,0-2.47-2.23,17.34,17.34,0,0,0-3.6,0c-6.08.19-9.24-4.43-12.32-8.76-.77-1.08-2.31-4.15-3.87-4-2,.25-3.1,4.16-4.25,5.47a45.07,45.07,0,0,1-5.9,5.57C165.12-62.9,159.9-61.31,154.67-59.33Z"/><path class="cls-1" d="M186.51-57.71c2.84-6.88-4.28-14.6-11.43-10.74a34.08,34.08,0,0,0-5.13,4c-3,2.41-6.55,3.69-10.18,4.82-1.71.53-9,1.7-7.48,4.76a4,4,0,0,0,1.61,1.41c3.3,2,6,5.47,9.68,6.71C172.13-43.85,183.21-49.71,186.51-57.71Z"/><path class="cls-3" d="M159-56.6c-.93.11-2,.24-2.49,1A2.52,2.52,0,0,0,157-53a12.88,12.88,0,0,0,9.62,5.47A13,13,0,0,0,177-51.64c2.68-3,4.2-12-2.25-11.32-2.34.26-4.56,2.26-6.52,3.36A24.07,24.07,0,0,1,159-56.6Z"/><path class="cls-2" d="M171-50.07a3.9,3.9,0,0,0,2.7-3.59c0-2.37-2.27-3.54-4.46-3.13s-8.16.42-7.76,3.79c.33,2.77,4.51,3.8,6.77,3.61A9.16,9.16,0,0,0,171-50.07Z"/><path class="cls-2" d="M103.65-62.25a5.26,5.26,0,0,0,2.92,2.47A3.05,3.05,0,0,0,110-60.95c.68-1.18.22-2.66-.25-3.93-.73-2-2.29-10.07-5.3-7.44C101.93-70.1,102.1-64.85,103.65-62.25Z"/><path class="cls-1" d="M48.6-73.93A60.54,60.54,0,0,0,55.16-84.7a84.35,84.35,0,0,0,7.38-25.52c1.16-9-1-17.69-3.87-26.21-2-5.86-4.91-11.3-6.51-17.27-2.81-10.52-5.93-21.57-3.94-32.4,1.08-5.91,2.21-11.13-.93-16.78a16.38,16.38,0,0,0-4.92-5.55c-2.08-1.46-4-1.74-6.4-2.41A19.12,19.12,0,0,1,25-219a19,19,0,0,1-2.64-11.31c.22-2.82,1-7.86,3.56-9.57a6.88,6.88,0,0,1,5.3-.56,46.87,46.87,0,0,0,5.32,1.3,9.7,9.7,0,0,0,7.32-2.26,9,9,0,0,0,3.06-7.73c-.19-2.75-.23-5.85,1.8-8C51-259.58,55-259.65,58-258.34s5.46,3.73,7.95,5.91,5.31,4.28,8.62,4.69c7.78,1,14.33-6.47,15.1-13.47.86-7.65-4.85-14.4-6.73-21.55-1.38-5.25-1.32-11.13,1.54-15.78,2.28-3.69,6.33-6.86,6.09-11.17-.2-3.61-4.65-8.41-8.36-9-4.83-.79-10.89,2.46-14.42,5.37-4.78,3.94-7.27,9.71-10,15.05a69.88,69.88,0,0,1-8,12.17c-5.37,6.57-13.05,9.57-21.55,10.29-1.19.09-2.39.14-3.58.14A45.68,45.68,0,0,1,11-277.47c-4.42-1.43-8.6-4.92-12.56-7.42A14.21,14.21,0,0,0-5.86-287c-3.18-.77-6.45.64-9.42,2S-19.62-282-18-279.12c1.44,2.59,3.87,4.47,5.69,6.77,2.73,3.43,4.16,7.84,7.44,10.76,2.93,2.6,6.92,3.65,10.52,5.25,6.3,2.79,9.34,8.53,11.07,14.8a113.25,113.25,0,0,1,3.2,39.24,41.76,41.76,0,0,1-3.19,13.79c-2.09,4.53-4.65,8.37-5,13.53-.34,5,1.33,9.54,3.81,13.8,1.83,3.14,4.14,6.13,5.23,9.63,1,3.15-.75,7-2.94,9.4C11.56-135.31-.34-136.36-8.39-139c-12.11-3.94-17,3.13-24.57,11.39-5.53,6-8.66,14.68-7.34,22.79a19.46,19.46,0,0,0,5.4,10.69c4.36,4.33,9.54,4.27,15,6.29,5.69,2.12,10.68,6,15.05,10.06S3.43-69.37,8.23-65.91a30,30,0,0,0,11.1,5.19c6.58,1.41,14.75-1.6,20.28-5A34.07,34.07,0,0,0,48.6-73.93Z"/><path class="cls-2" d="M65.5-117.08a60.35,60.35,0,0,0-2.78-15.45c-1.86-5.81-4.42-11.11-6.23-16.93a182.31,182.31,0,0,1-5.34-19.82A42.28,42.28,0,0,1,52-188.74c2.42-9.5-3.1-18.82-12.34-22.31-3.07-1.16-6.45-1.65-9.18-3.46-6.48-4.31-10.9-19.44-1-22.78,2.49-.84,5.19.08,7.82.25a13.55,13.55,0,0,0,9.78-3.39l.52-.49a13,13,0,0,0,3.73-8.77c0-1.77-.23-3.77,1-5.12s3.31-1.38,5.06-.91c5.1,1.38,8.69,5.86,13.47,8.08a16.64,16.64,0,0,0,14.4-.33c4.42-2.3,8.3-7.3,8.48-12.33.41-11.54-9.41-20.74-7.64-32.39a22.93,22.93,0,0,1,3.37-8.89c1.56-2.44,3.64-3.68,3.76-6.7.18-4.8-2.6-10.08-7.39-11.75-10.59-3.7-19.36,3.79-24.6,12.14-2.74,4.36-4.84,9.09-7.76,13.33-9.11,13.27-25,21-40.95,15.19a49.37,49.37,0,0,1-12-6.58c-2.44-1.79-6.88-7.33-10.35-6.46a5.48,5.48,0,0,0-2.47,2,14.25,14.25,0,0,1-3.38,2.7c-2.2,1.27-5.58,1.14-5.6,4.41a7.17,7.17,0,0,0,1.5,3.95c1.72,2.54,4.06,4.56,5.93,7,3.63,4.62,5.09,11.81,10.79,14.44,3.85,1.77,8.33,2,11.47,5,3.56,3.41,5.34,8.24,6.69,12.82,2.72,9.22,3.58,19.46,3.79,29.07a79,79,0,0,1-.67,15.34c-.94,5.38-3.42,9.23-6.26,13.82-3.29,5.34-1.71,12.33.82,17.64,2.43,5.08,6.79,12.17,3.44,17.8-2,3.31-6,5.05-9.86,5.45-7.92.79-17.45-4.32-24.84-.1-2,1.16-3.9,2.66-6.15,3.32a9.82,9.82,0,0,0-3.5,1.25c-1.09.87-1.43,2.33-1.85,3.64-1.53,4.76-6.37,5.91-9,9.63a21.8,21.8,0,0,0-3.73,14.67c.7,6.66,4.87,15.53,11,19,2.39,1.36,5.16,1.89,7.82,2.65a28.22,28.22,0,0,1,14.73,10A55.6,55.6,0,0,0,8.58-61.65c3.25,1.77,6.62,3.66,10.35,3.77l.72,0a41.34,41.34,0,0,0,23.14-6.56c7.78-5.12,11.08-12.11,15.3-19.94a62.93,62.93,0,0,0,6.57-19A62.69,62.69,0,0,0,65.5-117.08Z"/></g></mask><clipPath id="clip-path"><path class="cls-4" d="M363.29,64H0V15A15,15,0,0,1,15,0H348.29a15,15,0,0,1,15,15Z"/></clipPath></defs><g class="cls-5"><g class="cls-6"><g class="cls-7"><polygon class="cls-8" points="24.42 0 23.81 64 0 64 0 0 24.42 0"/><polygon class="cls-8" points="27.87 0 27.26 64 23.81 64 24.42 0 27.87 0"/><polygon class="cls-9" points="31.32 0 30.71 64 27.26 64 27.87 0 31.32 0"/><polygon class="cls-10" points="34.76 0 34.16 64 30.71 64 31.32 0 34.76 0"/><polygon class="cls-11" points="38.21 0 37.6 64 34.16 64 34.76 0 38.21 0"/><polygon class="cls-12" points="41.66 0 41.05 64 37.6 64 38.21 0 41.66 0"/><polygon class="cls-13" points="45.11 0 44.5 64 41.05 64 41.66 0 45.11 0"/><polygon class="cls-14" points="48.56 0 47.95 64 44.5 64 45.11 0 48.56 0"/><polygon class="cls-15" points="52 0 51.4 64 47.95 64 48.56 0 52 0"/><polygon class="cls-16" points="55.45 0 54.84 64 51.4 64 52 0 55.45 0"/><polygon class="cls-17" points="58.9 0 58.29 64 54.84 64 55.45 0 58.9 0"/><polygon class="cls-18" points="62.35 0 61.74 64 58.29 64 58.9 0 62.35 0"/><polygon class="cls-19" points="65.8 0 65.19 64 61.74 64 62.35 0 65.8 0"/><polygon class="cls-20" points="69.24 0 68.64 64 65.19 64 65.8 0 69.24 0"/><polygon class="cls-21" points="72.69 0 72.08 64 68.64 64 69.24 0 72.69 0"/><polygon class="cls-22" points="76.14 0 75.53 64 72.08 64 72.69 0 76.14 0"/><polygon class="cls-23" points="79.59 0 78.98 64 75.53 64 76.14 0 79.59 0"/><polygon class="cls-24" points="83.04 0 82.43 64 78.98 64 79.59 0 83.04 0"/><polygon class="cls-25" points="86.48 0 85.88 64 82.43 64 83.04 0 86.48 0"/><polygon class="cls-26" points="89.93 0 89.32 64 85.88 64 86.48 0 89.93 0"/><polygon class="cls-27" points="93.38 0 92.77 64 89.32 64 89.93 0 93.38 0"/><polygon class="cls-28" points="96.83 0 96.22 64 92.77 64 93.38 0 96.83 0"/><polygon class="cls-29" points="100.28 0 99.67 64 96.22 64 96.83 0 100.28 0"/><polygon class="cls-30" points="103.72 0 103.12 64 99.67 64 100.28 0 103.72 0"/><polygon class="cls-31" points="107.17 0 106.56 64 103.12 64 103.72 0 107.17 0"/><polygon class="cls-32" points="110.62 0 110.01 64 106.56 64 107.17 0 110.62 0"/><polygon class="cls-33" points="114.07 0 113.46 64 110.01 64 110.62 0 114.07 0"/><polygon class="cls-34" points="117.52 0 116.91 64 113.46 64 114.07 0 117.52 0"/><polygon class="cls-35" points="120.97 0 120.36 64 116.91 64 117.52 0 120.97 0"/><polygon class="cls-36" points="124.41 0 123.81 64 120.36 64 120.97 0 124.41 0"/><polygon class="cls-37" points="127.86 0 127.25 64 123.81 64 124.41 0 127.86 0"/><polygon class="cls-38" points="131.31 0 130.7 64 127.25 64 127.86 0 131.31 0"/><polygon class="cls-39" points="134.76 0 134.15 64 130.7 64 131.31 0 134.76 0"/><polygon class="cls-40" points="138.21 0 137.6 64 134.15 64 134.76 0 138.21 0"/><polygon class="cls-41" points="141.65 0 141.04 64 137.6 64 138.21 0 141.65 0"/><polygon class="cls-42" points="145.1 0 144.49 64 141.04 64 141.65 0 145.1 0"/><polygon class="cls-43" points="148.55 0 147.94 64 144.49 64 145.1 0 148.55 0"/><polygon class="cls-44" points="152 0 151.39 64 147.94 64 148.55 0 152 0"/><polygon class="cls-45" points="155.44 0 154.84 64 151.39 64 152 0 155.44 0"/><polygon class="cls-46" points="158.89 0 158.29 64 154.84 64 155.44 0 158.89 0"/><polygon class="cls-47" points="162.34 0 161.73 64 158.29 64 158.89 0 162.34 0"/><polygon class="cls-48" points="165.79 0 165.18 64 161.73 64 162.34 0 165.79 0"/><polygon class="cls-49" points="169.24 0 168.63 64 165.18 64 165.79 0 169.24 0"/><polygon class="cls-50" points="172.69 0 172.08 64 168.63 64 169.24 0 172.69 0"/><polygon class="cls-51" points="176.13 0 175.53 64 172.08 64 172.69 0 176.13 0"/><polygon class="cls-52" points="179.58 0 178.97 64 175.53 64 176.13 0 179.58 0"/><polygon class="cls-53" points="183.03 0 182.42 64 178.97 64 179.58 0 183.03 0"/><polygon class="cls-54" points="186.48 0 185.87 64 182.42 64 183.03 0 186.48 0"/><polygon class="cls-55" points="189.93 0 189.32 64 185.87 64 186.48 0 189.93 0"/><polygon class="cls-56" points="193.37 0 192.77 64 189.32 64 189.93 0 193.37 0"/><polygon class="cls-57" points="196.82 0 196.21 64 192.77 64 193.37 0 196.82 0"/><polygon class="cls-58" points="200.27 0 199.66 64 196.21 64 196.82 0 200.27 0"/><polygon class="cls-59" points="203.72 0 203.11 64 199.66 64 200.27 0 203.72 0"/><polygon class="cls-60" points="207.17 0 206.56 64 203.11 64 203.72 0 207.17 0"/><polygon class="cls-61" points="210.61 0 210.01 64 206.56 64 207.17 0 210.61 0"/><polygon class="cls-62" points="214.06 0 213.46 64 210.01 64 210.61 0 214.06 0"/><polygon class="cls-63" points="217.51 0 216.9 64 213.46 64 214.06 0 217.51 0"/><polygon class="cls-64" points="220.96 0 220.35 64 216.9 64 217.51 0 220.96 0"/><polygon class="cls-65" points="224.41 0 223.8 64 220.35 64 220.96 0 224.41 0"/><polygon class="cls-66" points="227.85 0 227.25 64 223.8 64 224.41 0 227.85 0"/><polygon class="cls-67" points="231.3 0 230.69 64 227.25 64 227.85 0 231.3 0"/><polygon class="cls-68" points="234.75 0 234.14 64 230.69 64 231.3 0 234.75 0"/><polygon class="cls-69" points="238.2 0 237.59 64 234.14 64 234.75 0 238.2 0"/><polygon class="cls-70" points="241.65 0 241.04 64 237.59 64 238.2 0 241.65 0"/><polygon class="cls-71" points="245.09 0 244.49 64 241.04 64 241.65 0 245.09 0"/><polygon class="cls-72" points="248.54 0 247.94 64 244.49 64 245.09 0 248.54 0"/><polygon class="cls-73" points="251.99 0 251.38 64 247.94 64 248.54 0 251.99 0"/><polygon class="cls-74" points="255.44 0 254.83 64 251.38 64 251.99 0 255.44 0"/><polygon class="cls-75" points="258.89 0 258.28 64 254.83 64 255.44 0 258.89 0"/><polygon class="cls-76" points="262.33 0 261.73 64 258.28 64 258.89 0 262.33 0"/><polygon class="cls-77" points="265.78 0 265.18 64 261.73 64 262.33 0 265.78 0"/><polygon class="cls-78" points="269.23 0 268.62 64 265.18 64 265.78 0 269.23 0"/><polygon class="cls-79" points="272.68 0 272.07 64 268.62 64 269.23 0 272.68 0"/><polygon class="cls-80" points="276.13 0 275.52 64 272.07 64 272.68 0 276.13 0"/><polygon class="cls-81" points="279.57 0 278.97 64 275.52 64 276.13 0 279.57 0"/><polygon class="cls-82" points="283.02 0 282.42 64 278.97 64 279.57 0 283.02 0"/><polygon class="cls-83" points="286.47 0 285.86 64 282.42 64 283.02 0 286.47 0"/><polygon class="cls-84" points="289.92 0 289.31 64 285.86 64 286.47 0 289.92 0"/><polygon class="cls-85" points="293.37 0 292.76 64 289.31 64 289.92 0 293.37 0"/><polygon class="cls-86" points="296.82 0 296.21 64 292.76 64 293.37 0 296.82 0"/><polygon class="cls-87" points="300.26 0 299.66 64 296.21 64 296.82 0 300.26 0"/><polygon class="cls-88" points="303.71 0 303.1 64 299.66 64 300.26 0 303.71 0"/><polygon class="cls-89" points="307.16 0 306.55 64 303.1 64 303.71 0 307.16 0"/><polygon class="cls-90" points="310.61 0 310 64 306.55 64 307.16 0 310.61 0"/><polygon class="cls-91" points="314.06 0 313.45 64 310 64 310.61 0 314.06 0"/><polygon class="cls-92" points="317.5 0 316.9 64 313.45 64 314.06 0 317.5 0"/><polygon class="cls-93" points="320.95 0 320.34 64 316.9 64 317.5 0 320.95 0"/><polygon class="cls-94" points="324.4 0 323.79 64 320.34 64 320.95 0 324.4 0"/><polygon class="cls-95" points="327.85 0 327.24 64 323.79 64 324.4 0 327.85 0"/><polygon class="cls-96" points="331.3 0 330.69 64 327.24 64 327.85 0 331.3 0"/><polygon class="cls-97" points="334.74 0 334.14 64 330.69 64 331.3 0 334.74 0"/><polygon class="cls-98" points="338.19 0 337.58 64 334.14 64 334.74 0 338.19 0"/><polygon class="cls-99" points="341.64 0 341.03 64 337.58 64 338.19 0 341.64 0"/><polygon class="cls-100" points="345.09 0 344.48 64 341.03 64 341.64 0 345.09 0"/><polygon class="cls-101" points="348.54 0 347.93 64 344.48 64 345.09 0 348.54 0"/><polygon class="cls-102" points="351.99 0 351.38 64 347.93 64 348.54 0 351.99 0"/><polygon class="cls-103" points="355.43 0 354.82 64 351.38 64 351.99 0 355.43 0"/><polygon class="cls-103" points="354.82 64 355.43 0 363.29 0 363.29 64 354.82 64"/></g></g></g></svg>