<svg width="34" height="33" viewBox="0 0 34 33" fill="none" xmlns="http://www.w3.org/2000/svg">
<g clip-path="url(#clip0)">
<path d="M26.9987 28.4392C34.206 22.0885 34.2057 10.9112 26.9984 4.56052C21.0546 -0.676749 11.9819 -0.676749 6.03813 4.56052C-1.16948 10.9112 -1.16919 22.0891 6.03842 28.4398C11.9825 33.6768 21.0549 33.6765 26.9987 28.4392Z" stroke="#3B4B5B" stroke-width="1.26525" stroke-miterlimit="10"/>
<path d="M9.37851 9.02246C9.37851 9.63438 9.37851 10.1129 9.37851 10.6592C9.57002 10.6592 9.73796 10.652 9.90503 10.6607C10.5164 10.692 11.1352 10.6797 11.7371 10.7743C12.6581 10.9189 13.4279 11.3868 14.0847 12.0499C16.3086 14.2962 18.545 16.5306 20.7594 18.7862C21.1703 19.2048 21.6109 19.4452 22.2015 19.4225C22.6668 19.4047 23.1335 19.4191 23.652 19.4191C23.652 18.8995 23.652 18.4026 23.652 17.7964C24.8778 18.8603 26.0191 19.8507 27.2047 20.8796C26.0401 21.8929 24.9 22.8853 23.6916 23.9369C23.6916 23.3672 23.6916 22.8744 23.6916 22.3151C23.4889 22.3151 23.3354 22.3197 23.1824 22.3142C22.5299 22.2912 21.8708 22.3153 21.227 22.2285C20.2565 22.0974 19.4697 21.5881 18.7854 20.8911C16.6732 18.7404 14.5309 16.6197 12.4381 14.4504C11.7928 13.7815 11.0854 13.45 10.1684 13.5316C9.92055 13.5538 9.66894 13.5351 9.38656 13.5351C9.38656 14.0699 9.38656 14.5588 9.38656 15.1831C8.15553 14.1151 7.01048 13.1222 5.83179 12.0996C7.01106 11.0762 8.15496 10.0838 9.37851 9.02246Z" stroke="white" stroke-width="0.690136" stroke-miterlimit="10"/>
<path d="M23.7495 9.1228C24.8899 10.1143 26.0307 11.1055 27.2042 12.1258C26.031 13.146 24.8885 14.1392 23.6764 15.1934C23.6764 14.6243 23.6764 14.1306 23.6764 13.6179C22.9863 13.6179 22.3448 13.5664 21.7179 13.6403C21.4211 13.6754 21.1241 13.9161 20.8771 14.1234C20.2953 14.6114 19.7438 15.1353 19.1917 15.6342C18.6203 15.0669 17.95 14.4012 17.28 13.7355C19.215 11.7128 19.8557 10.3219 23.6428 10.6739C23.6428 10.173 23.6428 9.67347 23.6428 9.17399C23.6785 9.15702 23.7141 9.14006 23.7495 9.1228Z" stroke="#3B4B5B" stroke-width="0.690136" stroke-miterlimit="10"/>
<path d="M5.83228 20.9096C7.01787 19.8798 8.15171 18.8949 9.36002 17.8456C9.36002 18.4303 9.36002 18.9254 9.36002 19.4445C10.4913 19.5089 11.5639 19.6193 12.3656 18.6209C12.7719 18.1148 13.2512 17.6677 13.6852 17.2073C14.4262 17.9371 15.0991 18.5993 15.807 19.2967C15.0338 20.0262 14.2962 20.7784 13.4974 21.4591C12.7978 22.0552 11.9253 22.2789 11.0172 22.3338C10.6189 22.358 10.2158 22.3727 9.81925 22.3404C9.43248 22.3088 9.33558 22.4644 9.36261 22.8175C9.38878 23.1614 9.36836 23.5091 9.36836 23.9778C8.15602 22.9259 7.0127 21.9338 5.83228 20.9096Z" stroke="#3B4B5B" stroke-width="0.690136" stroke-miterlimit="10"/>
</g>
<defs>
<clipPath id="clip0">
<rect width="33.0365" height="33" fill="white"/>
</clipPath>
</defs>
</svg>
