<svg width="37" height="37" viewBox="0 0 37 37" fill="none" xmlns="http://www.w3.org/2000/svg">
<path d="M18.5 35C27.6127 35 35 27.6127 35 18.5C35 9.3873 27.6127 2 18.5 2C9.38727 2 2 9.3873 2 18.5C2 27.6127 9.38727 35 18.5 35Z" stroke="white" stroke-width="2.27725" stroke-miterlimit="10"/>
<path d="M18.3543 31.4075C25.4431 31.4075 31.1897 25.6609 31.1897 18.572C31.1897 11.4832 25.4431 5.73657 18.3543 5.73657C11.2654 5.73657 5.5188 11.4832 5.5188 18.572C5.5188 25.6609 11.2654 31.4075 18.3543 31.4075Z" stroke="#3B4B5B" stroke-width="2.27725" stroke-miterlimit="10"/>
<path d="M18.5002 27.4287C23.3916 27.4287 27.3569 23.4634 27.3569 18.572C27.3569 13.6806 23.3916 9.71533 18.5002 9.71533C13.6088 9.71533 9.64355 13.6806 9.64355 18.572C9.64355 23.4634 13.6088 27.4287 18.5002 27.4287Z" stroke="white" stroke-width="2.27725" stroke-miterlimit="10"/>
<path d="M18.3541 23.539C21.0974 23.539 23.3212 21.3151 23.3212 18.5719C23.3212 15.8286 21.0974 13.6047 18.3541 13.6047C15.6108 13.6047 13.387 15.8286 13.387 18.5719C13.387 21.3151 15.6108 23.539 18.3541 23.539Z" stroke="#3B4B5B" stroke-width="2.27725" stroke-miterlimit="10"/>
<path d="M18.4998 20.495C19.5618 20.495 20.4227 19.6341 20.4227 18.5721C20.4227 17.5101 19.5618 16.6492 18.4998 16.6492C17.4378 16.6492 16.5769 17.5101 16.5769 18.5721C16.5769 19.6341 17.4378 20.495 18.4998 20.495Z" stroke="white" stroke-width="2.27725" stroke-miterlimit="10"/>
</svg>
