<svg width="97" height="97" viewBox="0 0 97 97" fill="none" xmlns="http://www.w3.org/2000/svg">
<path d="M92.9973 48.4987C92.9973 73.0746 73.0746 92.9973 48.4987 92.9973C23.9227 92.9973 4 73.0746 4 48.4987C4 23.9227 23.9227 4 48.4987 4C73.0746 4 92.9973 23.9227 92.9973 48.4987Z" fill="#3B4B5B" stroke="#3B4B5B" stroke-width="8"/>
<path d="M48.0707 92.7056C72.3671 92.7056 92.0632 73.0095 92.0632 48.713C92.0632 24.4166 72.3671 4.72046 48.0707 4.72046C23.7743 4.72046 4.07812 24.4166 4.07812 48.713C4.07812 73.0095 23.7743 92.7056 48.0707 92.7056Z" fill="#44ADBF" stroke="#44ADBF" stroke-width="2" stroke-miterlimit="10"/>
<path d="M48.0702 86.4402C68.9065 86.4402 85.7976 69.5491 85.7976 48.7128C85.7976 27.8765 68.9065 10.9854 48.0702 10.9854C27.2339 10.9854 10.3428 27.8765 10.3428 48.7128C10.3428 69.5491 27.2339 86.4402 48.0702 86.4402Z" fill="#3B4B5B"/>
<path d="M48.0703 78.1993C64.3552 78.1993 77.5567 64.9978 77.5567 48.7129C77.5567 32.4281 64.3552 19.2266 48.0703 19.2266C31.7855 19.2266 18.584 32.4281 18.584 48.7129C18.584 64.9978 31.7855 78.1993 48.0703 78.1993Z" fill="#44ADBF" stroke="#44ADBF" stroke-width="2" stroke-miterlimit="10"/>
<path d="M48.0706 63.3129C56.1339 63.3129 62.6706 56.7763 62.6706 48.713C62.6706 40.6497 56.1339 34.113 48.0706 34.113C40.0073 34.113 33.4707 40.6497 33.4707 48.713C33.4707 56.7763 40.0073 63.3129 48.0706 63.3129Z" fill="#3B4B5B"/>
<path d="M48.07 54.3646C51.1915 54.3646 53.722 51.8341 53.722 48.7126C53.722 45.591 51.1915 43.0605 48.07 43.0605C44.9485 43.0605 42.418 45.591 42.418 48.7126C42.418 51.8341 44.9485 54.3646 48.07 54.3646Z" fill="#44ADBF" stroke="#44ADBF" stroke-width="4" stroke-miterlimit="10"/>
</svg>
