<svg width="38" height="27" viewBox="0 0 38 27" fill="none" xmlns="http://www.w3.org/2000/svg">
<path d="M36.9942 20.933C36.2808 20.933 35.6162 20.933 34.9516 20.933C34.0901 20.933 33.2291 20.932 32.3676 20.9335C31.9732 20.9341 31.5716 20.9497 31.3772 21.3737C31.1652 21.8361 31.346 22.2165 31.6298 22.6046C31.8844 22.9533 32.1629 23.3425 32.2403 23.7504C32.4113 24.6519 31.9171 25.3716 30.9626 25.7353C30.0091 26.0985 29.0374 26.0954 28.0948 25.7015C26.7599 25.144 26.4617 23.7763 27.4157 22.6961C27.4749 22.629 27.5373 22.5651 27.5913 22.495C27.8553 22.1531 27.9556 21.7758 27.7664 21.3711C27.5789 20.9704 27.2006 20.9341 26.8176 20.9335C25.4365 20.9325 24.0554 20.933 22.6742 20.933C22.5137 20.933 22.3526 20.933 22.165 20.933C22.1541 20.76 22.1385 20.6301 22.138 20.4997C22.1364 19.0744 22.1286 17.6486 22.1468 16.2233C22.1494 16.0279 22.2539 15.6948 22.3646 15.6704C22.574 15.6247 22.841 15.7192 23.0504 15.8232C23.4802 16.0372 23.8616 16.4067 24.31 16.5148C25.2998 16.7538 26.1962 16.2794 26.6649 15.3378C27.264 14.1339 27.2712 12.8941 26.6727 11.6938C25.9748 10.295 24.3718 10.0264 23.198 11.0635C23.0468 11.1971 22.8686 11.3275 22.68 11.3862C22.3952 11.4745 22.1526 11.3566 22.15 11.0318C22.1375 9.4018 22.1442 7.77126 22.1442 6.1033C22.323 6.09551 22.4664 6.08407 22.6098 6.08356C23.9909 6.08148 25.3721 6.082 26.7532 6.08096C27.1627 6.08044 27.5825 6.07212 27.7758 5.6211C27.9753 5.15553 27.7961 4.76738 27.4942 4.3943C27.2744 4.12254 27.0364 3.82792 26.9382 3.50368C26.6768 2.64476 27.0359 1.83313 27.8771 1.42108C29.0416 0.851062 30.2393 0.845866 31.3783 1.4907C32.4164 2.07787 32.5874 3.33169 31.8023 4.23478C31.7243 4.32467 31.6396 4.40833 31.5653 4.50082C31.2946 4.83701 31.1896 5.20853 31.3668 5.62058C31.5445 6.03315 31.9176 6.07836 32.3001 6.0794C33.6963 6.08304 35.0919 6.08148 36.4881 6.08148C36.6357 6.08148 36.7827 6.08148 36.9443 6.08148C36.9651 6.17345 36.9942 6.24256 36.9948 6.31166C36.9973 7.84088 37.0062 9.37062 36.9932 10.8998C36.9864 11.6777 36.3089 12.0445 35.6219 11.6528C35.4442 11.5514 35.2951 11.3992 35.1382 11.2636C34.2922 10.5335 33.1382 10.6686 32.4897 11.5753C31.769 12.5829 31.7758 14.4597 32.5043 15.4574C33.1496 16.3412 34.2824 16.4659 35.1262 15.765C35.372 15.5608 35.6406 15.3441 35.9363 15.2485C36.4938 15.0687 36.9786 15.4168 36.9864 16.0019C37.0083 17.6189 36.9942 19.2365 36.9942 20.933Z" stroke="#3B4B5B" stroke-width="1.29903" stroke-miterlimit="10"/>
<path d="M6.03979 20.9252C6.03979 19.674 6.03979 18.4882 6.03979 17.303C6.03979 16.9169 6.03927 16.5308 6.03927 16.1447C6.03927 15.8002 5.96393 15.4869 5.6267 15.3186C5.27648 15.144 4.93094 15.1975 4.61294 15.4064C4.46537 15.503 4.33547 15.6288 4.20193 15.7457C3.37003 16.4747 2.24507 16.3692 1.57737 15.4989C0.803664 14.4898 0.80834 12.5153 1.58672 11.5088C2.24455 10.6582 3.36899 10.5485 4.18062 11.2542C4.32612 11.3804 4.46537 11.5192 4.62697 11.6205C5.33468 12.0648 6.03096 11.6927 6.03719 10.8587C6.04759 9.46306 6.04031 8.06738 6.04031 6.6717C6.04031 6.49607 6.04031 6.32045 6.04031 6.11468C6.21335 6.10273 6.34169 6.08662 6.47055 6.08662C7.89585 6.08454 9.32166 6.0861 10.747 6.0835C11.1325 6.08298 11.5046 6.11832 11.6838 6.52985C11.8709 6.95853 11.7373 7.33057 11.4671 7.68806C11.2375 7.99152 10.9647 8.29549 10.8483 8.64467C10.5874 9.42773 10.8987 10.2233 11.6298 10.6374C12.8301 11.3165 14.0813 11.3321 15.2821 10.6587C16.3245 10.0741 16.4684 8.82394 15.7004 7.90942C15.4734 7.6387 15.2691 7.29628 15.2021 6.95749C15.107 6.47581 15.4422 6.10429 15.9379 6.09857C17.5695 6.07883 19.201 6.0913 20.9002 6.0913C20.9002 6.27264 20.9002 6.42956 20.9002 6.58649C20.9002 8.05647 20.9703 9.53061 20.8768 10.9949C20.8072 12.0793 21.9119 12.5262 22.7292 12.0751C22.9339 11.9624 23.1122 11.7972 23.2909 11.6423C23.9997 11.0302 24.9251 11.145 25.3725 11.964C25.9217 12.9684 25.9222 14.0253 25.3881 15.0354C24.9433 15.8771 23.9945 16.0086 23.2826 15.3643C22.8326 14.9574 22.3608 14.6571 21.7232 14.8171C21.1553 14.96 20.9023 15.2848 20.9012 15.8652C20.8991 17.4391 20.9002 19.013 20.8986 20.5864C20.8986 20.6867 20.8851 20.787 20.8763 20.9132C20.7084 20.9221 20.5645 20.9361 20.4201 20.9361C19.0244 20.9377 17.6282 20.9351 16.2325 20.9376C15.8319 20.9387 15.4437 20.9111 15.2613 20.4762C15.081 20.046 15.2239 19.6797 15.4874 19.318C15.7352 18.9772 16.0283 18.6233 16.1301 18.231C16.3401 17.4188 15.9436 16.6675 15.1564 16.2824C14.0507 15.742 12.9111 15.7317 11.8085 16.2793C10.6384 16.8608 10.4305 18.165 11.2894 19.1538C11.4864 19.3809 11.6646 19.661 11.7436 19.9462C11.8834 20.4513 11.5612 20.9086 11.0421 20.9163C9.39597 20.9413 7.74984 20.9252 6.03979 20.9252Z" stroke="white" stroke-width="1.29903" stroke-miterlimit="10"/>
</svg>
