<svg width="38" height="41" viewBox="0 0 38 41" fill="none" xmlns="http://www.w3.org/2000/svg">
<path d="M15.9737 25.1573C16.8446 24.4749 19.342 25.6284 20.217 25.904C21.238 26.2252 22.2832 26.4825 23.2752 26.8892C24.503 27.3922 25.7154 28.0421 26.8261 28.7646C27.1783 28.9936 28.6235 29.8212 28.37 30.4003C28.2075 30.7716 26.2442 30.6966 25.7792 30.7905C24.5018 31.0473 23.677 31.5071 22.7021 32.3087C21.6351 33.1859 19.1417 31.7379 18.9456 30.5467C18.7577 29.4057 18.1332 28.7805 17.55 27.8083C17.1382 27.1218 16.5054 26.6319 16.0847 25.9389C15.8584 25.5664 15.5477 25.4908 15.9737 25.1573Z" fill="#3B4B5B"/>
<path d="M19.6752 40.6502L14.9668 38.668C15.1411 38.0671 15.6149 37.5199 15.9127 36.926C17.3189 34.1209 18.4687 31.0491 20.0988 28.4022C20.5455 27.6773 21.2308 27.6023 21.8589 27.7381C22.175 27.806 22.4751 27.9264 22.7245 28.0462C22.7599 28.0633 22.7942 28.081 22.8261 28.0993C23.7189 28.6064 23.5286 29.6766 23.1806 30.7592C23.1599 30.8224 23.1392 30.8855 23.118 30.9469C22.2246 33.6044 21.3738 36.3393 20.2926 38.9248C20.1006 39.3864 19.9298 40.0989 19.6752 40.6502Z" fill="#3B4B5B"/>
<path d="M18.2382 40.0457L16.3369 39.2452C16.9591 37.7836 17.6775 36.3929 18.3009 34.9148C18.8533 33.6055 19.4701 32.3565 20.0728 31.1009C20.6004 30.0024 20.9703 28.7403 21.7691 27.8313C21.798 27.7988 21.827 27.7675 21.8577 27.738C22.1909 27.4145 22.6146 27.31 22.8042 27.97C22.816 28.0107 22.8231 28.0544 22.8255 28.0993C22.858 28.5709 22.442 29.2385 22.2878 29.6618C21.4671 31.9143 20.5856 34.1403 19.6828 36.361C19.5251 36.7495 18.949 38.5286 18.2382 40.0457Z" fill="#3B4B5B"/>
<path d="M23.1099 6.23908C20.7371 7.15286 18.6892 8.68232 17.1525 10.7619C15.7628 12.6426 14.4086 15.1218 14.1026 17.4382C13.79 19.8047 13.9153 22.7721 15.2961 24.8098C16.1043 26.0028 17.4822 26.586 18.7578 27.1231C20.3507 27.7937 21.9436 28.4643 23.5359 29.1343C24.2484 29.4341 24.9568 29.7777 25.6836 30.0422C27.2522 30.6136 28.3252 31.0793 29.9754 30.4105C31.4336 29.8196 32.6176 28.701 33.7107 27.6031C35.6197 25.6858 36.8002 23.2526 37.5978 20.7007C38.2513 18.6105 38.0297 15.6378 37.4808 13.5233C36.8965 11.2714 35.6474 9.21004 33.8058 7.76795C30.7872 5.40441 26.6726 4.86783 23.1099 6.23908Z" fill="#3B4B5B"/>
<path d="M6.07251 24.3111C6.61018 23.3447 9.35993 23.4386 10.2734 23.353C11.3386 23.2532 12.4027 23.0844 13.4745 23.0744C14.8015 23.0614 16.1711 23.1901 17.4757 23.425C17.8892 23.4994 19.543 23.7019 19.5341 24.3341C19.5282 24.739 17.6907 25.432 17.2984 25.6982C16.2207 26.4308 15.6399 27.1746 15.0526 28.2914C14.4098 29.5139 11.5502 29.1467 10.9061 28.1249C10.2893 27.1462 9.47101 26.8121 8.5558 26.1427C7.90943 25.6699 7.13602 25.4639 6.47901 24.9887C6.12569 24.7325 5.81018 24.7839 6.07251 24.3111Z" fill="#44ADBF" stroke="#44ADBF" stroke-width="0.176302" stroke-miterlimit="10"/>
<path d="M15.5038 37.1534H10.3943C10.3216 36.5318 10.5455 35.8441 10.5887 35.1812C10.7943 32.0509 10.6602 28.7736 11.134 25.7022C11.264 24.8611 11.8666 24.5258 12.4982 24.4077C12.8155 24.3475 13.1393 24.3422 13.4158 24.3558C13.4554 24.3581 13.4938 24.3611 13.5304 24.3652C14.5502 24.4862 14.7913 25.5464 14.8911 26.6786C14.8965 26.7447 14.9024 26.8108 14.9065 26.8758C15.1157 29.6714 15.3951 32.5213 15.4034 35.3235C15.4046 35.8234 15.5239 36.5466 15.5038 37.1534Z" fill="#44ADBF" stroke="#44ADBF" stroke-width="0.176302" stroke-miterlimit="10"/>
<path d="M13.9454 37.1536H11.8828C11.8881 35.5651 12.0098 34.0049 12.0098 32.4011C12.0098 30.9803 12.0926 29.5901 12.1605 28.1994C12.2202 26.9822 12.0701 25.6759 12.453 24.5283C12.4671 24.487 12.4813 24.4469 12.4985 24.4079C12.6799 23.9805 13.0296 23.7202 13.4609 24.2544C13.4875 24.2875 13.5112 24.3247 13.5307 24.3654C13.7439 24.7875 13.6205 25.5637 13.6423 26.0141C13.7611 28.4083 13.8143 30.802 13.845 33.198C13.8503 33.6165 14.011 35.4795 13.9454 37.1536Z" fill="#44ADBF" stroke="#44ADBF" stroke-width="0.176302" stroke-miterlimit="10"/>
<path d="M5.29785 4.10903C3.46626 5.87106 2.1741 8.07523 1.56553 10.5881C1.01547 12.8602 0.731273 15.6706 1.34929 17.9237C1.98089 20.2259 3.25001 22.9117 5.31439 24.254C6.52265 25.0397 8.01924 25.0433 9.40357 25.0433C11.1318 25.0433 12.8606 25.0433 14.5888 25.0433C15.3616 25.0433 16.1486 25.0852 16.9208 25.0468C18.5881 24.9648 19.758 24.9777 21.0194 23.7216C22.1331 22.6112 22.7902 21.1213 23.3704 19.6852C24.3842 17.1776 24.5266 14.4776 24.2702 11.8165C24.0605 9.63715 22.7003 6.98318 21.3727 5.24771C19.9595 3.3995 18.0067 1.98456 15.7492 1.36947C12.0487 0.361248 8.04819 1.46274 5.29785 4.10903Z" fill="#44ADBF" stroke="#44ADBF" stroke-width="0.176302" stroke-miterlimit="10"/>
<path d="M26.675 30.109C27.9441 28.8411 27.9441 26.7854 26.675 25.5174C25.4059 24.2495 23.3483 24.2495 22.0792 25.5174C20.8101 26.7854 20.8101 28.8411 22.0792 30.109C23.3483 31.377 25.4059 31.377 26.675 30.109Z" fill="#F2EED1"/>
</svg>
