<svg width="43" height="46" viewBox="0 0 43 46" fill="none" xmlns="http://www.w3.org/2000/svg">
<path d="M21.3396 44.2292L16.2109 42.068C16.4008 41.4129 16.9337 40.8247 17.2413 40.1689C18.735 36.9844 20.1303 33.9236 21.801 30.8756C22.247 30.0621 23.0341 30.0036 23.7183 30.1516C24.0626 30.2256 24.3895 30.3569 24.6611 30.4875C24.6997 30.5068 24.737 30.5255 24.7718 30.5455C25.7442 31.0983 25.537 32.2651 25.1579 33.4454C25.1354 33.5143 25.1129 33.5831 25.0897 33.6501C24.1166 36.5475 23.1056 39.5156 22.0121 42.348C21.8171 42.8564 21.6176 43.6281 21.3396 44.2292Z" stroke="#3B4B5B" stroke-width="1.41965" stroke-miterlimit="10"/>
<path d="M25.0837 6.71195C22.4991 7.7082 20.2685 9.37571 18.5946 11.643C17.0809 13.6935 15.6058 16.3965 15.2724 18.9219C14.932 21.502 15.0684 24.7372 16.5725 26.9588C17.4529 28.2595 18.9537 28.8954 20.3432 29.481C22.0782 30.2121 23.8133 30.9432 25.5478 31.6737C26.3239 32.0006 27.0956 32.3752 27.8872 32.6635C29.5959 33.2865 30.7646 33.7943 32.5621 33.0651C34.1504 32.4209 35.4402 31.2013 36.6308 30.0042C38.7102 27.9139 39.996 25.2611 40.8649 22.4789C41.5767 20.2 41.3353 16.959 40.7374 14.6537C40.1009 12.1984 38.7404 9.95107 36.7344 8.37881C33.4457 5.80193 28.9645 5.21628 25.0837 6.71195Z" stroke="#3B4B5B" stroke-width="1.41965" stroke-miterlimit="10"/>
<path d="M14.8715 40.4172H13.1737C12.1092 40.4172 11.2745 39.5078 11.3595 38.4466C11.3666 38.3616 11.3723 38.2767 11.3781 38.1911C11.6021 34.7782 11.5229 31.2817 12.0391 27.9325C12.1807 27.0154 12.8371 26.6498 13.5251 26.5211C13.8707 26.4555 14.2234 26.4497 14.5246 26.4645C14.5677 26.4671 14.6095 26.4703 14.6494 26.4748C15.7602 26.6067 16.0228 27.7626 16.1316 28.997C16.1374 29.069 16.1438 29.1411 16.1483 29.2119C16.3761 32.2599 16.6806 35.3671 16.6896 38.4221C16.6896 38.4569 16.6902 38.4936 16.6915 38.5302C16.7211 39.5613 15.9025 40.4172 14.8715 40.4172Z" stroke="#44ADBF" stroke-width="1.41965" stroke-miterlimit="10"/>
<path d="M5.68149 4.38965C3.6864 6.31073 2.27889 8.71384 1.61601 11.4535C1.01684 13.9307 0.707288 16.9947 1.38047 19.4513C2.06845 21.9612 3.45086 24.8895 5.69951 26.353C7.01562 27.2096 8.6458 27.2134 10.1537 27.2134C12.0362 27.2134 13.9193 27.2134 15.8017 27.2134C16.6435 27.2134 17.5008 27.2591 18.3419 27.2173C20.1581 27.1278 21.4323 27.142 22.8057 25.7725C24.0189 24.5619 24.7345 22.9375 25.3665 21.3717C26.4709 18.6378 26.626 15.6941 26.3467 12.7928C26.1182 10.4167 24.6367 7.52323 23.1906 5.63111C21.6512 3.61608 19.5242 2.07343 17.065 1.40282C13.0343 0.303594 8.67733 1.5045 5.68149 4.38965Z" stroke="#44ADBF" stroke-width="1.41965" stroke-miterlimit="10"/>
<path d="M33.2502 31.259C34.867 29.6422 34.867 27.0209 33.2502 25.4041C31.6334 23.7873 29.0121 23.7873 27.3953 25.4041C25.7785 27.0209 25.7784 29.6422 27.3953 31.259C29.0121 32.8758 31.6334 32.8758 33.2502 31.259Z" stroke="#F2EED1" stroke-width="1.41965" stroke-miterlimit="10"/>
</svg>
