<svg width="83" height="90" viewBox="0 0 83 90" fill="none" xmlns="http://www.w3.org/2000/svg">
<path d="M33.8456 55.0313C35.7533 53.5318 41.2238 56.0676 43.1411 56.6694C45.3779 57.3762 47.6672 57.9397 49.8421 58.8327C52.532 59.9359 55.1886 61.3638 57.621 62.9493C58.3936 63.4507 61.5605 65.2702 61.0024 66.5405C60.6447 67.3572 56.3475 67.19 55.3269 67.3954C52.5272 67.9589 50.7244 68.9713 48.5877 70.7287C46.2507 72.6533 40.7898 69.4775 40.3605 66.8605C39.9504 64.3533 38.5816 62.9827 37.3034 60.848C36.402 59.3389 35.0141 58.2644 34.0936 56.7458C33.5928 55.9291 32.9155 55.7668 33.8456 55.0313Z" fill="#3B4B5B"/>
<path d="M41.9491 89.0431L31.6377 84.6926C32.0192 83.3745 33.059 82.171 33.7076 80.8673C36.7886 74.7115 39.3069 67.9636 42.8791 62.1565C43.8569 60.5662 45.3592 60.3991 46.7328 60.6999C47.4244 60.848 48.0825 61.1154 48.631 61.3781C48.7073 61.4163 48.7836 61.4545 48.8552 61.4927C50.8106 62.6054 50.3957 64.955 49.6326 67.3332C49.5849 67.4717 49.542 67.6102 49.4943 67.7439C47.5388 73.5797 45.674 79.5827 43.3036 85.2561C42.8791 86.2685 42.5071 87.8349 41.9491 89.0431Z" fill="#3B4B5B"/>
<path d="M38.8053 87.7156L34.6416 85.9582C36.0056 82.749 37.5795 79.6973 38.9436 76.4499C40.155 73.575 41.5047 70.8338 42.8259 68.0783C43.9801 65.6666 44.7908 62.8968 46.5412 60.9006C46.6032 60.8289 46.67 60.7621 46.7368 60.6952C47.4665 59.9837 48.3965 59.7544 48.8114 61.2062C48.8353 61.297 48.8544 61.3925 48.8591 61.488C48.9307 62.5243 48.0197 63.9904 47.6811 64.9169C45.883 69.8596 43.9514 74.7498 41.9769 79.6209C41.6192 80.4805 40.3601 84.387 38.8053 87.7156Z" fill="#3B4B5B"/>
<path d="M49.4796 13.5026C44.281 15.5084 39.7978 18.8656 36.4306 23.4311C33.3877 27.5572 30.4212 33.0014 29.7487 38.0874C29.0619 43.2833 29.3385 49.7972 32.3623 54.2719C34.1317 56.889 37.1508 58.1736 39.9456 59.3484C43.4368 60.8193 46.9232 62.2902 50.4144 63.7658C51.974 64.4249 53.5288 65.1794 55.117 65.7572C58.551 67.0132 60.9023 68.0352 64.5175 66.5643C67.713 65.2654 70.3027 62.8107 72.7017 60.399C76.8845 56.1917 79.4695 50.8478 81.2151 45.246C82.6459 40.6567 82.1594 34.1332 80.9575 29.4913C79.6793 24.5486 76.9417 20.0213 72.9068 16.8551C66.2917 11.6688 57.2823 10.4892 49.4796 13.5026Z" fill="#3B4B5B"/>
<path d="M13.1121 53.1735C14.2901 51.0531 20.3139 51.2585 22.3122 51.0723C24.6445 50.8526 26.9767 50.4849 29.3232 50.461C32.2278 50.4323 35.2277 50.7141 38.0846 51.2298C38.9908 51.3922 42.6107 51.8363 42.5916 53.226C42.5773 54.1143 38.552 55.6377 37.6935 56.2203C35.3326 57.8297 34.0592 59.463 32.7762 61.9129C31.3693 64.5967 25.1023 63.7897 23.6953 61.5451C22.3456 59.3961 20.5523 58.6655 18.5492 57.1946C17.1327 56.1583 15.4395 55.7046 13.9992 54.6587C13.2266 54.1 12.5398 54.2098 13.1121 53.1735Z" fill="#44ADBF" stroke="#44ADBF" stroke-width="4" stroke-miterlimit="10"/>
<path d="M33.7685 81.3688H22.5748C22.4174 80.003 22.9087 78.4939 22.9993 77.0373C23.4476 70.1652 23.1567 62.9732 24.1916 56.23C24.4778 54.3819 25.7941 53.6464 27.182 53.3886C27.8784 53.2548 28.589 53.2453 29.1899 53.2739C29.2758 53.2787 29.3616 53.2835 29.4427 53.293C31.6748 53.5605 32.2042 55.8862 32.4236 58.3695C32.4331 58.5128 32.4474 58.6608 32.457 58.8041C32.9148 64.9407 33.5253 71.1968 33.5444 77.3477C33.5539 78.4461 33.8162 80.0316 33.7685 81.3688Z" fill="#44ADBF" stroke="#44ADBF" stroke-width="4" stroke-miterlimit="10"/>
<path d="M30.3535 81.3687H25.8369C25.8465 77.8825 26.1135 74.4584 26.1135 70.934C26.1135 67.8155 26.2948 64.7639 26.4426 61.7075C26.5714 59.038 26.2423 56.1678 27.0817 53.6463C27.1103 53.5556 27.1437 53.4696 27.1819 53.3837C27.5777 52.4476 28.3456 51.8746 29.2899 53.0446C29.3472 53.1162 29.3996 53.1974 29.4426 53.2882C29.91 54.2146 29.6381 55.9195 29.6858 56.9081C29.9481 62.166 30.0626 67.4192 30.1294 72.6771C30.1484 73.6036 30.4966 77.6915 30.3535 81.3687Z" fill="#44ADBF" stroke="#44ADBF" stroke-width="4" stroke-miterlimit="10"/>
<path d="M11.4144 8.82255C7.40334 12.6908 4.57033 17.5332 3.23967 23.0491C2.03302 28.0348 1.413 34.2049 2.76273 39.1524C4.14585 44.205 6.9264 50.1028 11.4478 53.0494C14.0948 54.7734 17.3714 54.7829 20.4047 54.7829C24.1916 54.7829 27.9785 54.7829 31.7606 54.7829C33.4537 54.7829 35.1755 54.8737 36.8686 54.7925C40.5219 54.611 43.0831 54.6397 45.8446 51.8841C48.2865 49.4486 49.7221 46.1773 50.9955 43.0254C53.218 37.5191 53.5281 31.5926 52.9653 25.7521C52.5074 20.9669 49.5265 15.1407 46.6172 11.3297C43.5219 7.27048 39.2437 4.16634 34.2979 2.81484C26.1995 0.59419 17.4381 3.01542 11.4144 8.82255Z" fill="#44ADBF" stroke="#44ADBF" stroke-width="4" stroke-miterlimit="10"/>
<path d="M60.015 65.3609C64.6114 65.3609 68.3375 61.6299 68.3375 57.0275C68.3375 52.4251 64.6114 48.6941 60.015 48.6941C55.4185 48.6941 51.6924 52.4251 51.6924 57.0275C51.6924 61.6299 55.4185 65.3609 60.015 65.3609Z" fill="#F2EED1"/>
</svg>
