<svg width="91" height="98" viewBox="0 0 91 98" fill="none" xmlns="http://www.w3.org/2000/svg">
<g filter="url(#filter0_d)">
<path d="M37.8456 55.0313C39.7533 53.5318 45.2238 56.0676 47.1411 56.6694C49.3779 57.3762 51.6672 57.9397 53.8421 58.8327C56.532 59.9359 59.1886 61.3638 61.621 62.9493C62.3936 63.4507 65.5605 65.2702 65.0024 66.5405C64.6447 67.3572 60.3475 67.19 59.3269 67.3954C56.5272 67.9589 54.7244 68.9713 52.5877 70.7287C50.2507 72.6533 44.7898 69.4775 44.3605 66.8605C43.9504 64.3533 42.5816 62.9827 41.3034 60.848C40.402 59.3389 39.0141 58.2644 38.0936 56.7458C37.5928 55.9291 36.9155 55.7668 37.8456 55.0313Z" fill="#3B4B5B"/>
<path d="M45.9491 89.0431L35.6377 84.6926C36.0192 83.3745 37.059 82.171 37.7076 80.8673C40.7886 74.7115 43.3069 67.9636 46.8791 62.1565C47.8569 60.5662 49.3592 60.3991 50.7328 60.6999C51.4244 60.848 52.0825 61.1154 52.631 61.3781C52.7073 61.4163 52.7836 61.4545 52.8552 61.4927C54.8106 62.6054 54.3957 64.955 53.6326 67.3332C53.5849 67.4717 53.542 67.6102 53.4943 67.7439C51.5388 73.5797 49.674 79.5827 47.3036 85.2561C46.8791 86.2685 46.5071 87.8349 45.9491 89.0431Z" fill="#3B4B5B"/>
<path d="M42.8053 87.7156L38.6416 85.9582C40.0056 82.749 41.5795 79.6973 42.9436 76.4499C44.155 73.575 45.5047 70.8338 46.8259 68.0783C47.9801 65.6666 48.7908 62.8968 50.5412 60.9006C50.6032 60.8289 50.67 60.7621 50.7368 60.6952C51.4665 59.9837 52.3965 59.7544 52.8114 61.2062C52.8353 61.297 52.8544 61.3925 52.8591 61.488C52.9307 62.5243 52.0197 63.9904 51.6811 64.9169C49.883 69.8596 47.9514 74.7498 45.9769 79.6209C45.6192 80.4805 44.3601 84.387 42.8053 87.7156Z" fill="#3B4B5B"/>
<path d="M53.4796 13.5026C48.281 15.5084 43.7978 18.8656 40.4306 23.4311C37.3877 27.5572 34.4212 33.0014 33.7487 38.0874C33.0619 43.2833 33.3385 49.7972 36.3623 54.2719C38.1317 56.889 41.1508 58.1736 43.9456 59.3484C47.4368 60.8193 50.9232 62.2902 54.4144 63.7658C55.974 64.4249 57.5288 65.1794 59.117 65.7572C62.551 67.0132 64.9023 68.0352 68.5175 66.5643C71.713 65.2654 74.3027 62.8107 76.7017 60.399C80.8845 56.1917 83.4695 50.8478 85.2151 45.246C86.6459 40.6567 86.1594 34.1332 84.9575 29.4913C83.6793 24.5486 80.9417 20.0213 76.9068 16.8551C70.2917 11.6688 61.2823 10.4892 53.4796 13.5026Z" fill="#3B4B5B"/>
<path d="M17.1121 53.1735C18.2901 51.0531 24.3139 51.2585 26.3122 51.0723C28.6445 50.8526 30.9767 50.4849 33.3232 50.461C36.2278 50.4323 39.2277 50.7141 42.0846 51.2298C42.9908 51.3922 46.6107 51.8363 46.5916 53.226C46.5773 54.1143 42.552 55.6377 41.6935 56.2203C39.3326 57.8297 38.0592 59.463 36.7762 61.9129C35.3693 64.5967 29.1023 63.7897 27.6953 61.5451C26.3456 59.3961 24.5523 58.6655 22.5492 57.1946C21.1327 56.1583 19.4395 55.7046 17.9992 54.6587C17.2266 54.1 16.5398 54.2098 17.1121 53.1735Z" fill="#44ADBF" stroke="#44ADBF" stroke-width="4" stroke-miterlimit="10"/>
<path d="M37.7685 81.3688H26.5748C26.4174 80.003 26.9087 78.4939 26.9993 77.0373C27.4476 70.1652 27.1567 62.9732 28.1916 56.23C28.4778 54.3819 29.7941 53.6464 31.182 53.3886C31.8784 53.2548 32.589 53.2453 33.1899 53.2739C33.2758 53.2787 33.3616 53.2835 33.4427 53.293C35.6748 53.5605 36.2042 55.8862 36.4236 58.3695C36.4331 58.5128 36.4474 58.6608 36.457 58.8041C36.9148 64.9407 37.5253 71.1968 37.5444 77.3477C37.5539 78.4461 37.8162 80.0316 37.7685 81.3688Z" fill="#44ADBF" stroke="#44ADBF" stroke-width="4" stroke-miterlimit="10"/>
<path d="M34.3535 81.3687H29.8369C29.8465 77.8825 30.1135 74.4584 30.1135 70.934C30.1135 67.8155 30.2948 64.7639 30.4426 61.7075C30.5714 59.038 30.2423 56.1678 31.0817 53.6463C31.1103 53.5556 31.1437 53.4696 31.1819 53.3837C31.5777 52.4476 32.3456 51.8746 33.2899 53.0446C33.3472 53.1162 33.3996 53.1974 33.4426 53.2882C33.91 54.2146 33.6381 55.9195 33.6858 56.9081C33.9481 62.166 34.0626 67.4192 34.1294 72.6771C34.1484 73.6036 34.4966 77.6915 34.3535 81.3687Z" fill="#44ADBF" stroke="#44ADBF" stroke-width="4" stroke-miterlimit="10"/>
<path d="M15.4144 8.82255C11.4033 12.6908 8.57033 17.5332 7.23967 23.0491C6.03302 28.0348 5.413 34.2049 6.76273 39.1524C8.14585 44.205 10.9264 50.1028 15.4478 53.0494C18.0948 54.7734 21.3714 54.7829 24.4047 54.7829C28.1916 54.7829 31.9785 54.7829 35.7606 54.7829C37.4537 54.7829 39.1755 54.8737 40.8686 54.7925C44.5219 54.611 47.0831 54.6397 49.8446 51.8841C52.2865 49.4486 53.7221 46.1773 54.9955 43.0254C57.218 37.5191 57.5281 31.5926 56.9653 25.7521C56.5074 20.9669 53.5265 15.1407 50.6172 11.3297C47.5219 7.27048 43.2437 4.16634 38.2979 2.81484C30.1995 0.59419 21.4381 3.01542 15.4144 8.82255Z" fill="#44ADBF" stroke="#44ADBF" stroke-width="4" stroke-miterlimit="10"/>
<path d="M64.015 65.3609C68.6114 65.3609 72.3375 61.6299 72.3375 57.0275C72.3375 52.4251 68.6114 48.6941 64.015 48.6941C59.4185 48.6941 55.6924 52.4251 55.6924 57.0275C55.6924 61.6299 59.4185 65.3609 64.015 65.3609Z" fill="#F2EED1"/>
</g>
<defs>
<filter id="filter0_d" x="0" y="-0.000488281" width="90.0929" height="97.0436" filterUnits="userSpaceOnUse" color-interpolation-filters="sRGB">
<feFlood flood-opacity="0" result="BackgroundImageFix"/>
<feColorMatrix in="SourceAlpha" type="matrix" values="0 0 0 0 0 0 0 0 0 0 0 0 0 0 0 0 0 0 127 0" result="hardAlpha"/>
<feOffset dy="4"/>
<feGaussianBlur stdDeviation="2"/>
<feColorMatrix type="matrix" values="0 0 0 0 0 0 0 0 0 0 0 0 0 0 0 0 0 0 0.25 0"/>
<feBlend mode="normal" in2="BackgroundImageFix" result="effect1_dropShadow"/>
<feBlend mode="normal" in="SourceGraphic" in2="effect1_dropShadow" result="shape"/>
</filter>
</defs>
</svg>
