<svg width="33" height="33" viewBox="0 0 33 33" fill="none" xmlns="http://www.w3.org/2000/svg">
<path d="M16.4999 32.2709C25.21 32.2709 32.2709 25.21 32.2709 16.4999C32.2709 7.78989 25.21 0.729004 16.4999 0.729004C7.78989 0.729004 0.729004 7.78989 0.729004 16.4999C0.729004 25.21 7.78989 32.2709 16.4999 32.2709Z" stroke="#3B4B5B" stroke-width="1.45813" stroke-miterlimit="10"/>
<path d="M23.882 5.23361C23.882 8.57213 21.1656 11.2879 17.8271 11.2879C14.4886 11.2879 11.7722 8.57213 11.7722 5.23361C11.7722 4.39336 11.9442 3.5926 12.2552 2.86475C11.8087 3.05127 11.3646 3.26695 10.9235 3.5124C10.7862 4.06406 10.7126 4.64063 10.7126 5.23361C10.7126 9.15659 13.9041 12.3481 17.8277 12.3481C21.6632 12.3481 24.7994 9.29694 24.9374 5.49486C24.5771 5.19351 24.2162 4.91099 23.8541 4.64792C23.8717 4.84113 23.882 5.03615 23.882 5.23361Z" fill="white"/>
<path d="M28.8724 8.06534C28.8517 7.89766 28.7576 7.74638 28.5941 7.61575C27.3602 6.21291 26.1092 5.02878 24.8455 4.06581C24.9087 4.44614 24.9421 4.83619 24.9421 5.23414C24.9421 5.32162 24.9397 5.4085 24.9366 5.49538C25.8474 6.25726 26.7532 7.14307 27.6524 8.15162C23.9919 12.2544 20.2153 14.3019 16.4236 14.2393C12.7084 14.178 8.89231 12.0132 5.6583 8.13886C6.05807 7.59996 7.19541 6.17463 8.9719 4.80399C9.6147 4.30822 10.2654 3.87746 10.9228 3.51171C11.0504 3.00137 11.2326 2.51229 11.4635 2.05176C10.3984 2.53537 9.3498 3.1727 8.32425 3.96434C6.32721 5.5045 5.08233 7.12546 4.73056 7.61089C4.63396 7.68259 4.53006 7.79437 4.48511 7.95902C4.46809 8.02221 4.46202 8.08661 4.46566 8.1498C4.46141 8.21237 4.46749 8.27617 4.4845 8.33875C4.53189 8.51494 4.64672 8.63098 4.74818 8.70267C5.27857 9.34911 6.57024 10.8941 8.50469 12.345C11.0583 14.26 13.7163 15.2539 16.4053 15.2989C16.4685 15.3001 16.5305 15.3007 16.5937 15.3007C20.6953 15.3007 24.7319 13.0759 28.5935 8.68627C28.7576 8.55564 28.8511 8.40436 28.8718 8.23607C28.8754 8.20751 28.8766 8.17896 28.876 8.1504C28.8773 8.12245 28.876 8.0939 28.8724 8.06534ZM5.43532 8.46451L5.43593 8.4639C5.43593 8.4639 5.43593 8.46451 5.43532 8.46451ZM5.43654 7.83933L5.43715 7.83994C5.43715 7.83933 5.43715 7.83933 5.43654 7.83933ZM27.9386 7.80592C27.938 7.80653 27.938 7.80653 27.9374 7.80713C27.938 7.80653 27.9386 7.80592 27.9386 7.80592ZM27.938 7.80713C27.9283 7.81868 27.9185 7.83083 27.91 7.84237C27.9015 7.85452 27.893 7.86667 27.8857 7.87943C27.893 7.86667 27.9015 7.85452 27.91 7.84237C27.9185 7.83022 27.9276 7.81868 27.938 7.80713ZM27.8851 8.42259C27.9003 8.44811 27.9179 8.47241 27.938 8.4961C27.9173 8.4718 27.9003 8.44689 27.8851 8.42259ZM27.938 8.49549C27.9386 8.4961 27.9386 8.4961 27.9392 8.49671C27.9386 8.4961 27.9386 8.4961 27.938 8.49549Z" fill="white"/>
<path d="M27.9102 7.84237C27.9187 7.83022 27.9278 7.81867 27.9381 7.80713C27.9278 7.81867 27.9187 7.83022 27.9102 7.84237Z" fill="white"/>
<path d="M23.8532 4.64831C23.8022 4.11912 23.6831 3.60939 23.5039 3.12881C21.0002 1.54005 18.4496 0.807946 15.8772 0.946469C14.9495 0.996288 14.0291 1.15851 13.1189 1.4313C12.7684 1.86449 12.4762 2.34628 12.2544 2.86574C13.4653 2.36025 14.6949 2.07227 15.9338 2.00544C18.5882 1.86206 21.2389 2.74909 23.8532 4.64831Z" fill="white"/>
<path d="M12.2543 2.86462C12.476 2.34515 12.7682 1.86336 13.1188 1.43018C12.5629 1.59665 12.0112 1.80382 11.4638 2.05231C11.2329 2.51284 11.0501 3.00132 10.9231 3.51227C11.3636 3.26682 11.8077 3.05113 12.2543 2.86462Z" fill="white"/>
<path d="M23.853 4.64816C24.2145 4.91123 24.576 5.19314 24.9363 5.49509C24.9393 5.40821 24.9417 5.32133 24.9417 5.23384C24.9417 4.83589 24.9083 4.44584 24.8451 4.06551C24.3998 3.72589 23.9526 3.41361 23.5037 3.12866C23.6823 3.60924 23.802 4.11898 23.853 4.64816Z" fill="white"/>
<path d="M17.8493 9.06355C19.4733 9.06355 20.9338 7.88976 21.2461 6.3332C21.2741 6.19346 21.3682 5.34288 21.1355 4.67518C20.946 4.13081 20.7266 3.79179 20.6088 3.60952C20.5978 3.59312 20.5857 3.57429 20.576 3.5591C20.5292 3.42604 20.4296 3.31486 20.2971 3.2541C20.1075 3.16722 19.8846 3.19942 19.7272 3.33673L18.2794 4.60227V2.6587C18.2794 2.51714 18.2229 2.38226 18.1227 2.28262C18.0224 2.18298 17.8863 2.1283 17.7454 2.12891C15.8723 2.14289 14.405 3.64355 14.405 5.54581C14.4062 7.45232 15.9835 9.06355 17.8493 9.06355ZM17.2204 3.2541V5.76939C17.2204 5.97717 17.342 6.16612 17.5315 6.25179C17.7211 6.33745 17.9428 6.30525 18.0996 6.16794L19.9393 4.55974C20.0037 4.68672 20.0711 4.83922 20.1355 5.0227C20.2746 5.42247 20.2236 6.01788 20.2066 6.12967C19.9921 7.18013 18.9587 8.00276 17.8499 8.00276C16.5582 8.00276 15.467 6.87696 15.467 5.54459C15.4664 4.42183 16.2034 3.50138 17.2204 3.2541Z" fill="#3B4B5B"/>
<path d="M9.50803 21.6472C9.50803 24.9857 12.1831 27.7015 15.4712 27.7015C18.7593 27.7015 21.4337 24.9857 21.4337 21.6472C21.4337 20.8069 21.2642 20.0062 20.958 19.2783C21.3979 19.4648 21.8353 19.6805 22.2697 19.926C22.4052 20.4776 22.4775 21.0542 22.4775 21.6472C22.4775 25.5702 19.334 28.7617 15.4706 28.7617C11.6928 28.7617 8.6046 25.7105 8.46851 21.9084C8.82332 21.6071 9.17874 21.3246 9.53537 21.0615C9.51775 21.2547 9.50803 21.4497 9.50803 21.6472Z" fill="white"/>
<path d="M4.59347 24.4783C4.61413 24.3106 4.70648 24.1593 4.86748 24.0287C6.0832 22.6259 7.31472 21.4417 8.55899 20.4788C8.49702 20.8591 8.46421 21.2492 8.46421 21.6471C8.46421 21.7346 8.46604 21.8215 8.46968 21.9084C7.57293 22.6702 6.68104 23.556 5.79522 24.5646C9.40046 28.668 13.1193 30.7149 16.8533 30.6529C20.512 30.5915 24.2704 28.4268 27.4552 24.5524C27.0615 24.0135 25.9412 22.5882 24.192 21.2176C23.5589 20.7218 22.918 20.291 22.2709 19.9253C22.1458 19.4149 21.9659 18.9259 21.7381 18.4653C22.7873 18.9489 23.8196 19.5863 24.8299 20.3779C26.7966 21.9181 28.0227 23.539 28.3696 24.0245C28.4643 24.0962 28.567 24.208 28.6108 24.3726C28.6278 24.4358 28.6339 24.5002 28.6296 24.5634C28.6339 24.6259 28.6278 24.6897 28.6114 24.7523C28.5652 24.9285 28.4516 25.0446 28.3513 25.1162C27.8288 25.7627 26.5572 27.3077 24.6519 28.7585C22.1373 30.6736 19.5199 31.6675 16.871 31.7125C16.809 31.7137 16.7476 31.7143 16.6857 31.7143C12.646 31.7143 8.67139 29.4894 4.86809 25.0998C4.70648 24.9692 4.61413 24.8179 4.59408 24.6496C4.59044 24.6211 4.58922 24.5925 4.59044 24.564C4.58861 24.536 4.58983 24.5075 4.59347 24.4783ZM27.6745 24.8781L27.6739 24.8775C27.6739 24.8775 27.6739 24.8781 27.6745 24.8781ZM27.6733 24.2523L27.6727 24.2529C27.6727 24.2529 27.6727 24.2529 27.6733 24.2523ZM5.51271 24.2189C5.51331 24.2195 5.51331 24.2195 5.51392 24.2201C5.51331 24.2201 5.51331 24.2195 5.51271 24.2189ZM5.51392 24.2201C5.52364 24.2316 5.53276 24.2438 5.54126 24.2553C5.54977 24.2675 5.55767 24.2796 5.56496 24.2924C5.55767 24.2796 5.54977 24.2675 5.54126 24.2553C5.53276 24.2438 5.52364 24.2316 5.51392 24.2201ZM5.56556 24.8356C5.55038 24.8611 5.53336 24.8854 5.51392 24.9091C5.53397 24.8854 5.55098 24.8605 5.56556 24.8356ZM5.51331 24.9091C5.51271 24.9097 5.51271 24.9097 5.5121 24.9103C5.51271 24.9097 5.51331 24.9097 5.51331 24.9091Z" fill="white"/>
<path d="M5.5415 24.2559C5.53299 24.2438 5.52388 24.2322 5.51416 24.2207C5.52388 24.2316 5.53299 24.2438 5.5415 24.2559Z" fill="white"/>
<path d="M9.53662 21.0619C9.58705 20.5327 9.70431 20.023 9.8805 19.5424C12.3466 17.9536 14.8582 17.2215 17.3911 17.36C18.3043 17.4099 19.2107 17.5721 20.1075 17.8449C20.4526 18.2781 20.7406 18.7599 20.9587 19.2793C19.766 18.7738 18.5552 18.4858 17.3352 18.419C14.7209 18.2756 12.1108 19.1627 9.53662 21.0619Z" fill="white"/>
<path d="M20.9586 19.2782C20.7405 18.7587 20.4525 18.2769 20.1074 17.8438C20.6548 18.0102 21.1986 18.2174 21.7375 18.4659C21.9653 18.9264 22.1452 19.4149 22.2703 19.9258C21.8359 19.6804 21.3985 19.4647 20.9586 19.2782Z" fill="white"/>
<path d="M9.53645 21.0617C9.18042 21.3248 8.82439 21.6067 8.46958 21.9087C8.46654 21.8218 8.46411 21.7349 8.46411 21.6474C8.46411 21.2495 8.49692 20.8594 8.55889 20.4791C8.99755 20.1395 9.43802 19.8272 9.87972 19.5422C9.70413 20.0228 9.58627 20.5319 9.53645 21.0617Z" fill="white"/>
<path d="M15.4486 25.4769C13.8495 25.4769 12.4108 24.3031 12.1034 22.7465C12.0755 22.6068 11.9837 21.7562 12.2122 21.0885C12.3987 20.5441 12.615 20.2051 12.731 20.0229C12.7413 20.0065 12.7535 19.9876 12.7632 19.9724C12.8094 19.8394 12.9072 19.7282 13.0378 19.6674C13.2243 19.5806 13.4443 19.6128 13.5986 19.7501L15.0239 21.0156V19.072C15.0239 18.9305 15.0792 18.7956 15.1782 18.696C15.2767 18.5963 15.4109 18.5416 15.5501 18.5422C17.3946 18.5562 18.8394 20.0569 18.8394 21.9591C18.8394 23.8656 17.2865 25.4769 15.4486 25.4769ZM16.0683 19.6674V22.1827C16.0683 22.3905 15.9486 22.5794 15.7621 22.6651C15.5756 22.7508 15.3569 22.7186 15.2025 22.5813L13.3908 20.9731C13.3276 21.1001 13.2608 21.2525 13.1976 21.436C13.0603 21.8358 13.1107 22.4312 13.1277 22.543C13.3392 23.5935 14.3568 24.4161 15.4486 24.4161C16.7208 24.4161 17.7956 23.2903 17.7956 21.9579C17.795 20.8352 17.0696 19.9147 16.0683 19.6674Z" fill="#3B4B5B"/>
</svg>
