<svg width="86" height="86" viewBox="0 0 86 86" fill="none" xmlns="http://www.w3.org/2000/svg">
<g clip-path="url(#clip0)">
<path d="M43.0142 -0.000583384C66.6727 -0.062501 85.9311 19.1762 86.0001 42.9419C86.0691 66.5626 66.8204 85.9481 43.2486 85.9985C19.3584 86.0507 0.041635 66.8899 6.69108e-05 43.087C-0.0415012 19.2416 19.2903 -0.0341958 43.0142 -0.000583384ZM20.3693 49.2752C20.0297 49.3477 19.7555 49.3937 19.4884 49.4645C18.6456 49.69 17.8036 49.7254 16.9616 49.4698C16.4991 49.3292 16.0507 49.1045 15.5793 49.0364C13.8617 48.7878 12.1388 48.7427 10.4549 49.2487C8.54895 49.821 7.65833 51.1602 7.96346 53.1397C8.11381 54.118 8.44193 55.0769 8.7674 56.0171C9.51563 58.1807 10.5327 60.2205 11.7453 62.1629C13.5194 65.0076 15.6987 67.5099 18.1645 69.7699C21.0371 72.4023 24.1529 74.6888 27.7278 76.2766C28.6299 76.6773 29.6196 76.94 30.5969 77.0965C32.1287 77.3424 33.335 76.6118 33.8984 75.178C34.1425 74.5562 34.3353 73.8821 34.384 73.2196C34.5264 71.2958 34.583 69.3657 34.6776 67.4383C34.6926 67.1313 34.705 66.8218 34.7607 66.521C34.8218 66.1955 34.9872 66.0726 35.3798 66.115C37.5157 66.3432 39.6534 66.598 41.7964 66.7023C44.7769 66.8474 47.7424 66.552 50.6849 66.0681C51.0006 66.0159 51.1182 66.1256 51.1899 66.3804C51.2297 66.521 51.2801 66.6652 51.2872 66.8094C51.3588 68.398 51.4331 69.9866 51.4844 71.5761C51.5215 72.7287 51.5941 73.8724 51.9956 74.9675C52.5793 76.5587 53.8626 77.3752 55.5227 77.0842C56.4558 76.9205 57.395 76.6605 58.2635 76.2863C60.9027 75.1479 63.2782 73.5575 65.5132 71.7646C70.3802 67.8593 74.3336 63.2288 76.6986 57.382C77.2363 56.0516 77.7271 54.6797 78.0217 53.2804C78.4506 51.2442 77.4424 49.7113 75.4232 49.2301C74.3902 48.9842 73.2988 48.9072 72.2322 48.8993C71.4247 48.8931 70.5704 48.9948 69.8159 49.2664C68.423 49.7679 67.0848 49.6954 65.6804 49.2566C65.7644 49.0735 65.8342 48.8984 65.9227 48.7339C66.9442 46.8259 68.0108 44.941 68.9802 43.0074C69.8089 41.3533 70.5474 39.6532 71.2814 37.9549C71.5459 37.3437 71.6803 36.6776 71.8855 36.0018C72.3383 36.2044 72.7593 36.4105 73.1936 36.5839C74.7316 37.1986 75.9477 36.6688 76.5102 35.1191C77.2734 33.0165 77.0187 30.914 76.29 28.8857C74.6821 24.4126 72.1278 20.5233 68.7812 17.1524C65.1002 13.4453 60.7895 10.7085 55.8995 8.90317C50.7574 7.00495 45.4438 6.27167 39.9691 6.7272C35.1287 7.13055 30.5376 8.39898 26.2154 10.6183C19.9696 13.8256 15.0566 18.4323 11.6551 24.5993C10.5946 26.5214 9.63326 28.4974 9.2388 30.6867C9.00708 31.9737 8.97967 33.2668 9.29275 34.5485C9.80484 36.6449 11.2367 37.3331 13.1931 36.43C13.4964 36.2902 13.7963 36.1434 14.1244 35.9868C14.1721 36.1425 14.204 36.253 14.2394 36.3627C14.548 37.3136 14.7559 38.3131 15.1857 39.2048C16.2912 41.4948 17.4941 43.7389 18.6615 45.9989C19.2205 47.0816 19.7874 48.1589 20.3693 49.2752Z" fill="#3B4B5B"/>
<path d="M14.75 35.661C16.2305 35.0551 17.6739 34.4289 19.143 33.869C22.7788 32.482 26.5058 31.4055 30.3301 30.6696C35.343 29.7055 40.3984 29.341 45.4989 29.5188C49.2922 29.6506 53.0448 30.1017 56.7541 30.8863C61.607 31.9133 66.2909 33.4639 70.8174 35.4939C71.1464 35.6416 71.234 35.7893 71.1455 36.1564C70.553 38.6154 69.4315 40.8453 68.2429 43.0522C67.1329 45.1123 66.0574 47.1901 64.9599 49.2564C64.8962 49.3758 64.7909 49.4934 64.676 49.5607C60.038 52.2753 56.1616 55.8055 53.2111 60.314C52.2568 61.7726 51.5006 63.3382 51.0301 65.025C50.9549 65.2957 50.8232 65.3912 50.5578 65.4355C46.4514 66.1201 42.3282 66.2952 38.1856 65.8415C37.2498 65.7388 36.3159 65.6079 35.3855 65.4629C35.2528 65.4425 35.0715 65.2922 35.0335 65.1657C34.1676 62.2458 32.6031 59.7169 30.6617 57.41C28.1296 54.4 25.1854 51.8569 21.798 49.8508C21.2965 49.5536 21.0135 49.1759 20.757 48.6814C19.6922 46.6302 18.5946 44.5958 17.4953 42.5622C16.3243 40.396 15.2851 38.1776 14.75 35.661ZM43.0128 47.6394C45.8182 47.6386 48.1018 45.3609 48.108 42.5578C48.1142 39.7326 45.8315 37.4337 43.0137 37.4275C40.1968 37.4213 37.8981 39.714 37.8919 42.5366C37.8857 45.3538 40.1808 47.6403 43.0128 47.6394Z" fill="#44ADBF" stroke="#44ADBF" stroke-width="4" stroke-miterlimit="10"/>
<path d="M43.0124 47.6393C40.1805 47.6402 37.8854 45.3537 37.8916 42.5373C37.8978 39.7148 40.1964 37.422 43.0133 37.4282C45.8311 37.4344 48.1138 39.7333 48.1076 42.5586C48.1014 45.3608 45.8178 47.6385 43.0124 47.6393ZM43.0054 46.9874C45.4765 46.9804 47.4638 44.991 47.4638 42.5223C47.4638 40.0845 45.4145 38.0518 42.9744 38.0704C40.544 38.089 38.5452 40.1031 38.5487 42.5303C38.5514 45.0061 40.5387 46.9945 43.0054 46.9874Z" fill="#F2EED1"/>
<path d="M43.0054 46.9876C40.5396 46.9947 38.5523 45.0071 38.5479 42.5295C38.5443 40.1024 40.5431 38.0883 42.9735 38.0697C45.4137 38.0511 47.4629 40.0838 47.4629 42.5216C47.4629 44.9903 45.4764 46.9805 43.0054 46.9876Z" fill="#F2EED1"/>
</g>
<defs>
<clipPath id="clip0">
<rect width="86" height="86" fill="white"/>
</clipPath>
</defs>
</svg>
