<svg width="94" height="94" viewBox="0 0 94 94" fill="none" xmlns="http://www.w3.org/2000/svg">
<g clip-path="url(#clip0)" filter="url(#filter0_d)">
<path d="M47.0142 -0.000583384C70.6727 -0.062501 89.9311 19.1762 90.0001 42.9419C90.0691 66.5626 70.8204 85.9481 47.2486 85.9985C23.3584 86.0507 4.04164 66.8899 4.00007 43.087C3.9585 19.2416 23.2903 -0.0341958 47.0142 -0.000583384ZM24.3693 49.2752C24.0297 49.3477 23.7555 49.3937 23.4884 49.4645C22.6456 49.69 21.8036 49.7254 20.9616 49.4698C20.4991 49.3292 20.0507 49.1045 19.5793 49.0364C17.8617 48.7878 16.1388 48.7427 14.4549 49.2487C12.5489 49.821 11.6583 51.1602 11.9635 53.1397C12.1138 54.118 12.4419 55.0769 12.7674 56.0171C13.5156 58.1807 14.5327 60.2205 15.7453 62.1629C17.5194 65.0076 19.6987 67.5099 22.1645 69.7699C25.0371 72.4023 28.1529 74.6888 31.7278 76.2766C32.6299 76.6773 33.6196 76.94 34.5969 77.0965C36.1287 77.3424 37.335 76.6118 37.8984 75.178C38.1425 74.5562 38.3353 73.8821 38.384 73.2196C38.5264 71.2958 38.583 69.3657 38.6776 67.4383C38.6926 67.1313 38.705 66.8218 38.7607 66.521C38.8218 66.1955 38.9872 66.0726 39.3798 66.115C41.5157 66.3432 43.6534 66.598 45.7964 66.7023C48.7769 66.8474 51.7424 66.552 54.6849 66.0681C55.0006 66.0159 55.1182 66.1256 55.1899 66.3804C55.2297 66.521 55.2801 66.6652 55.2872 66.8094C55.3588 68.398 55.4331 69.9866 55.4844 71.5761C55.5215 72.7287 55.5941 73.8724 55.9956 74.9675C56.5793 76.5587 57.8626 77.3752 59.5227 77.0842C60.4558 76.9205 61.395 76.6605 62.2635 76.2863C64.9027 75.1479 67.2782 73.5575 69.5132 71.7646C74.3802 67.8593 78.3336 63.2288 80.6986 57.382C81.2363 56.0516 81.7271 54.6797 82.0217 53.2804C82.4506 51.2442 81.4424 49.7113 79.4232 49.2301C78.3902 48.9842 77.2988 48.9072 76.2322 48.8993C75.4247 48.8931 74.5704 48.9948 73.8159 49.2664C72.423 49.7679 71.0848 49.6954 69.6804 49.2566C69.7644 49.0735 69.8342 48.8984 69.9227 48.7339C70.9442 46.8259 72.0108 44.941 72.9802 43.0074C73.8089 41.3533 74.5474 39.6532 75.2814 37.9549C75.5459 37.3437 75.6803 36.6776 75.8855 36.0018C76.3383 36.2044 76.7593 36.4105 77.1936 36.5839C78.7316 37.1986 79.9477 36.6688 80.5102 35.1191C81.2734 33.0165 81.0187 30.914 80.29 28.8857C78.6821 24.4126 76.1278 20.5233 72.7812 17.1524C69.1002 13.4453 64.7895 10.7085 59.8995 8.90317C54.7574 7.00495 49.4438 6.27167 43.9691 6.7272C39.1287 7.13055 34.5376 8.39898 30.2154 10.6183C23.9696 13.8256 19.0566 18.4323 15.6551 24.5993C14.5946 26.5214 13.6333 28.4974 13.2388 30.6867C13.0071 31.9737 12.9797 33.2668 13.2928 34.5485C13.8048 36.6449 15.2367 37.3331 17.1931 36.43C17.4964 36.2902 17.7963 36.1434 18.1244 35.9868C18.1721 36.1425 18.204 36.253 18.2394 36.3627C18.548 37.3136 18.7559 38.3131 19.1857 39.2048C20.2912 41.4948 21.4941 43.7389 22.6615 45.9989C23.2205 47.0816 23.7874 48.1589 24.3693 49.2752Z" fill="#3B4B5B"/>
<path d="M18.75 35.661C20.2305 35.0551 21.6739 34.4289 23.143 33.869C26.7788 32.482 30.5058 31.4055 34.3301 30.6696C39.343 29.7055 44.3984 29.341 49.4989 29.5188C53.2922 29.6506 57.0448 30.1017 60.7541 30.8863C65.607 31.9133 70.2909 33.4639 74.8174 35.4939C75.1464 35.6416 75.234 35.7893 75.1455 36.1564C74.553 38.6154 73.4315 40.8453 72.2429 43.0522C71.1329 45.1123 70.0574 47.1901 68.9599 49.2564C68.8962 49.3758 68.7909 49.4934 68.676 49.5607C64.038 52.2753 60.1616 55.8055 57.2111 60.314C56.2568 61.7726 55.5006 63.3382 55.0301 65.025C54.9549 65.2957 54.8232 65.3912 54.5578 65.4355C50.4514 66.1201 46.3282 66.2952 42.1856 65.8415C41.2498 65.7388 40.3159 65.6079 39.3855 65.4629C39.2528 65.4425 39.0715 65.2922 39.0335 65.1657C38.1676 62.2458 36.6031 59.7169 34.6617 57.41C32.1296 54.4 29.1854 51.8569 25.798 49.8508C25.2965 49.5536 25.0135 49.1759 24.757 48.6814C23.6922 46.6302 22.5946 44.5958 21.4953 42.5622C20.3243 40.396 19.2851 38.1776 18.75 35.661ZM47.0128 47.6394C49.8182 47.6386 52.1018 45.3609 52.108 42.5578C52.1142 39.7326 49.8315 37.4337 47.0137 37.4275C44.1968 37.4213 41.8981 39.714 41.8919 42.5366C41.8857 45.3538 44.1808 47.6403 47.0128 47.6394Z" fill="#44ADBF" stroke="#44ADBF" stroke-width="4" stroke-miterlimit="10"/>
<path d="M47.0124 47.6393C44.1805 47.6402 41.8854 45.3537 41.8916 42.5373C41.8978 39.7148 44.1964 37.422 47.0133 37.4282C49.8311 37.4344 52.1138 39.7333 52.1076 42.5586C52.1014 45.3608 49.8178 47.6385 47.0124 47.6393ZM47.0054 46.9874C49.4765 46.9804 51.4638 44.991 51.4638 42.5223C51.4638 40.0845 49.4145 38.0518 46.9744 38.0704C44.544 38.089 42.5452 40.1031 42.5487 42.5303C42.5514 45.0061 44.5387 46.9945 47.0054 46.9874Z" fill="#F2EED1"/>
<path d="M47.0054 46.9876C44.5396 46.9947 42.5523 45.0071 42.5479 42.5295C42.5443 40.1024 44.5431 38.0883 46.9735 38.0697C49.4137 38.0511 51.4629 40.0838 51.4629 42.5216C51.4629 44.9903 49.4764 46.9805 47.0054 46.9876Z" fill="#F2EED1"/>
</g>
<defs>
<filter id="filter0_d" x="0" y="0" width="94" height="94" filterUnits="userSpaceOnUse" color-interpolation-filters="sRGB">
<feFlood flood-opacity="0" result="BackgroundImageFix"/>
<feColorMatrix in="SourceAlpha" type="matrix" values="0 0 0 0 0 0 0 0 0 0 0 0 0 0 0 0 0 0 127 0" result="hardAlpha"/>
<feOffset dy="4"/>
<feGaussianBlur stdDeviation="2"/>
<feColorMatrix type="matrix" values="0 0 0 0 0 0 0 0 0 0 0 0 0 0 0 0 0 0 0.25 0"/>
<feBlend mode="normal" in2="BackgroundImageFix" result="effect1_dropShadow"/>
<feBlend mode="normal" in="SourceGraphic" in2="effect1_dropShadow" result="shape"/>
</filter>
<clipPath id="clip0">
<rect width="86" height="86" fill="white" transform="translate(4)"/>
</clipPath>
</defs>
</svg>
