<svg width="41" height="41" viewBox="0 0 41 41" fill="none" xmlns="http://www.w3.org/2000/svg">
<g clip-path="url(#clip0)">
<path d="M20.6693 5.62744L20.6575 7.54621" stroke="white" stroke-width="1.18443" stroke-miterlimit="10"/>
<path d="M20.6609 35.0308L20.6727 33.1121" stroke="white" stroke-width="1.18443" stroke-miterlimit="10"/>
<path d="M12.0271 8.43213L13.1455 9.99219" stroke="white" stroke-width="1.18443" stroke-miterlimit="10"/>
<path d="M29.3029 32.2255L28.1853 30.6663" stroke="white" stroke-width="1.18443" stroke-miterlimit="10"/>
<path d="M6.68457 15.7815L8.50605 16.3864" stroke="white" stroke-width="1.18443" stroke-miterlimit="10"/>
<path d="M32.8247 24.272L34.6462 24.876" stroke="white" stroke-width="1.18443" stroke-miterlimit="10"/>
<path d="M6.68115 24.8676L8.51024 24.2864" stroke="white" stroke-width="1.18443" stroke-miterlimit="10"/>
<path d="M32.8198 16.3719L34.6489 15.7898" stroke="white" stroke-width="1.18443" stroke-miterlimit="10"/>
<path d="M22.4805 17.7452L25.7486 13.4771" stroke="white" stroke-width="1.18443" stroke-miterlimit="10"/>
<path d="M12.0203 32.2205L13.1582 30.6748" stroke="white" stroke-width="1.18443" stroke-miterlimit="10"/>
<path d="M28.1726 9.98282L29.3105 8.43799" stroke="white" stroke-width="1.18443" stroke-miterlimit="10"/>
<path d="M16.8495 34.8117C10.4299 33.1231 5.69556 27.2788 5.69556 20.3288C5.69556 12.0581 12.4002 5.35425 20.6701 5.35425" stroke="white" stroke-width="1.18443" stroke-miterlimit="10"/>
<path d="M24.7614 5.92041C31.0431 7.70043 35.6454 13.4779 35.6454 20.3298C35.6454 28.6005 28.9407 35.3043 20.6709 35.3043" stroke="white" stroke-width="1.18443" stroke-miterlimit="10"/>
<path d="M23.5201 21.5293C23.2976 22.0412 22.9347 22.4997 22.444 22.8432C21.0286 23.8313 19.0794 23.4853 18.0912 22.0699C17.1031 20.6545 17.4491 18.7053 18.8645 17.7172C19.9838 16.9355 21.4372 16.9887 22.4854 17.7459" stroke="white" stroke-width="1.18443" stroke-miterlimit="10"/>
<path d="M34.2764 6.72237C41.7912 14.2372 41.7912 26.421 34.2764 33.9358C26.7616 41.4506 14.5777 41.4506 7.06294 33.9358C-0.451845 26.421 -0.451845 14.2372 7.06294 6.72237C14.5777 -0.792419 26.7616 -0.79242 34.2764 6.72237Z" stroke="white" stroke-width="1.86227"/>
<path d="M20.7257 35.3295C29.1041 35.3295 35.8962 28.5375 35.8962 20.159C35.8962 11.7806 29.1041 4.98853 20.7257 4.98853C12.3472 4.98853 5.55518 11.7806 5.55518 20.159C5.55518 28.5375 12.3472 35.3295 20.7257 35.3295Z" stroke="#3B4B5B" stroke-width="1.8053" stroke-miterlimit="10"/>
<path d="M20.5048 5.19067L20.4919 7.14039" stroke="#3B4B5B" stroke-width="1.2895" stroke-miterlimit="10"/>
<path d="M20.5083 33.1187L20.4954 35.0684" stroke="#3B4B5B" stroke-width="1.2895" stroke-miterlimit="10"/>
<path d="M11.7224 8.04053L12.8589 9.62575" stroke="#3B4B5B" stroke-width="1.2895" stroke-miterlimit="10"/>
<path d="M28.1411 30.6335L29.2767 32.2179" stroke="#3B4B5B" stroke-width="1.2895" stroke-miterlimit="10"/>
<path d="M6.2937 15.5085L8.14456 16.1232" stroke="#3B4B5B" stroke-width="1.2895" stroke-miterlimit="10"/>
<path d="M32.8557 24.136L34.7066 24.7498" stroke="#3B4B5B" stroke-width="1.2895" stroke-miterlimit="10"/>
<path d="M6.29102 24.7415L8.14875 24.1509" stroke="#3B4B5B" stroke-width="1.2895" stroke-miterlimit="10"/>
<path d="M32.8503 16.1085L34.7089 15.5171" stroke="#3B4B5B" stroke-width="1.2895" stroke-miterlimit="10"/>
<path d="M25.6654 13.1667L22.3445 17.5038" stroke="#3B4B5B" stroke-width="1.2895" stroke-miterlimit="10"/>
<path d="M11.7156 32.2127L12.8718 30.6421" stroke="#3B4B5B" stroke-width="1.2895" stroke-miterlimit="10"/>
<path d="M28.1282 9.61614L29.2844 8.04639" stroke="#3B4B5B" stroke-width="1.2895" stroke-miterlimit="10"/>
<path d="M24.4191 20.0294C24.4191 22.0692 22.7655 23.7228 20.7257 23.7228C18.6859 23.7228 17.0324 22.0692 17.0324 20.0294C17.0324 17.9897 18.6859 16.3361 20.7257 16.3361C22.7655 16.3361 24.4191 17.9897 24.4191 20.0294Z" stroke="#3B4B5B" stroke-width="1.26154"/>
<path opacity="0.38" d="M20.1644 24.3173L19.8523 34.4639C19.8523 34.4639 30.856 35.3399 34.3806 24.4428C34.3806 24.4428 37.6903 15.265 29.0146 8.41089C29.0791 8.53124 25.7548 13.2302 25.7548 13.2302L26.127 13.5362L23.6752 16.8683C23.6752 16.8683 25.4711 18.3692 24.9664 21.0101C24.6673 22.5868 22.9333 24.6646 20.1644 24.3173Z" fill="#44ADBF"/>
</g>
<defs>
<clipPath id="clip0">
<rect width="41" height="41" fill="white"/>
</clipPath>
</defs>
</svg>
