<svg width="39" height="38" viewBox="0 0 39 38" fill="none" xmlns="http://www.w3.org/2000/svg">
<path d="M19.6529 37C29.712 37 37.8665 28.9411 37.8665 19C37.8665 9.05887 29.712 1 19.6529 1C9.59374 1 1.43921 9.05887 1.43921 19C1.43921 28.9411 9.59374 37 19.6529 37Z" stroke="#3B4B5B" stroke-width="1.80291" stroke-miterlimit="10"/>
<path d="M19.8508 33.924C28.0191 33.924 34.6409 27.3799 34.6409 19.3075C34.6409 11.235 28.0191 4.69092 19.8508 4.69092C11.6825 4.69092 5.06079 11.235 5.06079 19.3075C5.06079 27.3799 11.6825 33.924 19.8508 33.924Z" stroke="#3B4B5B" stroke-width="2.66576" stroke-miterlimit="10"/>
<path d="M37.9906 19.3462C38.0487 19.2792 37.8171 19.1187 37.8171 19.1187C18.8493 -2.26183 3.43074 15.9342 1.1673 19.1187C1.1673 19.1187 0.929333 19.2217 1.02102 19.3462C0.929333 19.4701 1.1673 19.5738 1.1673 19.5738C3.43144 22.3032 18.85 40.9543 37.8171 19.5738C37.8178 19.5738 38.0487 19.4126 37.9906 19.3462Z" stroke="white" stroke-width="1.79837" stroke-miterlimit="10"/>
<path d="M29.6495 19.271C29.6495 24.9643 24.9777 29.5819 19.2155 29.5819C13.454 29.5819 8.78223 24.9649 8.78223 19.271C8.78223 13.5764 13.454 8.95947 19.2155 8.95947C24.9777 8.95878 29.6495 13.5764 29.6495 19.271Z" stroke="#3B4B5B" stroke-width="1.79837" stroke-miterlimit="10"/>
<path d="M19.4493 19.3464V14.4749C16.9185 14.4935 14.991 16.5091 14.991 18.995C14.991 21.4913 17.0808 23.6742 19.6067 23.6742C21.8534 23.6742 23.7655 22.0349 24.1658 20.0657C24.1889 19.9523 24.3275 18.7771 24.021 17.9056C23.622 16.7733 23.1356 16.2877 23.1363 16.1619L19.4493 19.3464Z" stroke="#3B4B5B" stroke-width="1.79837" stroke-miterlimit="10" stroke-linejoin="round"/>
</svg>
