<svg width="37" height="36" viewBox="0 0 37 36" fill="none" xmlns="http://www.w3.org/2000/svg">
<path d="M18.4282 35.0396C27.828 35.0396 35.448 27.4195 35.448 18.0198C35.448 8.62001 27.828 1 18.4282 1C9.02846 1 1.40845 8.62001 1.40845 18.0198C1.40845 27.4195 9.02846 35.0396 18.4282 35.0396Z" stroke="#3B4B5B" stroke-width="1.5736" stroke-miterlimit="10"/>
<path d="M35.6533 17.9418C35.7077 17.8782 35.4907 17.7261 35.4907 17.7261C17.7215 -2.54121 3.27715 14.7074 1.15672 17.7261C1.15672 17.7261 0.933798 17.8238 1.01969 17.9418C0.933798 18.0592 1.15672 18.1575 1.15672 18.1575C3.2778 20.7448 17.7221 38.4248 35.4907 18.1575C35.4913 18.1575 35.7077 18.0047 35.6533 17.9418Z" stroke="white" stroke-width="1.5736" stroke-miterlimit="10"/>
<path d="M27.839 17.8704C27.839 23.2672 23.4624 27.6444 18.0643 27.6444C12.6669 27.6444 8.29028 23.2678 8.29028 17.8704C8.29028 12.4723 12.6669 8.0957 18.0643 8.0957C23.4624 8.0957 27.839 12.4723 27.839 17.8704Z" stroke="#3B4B5B" stroke-width="1.5736" stroke-miterlimit="10"/>
<rect x="15.8831" y="12.3396" width="4.25232" height="6.37847" fill="#3B4B5B"/>
<circle cx="18.0092" cy="21.9074" r="2.12616" fill="#3B4B5B"/>
</svg>
