<svg width="91" height="19" viewBox="0 0 91 19" fill="none" xmlns="http://www.w3.org/2000/svg">
<path d="M20.4701 17.6577H16.1759L15.1854 10.4483C15.1018 9.80153 15.0384 9.23751 15.0004 8.7512C14.9472 8.2724 14.894 7.59307 14.8383 6.7132C14.699 7.50283 14.4861 8.3827 14.1948 9.35533C14.134 9.54584 14.0884 9.70878 14.0555 9.84414L11.7652 17.6577H8.70233L6.41211 9.84414C6.38931 9.71379 6.3437 9.55085 6.27277 9.35533C5.95102 8.33006 5.73822 7.45018 5.63941 6.7132C5.57861 7.54795 5.52034 8.17213 5.46714 8.58074C5.44434 8.79381 5.40887 9.10465 5.36327 9.51576C5.31767 9.92687 5.2822 10.2377 5.2594 10.4508L4.26883 17.6602H0L2.60183 0.980225H7.14933L9.6929 9.58094C9.7385 9.74137 9.7689 9.84414 9.7841 9.88927C10.007 10.6037 10.1565 11.2555 10.2325 11.8496C10.2477 11.644 10.306 11.3106 10.4048 10.8469C10.4352 10.734 10.5517 10.3029 10.7493 9.56088L13.3208 0.980225H17.8809L20.4701 17.6577Z" fill="white"/>
<path d="M27.2568 17.6578V6.15179H31.3559V17.6578H27.2568ZM27.7737 3.18879H27.7965C27.7965 2.76264 27.9459 2.4142 28.2449 2.14096C28.5438 1.84516 28.9061 1.69727 29.3266 1.69727C29.7725 1.69727 30.1373 1.83764 30.4262 2.1184C30.715 2.39916 30.8568 2.75512 30.8568 3.18879C30.8568 3.62998 30.7074 3.99346 30.4084 4.28174C30.1171 4.57754 29.7548 4.72544 29.3266 4.72544C28.8884 4.72544 28.521 4.57002 28.2221 4.25918C27.9231 3.9709 27.7737 3.61494 27.7737 3.18879Z" fill="white"/>
<path d="M39.3965 17.6576V6.15157H43.1485V8.48787C43.678 7.57541 44.3063 6.89357 45.0334 6.43734C45.7377 6.00367 46.594 5.78809 47.5997 5.78809C48.3598 5.78809 49.0337 5.90089 49.6239 6.12901C50.2092 6.3872 50.6829 6.73564 51.0452 7.17683C51.3745 7.61802 51.595 8.08428 51.7014 8.57812C51.8331 9.20731 51.899 10.0396 51.899 11.0723V17.6576H47.7771V11.4935C47.7771 10.5585 47.6276 9.89166 47.3287 9.48807C47.0297 9.06944 46.5433 8.86138 45.8694 8.86138C45.0283 8.86138 44.4076 9.17222 44.0099 9.7964C43.6197 10.4181 43.4246 11.4283 43.4246 12.8271V17.6576H39.3965Z" fill="white"/>
<path d="M72.0079 0V17.6577H68.2305V15.7901C67.7086 16.5722 67.1183 17.1488 66.4571 17.5223C65.844 17.9108 65.122 18.1039 64.2936 18.1039C62.6671 18.1039 61.3675 17.5423 60.3972 16.4168C59.4268 15.2938 58.9404 13.7922 58.9404 11.9172C58.9404 10.0947 59.4268 8.61074 60.4022 7.46264C61.37 6.34713 62.6215 5.78812 64.1542 5.78812C65.1372 5.78812 65.9352 5.96861 66.5483 6.32457C67.1386 6.65295 67.6909 7.23452 68.2052 8.07429C68.1748 7.86873 68.1444 7.5579 68.114 7.13927C68.0836 6.68303 68.0684 6.30953 68.0684 6.02125V0H72.0079ZM68.3699 11.9222C68.3699 11.0197 68.1368 10.3153 67.6681 9.80646C67.169 9.29258 66.5103 9.03438 65.687 9.03438C64.8585 9.03438 64.2049 9.29258 63.7286 9.80646C63.2523 10.3229 63.0142 11.0273 63.0142 11.9222C63.0142 12.8246 63.2523 13.534 63.7286 14.0479C64.1973 14.5568 64.8484 14.81 65.687 14.81C66.5154 14.81 67.1766 14.5568 67.6681 14.0479C68.1342 13.539 68.3699 12.8296 68.3699 11.9222Z" fill="white"/>
<path d="M83.697 5.54492H85.7897V9.84152H90.0002V11.8519H85.7897V16.1661H83.697V11.8494H79.4688V9.83901H83.697V5.54492Z" fill="#46AFC0" stroke="#46AFC0" stroke-width="1.91419" stroke-miterlimit="10"/>
</svg>
