<svg width="377" height="233" viewBox="0 0 377 233" fill="none" xmlns="http://www.w3.org/2000/svg">
<rect x="3.19238" width="361.939" height="232.659" rx="20" fill="#5A7591"/>
<g opacity="0.1">
<rect width="361.569" height="0.393675" transform="translate(5.3208)" fill="white"/>
<path fill-rule="evenodd" clip-rule="evenodd" d="M5.3208 0.196837C5.3208 0.0881271 5.40893 0 5.51764 0H366.693C366.801 0 366.889 0.088127 366.889 0.196837C366.889 0.305548 366.801 0.393675 366.693 0.393675H5.51765C5.40894 0.393675 5.3208 0.305548 5.3208 0.196837Z" fill="white"/>
<rect width="361.569" height="0.393581" transform="translate(5.3208 38.6479)" fill="white"/>
<path fill-rule="evenodd" clip-rule="evenodd" d="M5.3208 38.8447C5.3208 38.7361 5.40891 38.6479 5.51759 38.6479H366.693C366.801 38.6479 366.889 38.7361 366.889 38.8447C366.889 38.9534 366.801 39.0415 366.693 39.0415H5.51758C5.4089 39.0415 5.3208 38.9534 5.3208 38.8447Z" fill="white"/>
<rect width="361.569" height="0.393519" transform="translate(5.3208 77.2969)" fill="white"/>
<path fill-rule="evenodd" clip-rule="evenodd" d="M5.3208 77.4936C5.3208 77.385 5.40889 77.2969 5.51756 77.2969H366.693C366.801 77.2969 366.889 77.385 366.889 77.4936C366.889 77.6023 366.801 77.6904 366.693 77.6904H5.51754C5.40887 77.6904 5.3208 77.6023 5.3208 77.4936Z" fill="white"/>
<rect width="361.569" height="0.393581" transform="translate(5.3208 115.945)" fill="white"/>
<path fill-rule="evenodd" clip-rule="evenodd" d="M5.3208 116.142C5.3208 116.033 5.40891 115.945 5.51759 115.945H366.693C366.801 115.945 366.889 116.033 366.889 116.142C366.889 116.251 366.801 116.339 366.693 116.339H5.51758C5.4089 116.339 5.3208 116.251 5.3208 116.142Z" fill="white"/>
<rect width="361.569" height="0.393581" transform="translate(5.3208 154.594)" fill="white"/>
<path fill-rule="evenodd" clip-rule="evenodd" d="M5.3208 154.791C5.3208 154.682 5.40891 154.594 5.51759 154.594H366.693C366.801 154.594 366.889 154.682 366.889 154.791C366.889 154.899 366.801 154.987 366.693 154.987H5.51758C5.4089 154.987 5.3208 154.899 5.3208 154.791Z" fill="white"/>
<rect width="361.569" height="0.393643" transform="translate(5.3208 193.242)" fill="white"/>
<path fill-rule="evenodd" clip-rule="evenodd" d="M5.3208 193.439C5.3208 193.33 5.40892 193.242 5.51762 193.242H366.693C366.801 193.242 366.889 193.33 366.889 193.439C366.889 193.548 366.801 193.636 366.693 193.636H5.51761C5.4089 193.636 5.3208 193.548 5.3208 193.439Z" fill="white"/>
<rect width="361.569" height="0.393706" transform="translate(5.3208 231.89)" fill="white"/>
<path fill-rule="evenodd" clip-rule="evenodd" d="M5.3208 232.087C5.3208 231.978 5.40893 231.89 5.51765 231.89H366.693C366.801 231.89 366.889 231.978 366.889 232.087C366.889 232.196 366.801 232.284 366.693 232.284H5.51765C5.40893 232.284 5.3208 232.196 5.3208 232.087Z" fill="white"/>
<rect width="0.278653" height="232.285" transform="translate(5.3208)" fill="white"/>
<path fill-rule="evenodd" clip-rule="evenodd" d="M5.47078 0C5.54773 0 5.61011 0.0623786 5.61011 0.139327L5.61011 232.146C5.61011 232.223 5.54773 232.285 5.47078 232.285C5.39383 232.285 5.33145 232.223 5.33145 232.146L5.33145 0.139325C5.33145 0.0623771 5.39383 0 5.47078 0Z" fill="white"/>
<rect width="0.278653" height="232.285" transform="translate(35.498)" fill="white"/>
<path fill-rule="evenodd" clip-rule="evenodd" d="M35.6475 0C35.7245 0 35.7869 0.0623786 35.7869 0.139327V232.146C35.7869 232.223 35.7245 232.285 35.6475 232.285C35.5706 232.285 35.5082 232.223 35.5082 232.146V0.139325C35.5082 0.0623771 35.5706 0 35.6475 0Z" fill="white"/>
<rect width="0.278653" height="232.285" transform="translate(65.6797)" fill="white"/>
<path fill-rule="evenodd" clip-rule="evenodd" d="M65.8287 0C65.9056 0 65.968 0.0623786 65.968 0.139327V232.146C65.968 232.223 65.9056 232.285 65.8287 232.285C65.7517 232.285 65.6894 232.223 65.6894 232.146V0.139325C65.6894 0.0623771 65.7517 0 65.8287 0Z" fill="white"/>
<rect width="0.278653" height="232.285" transform="translate(95.5737)" fill="white"/>
<path fill-rule="evenodd" clip-rule="evenodd" d="M95.7232 0C95.8002 0 95.8625 0.0623786 95.8625 0.139327V232.146C95.8625 232.223 95.8002 232.285 95.7232 232.285C95.6463 232.285 95.5839 232.223 95.5839 232.146V0.139325C95.5839 0.0623771 95.6463 0 95.7232 0Z" fill="white"/>
<rect width="0.278653" height="232.285" transform="translate(125.749)" fill="white"/>
<path fill-rule="evenodd" clip-rule="evenodd" d="M125.9 0C125.977 0 126.039 0.0623786 126.039 0.139327V232.146C126.039 232.223 125.977 232.285 125.9 232.285C125.823 232.285 125.76 232.223 125.76 232.146V0.139325C125.76 0.0623771 125.823 0 125.9 0Z" fill="white"/>
<rect width="0.278653" height="232.285" transform="translate(155.93)" fill="white"/>
<path fill-rule="evenodd" clip-rule="evenodd" d="M156.081 0C156.158 0 156.22 0.0623786 156.22 0.139327V232.146C156.22 232.223 156.158 232.285 156.081 232.285C156.004 232.285 155.942 232.223 155.942 232.146V0.139325C155.942 0.0623771 156.004 0 156.081 0Z" fill="white"/>
<rect width="0.278653" height="232.285" transform="translate(186.104)" fill="white"/>
<path fill-rule="evenodd" clip-rule="evenodd" d="M186.253 0C186.33 0 186.393 0.0623786 186.393 0.139327V232.146C186.393 232.223 186.33 232.285 186.253 232.285C186.176 232.285 186.114 232.223 186.114 232.146V0.139325C186.114 0.0623771 186.176 0 186.253 0Z" fill="white"/>
<rect width="0.278653" height="232.285" transform="translate(216.004)" fill="white"/>
<path fill-rule="evenodd" clip-rule="evenodd" d="M216.154 0C216.231 0 216.293 0.0623786 216.293 0.139327V232.146C216.293 232.223 216.231 232.285 216.154 232.285C216.077 232.285 216.015 232.223 216.015 232.146V0.139325C216.015 0.0623771 216.077 0 216.154 0Z" fill="white"/>
<rect width="0.278621" height="232.285" transform="translate(246.181)" fill="white"/>
<path fill-rule="evenodd" clip-rule="evenodd" d="M246.331 0C246.408 0 246.47 0.0623714 246.47 0.13931V232.146C246.47 232.223 246.408 232.285 246.331 232.285C246.254 232.285 246.192 232.223 246.192 232.146V0.139311C246.192 0.0623722 246.254 0 246.331 0Z" fill="white"/>
<rect width="0.278621" height="232.285" transform="translate(276.361)" fill="white"/>
<path fill-rule="evenodd" clip-rule="evenodd" d="M276.51 0C276.587 0 276.649 0.0623714 276.649 0.13931V232.146C276.649 232.223 276.587 232.285 276.51 232.285C276.433 232.285 276.371 232.223 276.371 232.146V0.139311C276.371 0.0623721 276.433 0 276.51 0Z" fill="white"/>
<rect width="0.278621" height="232.285" transform="translate(306.536)" fill="white"/>
<path fill-rule="evenodd" clip-rule="evenodd" d="M306.686 0C306.763 0 306.826 0.0623714 306.826 0.13931V232.146C306.826 232.223 306.763 232.285 306.686 232.285C306.609 232.285 306.547 232.223 306.547 232.146V0.139311C306.547 0.0623722 306.609 0 306.686 0Z" fill="white"/>
<rect width="0.278621" height="232.285" transform="translate(336.436)" fill="white"/>
<path fill-rule="evenodd" clip-rule="evenodd" d="M336.585 0C336.662 0 336.724 0.0623714 336.724 0.13931V232.146C336.724 232.223 336.662 232.285 336.585 232.285C336.508 232.285 336.446 232.223 336.446 232.146V0.139311C336.446 0.0623722 336.508 0 336.585 0Z" fill="white"/>
<rect width="0.278621" height="232.285" transform="translate(366.613)" fill="white"/>
<path fill-rule="evenodd" clip-rule="evenodd" d="M366.764 0C366.841 0 366.903 0.0623714 366.903 0.13931V232.146C366.903 232.223 366.841 232.285 366.764 232.285C366.687 232.285 366.625 232.223 366.625 232.146V0.139311C366.625 0.0623721 366.687 0 366.764 0Z" fill="white"/>
</g>
<path d="M45.4057 120.292C34.6013 124.895 33.5114 166.353 3 181.373V203H365V110V77C365 64.984 355.691 120.793 297.254 125.8C238.817 130.806 280.964 103.27 190.723 120.292C172.599 123.711 163.314 116.073 118.323 120.292C100.829 121.933 84.1914 103.77 45.4057 120.292Z" fill="url(#paint0_linear)"/>
<rect x="301.418" y="87" width="43.6456" height="36" rx="9" fill="white"/>
<path d="M312.584 97.44V98.472H314.924C314.876 99.948 313.364 101.16 311.96 101.16C310.004 101.16 308.444 99.36 308.444 97.464C308.444 95.436 310.028 93.792 312.056 93.792C313.16 93.792 314.252 94.38 314.9 95.268L315.692 94.512C314.804 93.396 313.412 92.76 312.008 92.76C309.404 92.76 307.316 94.896 307.316 97.5C307.316 100.008 309.356 102.192 311.888 102.192C314.42 102.192 316.172 100.284 316.172 97.8V97.44H312.584ZM321.395 92.76C318.803 92.76 316.655 94.884 316.655 97.476C316.655 100.164 318.779 102.192 321.395 102.192C324.011 102.192 326.135 100.164 326.135 97.476C326.135 94.884 323.987 92.76 321.395 92.76ZM321.395 101.136C319.439 101.136 317.783 99.54 317.783 97.476C317.783 95.484 319.271 93.816 321.395 93.816C323.519 93.816 325.007 95.484 325.007 97.476C325.007 99.54 323.351 101.136 321.395 101.136ZM332.664 99.732L333.696 102H334.908L330.588 92.568L326.268 102H327.48L328.512 99.732H332.664ZM332.196 98.7H328.98L330.588 95.04L332.196 98.7ZM336.794 92.952H335.666V102H339.542V100.968H336.794V92.952Z" fill="#5A7591"/>
<path d="M316.135 112.68C317.251 112.596 318.043 113.28 318.043 114.432C318.043 115.416 317.323 116.208 316.315 116.208C315.451 116.208 314.671 115.656 314.563 114.768H313.471C313.543 116.256 314.815 117.192 316.231 117.192C317.851 117.192 319.123 116.172 319.123 114.48C319.123 113.508 318.727 112.656 317.839 112.236C318.607 111.804 318.991 111.084 318.991 110.196C318.991 108.684 317.815 107.76 316.375 107.76C314.887 107.76 313.939 108.552 313.723 110.04H314.839C314.959 109.26 315.523 108.744 316.339 108.744C317.239 108.744 317.911 109.38 317.911 110.292C317.911 111.384 317.107 111.744 316.135 111.744V112.68ZM323.241 117.192C325.569 117.192 326.397 114.324 326.397 112.476C326.397 110.616 325.581 107.76 323.241 107.76C320.901 107.76 320.085 110.616 320.085 112.476C320.085 114.324 320.913 117.192 323.241 117.192ZM323.241 108.72C324.861 108.72 325.317 111.216 325.317 112.464C325.317 113.712 324.861 116.184 323.241 116.184C321.621 116.184 321.165 113.712 321.165 112.464C321.165 111.216 321.621 108.72 323.241 108.72ZM330.178 117.192C332.506 117.192 333.334 114.324 333.334 112.476C333.334 110.616 332.518 107.76 330.178 107.76C327.838 107.76 327.022 110.616 327.022 112.476C327.022 114.324 327.85 117.192 330.178 117.192ZM330.178 108.72C331.798 108.72 332.254 111.216 332.254 112.464C332.254 113.712 331.798 116.184 330.178 116.184C328.558 116.184 328.102 113.712 328.102 112.464C328.102 111.216 328.558 108.72 330.178 108.72Z" fill="#5A7591"/>
<path d="M245.154 109.968L248.13 106.332C248.55 105.816 248.802 105.144 248.802 104.472C248.802 102.9 247.482 101.76 245.946 101.76C244.302 101.76 243.258 102.84 243.078 104.448H244.206C244.266 103.536 245.022 102.792 245.946 102.792C246.882 102.792 247.722 103.572 247.722 104.52C247.722 105.12 247.29 105.684 246.918 106.14L242.958 111H248.802V109.968H245.154ZM255.692 102.984V101.952H252.068L250.676 106.596H250.892C251.288 106.092 251.948 105.792 252.584 105.792C253.748 105.792 254.744 106.776 254.744 107.94C254.744 109.152 253.784 110.16 252.56 110.16C251.756 110.16 250.832 109.584 250.556 108.816L249.716 109.608C250.244 110.604 251.36 111.192 252.476 111.192C254.336 111.192 255.824 109.884 255.824 107.976C255.824 106.308 254.672 104.808 252.92 104.808L252.284 104.844L252.848 102.984H255.692ZM259.761 111.192C262.089 111.192 262.917 108.324 262.917 106.476C262.917 104.616 262.101 101.76 259.761 101.76C257.421 101.76 256.605 104.616 256.605 106.476C256.605 108.324 257.433 111.192 259.761 111.192ZM259.761 102.72C261.381 102.72 261.837 105.216 261.837 106.464C261.837 107.712 261.381 110.184 259.761 110.184C258.141 110.184 257.685 107.712 257.685 106.464C257.685 105.216 258.141 102.72 259.761 102.72Z" fill="white"/>
<path d="M175.96 113.968L178.936 110.332C179.356 109.816 179.608 109.144 179.608 108.472C179.608 106.9 178.288 105.76 176.752 105.76C175.108 105.76 174.064 106.84 173.884 108.448H175.012C175.072 107.536 175.828 106.792 176.752 106.792C177.688 106.792 178.528 107.572 178.528 108.52C178.528 109.12 178.096 109.684 177.724 110.14L173.764 115H179.608V113.968H175.96ZM185.789 112.696V105.568L180.245 113.68H184.709V115H185.789V113.68H186.821V112.696H185.789ZM184.709 112.696H182.141L184.685 108.964H184.709V112.696ZM190.567 115.192C192.895 115.192 193.723 112.324 193.723 110.476C193.723 108.616 192.907 105.76 190.567 105.76C188.227 105.76 187.411 108.616 187.411 110.476C187.411 112.324 188.239 115.192 190.567 115.192ZM190.567 106.72C192.187 106.72 192.643 109.216 192.643 110.464C192.643 111.712 192.187 114.184 190.567 114.184C188.947 114.184 188.491 111.712 188.491 110.464C188.491 109.216 188.947 106.72 190.567 106.72Z" fill="white"/>
<path d="M104.636 113.968L107.612 110.332C108.032 109.816 108.284 109.144 108.284 108.472C108.284 106.9 106.964 105.76 105.428 105.76C103.784 105.76 102.74 106.84 102.56 108.448H103.688C103.748 107.536 104.504 106.792 105.428 106.792C106.364 106.792 107.204 107.572 107.204 108.52C107.204 109.12 106.772 109.684 106.4 110.14L102.44 115H108.284V113.968H104.636ZM111.574 113.968L114.55 110.332C114.97 109.816 115.222 109.144 115.222 108.472C115.222 106.9 113.902 105.76 112.366 105.76C110.722 105.76 109.678 106.84 109.498 108.448H110.626C110.686 107.536 111.442 106.792 112.366 106.792C113.302 106.792 114.142 107.572 114.142 108.52C114.142 109.12 113.71 109.684 113.338 110.14L109.378 115H115.222V113.968H111.574ZM118.511 113.968L121.487 110.332C121.907 109.816 122.159 109.144 122.159 108.472C122.159 106.9 120.839 105.76 119.303 105.76C117.659 105.76 116.615 106.84 116.435 108.448H117.563C117.623 107.536 118.379 106.792 119.303 106.792C120.239 106.792 121.079 107.572 121.079 108.52C121.079 109.12 120.647 109.684 120.275 110.14L116.315 115H122.159V113.968H118.511Z" fill="white"/>
<path d="M41.153 212.759V220.775H42.233V211.727H40.205L39.581 212.759H41.153Z" fill="white"/>
<path d="M111.299 219.743L114.275 216.107C114.695 215.591 114.947 214.919 114.947 214.247C114.947 212.675 113.627 211.535 112.091 211.535C110.447 211.535 109.403 212.615 109.223 214.223H110.351C110.411 213.311 111.167 212.567 112.091 212.567C113.027 212.567 113.867 213.347 113.867 214.295C113.867 214.895 113.435 215.459 113.063 215.915L109.103 220.775H114.947V219.743H111.299Z" fill="white"/>
<path d="M182.696 216.455C183.812 216.371 184.604 217.055 184.604 218.207C184.604 219.191 183.884 219.983 182.876 219.983C182.012 219.983 181.232 219.431 181.124 218.543H180.032C180.104 220.031 181.376 220.967 182.792 220.967C184.412 220.967 185.684 219.947 185.684 218.255C185.684 217.283 185.288 216.431 184.4 216.011C185.168 215.579 185.552 214.859 185.552 213.971C185.552 212.459 184.376 211.535 182.936 211.535C181.448 211.535 180.5 212.327 180.284 213.815H181.4C181.52 213.035 182.084 212.519 182.9 212.519C183.8 212.519 184.472 213.155 184.472 214.067C184.472 215.159 183.668 215.519 182.696 215.519V216.455Z" fill="white"/>
<path d="M255.853 218.471V211.343L250.309 219.455H254.773V220.775H255.853V219.455H256.885V218.471H255.853ZM254.773 218.471H252.205L254.749 214.739H254.773V218.471Z" fill="white"/>
<path d="M327.392 212.759V211.727H323.768L322.376 216.371H322.592C322.988 215.867 323.648 215.567 324.284 215.567C325.448 215.567 326.444 216.551 326.444 217.715C326.444 218.927 325.484 219.935 324.26 219.935C323.456 219.935 322.532 219.359 322.256 218.591L321.416 219.383C321.944 220.379 323.06 220.967 324.176 220.967C326.036 220.967 327.524 219.659 327.524 217.751C327.524 216.083 326.372 214.583 324.62 214.583L323.984 214.619L324.548 212.759H327.392Z" fill="white"/>
<path d="M41.8691 25.372C41.1851 24.952 40.3811 24.76 39.5891 24.76C36.9251 24.76 34.7771 26.848 34.7771 29.524C34.7771 32.14 36.9131 34.192 39.4931 34.192C40.2851 34.192 41.1731 33.964 41.8691 33.556V32.224C41.1971 32.824 40.3451 33.16 39.4571 33.16C37.4411 33.16 35.9051 31.468 35.9051 29.488C35.9051 27.484 37.4531 25.792 39.4811 25.792C40.3331 25.792 41.2211 26.104 41.8691 26.68V25.372ZM45.5907 28.216C43.9107 28.216 42.5907 29.512 42.5907 31.204C42.5907 32.896 43.9107 34.192 45.5907 34.192C47.2707 34.192 48.5907 32.896 48.5907 31.204C48.5907 29.512 47.2707 28.216 45.5907 28.216ZM45.5907 29.248C46.6587 29.248 47.5107 30.136 47.5107 31.204C47.5107 32.26 46.6587 33.16 45.5907 33.16C44.5227 33.16 43.6707 32.26 43.6707 31.204C43.6707 30.136 44.5227 29.248 45.5907 29.248ZM51.9871 33.232C50.8471 33.232 50.2111 32.248 50.2111 31.192C50.2111 30.148 50.8711 29.176 51.9871 29.176C53.1511 29.176 53.8111 30.1 53.8111 31.192C53.8111 32.296 53.1631 33.232 51.9871 33.232ZM54.8311 28.384H53.7511V29.344H53.7271C53.2831 28.648 52.6111 28.216 51.7711 28.216C50.1511 28.216 49.1311 29.62 49.1311 31.156C49.1311 32.764 50.0911 34.192 51.8191 34.192C52.6111 34.192 53.2951 33.76 53.7271 33.124H53.7511V34.192C53.7511 35.344 53.4751 36.256 52.1431 36.256C51.1591 36.256 50.4631 35.68 50.4631 34.672H49.3831C49.4071 36.256 50.5351 37.216 52.0951 37.216C54.2791 37.216 54.8311 35.824 54.8311 33.892V28.384ZM57.3114 28.384H56.2314V34H57.3114V31.42C57.3114 30.4 57.3114 29.176 58.7034 29.176C59.8074 29.176 59.9394 29.824 59.9394 30.784V34H61.0194V30.652C61.0194 29.284 60.6114 28.216 59.0274 28.216C58.3434 28.216 57.6714 28.54 57.3354 29.14H57.3114V28.384ZM63.8326 28.384H62.7526V34H63.8326V28.384ZM63.2926 25.06C62.8846 25.06 62.5486 25.396 62.5486 25.816C62.5486 26.224 62.8846 26.548 63.2926 26.548C63.7006 26.548 64.0366 26.224 64.0366 25.816C64.0366 25.396 63.7006 25.06 63.2926 25.06ZM66.7955 29.392H67.8515V28.384H66.7955V26.236H65.7155V28.384H65.1275V29.392H65.7155V34H66.7955V29.392ZM69.7623 28.384H68.6823V34H69.7623V28.384ZM69.2223 25.06C68.8143 25.06 68.4783 25.396 68.4783 25.816C68.4783 26.224 68.8143 26.548 69.2223 26.548C69.6303 26.548 69.9663 26.224 69.9663 25.816C69.9663 25.396 69.6303 25.06 69.2223 25.06ZM71.8012 28.384H70.5892L73.4092 34.192L76.2412 28.384H75.0292L73.4092 31.888L71.8012 28.384ZM81.7649 31.372V31.204C81.7649 29.536 80.9249 28.216 79.1369 28.216C77.3249 28.216 76.4009 29.512 76.4009 31.24C76.4009 32.896 77.4449 34.192 79.1609 34.192C80.2529 34.192 81.2369 33.628 81.7649 32.656L80.8529 32.14C80.4449 32.812 80.0009 33.232 79.1729 33.232C78.1409 33.232 77.4929 32.332 77.4809 31.372H81.7649ZM77.5409 30.556C77.6729 29.752 78.2969 29.152 79.1369 29.152C80.0009 29.152 80.5529 29.716 80.6849 30.556H77.5409ZM89.2931 29.2C88.9931 28.588 88.4411 28.216 87.7571 28.216C86.8451 28.216 86.1011 28.936 86.1011 29.848C86.1011 30.616 86.5571 30.928 87.1811 31.264L88.2371 31.828C88.4891 31.996 88.6331 32.14 88.6331 32.44C88.6331 32.92 88.2371 33.232 87.7811 33.232C87.2651 33.232 86.9891 32.932 86.7611 32.512L85.8371 32.932C86.1371 33.724 86.9651 34.192 87.7811 34.192C88.8251 34.192 89.7131 33.4 89.7131 32.332C89.7131 31.444 89.0771 31.036 88.4171 30.736C87.7571 30.436 87.1091 30.22 87.1091 29.728C87.1091 29.416 87.3971 29.176 87.6971 29.176C88.0091 29.176 88.2851 29.392 88.4171 29.668L89.2931 29.2ZM94.8945 28.588C94.4625 28.336 93.9105 28.216 93.4065 28.216C91.6785 28.216 90.3345 29.5 90.3345 31.24C90.3345 32.92 91.6905 34.192 93.3465 34.192C93.9105 34.192 94.4025 34.084 94.8945 33.82V32.44C94.4865 32.896 93.9825 33.184 93.3585 33.184C92.2185 33.184 91.4145 32.344 91.4145 31.192C91.4145 30.16 92.2305 29.224 93.2865 29.224C93.9345 29.224 94.4625 29.488 94.8945 29.98V28.588ZM98.5594 28.216C96.8794 28.216 95.5594 29.512 95.5594 31.204C95.5594 32.896 96.8794 34.192 98.5594 34.192C100.239 34.192 101.559 32.896 101.559 31.204C101.559 29.512 100.239 28.216 98.5594 28.216ZM98.5594 29.248C99.6274 29.248 100.479 30.136 100.479 31.204C100.479 32.26 99.6274 33.16 98.5594 33.16C97.4914 33.16 96.6394 32.26 96.6394 31.204C96.6394 30.136 97.4914 29.248 98.5594 29.248ZM103.696 28.384H102.616V34H103.696V31.24C103.696 30.328 103.84 29.248 105.004 29.248C105.256 29.248 105.472 29.308 105.664 29.476L106.156 28.492C105.892 28.324 105.58 28.216 105.268 28.216C104.548 28.216 103.996 28.636 103.732 29.296H103.696V28.384ZM111.683 31.372V31.204C111.683 29.536 110.843 28.216 109.055 28.216C107.243 28.216 106.319 29.512 106.319 31.24C106.319 32.896 107.363 34.192 109.079 34.192C110.171 34.192 111.155 33.628 111.683 32.656L110.771 32.14C110.363 32.812 109.919 33.232 109.091 33.232C108.059 33.232 107.411 32.332 107.399 31.372H111.683ZM107.459 30.556C107.591 29.752 108.215 29.152 109.055 29.152C109.919 29.152 110.471 29.716 110.603 30.556H107.459ZM113.69 28.384H112.61V34H113.69V31.42C113.69 30.4 113.69 29.176 115.082 29.176C116.186 29.176 116.318 29.824 116.318 30.784V34H117.398V30.652C117.398 29.284 116.99 28.216 115.406 28.216C114.722 28.216 114.05 28.54 113.714 29.14H113.69V28.384ZM125.144 23.584C124.904 23.488 124.652 23.44 124.388 23.44C122.996 23.44 122.576 24.424 122.576 25.648V28.384H122.084V29.392H122.576V34H123.656V29.392H125.144V28.384H123.656V25.972C123.656 25.42 123.656 24.448 124.424 24.448C124.652 24.448 124.928 24.58 125.144 24.676V23.584ZM126.817 28.384H125.737V34H126.817V31.24C126.817 30.328 126.961 29.248 128.125 29.248C128.377 29.248 128.593 29.308 128.785 29.476L129.277 28.492C129.013 28.324 128.701 28.216 128.389 28.216C127.669 28.216 127.117 28.636 126.853 29.296H126.817V28.384ZM132.368 28.216C130.688 28.216 129.368 29.512 129.368 31.204C129.368 32.896 130.688 34.192 132.368 34.192C134.048 34.192 135.368 32.896 135.368 31.204C135.368 29.512 134.048 28.216 132.368 28.216ZM132.368 29.248C133.436 29.248 134.288 30.136 134.288 31.204C134.288 32.26 133.436 33.16 132.368 33.16C131.3 33.16 130.448 32.26 130.448 31.204C130.448 30.136 131.3 29.248 132.368 29.248ZM137.396 28.384H136.316V34H137.396V31.24C137.396 30.364 137.492 29.176 138.644 29.176C139.64 29.176 139.676 30.292 139.676 31.024V34H140.756V31.24C140.756 30.376 140.84 29.176 141.992 29.176C142.94 29.176 143.036 30.1 143.036 30.82V34H144.116V30.64C144.116 29.368 143.732 28.216 142.256 28.216C141.548 28.216 140.876 28.612 140.528 29.212C140.168 28.588 139.64 28.216 138.908 28.216C138.296 28.216 137.732 28.6 137.42 29.092H137.396V28.384ZM151.744 34.192C154.072 34.192 154.9 31.324 154.9 29.476C154.9 27.616 154.084 24.76 151.744 24.76C149.404 24.76 148.588 27.616 148.588 29.476C148.588 31.324 149.416 34.192 151.744 34.192ZM151.744 25.72C153.364 25.72 153.82 28.216 153.82 29.464C153.82 30.712 153.364 33.184 151.744 33.184C150.124 33.184 149.668 30.712 149.668 29.464C149.668 28.216 150.124 25.72 151.744 25.72ZM160.663 29.392H161.719V28.384H160.663V26.236H159.583V28.384H158.995V29.392H159.583V34H160.663V29.392ZM164.805 28.216C163.125 28.216 161.805 29.512 161.805 31.204C161.805 32.896 163.125 34.192 164.805 34.192C166.485 34.192 167.805 32.896 167.805 31.204C167.805 29.512 166.485 28.216 164.805 28.216ZM164.805 29.248C165.873 29.248 166.725 30.136 166.725 31.204C166.725 32.26 165.873 33.16 164.805 33.16C163.737 33.16 162.885 32.26 162.885 31.204C162.885 30.136 163.737 29.248 164.805 29.248ZM174.983 29.776C175.895 29.776 176.735 30.52 176.735 31.48C176.735 32.392 175.871 33.184 174.983 33.184C174.095 33.184 173.231 32.392 173.231 31.48C173.231 30.52 174.071 29.776 174.983 29.776ZM172.151 31.48C172.151 33.16 173.447 34.192 174.983 34.192C176.519 34.192 177.815 33.16 177.815 31.48C177.815 30.508 177.323 29.632 176.387 29.308C177.131 28.888 177.575 28.168 177.575 27.28C177.575 25.804 176.423 24.76 174.983 24.76C173.543 24.76 172.391 25.804 172.391 27.28C172.391 28.168 172.835 28.888 173.579 29.308C172.643 29.632 172.151 30.508 172.151 31.48ZM174.983 25.72C175.799 25.72 176.519 26.416 176.519 27.28C176.519 28 175.739 28.816 174.983 28.816C174.227 28.816 173.447 28 173.447 27.28C173.447 26.416 174.167 25.72 174.983 25.72ZM181.92 34.192C184.248 34.192 185.076 31.324 185.076 29.476C185.076 27.616 184.26 24.76 181.92 24.76C179.58 24.76 178.764 27.616 178.764 29.476C178.764 31.324 179.592 34.192 181.92 34.192ZM181.92 25.72C183.54 25.72 183.996 28.216 183.996 29.464C183.996 30.712 183.54 33.184 181.92 33.184C180.3 33.184 179.844 30.712 179.844 29.464C179.844 28.216 180.3 25.72 181.92 25.72ZM188.858 34.192C191.186 34.192 192.014 31.324 192.014 29.476C192.014 27.616 191.198 24.76 188.858 24.76C186.518 24.76 185.702 27.616 185.702 29.476C185.702 31.324 186.53 34.192 188.858 34.192ZM188.858 25.72C190.478 25.72 190.934 28.216 190.934 29.464C190.934 30.712 190.478 33.184 188.858 33.184C187.238 33.184 186.782 30.712 186.782 29.464C186.782 28.216 187.238 25.72 188.858 25.72Z" fill="white"/>
<rect x="112.808" y="121" width="2.06822" height="82" fill="white"/>
<rect x="182.094" y="121" width="2.06822" height="82" fill="white"/>
<rect x="253.449" y="121" width="2.06822" height="82" fill="white"/>
<rect x="323.77" y="121" width="2.06822" height="82" fill="white"/>
<defs>
<linearGradient id="paint0_linear" x1="359.431" y1="203.001" x2="3" y2="203.001" gradientUnits="userSpaceOnUse">
<stop stop-color="#80D7EC"/>
<stop offset="1" stop-color="#B8C4C7" stop-opacity="0.47"/>
</linearGradient>
</defs>
</svg>
