<svg width="35" height="38" viewBox="0 0 35 38" fill="none" xmlns="http://www.w3.org/2000/svg">
<path d="M17.6543 36.3969L13.4548 34.6274C13.6103 34.0909 14.0466 33.6093 14.2985 33.0723C15.5216 30.4648 16.6641 27.9586 18.0321 25.4628C18.3973 24.7967 19.0418 24.7488 19.6019 24.87C19.8839 24.9306 20.1516 25.0381 20.374 25.1451C20.4056 25.1609 20.4361 25.1762 20.4646 25.1925C21.2608 25.6452 21.0912 26.6006 20.7808 27.567C20.7623 27.6234 20.7439 27.6798 20.7249 27.7346C19.9281 30.107 19.1003 32.5374 18.2049 34.8566C18.0453 35.2729 17.8819 35.9047 17.6543 36.3969Z" stroke="#3B4B5B" stroke-width="1.31743" stroke-miterlimit="10"/>
<path d="M20.7205 5.67743C18.6042 6.49318 16.7777 7.85856 15.4071 9.71508C14.1676 11.394 12.9598 13.6073 12.6869 15.6751C12.4081 17.7877 12.5198 20.4368 13.7513 22.2559C14.4722 23.3209 15.7011 23.8416 16.8389 24.3211C18.2596 24.9197 19.6803 25.5184 21.1005 26.1165C21.736 26.3842 22.3678 26.6909 23.016 26.927C24.4151 27.4371 25.3721 27.8529 26.8439 27.2558C28.1445 26.7283 29.2005 25.7297 30.1754 24.7495C31.8781 23.0379 32.9309 20.8658 33.6424 18.5877C34.2252 16.7217 34.0276 14.0679 33.538 12.1802C33.0168 10.1699 31.9028 8.32967 30.2603 7.04229C27.5674 4.9323 23.8982 4.45275 20.7205 5.67743Z" stroke="#3B4B5B" stroke-width="1.31743" stroke-miterlimit="10"/>
<path d="M12.3579 33.2752H10.9677C10.0961 33.2752 9.41261 32.5306 9.48217 31.6616C9.48797 31.5921 9.49271 31.5225 9.49746 31.4524C9.68084 28.6579 9.61602 25.7949 10.0387 23.0525C10.1546 22.3016 10.6921 22.0022 11.2554 21.8969C11.5384 21.8431 11.8272 21.8384 12.0738 21.8505C12.1091 21.8526 12.1434 21.8552 12.176 21.8589C13.0856 21.9669 13.3006 22.9134 13.3896 23.9241C13.3944 23.9831 13.3997 24.0422 13.4034 24.1001C13.5899 26.5958 13.8392 29.1401 13.8465 31.6416C13.8465 31.67 13.8471 31.7001 13.8481 31.7301C13.8724 32.5743 13.2021 33.2752 12.3579 33.2752Z" stroke="white" stroke-width="1.31743" stroke-miterlimit="10"/>
<path d="M4.83328 3.7755C3.19967 5.34851 2.04718 7.31622 1.5044 9.55953C1.01379 11.5878 0.760323 14.0967 1.31153 16.1082C1.87486 18.1634 3.0068 20.5611 4.84803 21.7594C5.92569 22.4608 7.2605 22.464 8.49519 22.464C10.0366 22.464 11.5785 22.464 13.1199 22.464C13.8092 22.464 14.5111 22.5014 15.1998 22.4671C16.6869 22.3939 17.7303 22.4055 18.8549 21.2841C19.8482 20.2929 20.4342 18.9628 20.9517 17.6807C21.856 15.4421 21.983 13.0317 21.7543 10.6562C21.5672 8.71058 20.3541 6.34132 19.17 4.79203C17.9095 3.14209 16.1679 1.87894 14.1543 1.32984C10.8539 0.429772 7.28632 1.4131 4.83328 3.7755Z" stroke="white" stroke-width="1.31743" stroke-miterlimit="10"/>
<path d="M27.4065 25.776C28.7304 24.4521 28.7304 22.3057 27.4065 20.9818C26.0827 19.658 23.9363 19.658 22.6124 20.9818C21.2885 22.3057 21.2885 24.4521 22.6124 25.776C23.9363 27.0998 26.0827 27.0998 27.4065 25.776Z" stroke="white" stroke-width="1.31743" stroke-miterlimit="10"/>
</svg>
