<svg width="33" height="33" viewBox="0 0 33 33" fill="none" xmlns="http://www.w3.org/2000/svg">
<g clip-path="url(#clip0)">
<path d="M16.5885 31.7165C25.1488 31.7165 32.0883 24.777 32.0883 16.2166C32.0883 7.65631 25.1488 0.716797 16.5885 0.716797C8.02814 0.716797 1.08862 7.65631 1.08862 16.2166C1.08862 24.777 8.02814 31.7165 16.5885 31.7165Z" stroke="#3B4B5B" stroke-width="1.43307" stroke-miterlimit="10"/>
<path d="M32.2751 16.1456C32.3247 16.0877 32.1271 15.9491 32.1271 15.9491C15.9447 -2.50819 2.79034 13.2 0.859281 15.9491C0.859281 15.9491 0.656263 16.0381 0.734485 16.1456C0.656263 16.2525 0.859281 16.342 0.859281 16.342C2.79094 18.6983 15.9453 34.7994 32.1271 16.342C32.1277 16.342 32.3247 16.2029 32.2751 16.1456Z" stroke="white" stroke-width="1.43307" stroke-miterlimit="10"/>
<path d="M25.1586 16.08C25.1586 20.9948 21.1729 24.9811 16.2569 24.9811C11.3414 24.9811 7.35571 20.9954 7.35571 16.08C7.35571 11.1639 11.3414 7.17822 16.2569 7.17822C21.1729 7.17822 25.1586 11.1639 25.1586 16.08Z" stroke="#3B4B5B" stroke-width="1.43307" stroke-miterlimit="10"/>
<path d="M19.0675 18.5079L16.4218 15.8252C17.2865 14.921 18.1397 13.9738 19.0044 13.0695" stroke="#3B4B5B" stroke-width="2.363"/>
<path d="M13.6171 18.5832L16.3608 15.8252C15.4215 14.9462 14.4934 14.0238 13.5541 13.1448" stroke="#3B4B5B" stroke-width="2.363"/>
</g>
<defs>
<clipPath id="clip0">
<rect width="33" height="32.4327" fill="white"/>
</clipPath>
</defs>
</svg>
