<svg width="193" height="41" viewBox="0 0 193 41" fill="none" xmlns="http://www.w3.org/2000/svg">
<g clip-path="url(#clip0)">
<path d="M43.6512 39.0479H34.4942L32.3819 23.1048C32.2036 21.6746 32.0685 20.4273 31.9875 19.3518C31.874 18.293 31.7606 16.7907 31.6417 14.845C31.3446 16.5912 30.8908 18.537 30.2695 20.6878C30.1399 21.1091 30.0426 21.4695 29.9724 21.7688L25.0887 39.0479H18.5572L13.6734 21.7688C13.6248 21.4806 13.5276 21.1202 13.3763 20.6878C12.6902 18.4205 12.2364 16.4748 12.0257 14.845C11.896 16.691 11.7718 18.0713 11.6583 18.9749C11.6097 19.4461 11.5341 20.1335 11.4368 21.0426C11.3396 21.9517 11.264 22.6391 11.2153 23.1103L9.10301 39.0534H0L5.54824 2.16699H15.2455L20.6695 21.1867C20.7667 21.5415 20.8316 21.7688 20.864 21.8686C21.3394 23.4485 21.6581 24.8898 21.8202 26.2036C21.8526 25.749 21.9769 25.0118 22.1876 23.9862C22.2524 23.7368 22.5009 22.7833 22.9223 21.1424L28.4057 2.16699H38.13L43.6512 39.0479Z" fill="white"/>
<path d="M58.125 39.0484V13.6037H66.866V39.0484H58.125ZM59.2271 7.05131H59.2757C59.2757 6.10892 59.5944 5.33837 60.2319 4.73413C60.8694 4.08 61.642 3.75293 62.5387 3.75293C63.4896 3.75293 64.2675 4.06337 64.8834 4.68424C65.4992 5.30511 65.8018 6.09229 65.8018 7.05131C65.8018 8.02697 65.483 8.83078 64.8456 9.46828C64.2243 10.1224 63.4517 10.4495 62.5387 10.4495C61.6041 10.4495 60.8208 10.1058 60.1833 9.41839C59.5458 8.78089 59.2271 7.99371 59.2271 7.05131Z" fill="white"/>
<path d="M84.0127 39.0483V13.6036H92.0136V18.7702C93.1427 16.7523 94.4825 15.2445 96.033 14.2356C97.5348 13.2765 99.3608 12.7998 101.506 12.7998C103.126 12.7998 104.563 13.0493 105.822 13.5537C107.07 14.1247 108.08 14.8952 108.853 15.8709C109.555 16.8466 110.025 17.8777 110.252 18.9697C110.533 20.3611 110.673 22.2016 110.673 24.4855V39.0483H101.884V25.4168C101.884 23.3491 101.565 21.8745 100.928 20.982C100.29 20.0562 99.2528 19.5961 97.8158 19.5961C96.0222 19.5961 94.6986 20.2835 93.8504 21.6639C93.0185 23.0387 92.6025 25.2727 92.6025 28.366V39.0483H84.0127Z" fill="white"/>
<path d="M153.553 0V39.0484H145.498V34.9185C144.385 36.6481 143.126 37.9231 141.716 38.7491C140.409 39.6083 138.869 40.0352 137.103 40.0352C133.634 40.0352 130.863 38.7934 128.794 36.3044C126.725 33.8209 125.688 30.5004 125.688 26.3538C125.688 22.3237 126.725 19.0419 128.805 16.503C130.868 14.0361 133.537 12.7999 136.806 12.7999C138.902 12.7999 140.603 13.1991 141.911 13.9863C143.17 14.7125 144.347 15.9985 145.444 17.8556C145.379 17.4011 145.314 16.7137 145.25 15.7879C145.185 14.779 145.152 13.953 145.152 13.3155V0H153.553ZM145.795 26.3649C145.795 24.3692 145.298 22.8115 144.299 21.6862C143.234 20.5498 141.83 19.9788 140.074 19.9788C138.307 19.9788 136.914 20.5498 135.898 21.6862C134.882 22.8281 134.375 24.3859 134.375 26.3649C134.375 28.3606 134.882 29.9294 135.898 31.0658C136.897 32.1911 138.286 32.751 140.074 32.751C141.841 32.751 143.251 32.1911 144.299 31.0658C145.293 29.9405 145.795 28.3717 145.795 26.3649Z" fill="white"/>
<path d="M178.478 12.2607H182.94V21.7623H191.919V26.2082H182.94V35.7486H178.478V26.2026H169.461V21.7568H178.478V12.2607Z" fill="#44ADBF" stroke="#44ADBF" stroke-width="2.77433" stroke-miterlimit="10"/>
</g>
<defs>
<clipPath id="clip0">
<rect width="193" height="40.0296" fill="white"/>
</clipPath>
</defs>
</svg>
