<svg width="37" height="37" viewBox="0 0 37 37" fill="none" xmlns="http://www.w3.org/2000/svg">
<path d="M18.4999 36.1825C28.2658 36.1825 36.1825 28.2658 36.1825 18.4999C36.1825 8.73414 28.2658 0.817383 18.4999 0.817383C8.73414 0.817383 0.817383 8.73414 0.817383 18.4999C0.817383 28.2658 8.73414 36.1825 18.4999 36.1825Z" stroke="#3B4B5B" stroke-width="1.63488" stroke-miterlimit="10"/>
<path d="M19.2869 7.47192C21.6507 7.56661 23.7978 8.71579 25.2304 11.0584C26.3421 12.8766 26.5765 14.8432 25.9961 16.8943C25.7018 17.9345 25.041 18.7492 24.2978 19.506C23.8012 20.0121 23.2938 20.5101 22.8258 21.0421C21.9096 22.0836 21.5022 23.3261 21.4804 24.6988C21.4641 25.7396 21.2433 26.7137 20.445 27.6054C19.1091 29.0979 16.7835 29.2567 15.2154 28.0108C14.2692 27.2587 13.7665 26.271 13.727 25.0441C13.7154 24.694 13.8646 24.4426 14.1487 24.3193C14.4348 24.1954 14.6957 24.2492 14.9239 24.4515C15.1166 24.6225 15.1487 24.8554 15.1596 25.0979C15.1909 25.7519 15.4436 26.3166 15.9409 26.7553C16.7467 27.4658 17.9654 27.5802 18.8905 27.0346C19.6119 26.6095 19.9995 25.9188 20.0363 25.0217C20.0676 24.2553 20.1235 23.4971 20.3217 22.7539C20.6187 21.6415 21.1902 20.6817 21.9668 19.8432C22.4491 19.3227 22.9477 18.8166 23.4579 18.3234C24.6153 17.2049 25.0145 15.8214 24.8265 14.2723C24.5192 11.7335 23.1282 10.0135 20.7093 9.18241C18.3925 8.38609 15.6929 9.26211 14.2222 11.2097C13.4307 12.258 13.0097 13.4317 12.9845 14.7471C12.9756 15.2206 12.6902 15.5319 12.2747 15.536C11.8769 15.5394 11.556 15.1776 11.5574 14.7798C11.5628 13.4072 11.9388 12.1082 12.6984 10.9011C13.2624 10.0046 14.0281 9.24168 14.9157 8.66334C16.1459 7.86157 17.4361 7.48214 19.2869 7.47192Z" fill="white"/>
<path d="M16.5913 15.9325C17.2187 16.0442 17.7868 16.2635 18.2527 16.6859C19.233 17.5735 19.5933 18.6791 19.2425 19.9488C18.8951 21.207 18.0354 21.9822 16.7425 22.2417C15.9837 22.3943 15.2636 22.2622 14.5865 21.8875C14.2207 21.6852 14.079 21.2847 14.2534 20.9304C14.4271 20.5776 14.8358 20.4304 15.2132 20.6157C15.7854 20.8964 16.3713 21.0115 17.0416 20.6273C17.4768 20.378 17.7902 19.9413 17.8931 19.4502C18.0552 18.6784 17.7521 18.0251 17.0191 17.5408C16.7337 17.3521 16.3842 17.3153 16.0429 17.3357C15.5068 17.3678 15.1982 17.0864 15.1785 16.5599C15.1587 16.0319 15.1138 15.5033 15.1254 14.9761C15.1574 13.4931 15.7718 12.2922 17.0211 11.4815C19.1942 10.0721 21.9918 10.8971 23.0852 13.2377C23.3324 13.7669 23.4523 14.3289 23.4557 14.9134C23.4578 15.3242 23.1751 15.6341 22.7895 15.6532C22.3822 15.6736 22.0647 15.4086 22.0368 14.9836C22.0095 14.5633 21.9469 14.1566 21.763 13.7738C21.2514 12.7104 20.0688 12.0653 18.9489 12.2404C17.6921 12.4372 16.7527 13.3405 16.6008 14.5558C16.5443 15.006 16.5913 15.4693 16.5913 15.9325Z" fill="white"/>
</svg>
