<svg width="37" height="32" viewBox="0 0 37 32" fill="none" xmlns="http://www.w3.org/2000/svg">
<path d="M18.1588 30.9992C13.7732 30.9992 9.38818 31.001 5.00258 30.9986C2.63783 30.9968 1.03698 29.5225 1.02602 27.1669C0.991326 19.7233 0.991326 12.279 1.02602 4.83595C1.03698 2.47972 2.63661 1.00243 5.00015 1.00183C13.8389 0.999391 22.6777 0.999391 31.5164 1.00183C33.8976 1.00243 35.5052 2.54911 35.5113 4.93517C35.5313 12.3106 35.5307 19.6867 35.5113 27.0622C35.5052 29.4489 33.8988 30.9962 31.5189 30.998C27.0651 31.0016 22.6119 30.9992 18.1588 30.9992Z" stroke="white" stroke-width="1.94255" stroke-miterlimit="10"/>
<path d="M5.23923 25.7389C5.24903 25.7267 5.25882 25.7145 5.26861 25.7023C6.28873 24.432 7.25961 23.223 8.23254 22.0152L5.23923 25.7389ZM5.23923 25.7389C6.11258 25.7391 6.9348 25.739 7.75685 25.738H7.75689L7.78596 25.738C16.0531 25.7278 24.3208 25.7176 32.5885 25.7068C32.3049 25.1343 32.0209 24.5615 31.7367 23.9884C30.9803 22.463 30.2229 20.9358 29.4717 19.4066L29.4716 19.4064C28.4762 17.379 27.4851 15.349 26.4864 13.3036C26.2216 12.7612 25.9562 12.2177 25.6901 11.6729C25.0119 12.2136 24.3337 12.7525 23.6562 13.291C21.2837 15.1764 18.9194 17.0553 16.589 18.9798C16.1151 19.3712 15.561 19.7632 14.9005 19.9354C14.1929 20.1198 13.4747 20.026 12.7336 19.6577L5.23923 25.7389ZM32.9982 26.5686C32.9971 26.5651 32.9945 26.5573 32.9898 26.5447C32.9814 26.5224 32.9697 26.4937 32.9532 26.4565L33.2975 25.7043C33.3077 25.7041 33.3177 25.7039 33.3275 25.7037C33.4315 25.7016 33.4934 25.6977 33.5299 25.6937C33.5365 25.6929 33.5413 25.6923 33.5444 25.6918M32.9982 26.5686C32.9986 26.5701 32.9988 26.5708 32.9988 26.5707C32.9988 26.5706 32.9986 26.5699 32.9982 26.5686ZM32.9982 26.5686C32.9964 26.5619 32.9911 26.5404 32.9875 26.5079C32.9799 26.4386 32.9737 26.255 33.09 26.0524C33.2097 25.8437 33.3806 25.7511 33.4643 25.7171C33.5042 25.7009 33.5337 25.6939 33.5444 25.6918M33.5444 25.6918C33.5477 25.6913 33.5491 25.691 33.5486 25.6911C33.5483 25.6911 33.5468 25.6913 33.5444 25.6918ZM10.6738 18.9954L10.6735 18.9953C10.6717 18.9945 10.67 18.9938 10.6682 18.9931C10.6517 19.0122 10.633 19.0353 10.6116 19.0631L10.6738 18.9954ZM10.6738 18.9954C11.0431 19.1463 11.4315 19.2489 11.7485 19.3326M10.6738 18.9954L11.7485 19.3326M11.7485 19.3326C11.7881 19.3431 11.8266 19.3532 11.8638 19.3632M11.7485 19.3326L11.8638 19.3632M11.8638 19.3632C12.2277 19.4602 12.5007 19.542 12.7334 19.6576L11.8638 19.3632ZM32.727 25.9867C32.7974 26.1289 32.8538 26.2428 32.9 26.3405C32.9216 26.3863 32.9391 26.4245 32.9532 26.4564L32.9535 26.6776C24.5652 26.6886 16.1769 26.6989 7.78924 26.7092L7.75809 26.7093L32.727 25.9867Z" stroke="#3B4B5B" stroke-width="1.94255"/>
<path d="M11.1649 7.95424C11.1613 9.40642 10.012 10.5338 8.64231 10.4946C7.28658 10.4554 6.18973 9.31598 6.19538 7.92516C6.20102 6.54302 7.3302 5.39766 8.66599 5.38301C10.0513 5.36786 11.1685 6.48805 11.1649 7.95424ZM11.1649 7.95424L11.6505 7.95545L11.1649 7.95424Z" stroke="white" stroke-width="0.971277"/>
</svg>
