<svg width="72" height="69" viewBox="0 0 72 69" fill="none" xmlns="http://www.w3.org/2000/svg">
<g clip-path="url(#clip0)">
<path d="M53.4859 31.6311C43.2622 31.6311 34.9717 39.9946 34.9717 50.3155C34.9717 60.6332 43.259 69 53.4859 69C63.7127 69 72.0001 60.6364 72.0001 50.3155C72.0001 39.9978 63.7127 31.6311 53.4859 31.6311ZM60.3851 52.097H46.5898V48.5341H60.3851V52.097Z" fill="#3B4B5B"/>
<path d="M50.2279 0C43.6012 0 38.2295 5.42111 38.2295 12.1087C38.2295 18.7964 43.6012 24.2175 50.2279 24.2175C56.8546 24.2175 62.2263 18.7964 62.2263 12.1087C62.2263 5.42111 56.8546 0 50.2279 0ZM52.8678 15.8443L50.4751 13.5128L47.9493 16.1546L46.3045 14.5522L48.8303 11.9104L46.4376 9.57889L48.0253 7.91898L50.4181 10.2505L52.5129 8.0597L54.1577 9.66205L52.0628 11.8529L54.4556 14.1844L52.8678 15.8443Z" fill="#F2EED1"/>
<path d="M26.855 14.6035C13.1611 14.6035 2.05957 25.8071 2.05957 39.627C2.05957 53.4468 13.1611 64.6504 26.855 64.6504C40.5489 64.6504 51.6505 53.4468 51.6505 39.627C51.6505 25.8071 40.5521 14.6035 26.855 14.6035ZM36.0963 41.3636H29.2192V48.9532H24.494V41.3636H17.6169V36.5918H24.4908V30.3039H29.2192V36.5918H36.0931V41.3636H36.0963Z" fill="#44ADBF" stroke="#44ADBF" stroke-width="2" stroke-miterlimit="10"/>
</g>
<defs>
<clipPath id="clip0">
<rect width="72" height="69" fill="white"/>
</clipPath>
</defs>
</svg>
