<svg width="35" height="34" viewBox="0 0 35 34" fill="none" xmlns="http://www.w3.org/2000/svg">
<g clip-path="url(#clip0)">
<path d="M17.39 33.2487C26.3639 33.2487 33.6388 25.9738 33.6388 16.9998C33.6388 8.02583 26.3639 0.750977 17.39 0.750977C8.41597 0.750977 1.14111 8.02583 1.14111 16.9998C1.14111 25.9738 8.41597 33.2487 17.39 33.2487Z" stroke="#3B4B5B" stroke-width="1.50232" stroke-miterlimit="10"/>
<path d="M33.8348 16.9255C33.8868 16.8648 33.6796 16.7195 33.6796 16.7195C16.7153 -2.62972 2.92522 13.8376 0.900846 16.7195C0.900846 16.7195 0.688018 16.8128 0.770019 16.9255C0.688018 17.0375 0.900846 17.1314 0.900846 17.1314C2.92585 19.6015 16.7159 36.4807 33.6796 17.1314C33.6802 17.1314 33.8868 16.9856 33.8348 16.9255Z" stroke="white" stroke-width="1.50232" stroke-miterlimit="10"/>
<path d="M26.3744 16.8573C26.3744 22.0096 22.1961 26.1886 17.0425 26.1886C11.8895 26.1886 7.71118 22.0103 7.71118 16.8573C7.71118 11.7037 11.8895 7.52539 17.0425 7.52539C22.1961 7.52539 26.3744 11.7037 26.3744 16.8573Z" stroke="#3B4B5B" stroke-width="1.50232" stroke-miterlimit="10"/>
<path d="M19.1927 17.3726C18.8897 17.1247 18.4584 17.136 18.168 17.3776L16.2475 15.8496C16.2713 15.7582 16.2801 15.6618 16.2701 15.5648C16.2481 15.3507 16.1449 15.1579 15.9777 15.0215C15.6334 14.7404 15.1252 14.7924 14.8441 15.136C14.5918 15.4453 14.6087 15.8866 14.8635 16.1764L13.6735 17.5322C13.5083 17.4014 13.3023 17.3401 13.0926 17.362C12.8786 17.3832 12.6858 17.4872 12.5493 17.6543C12.2682 17.9986 12.3202 18.5069 12.6639 18.7879C12.8091 18.9062 12.9869 18.9694 13.1715 18.9694C13.1991 18.9694 13.2266 18.9682 13.2541 18.9651C13.4682 18.9432 13.661 18.8399 13.7975 18.6727C13.9333 18.5062 13.9965 18.2965 13.9746 18.0824C13.9634 17.9729 13.9308 17.869 13.8795 17.7757L15.1158 16.3673C15.2272 16.4218 15.3467 16.4506 15.4669 16.4506C15.701 16.4506 15.9327 16.3498 16.0917 16.1545C16.096 16.1495 16.0992 16.1438 16.1035 16.1382L17.9683 17.6217C17.7943 17.9535 17.8713 18.3741 18.1724 18.6202C18.322 18.7422 18.5016 18.8011 18.6813 18.8011C18.9154 18.8011 19.147 18.7003 19.306 18.505C19.4418 18.3385 19.505 18.1288 19.4831 17.9147C19.4631 17.7019 19.3592 17.5091 19.1927 17.3726ZM13.554 18.4743C13.4714 18.5757 13.3537 18.6389 13.2235 18.6521C13.0939 18.6659 12.9656 18.627 12.8642 18.5444C12.6551 18.3735 12.6238 18.0643 12.7941 17.8546C12.9649 17.6455 13.2742 17.6142 13.4839 17.7851C13.5039 17.8014 13.5214 17.8202 13.539 17.8396C13.5477 17.8565 13.5596 17.8728 13.5746 17.8859C13.6216 17.9535 13.6529 18.0311 13.6616 18.1156C13.6748 18.2452 13.6366 18.3729 13.554 18.4743ZM15.8488 15.956C15.7661 16.0574 15.6485 16.1207 15.5183 16.1338C15.3881 16.147 15.2604 16.1088 15.159 16.0261C14.9499 15.8553 14.918 15.546 15.0889 15.3363C15.2597 15.1266 15.569 15.0953 15.7787 15.2662C15.8801 15.3489 15.9433 15.4665 15.9564 15.5967C15.9696 15.7269 15.9314 15.8546 15.8488 15.956ZM19.0631 18.3065C18.8922 18.5156 18.583 18.5475 18.3733 18.3767C18.1642 18.2058 18.1323 17.8965 18.3032 17.6868C18.4002 17.5685 18.5411 17.5072 18.6832 17.5072C18.7921 17.5072 18.9016 17.5435 18.9924 17.6174C19.2027 17.7882 19.234 18.0975 19.0631 18.3065Z" stroke="#3B4B5B" stroke-width="0.49421" stroke-miterlimit="10"/>
<path d="M19.9205 16.6945C19.8523 16.64 19.7534 16.6519 19.6989 16.7195L19.4598 17.0206C19.4053 17.0888 19.4166 17.1883 19.4848 17.2422C19.5136 17.2653 19.5487 17.2766 19.5831 17.2766C19.6294 17.2766 19.6757 17.2559 19.7064 17.2171L19.9455 16.916C20 16.8478 19.9887 16.7489 19.9205 16.6945Z" stroke="#3B4B5B" stroke-width="0.49421" stroke-miterlimit="10"/>
<path d="M20.9147 15.4446C20.8465 15.3902 20.7476 15.4015 20.6931 15.4697L20.1961 16.0944C20.1417 16.1626 20.1529 16.2615 20.2212 16.316C20.2499 16.3392 20.285 16.3504 20.3194 16.3504C20.3657 16.3504 20.4121 16.3298 20.4427 16.291L20.9398 15.6662C20.9942 15.5986 20.983 15.4991 20.9147 15.4446Z" stroke="#3B4B5B" stroke-width="0.49421" stroke-miterlimit="10"/>
<path d="M21.6507 14.5196C21.5825 14.4652 21.4836 14.4771 21.4291 14.5447L21.19 14.8458C21.1356 14.914 21.1468 15.0129 21.2151 15.0674C21.2438 15.0905 21.2789 15.1018 21.3133 15.1018C21.3596 15.1018 21.406 15.0811 21.4366 15.0423L21.6758 14.7412C21.7302 14.673 21.719 14.5741 21.6507 14.5196Z" stroke="#3B4B5B" stroke-width="0.49421" stroke-miterlimit="10"/>
<path d="M22.3446 13.5585C22.302 13.5284 22.2469 13.5209 22.1987 13.5391L21.0175 13.9766C20.9362 14.0067 20.8942 14.0974 20.9243 14.1794C20.9543 14.2608 21.0451 14.3027 21.1271 14.2727L22.0917 13.9153L22.0742 14.9444C22.0729 15.0314 22.1424 15.1034 22.2294 15.1046C22.2307 15.1046 22.2313 15.1046 22.2319 15.1046C22.3177 15.1046 22.3878 15.0358 22.3897 14.9494L22.4116 13.6899C22.4122 13.638 22.3872 13.5885 22.3446 13.5585Z" stroke="#3B4B5B" stroke-width="0.49421" stroke-miterlimit="10"/>
</g>
<defs>
<clipPath id="clip0">
<rect width="34.5947" height="34" fill="white"/>
</clipPath>
</defs>
</svg>
