<svg width="31" height="44" viewBox="0 0 31 44" fill="none" xmlns="http://www.w3.org/2000/svg">
<path d="M17.9436 42C15.9698 41.5993 14.1251 41.2274 12.2811 40.8514C9.76094 40.3377 7.24075 39.8207 4.72055 39.3046C3.56559 39.068 2.41223 38.8219 1.25409 38.6004C0.909192 38.5343 1.00159 38.332 1.04301 38.1281C1.45959 36.0747 1.87776 34.022 2.29434 31.9686C3.37284 26.6534 4.45531 21.3398 5.52185 16.0222C5.60708 15.5977 5.78789 15.3237 6.16305 15.0998C8.36066 13.7872 10.5415 12.4474 12.7367 11.1292C12.9741 10.9866 13.0426 10.8257 13.0522 10.5621C13.1637 7.47314 14.3115 4.73152 15.9133 2.14999C16.0845 1.87359 16.3338 1.63703 16.5784 1.41639C17.2212 0.836521 17.9906 0.865993 18.6007 1.4817C19.367 2.25433 19.6259 3.18865 19.4801 4.2544C19.2642 5.82992 18.6326 7.26127 17.954 8.6751C17.6497 9.30833 17.3231 9.93121 16.9878 10.5485C16.8707 10.7636 16.8707 10.9213 17.0173 11.1252C18.6143 13.3427 20.2033 15.5666 21.7924 17.7897C22.0011 18.0812 22.2201 18.368 22.3914 18.681C22.479 18.8411 22.5316 19.0649 22.4965 19.2394C21.9111 22.1642 21.3057 25.0843 20.7131 28.0075C19.9684 31.6842 19.2284 35.3618 18.4932 39.0401C18.2965 40.0127 18.1292 40.99 17.9436 42ZM16.4629 10.2841C16.5601 10.1216 16.6373 10.0148 16.6915 9.89776C17.218 8.76829 17.7939 7.65794 18.2455 6.499C18.5609 5.69053 18.7521 4.82471 18.9106 3.96765C19.0556 3.18308 18.807 2.46461 18.2216 1.89908C17.8209 1.51197 17.4386 1.48728 17.0204 1.84572C16.7425 2.08388 16.4828 2.36425 16.2821 2.67012C15.2984 4.16599 14.5855 5.79886 14.0598 7.49943C13.7929 8.36286 13.7316 9.29081 13.585 10.1909C13.5683 10.296 13.6034 10.4091 13.6193 10.5692C13.8041 10.4673 13.9323 10.402 14.055 10.3271C14.5074 10.0499 14.9614 9.7743 15.4091 9.48994C15.6313 9.34896 15.7866 9.37444 15.934 9.60623C16.075 9.82687 16.2558 10.0228 16.4629 10.2841Z" stroke="#3B4B5B" stroke-width="1.99131" stroke-miterlimit="10"/>
<path d="M29.3984 40.0797C27.3967 40.2987 25.5257 40.5042 23.6546 40.7065C21.097 40.9829 18.5394 41.2569 15.9817 41.5317C14.8093 41.6576 13.636 41.7731 12.4651 41.9148C12.117 41.9571 12.1425 41.7356 12.1202 41.5293C11.8924 39.4464 11.667 37.3635 11.4392 35.2814C10.8505 29.8905 10.2659 24.4981 9.66532 19.1088C9.61753 18.6787 9.70594 18.3625 9.99588 18.0351C11.6909 16.1171 13.3612 14.1767 15.0506 12.2539C15.233 12.046 15.2497 11.8724 15.1788 11.6183C14.3465 8.64171 14.6061 5.68104 15.3469 2.73471C15.4266 2.41928 15.5914 2.1182 15.7571 1.83384C16.1936 1.08591 16.9352 0.880404 17.7038 1.28105C18.6684 1.78366 19.1997 2.59532 19.3845 3.65469C19.6577 5.22065 19.4912 6.77706 19.2746 8.32948C19.1774 9.02564 19.0555 9.71782 18.9241 10.4084C18.8779 10.6489 18.9257 10.7995 19.1272 10.9484C21.3232 12.5757 23.5129 14.211 25.7025 15.8455C25.9892 16.0597 26.2864 16.2668 26.5444 16.5122C26.6766 16.638 26.7945 16.8355 26.8144 17.0124C27.1466 19.9762 27.4572 22.9425 27.7814 25.9071C28.1892 29.6364 28.6026 33.3642 29.0216 37.0927C29.1307 38.0788 29.2685 39.0609 29.3984 40.0797ZM18.3442 10.3152C18.3872 10.1304 18.4287 10.0054 18.4446 9.87792C18.6023 8.64172 18.8134 7.4087 18.8922 6.16692C18.9464 5.3011 18.8659 4.41776 18.756 3.55353C18.6557 2.76179 18.5473 1.95252 17.8177 1.5917C17.3183 1.34477 16.3967 1.41646 16.1068 1.88481C15.914 2.19626 15.5245 2.80719 15.4258 3.15925C14.9431 4.88372 15.1135 6.80175 15.1303 8.58118C15.1382 9.48523 15.4409 10.1981 15.5747 11.0998C15.5907 11.2049 15.6584 11.3021 15.7221 11.4503C15.867 11.2965 15.9698 11.1954 16.0638 11.087C16.4111 10.6856 16.7591 10.2849 17.0993 9.87792C17.2681 9.6756 17.4234 9.6533 17.6345 9.82933C17.836 9.99819 18.0686 10.1296 18.3442 10.3152Z" stroke="#F1FDFF" stroke-width="1.99131" stroke-miterlimit="10"/>
</svg>
