<svg width="38" height="37" viewBox="0 0 38 37" fill="none" xmlns="http://www.w3.org/2000/svg">
<path d="M19.5614 37C19.0753 37 18.5887 37 18.1026 37C18.0273 36.9898 17.952 36.9762 17.8763 36.9698C17.4178 36.9302 16.9578 36.9052 16.5009 36.8512C13.9938 36.5552 11.63 35.8058 9.46371 34.5346C4.24501 31.4723 1.13301 26.9851 0.207243 21.0651C-0.144385 18.8153 -0.0494647 16.5673 0.498922 14.3579C1.86201 8.86565 5.09007 4.76734 10.152 2.08937C12.2337 0.988051 14.4718 0.347724 16.8252 0.10798C17.2122 0.0687143 17.6 0.0358673 17.9873 0C18.5503 0 19.1137 0 19.6767 0C19.7455 0.0105714 19.8139 0.0275612 19.883 0.0313367C21.909 0.138184 23.8697 0.546694 25.7508 1.29538C29.9235 2.95622 33.1189 5.71839 35.3139 9.58224C36.5383 11.7369 37.27 14.0528 37.5329 16.5096C37.574 16.8958 37.6074 17.2828 37.6443 17.6694C37.6443 18.2233 37.6443 18.7767 37.6443 19.3306C37.6332 19.4039 37.6151 19.4771 37.6116 19.5507C37.5601 20.5894 37.4249 21.6186 37.1712 22.6263C35.7759 28.1664 32.524 32.2961 27.3898 34.9661C25.3296 36.0376 23.1203 36.6594 20.8004 36.8916C20.388 36.9332 19.9745 36.9641 19.5614 37ZM18.6914 12.9088V12.9096C17.9235 12.9096 17.1557 12.9077 16.3883 12.913C16.3137 12.9134 16.2188 12.9383 16.1685 12.987C15.1094 14.0185 14.0545 15.0541 13.0019 16.0927C12.9589 16.1354 12.9273 16.2105 12.927 16.2706C12.9231 17.7555 12.9227 19.2404 12.9281 20.7253C12.9285 20.7966 12.9665 20.8857 13.018 20.9363C14.1006 21.9984 15.1866 23.057 16.2757 24.1123C16.3233 24.1584 16.4052 24.195 16.4713 24.195C17.9174 24.1991 19.3631 24.1988 20.8092 24.1927C20.8937 24.1923 21.001 24.1572 21.0594 24.1006C22.1446 23.0416 23.2252 21.9772 24.3024 20.9103C24.3539 20.8593 24.395 20.7717 24.395 20.7011C24.4004 19.2162 24.4004 17.7313 24.395 16.2464C24.3946 16.175 24.357 16.0863 24.3059 16.0357C23.2817 15.0231 22.2541 14.0136 21.2227 13.0081C21.1674 12.9545 21.0717 12.9141 20.9944 12.9134C20.227 12.9058 19.4592 12.9088 18.6914 12.9088ZM23.1568 24.1965C23.2333 24.1965 23.2879 24.1965 23.3425 24.1965C27.2065 24.1965 31.0702 24.1957 34.9343 24.1995C35.0776 24.1995 35.1441 24.1636 35.1917 24.024C36.2947 20.7827 36.4165 17.5063 35.558 14.1963C35.4108 13.6285 35.214 13.0735 35.0519 12.549C31.0863 16.4322 27.1324 20.3036 23.1568 24.1965ZM25.9337 19.2929C25.9856 19.2491 26.0102 19.2309 26.0314 19.2098C28.7714 16.5118 31.5106 13.8131 34.2533 11.1177C34.3455 11.0271 34.3367 10.9614 34.2829 10.8591C32.446 7.3562 29.7206 4.75601 26.0994 3.06534C26.0506 3.04268 25.9979 3.02796 25.9337 3.00455C25.9337 8.43638 25.9337 13.8459 25.9337 19.2929ZM12.9331 22.9676C12.9281 23.0487 12.9247 23.0786 12.9247 23.1084C12.9243 26.8514 12.9254 30.5945 12.9208 34.3375C12.9208 34.4693 12.9831 34.507 13.0876 34.5429C14.4941 35.028 15.9402 35.3324 17.4259 35.4445C19.4649 35.5985 21.4748 35.4233 23.4478 34.8842C23.8751 34.7675 24.2963 34.629 24.762 34.4878C20.8061 30.6352 16.8863 26.8174 12.9331 22.9676ZM19.5891 11.3968C19.5399 11.345 19.5187 11.322 19.4961 11.2997C16.7864 8.63497 14.076 5.97097 11.3698 3.30244C11.271 3.20503 11.2038 3.23335 11.1081 3.28167C7.57299 5.0622 4.93328 7.70468 3.20281 11.2227C3.17629 11.2767 3.15208 11.3314 3.12211 11.3968C8.61673 11.3968 14.0848 11.3968 19.5891 11.3968ZM17.9247 25.7037C17.9885 25.7716 18.0211 25.809 18.0561 25.8434C20.7562 28.4738 23.4574 31.103 26.1547 33.7361C26.2496 33.8286 26.3184 33.8369 26.4341 33.7795C29.9976 32.0201 32.6581 29.3806 34.4212 25.8653C34.4451 25.8173 34.4627 25.7667 34.4893 25.7037C28.9677 25.7037 23.4677 25.7037 17.9247 25.7037ZM12.8428 2.5311C16.7046 6.33266 20.559 10.1267 24.3989 13.9067C24.3989 13.8667 24.3989 13.7916 24.3989 13.7164C24.3989 10.9297 24.3989 8.14302 24.3989 5.35632C24.3989 4.42528 24.3981 3.49423 24.3996 2.56319C24.3996 2.46503 24.4008 2.39141 24.274 2.35101C22.7203 1.85642 21.1289 1.56986 19.4968 1.51171C17.7537 1.44942 16.0363 1.62573 14.3523 2.07842C13.8308 2.21887 13.317 2.38839 12.8428 2.5311ZM11.3921 17.68C11.3068 17.7592 11.2514 17.8079 11.1988 17.8597C8.57292 20.4368 5.94743 23.0151 3.31771 25.5889C3.20703 25.6973 3.19474 25.772 3.26314 25.9083C4.86949 29.1096 7.25864 31.5833 10.4083 33.3498C10.7219 33.5258 11.047 33.681 11.3921 33.8592C11.3921 28.4534 11.3921 23.0895 11.3921 17.68ZM2.54451 24.2218C6.37707 20.4327 10.1885 16.6647 13.9868 12.9096C13.9553 12.9096 13.8858 12.9096 13.8162 12.9096C11.1999 12.9096 8.58368 12.9096 5.96741 12.9096C4.86718 12.9096 3.76695 12.91 2.66672 12.9088C2.56796 12.9088 2.49225 12.9054 2.44959 13.0304C1.99421 14.3722 1.7056 15.7473 1.59685 17.1571C1.48848 18.5612 1.54574 19.9596 1.78515 21.3494C1.95232 22.317 2.19865 23.2643 2.54451 24.2218Z" fill="#3B4B5B"/>
<path d="M18.6916 12.909C19.4594 12.909 20.2272 12.9063 20.9947 12.9131C21.0719 12.9139 21.1676 12.9543 21.2229 13.0079C22.2544 14.0133 23.282 15.0225 24.3061 16.0355C24.3572 16.086 24.3949 16.1751 24.3953 16.2461C24.4003 17.731 24.4003 19.2159 24.3953 20.7009C24.3949 20.7715 24.3542 20.859 24.3027 20.91C23.2255 21.977 22.1449 23.0413 21.0596 24.1003C21.0012 24.1573 20.894 24.1921 20.8094 24.1924C19.3633 24.1985 17.9176 24.1989 16.4715 24.1947C16.4054 24.1947 16.3236 24.1581 16.2759 24.112C15.1868 23.0564 14.1008 21.9981 13.0183 20.9361C12.9668 20.8855 12.9287 20.7964 12.9284 20.725C12.923 19.2401 12.9234 17.7552 12.9272 16.2703C12.9272 16.2103 12.9591 16.1347 13.0021 16.0925C14.0543 15.0542 15.1092 14.0182 16.1687 12.9867C16.2187 12.938 16.314 12.9131 16.3885 12.9127C17.1563 12.9074 17.9242 12.9093 18.6916 12.9093V12.909Z" fill="white" stroke="white" stroke-width="0.15102" stroke-miterlimit="10"/>
</svg>
