<svg width="94" height="95" viewBox="0 0 94 95" fill="none" xmlns="http://www.w3.org/2000/svg">
<g clip-path="url(#clip0)" filter="url(#filter0_d)">
<path d="M77.4388 74.44C94.2501 57.6287 94.2501 30.3722 77.4388 13.5609C60.6275 -3.25036 33.371 -3.25036 16.5597 13.5609C-0.25163 30.3722 -0.25163 57.6287 16.5597 74.44C33.371 91.2513 60.6275 91.2513 77.4388 74.44Z" stroke="#44ADBF" stroke-width="6" stroke-miterlimit="10" stroke-dasharray="51.68 51.68"/>
<path d="M70.7873 67.789C83.9253 54.6509 83.9253 33.35 70.7873 20.212C57.6493 7.07401 36.3484 7.07401 23.2103 20.212C10.0723 33.35 10.0723 54.651 23.2103 67.789C36.3484 80.927 57.6493 80.927 70.7873 67.789Z" stroke="#3B4B5B" stroke-width="8" stroke-miterlimit="10" stroke-dasharray="49.37 49.37"/>
<path d="M59.7328 46.7977C61.3792 39.8254 57.0616 32.8387 50.0894 31.1923C43.1171 29.5459 36.1303 33.8635 34.4839 40.8358C32.8376 47.808 37.1551 54.7948 44.1274 56.4412C51.0997 58.0875 58.0865 53.77 59.7328 46.7977Z" stroke="#44ADBF" stroke-width="8" stroke-miterlimit="10" stroke-dasharray="57.09 57.09"/>
<path d="M59.7318 46.9862C61.3782 40.0139 57.0607 33.0271 50.0884 31.3808C43.1161 29.7344 36.1293 34.0519 34.4829 41.0242C32.8366 47.9965 37.1541 54.9833 44.1264 56.6297C51.0987 58.276 58.0855 53.9585 59.7318 46.9862Z" stroke="#44ADBF" stroke-width="8" stroke-miterlimit="10" stroke-dasharray="57.09 57.09"/>
<path d="M56.2794 52.9853C61.3453 47.9194 61.3453 39.706 56.2794 34.6402C51.2136 29.5743 43.0002 29.5743 37.9343 34.6402C32.8684 39.706 32.8684 47.9194 37.9343 52.9853C43.0002 58.0512 51.2136 58.0512 56.2794 52.9853Z" stroke="#44ADBF" stroke-width="8" stroke-miterlimit="10" stroke-dasharray="57.09 57.09"/>
<path d="M51.9949 44.9708C52.6323 42.2717 50.9609 39.5669 48.2617 38.9296C45.5625 38.2922 42.8578 39.9636 42.2204 42.6628C41.5831 45.3619 43.2545 48.0667 45.9537 48.7041C48.6528 49.3414 51.3576 47.67 51.9949 44.9708Z" stroke="#44ADBF" stroke-width="8" stroke-miterlimit="10" stroke-dasharray="66.29 66.29"/>
<path d="M56.2794 52.9853C61.3453 47.9194 61.3453 39.706 56.2794 34.6402C51.2136 29.5743 43.0002 29.5743 37.9343 34.6402C32.8684 39.706 32.8684 47.9194 37.9343 52.9853C43.0002 58.0512 51.2136 58.0512 56.2794 52.9853Z" stroke="#44ADBF" stroke-width="8" stroke-miterlimit="10" stroke-dasharray="57.09 57.09"/>
<path d="M51.9949 44.9708C52.6323 42.2717 50.9609 39.5669 48.2617 38.9296C45.5625 38.2922 42.8578 39.9636 42.2204 42.6628C41.5831 45.3619 43.2545 48.0667 45.9537 48.7041C48.6528 49.3414 51.3576 47.67 51.9949 44.9708Z" stroke="#44ADBF" stroke-width="8" stroke-miterlimit="10" stroke-dasharray="66.29 66.29"/>
<path d="M56.2794 52.9853C61.3453 47.9194 61.3453 39.706 56.2794 34.6402C51.2136 29.5743 43.0002 29.5743 37.9343 34.6402C32.8684 39.706 32.8684 47.9194 37.9343 52.9853C43.0002 58.0512 51.2136 58.0512 56.2794 52.9853Z" stroke="#44ADBF" stroke-width="8" stroke-miterlimit="10" stroke-dasharray="57.09 57.09"/>
<path d="M51.9949 44.9708C52.6323 42.2717 50.9609 39.5669 48.2617 38.9296C45.5625 38.2922 42.8578 39.9636 42.2204 42.6628C41.5831 45.3619 43.2545 48.0667 45.9537 48.7041C48.6528 49.3414 51.3576 47.67 51.9949 44.9708Z" stroke="#44ADBF" stroke-width="8" stroke-miterlimit="10" stroke-dasharray="66.29 66.29"/>
<path d="M56.2794 52.9853C61.3453 47.9194 61.3453 39.706 56.2794 34.6402C51.2136 29.5743 43.0002 29.5743 37.9343 34.6402C32.8684 39.706 32.8684 47.9194 37.9343 52.9853C43.0002 58.0512 51.2136 58.0512 56.2794 52.9853Z" stroke="#44ADBF" stroke-width="8" stroke-miterlimit="10" stroke-dasharray="57.09 57.09"/>
<path d="M51.9949 44.9708C52.6323 42.2717 50.9609 39.5669 48.2617 38.9296C45.5625 38.2922 42.8578 39.9636 42.2204 42.6628C41.5831 45.3619 43.2545 48.0667 45.9537 48.7041C48.6528 49.3414 51.3576 47.67 51.9949 44.9708Z" stroke="#44ADBF" stroke-width="8" stroke-miterlimit="10" stroke-dasharray="66.29 66.29"/>
<path d="M56.2794 52.9853C61.3453 47.9194 61.3453 39.706 56.2794 34.6402C51.2136 29.5743 43.0002 29.5743 37.9343 34.6402C32.8684 39.706 32.8684 47.9194 37.9343 52.9853C43.0002 58.0512 51.2136 58.0512 56.2794 52.9853Z" stroke="#44ADBF" stroke-width="8" stroke-miterlimit="10" stroke-dasharray="57.09 57.09"/>
<path d="M51.9949 44.9708C52.6323 42.2717 50.9609 39.5669 48.2617 38.9296C45.5625 38.2922 42.8578 39.9636 42.2204 42.6628C41.5831 45.3619 43.2545 48.0667 45.9537 48.7041C48.6528 49.3414 51.3576 47.67 51.9949 44.9708Z" stroke="#44ADBF" stroke-width="8" stroke-miterlimit="10" stroke-dasharray="66.29 66.29"/>
<path d="M78.5538 43.7192C78.6537 43.6026 78.2564 43.3243 78.2564 43.3243C45.6608 6.14458 19.1623 37.7862 15.2705 43.3243C15.2705 43.3243 14.8613 43.5027 15.0183 43.7192C14.8613 43.9333 15.2705 44.1141 15.2705 44.1141C19.16 48.86 45.6584 81.2938 78.2564 44.1141C78.254 44.1165 78.6513 43.8358 78.5538 43.7192Z" fill="#F2EED1"/>
<path d="M64.2183 43.5886C64.2183 53.4895 56.1895 61.5183 46.2862 61.5183C36.3852 61.5183 28.3564 53.4895 28.3564 43.5886C28.3564 33.6853 36.3852 25.6565 46.2862 25.6565C56.1895 25.6589 64.2183 33.6876 64.2183 43.5886Z" fill="#44ADBF" stroke="#44ADBF" stroke-miterlimit="10"/>
<path d="M46.9261 43.7193V35.248C42.5775 35.279 39.2637 38.7855 39.2637 43.1079C39.2637 47.4494 42.8558 51.2461 47.1949 51.2461C51.0558 51.2461 54.3411 48.3962 55.031 44.9706C55.0714 44.7731 55.3093 42.7297 54.7812 41.2143C54.0961 39.2446 53.2587 38.4001 53.2611 38.1812L46.9261 43.7193Z" fill="#3B4B5B"/>
</g>
<defs>
<filter id="filter0_d" x="-1" y="0" width="96" height="96" filterUnits="userSpaceOnUse" color-interpolation-filters="sRGB">
<feFlood flood-opacity="0" result="BackgroundImageFix"/>
<feColorMatrix in="SourceAlpha" type="matrix" values="0 0 0 0 0 0 0 0 0 0 0 0 0 0 0 0 0 0 127 0" result="hardAlpha"/>
<feOffset dy="4"/>
<feGaussianBlur stdDeviation="2"/>
<feColorMatrix type="matrix" values="0 0 0 0 0 0 0 0 0 0 0 0 0 0 0 0 0 0 0.25 0"/>
<feBlend mode="normal" in2="BackgroundImageFix" result="effect1_dropShadow"/>
<feBlend mode="normal" in="SourceGraphic" in2="effect1_dropShadow" result="shape"/>
</filter>
<clipPath id="clip0">
<rect width="88" height="88" fill="white" transform="translate(3)"/>
</clipPath>
</defs>
</svg>
