<svg width="42" height="42" viewBox="0 0 42 42" fill="none" xmlns="http://www.w3.org/2000/svg">
<path d="M31.5 31.5C37.299 25.701 37.299 16.299 31.5 10.5C25.701 4.70101 16.299 4.70101 10.5 10.5C4.70101 16.299 4.70101 25.701 10.5 31.5C16.299 37.299 25.701 37.299 31.5 31.5Z" stroke="#44ADBF" stroke-width="2.36534" stroke-miterlimit="10" stroke-dasharray="20.38 20.38"/>
<path d="M29.2071 29.2057C33.739 24.6738 33.739 17.3262 29.2071 12.7943C24.6751 8.26236 17.3275 8.26236 12.7956 12.7943C8.26368 17.3262 8.26368 24.6738 12.7956 29.2057C17.3275 33.7376 24.6751 33.7376 29.2071 29.2057Z" stroke="#3B4B5B" stroke-width="3.15379" stroke-miterlimit="10" stroke-dasharray="19.46 19.46"/>
<path d="M25.3892 21.9652C25.9571 19.5602 24.4677 17.1501 22.0627 16.5822C19.6576 16.0143 17.2476 17.5036 16.6796 19.9087C16.1117 22.3137 17.6011 24.7238 20.0061 25.2917C22.4112 25.8596 24.8212 24.3703 25.3892 21.9652Z" stroke="#44ADBF" stroke-width="3.15379" stroke-miterlimit="10" stroke-dasharray="22.5 22.5"/>
<path d="M25.3892 22.0302C25.9571 19.6251 24.4677 17.215 22.0627 16.6471C19.6576 16.0792 17.2476 17.5686 16.6796 19.9736C16.1117 22.3787 17.6011 24.7887 20.0061 25.3566C22.4112 25.9246 24.8213 24.4352 25.3892 22.0302Z" stroke="#44ADBF" stroke-width="3.15379" stroke-miterlimit="10" stroke-dasharray="22.5 22.5"/>
<path d="M24.2031 24.0998C25.9505 22.3524 25.9505 19.5192 24.2031 17.7717C22.4556 16.0243 19.6224 16.0243 17.875 17.7717C16.1275 19.5192 16.1275 22.3524 17.875 24.0998C19.6224 25.8473 22.4556 25.8473 24.2031 24.0998Z" stroke="#44ADBF" stroke-width="3.15379" stroke-miterlimit="10" stroke-dasharray="22.5 22.5"/>
<path d="M22.7248 21.3354C22.9447 20.4043 22.3681 19.4713 21.4371 19.2515C20.506 19.0316 19.573 19.6082 19.3532 20.5393C19.1333 21.4703 19.7099 22.4033 20.6409 22.6232C21.572 22.843 22.505 22.2665 22.7248 21.3354Z" stroke="#44ADBF" stroke-width="3.15379" stroke-miterlimit="10" stroke-dasharray="26.13 26.13"/>
<path d="M24.2031 24.0998C25.9505 22.3524 25.9505 19.5192 24.2031 17.7717C22.4556 16.0243 19.6224 16.0243 17.875 17.7717C16.1275 19.5192 16.1275 22.3524 17.875 24.0998C19.6224 25.8473 22.4556 25.8473 24.2031 24.0998Z" stroke="#44ADBF" stroke-width="3.15379" stroke-miterlimit="10" stroke-dasharray="22.5 22.5"/>
<path d="M22.7248 21.3354C22.9447 20.4043 22.3681 19.4713 21.4371 19.2515C20.506 19.0316 19.573 19.6082 19.3532 20.5393C19.1333 21.4703 19.7099 22.4033 20.6409 22.6232C21.572 22.843 22.505 22.2665 22.7248 21.3354Z" stroke="#44ADBF" stroke-width="3.15379" stroke-miterlimit="10" stroke-dasharray="26.13 26.13"/>
<path d="M24.2031 24.0998C25.9505 22.3524 25.9505 19.5192 24.2031 17.7717C22.4556 16.0243 19.6224 16.0243 17.875 17.7717C16.1275 19.5192 16.1275 22.3524 17.875 24.0998C19.6224 25.8473 22.4556 25.8473 24.2031 24.0998Z" stroke="#44ADBF" stroke-width="3.15379" stroke-miterlimit="10" stroke-dasharray="22.5 22.5"/>
<path d="M22.7248 21.3354C22.9447 20.4043 22.3681 19.4713 21.4371 19.2515C20.506 19.0316 19.573 19.6082 19.3532 20.5393C19.1333 21.4703 19.7099 22.4033 20.6409 22.6232C21.572 22.843 22.505 22.2665 22.7248 21.3354Z" stroke="#44ADBF" stroke-width="3.15379" stroke-miterlimit="10" stroke-dasharray="26.13 26.13"/>
<path d="M24.2031 24.0998C25.9505 22.3524 25.9505 19.5192 24.2031 17.7717C22.4556 16.0243 19.6224 16.0243 17.875 17.7717C16.1275 19.5192 16.1275 22.3524 17.875 24.0998C19.6224 25.8473 22.4556 25.8473 24.2031 24.0998Z" stroke="#44ADBF" stroke-width="3.15379" stroke-miterlimit="10" stroke-dasharray="22.5 22.5"/>
<path d="M22.7248 21.3354C22.9447 20.4043 22.3681 19.4713 21.4371 19.2515C20.506 19.0316 19.573 19.6082 19.3532 20.5393C19.1333 21.4703 19.7099 22.4033 20.6409 22.6232C21.572 22.843 22.505 22.2665 22.7248 21.3354Z" stroke="#44ADBF" stroke-width="3.15379" stroke-miterlimit="10" stroke-dasharray="26.13 26.13"/>
<path d="M24.2031 24.0998C25.9505 22.3524 25.9505 19.5192 24.2031 17.7717C22.4556 16.0243 19.6224 16.0243 17.875 17.7717C16.1275 19.5192 16.1275 22.3524 17.875 24.0998C19.6224 25.8473 22.4556 25.8473 24.2031 24.0998Z" stroke="#44ADBF" stroke-width="3.15379" stroke-miterlimit="10" stroke-dasharray="22.5 22.5"/>
<path d="M22.7248 21.3354C22.9447 20.4043 22.3681 19.4713 21.4371 19.2515C20.506 19.0316 19.573 19.6082 19.3532 20.5393C19.1333 21.4703 19.7099 22.4033 20.6409 22.6232C21.572 22.843 22.505 22.2665 22.7248 21.3354Z" stroke="#44ADBF" stroke-width="3.15379" stroke-miterlimit="10" stroke-dasharray="26.13 26.13"/>
<path d="M31.8857 20.9031C31.9202 20.8629 31.7831 20.7669 31.7831 20.7669C20.5394 7.94193 11.3989 18.8566 10.0564 20.7669C10.0564 20.7669 9.91525 20.8285 9.96941 20.9031C9.91525 20.977 10.0564 21.0394 10.0564 21.0394C11.3981 22.6764 20.5386 33.8643 31.7831 21.0394C31.7823 21.0402 31.9194 20.9433 31.8857 20.9031Z" fill="#F2EED1"/>
<path d="M26.9387 20.8582C26.9387 24.2735 24.1693 27.043 20.7531 27.043C17.3378 27.043 14.5684 24.2735 14.5684 20.8582C14.5684 17.4421 17.3378 14.6726 20.7531 14.6726C24.1693 14.6734 26.9387 17.4429 26.9387 20.8582Z" fill="#44ADBF" stroke="#44ADBF" stroke-width="0.394224" stroke-miterlimit="10"/>
<path d="M20.9722 20.9031V17.981C19.4722 17.9916 18.3291 19.2012 18.3291 20.6922C18.3291 22.1898 19.5682 23.4994 21.0649 23.4994C22.3968 23.4994 23.53 22.5164 23.768 21.3347C23.7819 21.2666 23.864 20.5617 23.6818 20.039C23.4455 19.3595 23.1566 19.0682 23.1574 18.9927L20.9722 20.9031Z" fill="#3B4B5B"/>
</svg>
