<svg width="39" height="39" viewBox="0 0 39 39" fill="none" xmlns="http://www.w3.org/2000/svg">
<g clip-path="url(#clip0)">
<path d="M32.5135 19.1433C32.5547 19.0951 32.3903 18.9798 32.3903 18.9798C18.9252 3.62182 7.97971 16.6924 6.37291 18.9798C6.37291 18.9798 6.20398 19.0539 6.26907 19.1433C6.20398 19.2322 6.37291 19.3068 6.37291 19.3068C7.98021 21.2673 18.9257 34.6648 32.3903 19.3068C32.3903 19.3068 32.5547 19.1915 32.5135 19.1433Z" stroke="white" stroke-width="1.19243" stroke-miterlimit="10"/>
<path d="M26.5923 19.0894C26.5923 23.1789 23.2758 26.4958 19.1853 26.4958C15.0953 26.4958 11.7788 23.1794 11.7788 19.0894C11.7788 14.9988 15.0953 11.6824 19.1853 11.6824C23.2758 11.6824 26.5923 14.9988 26.5923 19.0894Z" stroke="white" stroke-width="1.19243" stroke-miterlimit="10"/>
<path d="M19.3509 19.1436V15.6443C17.5544 15.6577 16.186 17.1055 16.186 18.8912C16.186 20.6843 17.6696 22.2523 19.4627 22.2523C21.0576 22.2523 22.415 21.0748 22.6992 19.6603C22.7156 19.5788 22.814 18.7347 22.5963 18.1086C22.3131 17.2953 21.9678 16.9465 21.9683 16.8561L19.3509 19.1436Z" stroke="#3B4B5B" stroke-width="1.19243" stroke-miterlimit="10" stroke-linejoin="round"/>
<path d="M33.4044 12.775C33.2116 13.6271 32.3282 13.64 31.7076 13.9665C31.1119 14.28 30.5405 14.3903 30.1386 13.6117C29.365 12.1137 26.5787 9.12023 24.6474 8.07884C23.2468 7.32363 24.2683 6.3036 24.6703 5.5638C25.0305 4.89952 25.3073 4.56315 26.057 4.97404C29.1215 6.65289 31.6063 8.89963 33.1361 12.0993C33.2255 12.2866 33.2901 12.4854 33.4044 12.775Z" stroke="#3B4B5B" stroke-width="0.794954" stroke-miterlimit="10"/>
<path d="M6.98232 14.1649C4.99444 14.1177 4.32171 12.9506 5.33428 11.2887C6.9222 8.68221 8.97368 6.56713 11.7436 5.19385C12.4357 4.85053 12.8993 4.63688 13.3728 5.55655C14.0708 6.91145 14.5751 7.42966 13.4612 8.05817C11.0947 9.39369 9.18981 11.1376 7.94869 13.5761C7.7579 13.9532 7.51345 14.311 6.98232 14.1649Z" stroke="#3B4B5B" stroke-width="0.794954" stroke-miterlimit="10"/>
<path d="M13.9851 31.3844C13.7431 33.503 12.8468 33.9343 11.0234 32.8178C8.47902 31.2597 6.43996 29.2386 5.07015 26.5506C4.65678 25.7393 4.47493 25.0939 5.52228 24.7848C6.33413 24.5454 7.24187 23.4458 7.99956 24.8772C9.72759 28.139 10.5211 28.7517 13.3605 30.2566C14.1053 30.6511 14.0586 30.7395 13.9851 31.3844Z" stroke="#3B4B5B" stroke-width="0.794954" stroke-miterlimit="10"/>
<path d="M33.5322 25.5091C33.3766 25.8758 33.2917 26.1436 33.157 26.3841C31.5632 29.236 29.4694 31.594 26.5087 33.094C25.8281 33.4388 25.2577 33.9197 24.6982 32.8187C24.2446 31.9264 23.2325 31.0172 24.7951 30.1924C27.5909 28.7173 28.4832 28.0699 30.1283 24.7947C30.5148 24.0251 30.9868 24.1557 31.6968 24.4176C32.3661 24.664 33.1754 24.7733 33.5322 25.5091Z" stroke="#3B4B5B" stroke-width="0.794954" stroke-miterlimit="10"/>
<path d="M11.881 2.56745C11.957 3.42302 11.2957 3.54872 10.8197 3.79565C7.61058 5.46009 5.15567 7.88718 3.51707 11.1003C2.99737 12.1198 2.47071 12.4681 1.3528 11.9062C-0.0115351 11.221 0.886763 10.4589 1.21915 9.81147C3.14294 6.07021 6.07682 3.35097 9.7664 1.35713C11.4055 0.471748 11.5317 1.63785 11.881 2.56745Z" stroke="white" stroke-width="1.24212" stroke-miterlimit="10"/>
<path d="M38.1197 10.5528C38.2594 11.3513 37.5563 11.4144 37.0808 11.6484C36.5318 11.9187 35.9614 12.0305 35.6241 11.3294C33.8533 7.65076 31.1028 4.95637 27.4654 3.13344C26.5055 2.65249 27.0147 1.96436 27.2473 1.30156C27.5016 0.577163 27.9533 0.480278 28.5798 0.779876C32.8994 2.86365 36.1766 6.16718 38.1197 10.5528Z" stroke="white" stroke-width="1.24212" stroke-miterlimit="10"/>
<path d="M2.25362 26.6074C3.00087 26.4757 3.15539 27.1136 3.40481 27.6006C5.08912 30.8872 7.57931 33.3794 10.8645 35.0403C11.8507 35.5387 12.0211 36.0599 11.5844 37.066C11.0667 38.2579 10.4019 37.7626 9.70333 37.4108C5.87265 35.4815 3.08434 32.5263 1.02839 28.786C0.18475 27.2513 1.07858 26.9313 2.25362 26.6074Z" stroke="white" stroke-width="1.24212" stroke-miterlimit="10"/>
<path d="M37.4337 27.8146C35.5462 31.9941 32.4111 35.1898 28.3365 37.2706C27.6787 37.6094 27.0651 38.0039 26.6025 36.9705C26.207 36.0871 26.0356 35.4471 27.1565 34.9041C30.5485 33.262 33.0531 30.6724 34.7632 27.3287C35.1488 26.575 35.5736 26.1467 36.4192 26.5933C36.8818 26.8378 37.6216 26.8507 37.4337 27.8146Z" stroke="white" stroke-width="1.24212" stroke-miterlimit="10"/>
</g>
<defs>
<clipPath id="clip0">
<rect width="38.759" height="38.4395" fill="white"/>
</clipPath>
</defs>
</svg>
