<svg width="94" height="63" viewBox="0 0 94 63" fill="none" xmlns="http://www.w3.org/2000/svg">
<path d="M83.3154 41.7577C83.2873 40.0028 82.3508 38.3929 80.8461 37.5155V19.2966H75.9091V37.5155C74.406 38.3929 73.4679 40.0028 73.4398 41.7577C73.4804 43.3925 74.3108 44.9027 75.6609 45.8004L73.4398 59.2269C73.4398 61.0737 75.6609 62.5714 78.3768 62.5714C81.0927 62.5714 83.3139 61.0737 83.3139 59.2269L81.0927 45.8004C82.4445 44.9027 83.2733 43.3925 83.3154 41.7577Z" fill="#3B4B5B"/>
<path d="M46.928 37.2625H46.2865H45.645L21.6013 30.4238V47.2447C21.6013 52.7353 32.6601 57.2269 46.2865 57.2269C59.9129 57.2269 70.9717 52.7353 70.9717 47.2447V30.4238L46.928 37.2625Z" fill="#44ADBF" stroke="#44ADBF" stroke-width="4" stroke-miterlimit="10"/>
<path d="M89.6629 13.9668L47.6086 2.10555C47.2157 1.96482 46.7873 1.96482 46.3943 2.10555L4.33708 13.9668C3.0474 13.9668 2 15.029 2 16.3385C2 17.648 3.04592 18.7102 4.33708 18.7102L46.3928 30.5714L47 30.4766H47.6072L89.6629 18.6168C90.9541 18.6168 92 17.5547 92 16.2437C92 14.9342 90.9541 13.872 89.6629 13.872V13.9668Z" fill="#44ADBF" stroke="#44ADBF" stroke-width="4" stroke-miterlimit="10"/>
</svg>
