<svg width="102" height="71" viewBox="0 0 102 71" fill="none" xmlns="http://www.w3.org/2000/svg">
<g filter="url(#filter0_d)">
<path d="M87.3154 41.7577C87.2873 40.0028 86.3508 38.3929 84.8461 37.5155V19.2966H79.9091V37.5155C78.406 38.3929 77.4679 40.0028 77.4398 41.7577C77.4804 43.3925 78.3108 44.9027 79.6609 45.8004L77.4398 59.2269C77.4398 61.0737 79.6609 62.5714 82.3768 62.5714C85.0927 62.5714 87.3139 61.0737 87.3139 59.2269L85.0927 45.8004C86.4445 44.9027 87.2733 43.3925 87.3154 41.7577Z" fill="#3B4B5B"/>
<path d="M50.928 37.2625H50.2865H49.645L25.6013 30.4238V47.2447C25.6013 52.7353 36.6601 57.2269 50.2865 57.2269C63.9129 57.2269 74.9717 52.7353 74.9717 47.2447V30.4238L50.928 37.2625Z" fill="#44ADBF" stroke="#44ADBF" stroke-width="4" stroke-miterlimit="10"/>
<path d="M93.6629 13.9668L51.6086 2.10555C51.2157 1.96482 50.7873 1.96482 50.3943 2.10555L8.33708 13.9668C7.0474 13.9668 6 15.029 6 16.3385C6 17.648 7.04592 18.7102 8.33708 18.7102L50.3928 30.5714L51 30.4766H51.6072L93.6629 18.6168C94.9541 18.6168 96 17.5547 96 16.2437C96 14.9342 94.9541 13.872 93.6629 13.872V13.9668Z" fill="#44ADBF" stroke="#44ADBF" stroke-width="4" stroke-miterlimit="10"/>
</g>
<defs>
<filter id="filter0_d" x="0" y="0" width="102" height="70.5714" filterUnits="userSpaceOnUse" color-interpolation-filters="sRGB">
<feFlood flood-opacity="0" result="BackgroundImageFix"/>
<feColorMatrix in="SourceAlpha" type="matrix" values="0 0 0 0 0 0 0 0 0 0 0 0 0 0 0 0 0 0 127 0" result="hardAlpha"/>
<feOffset dy="4"/>
<feGaussianBlur stdDeviation="2"/>
<feColorMatrix type="matrix" values="0 0 0 0 0 0 0 0 0 0 0 0 0 0 0 0 0 0 0.25 0"/>
<feBlend mode="normal" in2="BackgroundImageFix" result="effect1_dropShadow"/>
<feBlend mode="normal" in="SourceGraphic" in2="effect1_dropShadow" result="shape"/>
</filter>
</defs>
</svg>
