<svg width="18" height="18" viewBox="0 0 18 18" fill="none" xmlns="http://www.w3.org/2000/svg">
<g clip-path="url(#clip0)">
<path d="M13.4403 8.76436L7.16389 4.48483C7.07625 4.42549 6.96335 4.4188 6.86962 4.4684C6.7762 4.5177 6.71777 4.61477 6.71777 4.72067V13.2794C6.71777 13.3853 6.7762 13.4824 6.86993 13.5317C6.91162 13.5539 6.95757 13.5649 7.00322 13.5649C7.05951 13.5649 7.11551 13.5481 7.16389 13.5153L13.4403 9.23604C13.5182 9.18309 13.5651 9.09484 13.5651 9.0005C13.5651 8.90617 13.5182 8.81731 13.4403 8.76436ZM7.28866 12.7393V5.26052L12.7733 8.9999L7.28866 12.7393Z" fill="#5A717C" stroke="#5A717C" stroke-width="0.956044" stroke-miterlimit="10"/>
<path d="M9.00015 0.441162C4.2809 0.441162 0.441406 4.28065 0.441406 8.99991C0.441406 13.7192 4.2809 17.5587 9.00015 17.5587C13.7194 17.5587 17.5589 13.7192 17.5589 8.99991C17.5589 4.28065 13.7194 0.441162 9.00015 0.441162ZM9.00015 16.9881C4.59556 16.9881 1.01199 13.4045 1.01199 8.99991C1.01199 4.59531 4.59556 1.01175 9.00015 1.01175C13.4048 1.01175 16.9883 4.59531 16.9883 8.99991C16.9883 13.4045 13.4048 16.9881 9.00015 16.9881Z" fill="#5A717C" stroke="#5A717C" stroke-width="0.956044" stroke-miterlimit="10"/>
</g>
<defs>
<clipPath id="clip0">
<rect width="18" height="18" fill="white"/>
</clipPath>
</defs>
</svg>
