<svg width="277" height="348" viewBox="0 0 277 348" fill="none" xmlns="http://www.w3.org/2000/svg">
<g clip-path="url(#clip0)">
<g clip-path="url(#clip1)">
<path d="M50.2106 110.069C50.2435 110.205 50.2764 110.342 50.3093 110.475C61.6122 156.636 118.136 168.82 131.142 171.032C132.84 171.321 134.585 171.128 136.182 170.48C140.571 168.698 142.912 163.893 141.614 159.339C141.252 158.073 140.914 156.916 140.655 156.098C139.667 152.968 106.888 111.009 94.988 104.121C83.0886 97.2327 78.7064 104.121 64.6159 102.242C60.9359 101.751 58.0708 101.462 55.8891 101.756C49.9523 102.554 50.2106 110.069 50.2106 110.069Z" fill="#FBBB93"/>
<path d="M6.3208 151.096C6.3208 151.096 16.5529 171.025 30.0681 163.015C47.4746 152.696 46.7677 156.763 52.8219 152.562C55.532 150.681 61.5886 139.497 59.8649 127.356C58.5685 118.23 78.9693 168.209 81.4704 170.438C85.519 174.045 115.6 186.264 102.136 207.073C90.85 224.515 74.6811 232.328 69.2609 234.184C68.4131 234.475 66.6401 235.388 65.7383 235.428C56.6569 235.846 55.0248 237.218 41.3922 207.367C41.3922 207.367 34.8166 191.247 21.9777 187.729C9.13891 184.216 6.3208 151.096 6.3208 151.096Z" fill="#5B83A3"/>
<path d="M137.288 68.2787C135.641 80.8592 140.845 107.281 198.948 135.643C202.278 137.268 205.873 133.974 204.546 130.514C198.107 113.739 181.278 78.6987 146.294 63.2131C142.348 61.4683 137.846 64.0022 137.288 68.2787Z" fill="#FBBB93"/>
<path d="M64.3291 98.3602C64.7988 97.6557 77.0364 82.0293 77.0364 82.0293C77.0364 82.0293 96.4931 112.984 108.01 112.92C125.884 112.822 134.383 114.802 144.88 124.663C155.415 134.561 183.206 171.976 193.258 174.919C200.406 177.011 188.194 184.162 188.194 184.162C188.194 184.162 146.449 131.269 130.4 134.322C130.4 134.322 119.437 138.236 110.278 134.949C101.12 131.661 64.3291 98.3602 64.3291 98.3602Z" fill="#E3733B"/>
<path d="M224.212 90.9593C225.485 96.9314 228.669 102.006 231.767 107.072C233.852 110.482 235.35 114.103 231.663 116.75C228.087 119.317 223.773 118.156 220.769 115.237C217.284 111.853 214.541 107.734 211.937 103.54C209.104 98.9792 207.021 93.8808 203.029 90.1069C198.325 82.444 191.588 78.9589 182.645 79.7621C179.432 80.0509 176.189 79.9828 172.958 80.0791C167.075 75.9271 161.19 71.7727 155.307 67.6207C152.933 61.4984 150.154 55.4911 149.861 48.7488C149.769 46.6352 148.44 43.9721 150.694 42.617C153.214 41.1023 155.243 43.5447 156.768 45.0406C164.285 52.41 173.023 53.9177 182.856 51.3743C185.127 50.7872 187.487 50.5571 189.812 50.1884C198.797 48.7629 205.138 51.9168 209.943 59.6572C214.604 67.1651 217.54 75.4222 220.722 83.59C221.711 86.131 222.357 88.8411 224.212 90.9593Z" fill="#6182A2"/>
<path d="M163.198 109.448C152.432 110.434 146.627 103.123 141.071 95.8361C136.245 89.5094 132.191 82.6192 126.924 76.5884C119.893 68.5427 111.575 65.9336 101.387 69.7075C98.5455 70.7596 95.5489 71.3866 92.6439 72.2743C84.4409 74.7825 77.769 72.1287 71.9942 66.2812C65.677 59.8864 61.1586 52.1343 55.877 44.9622C45.9901 31.5362 39.424 29.2512 23.6261 34.2487C16.4282 36.5266 9.35942 38.2245 2.22726 33.8025C-0.53214 32.0905 -1.43628 30.7777 0.282763 27.5298C4.36667 19.8176 8.02082 11.8729 11.6985 3.95164C12.6871 1.82397 13.6993 0.365595 16.3272 0.875203C20.3313 1.65253 24.3447 1.04429 28.2055 0.191812C41.4131 -2.72963 50.4756 2.74925 57.5209 13.5168C63.4366 22.5606 68.2649 32.2713 74.9603 40.8477C80.7633 48.2805 88.0763 52.3362 97.2163 49.9667C115.233 45.298 126.224 53.4494 134.321 68.3407C136.362 72.0912 136.228 72.7957 140.056 77.7603C140.056 77.7603 147.999 89.5353 150.965 94.2838C154.45 99.8519 160.701 103.13 163.198 109.448Z" fill="#475765"/>
<g opacity="0.79">
<path opacity="0.79" d="M55.2479 292.519C61.0555 284.139 77.2385 253.826 83.0462 245.447C40.3448 232.007 72.4994 172.876 105.044 166.307C113.989 163.55 124.522 159.485 132.755 155.033C169.196 144.873 167.909 93.943 198.673 80.9327C202.903 79.1432 207.672 79.0587 211.984 80.6415C284.503 107.249 251.21 213.245 257.149 273.623C264.089 318.478 189.972 307.438 167.319 289.851C167.317 289.848 125.886 343.176 121.398 345.997C109.595 353.411 62.7393 339.316 40.1287 329.819C35.8052 328.003 33.4803 323.457 36.1786 319.622L55.5931 292.018" fill="#83C7CE"/>
</g>
<path d="M249.462 214.168L247.898 168.766L277.019 212.289" fill="#E3733B"/>
<path opacity="0.53" d="M109.29 192.955C109.29 192.955 142.325 286.11 167.944 289.369C166.748 292.37 144.044 319.962 144.044 319.962C144.044 319.962 116.805 277.968 109.29 192.955Z" fill="#435363"/>
<path d="M119.512 147.09C173.92 176.967 209.198 117.899 252.055 121.17C246.35 105.77 236.776 92.9847 221.135 84.7065C221.001 84.3331 220.865 83.9597 220.722 83.591C217.542 75.4232 214.604 67.1638 209.943 59.6582C205.138 51.9202 198.797 48.7639 189.812 50.1894C187.489 50.5581 185.127 50.7882 182.856 51.3753C173.023 53.9187 164.285 52.411 156.767 45.0416C155.243 43.548 153.214 41.1033 150.694 42.618C148.44 43.9754 149.767 46.6362 149.861 48.7498C150.154 55.4921 152.932 61.4994 155.307 67.6217C156.1 68.1806 156.892 68.7396 157.683 69.3008C154.118 67.051 150.326 65.0032 146.291 63.2161C142.348 61.4712 137.846 64.0051 137.287 68.2816C137.085 69.8339 136.986 71.5976 137.078 73.5491C136.019 71.8207 135.589 70.6676 134.323 68.338C126.226 53.449 115.235 45.2952 97.2182 49.9639C88.0782 52.3335 80.7628 48.2777 74.9622 40.845C68.2669 32.2685 63.4385 22.5578 57.5228 13.514C50.4752 2.74416 41.4103 -2.73237 28.2028 0.189069C24.3419 1.0439 20.3285 1.64979 16.3244 0.872461C13.6965 0.362853 12.6844 1.82122 11.6957 3.9489C8.0204 11.8701 4.36625 19.8148 0.282341 27.5271C-1.43905 30.7773 -0.532562 32.0901 2.22684 33.7997C9.35665 38.2241 16.4278 36.5239 23.6257 34.2459C39.4259 29.2461 45.9897 31.5335 55.8766 44.9594C61.1582 52.1315 65.6766 59.886 71.9938 66.2784C77.7709 72.126 84.4428 74.7797 92.6435 72.2716C95.5485 71.3839 98.5451 70.7569 101.387 69.7048C111.574 65.9309 119.892 68.5376 126.923 76.5857C132.191 82.6164 136.244 89.509 141.07 95.8333C145.593 101.763 150.281 107.707 157.671 109.184C160.802 112 164.381 114.884 168.472 117.822C164.9 124.761 161.234 131.682 156.711 137.725C151.951 132.154 147.766 127.373 144.88 124.66C134.382 114.799 125.883 112.819 108.009 112.918C106.894 112.925 105.701 112.636 104.461 112.115C100.729 108.402 97.4202 105.525 94.9872 104.116C94.3297 103.736 93.6956 103.398 93.0803 103.097C84.5955 94.0532 77.0382 82.0269 77.0382 82.0269C77.0382 82.0269 64.8006 97.6534 64.3309 98.3579C64.3309 98.3579 66.1368 99.9924 69.0442 102.571C67.6751 102.55 66.2073 102.451 64.6151 102.237C60.9351 101.747 58.07 101.458 55.8883 101.751C49.9515 102.55 50.2098 110.065 50.2098 110.065C50.2427 110.201 50.2756 110.337 50.3085 110.471C52.3234 118.702 55.778 125.853 60.1672 132.058C60.1296 135.508 59.5472 138.779 58.7017 141.663C79.9973 136.985 101.445 137.168 119.512 147.09ZM165.55 74.8525C168.021 76.595 170.489 78.3376 172.96 80.0801C176.189 79.9838 179.432 80.0519 182.647 79.7631C187.642 79.3145 191.949 80.2046 195.598 82.4121C190.81 85.0095 186.848 88.5931 183.391 92.7921C178.387 86.4702 172.481 80.2962 165.55 74.8525ZM130.401 134.322C135.404 133.371 142.9 137.854 150.852 144.474C147.357 147.889 143.362 150.777 138.654 152.898C136.019 149.143 131.059 142.67 125.298 135.616C128.356 135.052 130.401 134.322 130.401 134.322Z" fill="#435363"/>
<path d="M62.9647 235.562C61.7553 235.468 60.5505 235.372 59.3481 235.278C60.4636 235.562 61.6355 235.602 62.9647 235.562Z" fill="#435363"/>
<path d="M55.5745 292.039L55.248 292.518C55.3514 292.368 55.4618 292.206 55.5745 292.039Z" fill="#435363"/>
<path d="M65.7378 235.431C64.7304 235.478 63.8168 235.534 62.9644 235.56C64.6552 235.691 66.3508 235.825 68.0534 235.957C67.7927 235.637 67.5414 235.316 67.2995 234.989C66.7124 235.222 66.1394 235.412 65.7378 235.431Z" fill="#435363"/>
</g>
</g>
<defs>
<clipPath id="clip0">
<rect width="277" height="347.898" fill="white"/>
</clipPath>
<clipPath id="clip1">
<rect width="277.61" height="348.663" fill="white" transform="translate(-0.59082 -0.59082)"/>
</clipPath>
</defs>
</svg>
