<svg width="277" height="348" viewBox="0 0 277 348" fill="none" xmlns="http://www.w3.org/2000/svg">
<g clip-path="url(#clip0)">
<g clip-path="url(#clip1)">
<path d="M50.2102 110.069C50.243 110.205 50.2759 110.342 50.3088 110.475C61.6118 156.636 118.136 168.82 131.142 171.032C132.839 171.321 134.584 171.128 136.181 170.48C140.57 168.698 142.912 163.893 141.613 159.339C141.252 158.073 140.913 156.916 140.655 156.098C139.666 152.968 106.887 111.009 94.9876 104.121C83.0881 97.2327 78.7059 104.121 64.6154 102.242C60.9354 101.751 58.0703 101.462 55.8886 101.756C49.9518 102.554 50.2102 110.069 50.2102 110.069Z" fill="#FBBB93"/>
<path d="M6.3208 151.096C6.3208 151.096 16.5529 171.025 30.0681 163.015C47.4746 152.696 46.7677 156.763 52.8219 152.562C55.532 150.681 61.5886 139.497 59.8649 127.356C58.5685 118.23 78.9693 168.209 81.4704 170.438C85.5191 174.045 115.6 186.264 102.137 207.073C90.85 224.515 74.6811 232.328 69.2609 234.184C68.4131 234.475 66.6401 235.388 65.7383 235.428C56.6569 235.846 55.0248 237.218 41.3922 207.367C41.3922 207.367 34.8166 191.247 21.9777 187.729C9.13891 184.216 6.3208 151.096 6.3208 151.096Z" fill="#5B83A3"/>
<path d="M137.288 68.2792C135.642 80.8597 140.846 107.282 198.948 135.644C202.278 137.269 205.874 133.974 204.547 130.515C198.107 113.74 181.278 78.6991 146.294 63.2136C142.349 61.4688 137.847 64.0027 137.288 68.2792Z" fill="#FBBB93"/>
<path d="M64.3293 98.3602C64.799 97.6557 77.0367 82.0293 77.0367 82.0293C77.0367 82.0293 96.4934 112.984 108.01 112.92C125.884 112.822 134.383 114.802 144.88 124.663C155.415 134.561 183.207 171.976 193.258 174.919C200.406 177.011 188.195 184.162 188.195 184.162C188.195 184.162 146.449 131.269 130.4 134.322C130.4 134.322 119.437 138.236 110.279 134.949C101.12 131.661 64.3293 98.3602 64.3293 98.3602Z" fill="#E3733B"/>
<path d="M224.212 90.9598C225.485 96.9319 228.669 102.007 231.767 107.072C233.852 110.482 235.35 114.104 231.663 116.75C228.087 119.317 223.773 118.157 220.769 115.238C217.284 111.854 214.541 107.735 211.937 103.54C209.104 98.9797 207.021 93.8813 203.029 90.1074C198.325 82.4445 191.588 78.9594 182.645 79.7626C179.432 80.0514 176.189 79.9833 172.958 80.0796C167.075 75.9276 161.19 71.7732 155.307 67.6212C152.933 61.4989 150.154 55.4916 149.861 48.7493C149.769 46.6357 148.44 43.9726 150.694 42.6175C153.214 41.1028 155.243 43.5452 156.768 45.0411C164.285 52.4105 173.023 53.9181 182.856 51.3748C185.127 50.7877 187.487 50.5576 189.812 50.1889C198.797 48.7634 205.138 51.9173 209.943 59.6577C214.604 67.1656 217.54 75.4227 220.722 83.5905C221.711 86.1315 222.357 88.8416 224.212 90.9598Z" fill="#6182A2"/>
<path d="M163.197 109.448C152.432 110.434 146.627 103.123 141.071 95.8361C136.245 89.5094 132.191 82.6192 126.924 76.5884C119.892 68.5427 111.574 65.9336 101.387 69.7075C98.5453 70.7596 95.5487 71.3866 92.6437 72.2743C84.4406 74.7825 77.7688 72.1287 71.994 66.2812C65.6767 59.8864 61.1584 52.1343 55.8768 44.9622C45.9899 31.5362 39.4237 29.2512 23.6259 34.2487C16.4279 36.5266 9.35918 38.2245 2.22701 33.8025C-0.532384 32.0905 -1.43653 30.7777 0.282519 27.5298C4.36643 19.8176 8.02058 11.8729 11.6982 3.95164C12.6869 1.82397 13.6991 0.365596 16.327 0.875204C20.331 1.65253 24.3445 1.04429 28.2053 0.191812C41.4128 -2.72963 50.4754 2.74925 57.5207 13.5168C63.4363 22.5606 68.2647 32.2713 74.9601 40.8477C80.763 48.2805 88.076 52.3362 97.2161 49.9667C115.233 45.298 126.224 53.4494 134.321 68.3407C136.362 72.0912 136.228 72.7957 140.056 77.7603C140.056 77.7603 147.998 89.5353 150.964 94.2838C154.449 99.8519 160.701 103.13 163.197 109.448Z" fill="#475765"/>
<g opacity="0.79">
<path opacity="0.79" d="M55.2478 292.518C61.0555 284.139 77.2385 253.826 83.0461 245.446C40.3448 232.006 72.4994 172.875 105.044 166.307C113.989 163.55 124.522 159.485 132.755 155.032C169.196 144.873 167.909 93.9425 198.673 80.9322C202.903 79.1427 207.672 79.0582 211.984 80.641C284.503 107.249 251.21 213.245 257.149 273.623C264.089 318.478 189.972 307.438 167.319 289.85C167.317 289.848 125.886 343.176 121.398 345.996C109.595 353.41 62.7393 339.315 40.1287 329.818C35.8052 328.003 33.4803 323.456 36.1786 319.621L55.5931 292.018" fill="#83C7CE"/>
</g>
<path d="M249.463 214.168L247.899 168.766L277.019 212.289" fill="#E3733B"/>
<path opacity="0.53" d="M109.29 192.955C109.29 192.955 142.325 286.11 167.944 289.369C166.749 292.37 144.044 319.962 144.044 319.962C144.044 319.962 116.805 277.968 109.29 192.955Z" fill="#435363"/>
</g>
</g>
<defs>
<clipPath id="clip0">
<rect width="277" height="347.898" fill="white"/>
</clipPath>
<clipPath id="clip1">
<rect width="277.61" height="348.664" fill="white" transform="translate(-0.59082 -0.59082)"/>
</clipPath>
</defs>
</svg>
