<svg width="277" height="348" viewBox="0 0 277 348" fill="none" xmlns="http://www.w3.org/2000/svg">
<g clip-path="url(#clip0)">
<path d="M49.8747 109.562C49.9076 109.698 49.9406 109.835 49.9735 109.969C61.2922 156.194 117.895 168.394 130.919 170.61C132.619 170.899 134.367 170.706 135.966 170.057C140.361 168.272 142.706 163.461 141.405 158.901C141.043 157.633 140.705 156.474 140.446 155.655C139.456 152.52 106.631 110.503 94.7147 103.605C82.7986 96.7074 78.4103 103.605 64.3001 101.724C60.6149 101.232 57.7459 100.943 55.5611 101.237C49.616 102.036 49.8747 109.562 49.8747 109.562Z" fill="#FBBB93"/>
<path d="M5.92383 150.646C5.92383 150.646 16.1702 170.603 29.7043 162.581C47.1351 152.248 46.4273 156.321 52.49 152.114C55.2038 150.23 61.2689 139.031 59.5427 126.873C58.2446 117.734 78.6739 167.783 81.1784 170.015C85.2328 173.627 115.356 185.863 101.873 206.701C90.5711 224.168 74.3796 231.992 68.9519 233.85C68.1029 234.141 66.3274 235.056 65.4244 235.096C56.3303 235.515 54.6959 236.888 41.0442 206.995C41.0442 206.995 34.4594 190.853 21.6027 187.33C8.74588 183.812 5.92383 150.646 5.92383 150.646Z" fill="#5B83A3"/>
<path d="M137.074 67.7133C135.425 80.3114 140.636 106.77 198.82 135.172C202.155 136.799 205.755 133.5 204.426 130.036C197.978 113.238 181.126 78.1478 146.092 62.6407C142.141 60.8934 137.633 63.4309 137.074 67.7133Z" fill="#FBBB93"/>
<path d="M64.0132 97.8362C64.4835 97.1307 76.7383 81.4824 76.7383 81.4824C76.7383 81.4824 96.2222 112.48 107.755 112.417C125.654 112.318 134.165 114.3 144.677 124.175C155.226 134.088 183.057 171.555 193.122 174.502C200.28 176.597 188.052 183.758 188.052 183.758C188.052 183.758 146.248 130.791 130.176 133.848C130.176 133.848 119.198 137.768 110.027 134.476C100.855 131.183 64.0132 97.8362 64.0132 97.8362Z" fill="#E3733B"/>
<path d="M224.12 90.4265C225.394 96.4069 228.583 101.489 231.685 106.562C233.773 109.976 235.274 113.603 231.582 116.253C228 118.823 223.68 117.662 220.672 114.738C217.182 111.35 214.435 107.225 211.827 103.025C208.991 98.4576 206.905 93.352 202.907 89.5728C198.197 81.8992 191.45 78.4093 182.495 79.2136C179.277 79.5028 176.03 79.4346 172.794 79.5311C166.903 75.3732 161.009 71.2131 155.118 67.0553C152.741 60.9244 149.959 54.9087 149.665 48.1569C149.573 46.0404 148.242 43.3736 150.5 42.0166C153.023 40.4998 155.055 42.9456 156.581 44.4436C164.109 51.8233 172.86 53.333 182.706 50.7862C184.98 50.1982 187.344 49.9678 189.672 49.5985C198.67 48.1711 205.019 51.3294 209.831 59.0806C214.499 66.599 217.439 74.8676 220.625 83.0469C221.615 85.5914 222.262 88.3053 224.12 90.4265Z" fill="#6182A2"/>
<path d="M163.02 108.939C152.24 109.926 146.426 102.606 140.862 95.3083C136.029 88.9728 131.97 82.0728 126.695 76.0337C119.654 67.9767 111.325 65.364 101.123 69.1432C98.2773 70.1967 95.2766 70.8246 92.3675 71.7136C84.153 74.2252 77.4718 71.5678 71.6889 65.712C65.3629 59.3083 60.8382 51.5453 55.5492 44.3632C45.6485 30.9185 39.0731 28.6303 23.2532 33.6348C16.0452 35.9159 8.96659 37.6162 1.82446 33.1879C-0.938796 31.4735 -1.8442 30.1589 -0.122753 26.9065C3.96686 19.1835 7.62612 11.2277 11.3089 3.29539C12.299 1.16474 13.3125 -0.29567 15.9441 0.21465C19.9538 0.993065 23.9728 0.383973 27.839 -0.469697C41.065 -3.39522 50.1403 2.09131 57.1954 12.8739C63.1193 21.9303 67.9544 31.6546 74.6592 40.243C80.4702 47.6862 87.7934 51.7476 96.9463 49.3747C114.989 44.6995 125.995 52.8623 134.103 67.7745C136.147 71.5301 136.013 72.2357 139.846 77.2072C139.846 77.2072 147.8 88.9986 150.77 93.7538C154.26 99.3297 160.52 102.613 163.02 108.939Z" fill="#475765"/>
<g opacity="0.79">
<path opacity="0.79" d="M54.9192 292.266C60.735 283.875 76.9406 253.519 82.7563 245.129C39.9953 231.67 72.1948 172.456 104.785 165.878C113.742 163.117 124.29 159.047 132.535 154.588C169.026 144.414 167.738 93.4129 198.545 80.3844C202.78 78.5924 207.557 78.5077 211.874 80.0928C284.495 106.738 251.155 212.882 257.102 273.344C264.052 318.262 189.832 307.206 167.147 289.595C167.145 289.592 125.656 342.995 121.162 345.819C109.342 353.243 62.4211 339.129 39.7789 329.618C35.4494 327.8 33.1212 323.247 35.8233 319.407L55.2649 291.765" fill="#83C7CE"/>
</g>
<path d="M249.406 213.806L247.839 168.34L277.001 211.924" fill="#E3733B"/>
<path opacity="0.53" d="M109.037 192.563C109.037 192.563 142.118 285.848 167.773 289.112C166.576 292.118 143.84 319.748 143.84 319.748C143.84 319.748 116.562 277.695 109.037 192.563Z" fill="#435363"/>
<path d="M119.272 215.269C178.531 247.809 215.13 174.987 263.477 191.717L259.552 185.851C260.692 143.492 255.932 102.634 221.038 84.1636C220.904 83.7897 220.767 83.4158 220.624 83.0466C217.44 74.8673 214.498 66.5964 209.83 59.0803C205.018 51.3314 198.668 48.1707 189.671 49.5982C187.345 49.9674 184.979 50.1979 182.705 50.7858C172.858 53.3327 164.108 51.8229 156.58 44.4433C155.054 42.9476 153.022 40.4995 150.498 42.0163C148.241 43.3756 149.57 46.0401 149.664 48.1566C149.958 54.9084 152.74 60.9241 155.117 67.0549C155.912 67.6147 156.705 68.1744 157.497 68.7364C153.927 66.4835 150.129 64.4328 146.089 62.6432C142.14 60.8958 137.632 63.4333 137.073 67.7158C136.87 69.2703 136.772 71.0364 136.863 72.9907C135.803 71.2598 135.372 70.1051 134.105 67.7722C125.996 52.8624 114.99 44.6973 96.9477 49.3725C87.7949 51.7453 80.4693 47.6839 74.6606 40.2408C67.9559 31.6524 63.1208 21.9281 57.1968 12.8716C50.1394 2.08671 41.0618 -3.39747 27.8358 -0.471951C23.9696 0.384071 19.9505 0.990811 15.9408 0.212396C13.3093 -0.297924 12.2957 1.16249 11.3056 3.29313C7.62521 11.2254 3.96596 19.1813 -0.123662 26.9043C-1.84746 30.159 -0.939704 31.4736 1.82355 33.1857C8.96333 37.6163 16.0443 35.9137 23.2523 33.6325C39.0746 28.6257 45.6476 30.9163 55.5483 44.361C60.8373 51.5431 65.362 59.3084 71.688 65.7098C77.4732 71.5655 84.1544 74.223 92.3666 71.7113C95.2757 70.8224 98.2764 70.1945 101.122 69.1409C111.324 65.3617 119.653 67.9721 126.694 76.0314C131.969 82.0706 136.028 88.9729 140.861 95.306C145.391 101.244 150.085 107.196 157.485 108.675C160.62 111.495 164.204 114.383 168.301 117.325C164.724 124.274 161.053 131.205 156.524 137.256C151.757 131.677 147.566 126.889 144.676 124.173C134.163 114.298 125.653 112.316 107.754 112.415C106.637 112.422 105.442 112.132 104.2 111.61C100.464 107.892 97.15 105.011 94.7136 103.6C94.0551 103.219 93.4202 102.881 92.804 102.58C84.3073 93.5234 76.7395 81.4803 76.7395 81.4803C76.7395 81.4803 64.4848 97.1286 64.0144 97.8341C64.0144 97.8341 65.8229 99.4709 68.7343 102.053C67.3633 102.032 65.8934 101.933 64.299 101.719C60.6139 101.228 57.7448 100.938 55.56 101.232C49.6149 102.032 49.8736 109.557 49.8736 109.557C49.9065 109.694 49.9395 109.83 49.9724 109.964C51.9902 118.207 55.4495 125.368 59.8448 131.581C59.7367 141.802 54.8475 150.475 52.4911 152.109C46.4284 156.316 47.1386 152.246 29.7054 162.577C16.169 170.605 5.92258 150.646 5.92258 150.646C5.92258 150.646 8.74462 183.81 21.6014 187.333C34.4582 190.856 41.043 206.998 41.043 206.998C42.1483 209.42 43.176 211.633 44.1331 213.663C69.9266 205.554 97.1359 203.113 119.272 215.269ZM165.375 74.2959C167.849 76.0408 170.321 77.7858 172.795 79.5308C176.029 79.4343 179.276 79.5025 182.496 79.2133C187.498 78.7641 191.811 79.6554 195.465 81.866C190.67 84.467 186.703 88.0557 183.241 92.2605C178.23 85.9297 172.315 79.7471 165.375 74.2959ZM130.177 133.848C135.186 132.896 142.693 137.385 150.656 144.015C147.157 147.434 143.156 150.327 138.441 152.45C135.803 148.69 130.836 142.208 125.067 135.144C128.129 134.579 130.177 133.848 130.177 133.848ZM67.1892 140.334C79.3264 152.648 95.144 160.215 108.299 164.752C107.107 165.147 105.931 165.523 104.781 165.878C98.8761 167.071 92.9851 169.992 87.548 174.053C84.5754 172.221 82.139 170.876 81.1748 170.017C79.785 168.776 72.8498 152.749 67.1892 140.334Z" fill="#435363"/>
<path d="M55.2458 291.786L54.9189 292.266C55.0224 292.115 55.133 291.953 55.2458 291.786Z" fill="#435363"/>
</g>
<defs>
<clipPath id="clip0">
<rect width="277" height="347.898" fill="white"/>
</clipPath>
</defs>
</svg>
