<svg width="277" height="348" viewBox="0 0 277 348" fill="none" xmlns="http://www.w3.org/2000/svg">
<g clip-path="url(#clip0)">
<g clip-path="url(#clip1)">
<path d="M50.6896 110.417C50.7224 110.553 50.7553 110.689 50.7881 110.823C62.0662 156.882 118.466 169.039 131.443 171.246C133.138 171.534 134.879 171.342 136.472 170.696C140.852 168.917 143.188 164.123 141.892 159.579C141.531 158.316 141.194 157.161 140.936 156.345C139.949 153.222 107.242 111.355 95.3687 104.482C83.4954 97.6091 79.1228 104.482 65.0632 102.607C61.3913 102.118 58.5326 101.829 56.3557 102.122C50.4319 102.919 50.6896 110.417 50.6896 110.417Z" fill="#FBBB93"/>
<path d="M6.89648 151.354C6.89648 151.354 17.1061 171.239 30.5916 163.246C47.9599 152.95 47.2546 157.009 53.2955 152.816C55.9997 150.94 62.0429 139.781 60.323 127.666C59.0295 118.56 79.3855 168.43 81.8811 170.653C85.9208 174.253 115.936 186.445 102.502 207.208C91.2401 224.612 75.1067 232.408 69.6984 234.259C68.8525 234.55 67.0833 235.461 66.1835 235.501C57.1221 235.918 55.4935 237.287 41.8908 207.501C41.8908 207.501 35.3297 191.417 22.519 187.907C9.70841 184.401 6.89648 151.354 6.89648 151.354Z" fill="#5B83A3"/>
<path d="M137.576 68.7185C135.933 81.2714 141.126 107.635 199.1 135.935C202.423 137.557 206.011 134.269 204.687 130.817C198.262 114.079 181.47 79.1156 146.562 63.6641C142.625 61.923 138.133 64.4514 137.576 68.7185Z" fill="#FBBB93"/>
<path d="M64.7773 98.7336C65.246 98.0306 77.4568 82.4385 77.4568 82.4385C77.4568 82.4385 96.8707 113.325 108.362 113.262C126.197 113.163 134.677 115.139 145.151 124.978C155.663 134.855 183.394 172.188 193.423 175.124C200.556 177.212 188.371 184.347 188.371 184.347C188.371 184.347 146.717 131.57 130.703 134.616C130.703 134.616 119.764 138.522 110.626 135.242C101.487 131.961 64.7773 98.7336 64.7773 98.7336Z" fill="#E3733B"/>
<path d="M224.309 91.3497C225.579 97.3087 228.757 102.372 231.848 107.427C233.928 110.829 235.423 114.443 231.745 117.083C228.176 119.645 223.871 118.487 220.874 115.574C217.397 112.198 214.66 108.088 212.061 103.903C209.235 99.352 207.157 94.2647 203.173 90.4991C198.479 82.853 191.757 79.3756 182.833 80.177C179.628 80.4652 176.392 80.3973 173.168 80.4934C167.298 76.3505 161.425 72.2052 155.556 68.0623C153.186 61.9534 150.414 55.9594 150.121 49.2318C150.03 47.1229 148.704 44.4656 150.953 43.1136C153.468 41.6021 155.492 44.0391 157.013 45.5318C164.514 52.885 173.233 54.3894 183.044 51.8516C185.31 51.2658 187.665 51.0361 189.985 50.6683C198.95 49.2459 205.277 52.3929 210.072 60.1163C214.723 67.6077 217.652 75.8467 220.827 83.9965C221.814 86.532 222.458 89.2361 224.309 91.3497Z" fill="#6182A2"/>
<path d="M163.429 109.797C152.687 110.781 146.895 103.486 141.351 96.2152C136.535 89.9024 132.491 83.0273 127.235 77.0098C120.219 68.9817 111.919 66.3784 101.754 70.144C98.9187 71.1938 95.9287 71.8194 93.03 72.7052C84.845 75.2078 78.1878 72.5599 72.4257 66.7252C66.1223 60.3444 61.6138 52.6093 56.3438 45.453C46.4787 32.0565 39.9269 29.7765 24.1637 34.763C16.9816 37.036 9.92839 38.7301 2.81189 34.3178C0.0585504 32.6095 -0.843608 31.2996 0.871664 28.0589C4.94661 20.3636 8.59273 12.4363 12.2623 4.53249C13.2488 2.40949 14.2588 0.954323 16.8809 1.46281C20.8761 2.23843 24.8808 1.63153 28.7331 0.780921C41.9117 -2.1341 50.9543 3.33274 57.9841 14.0766C63.8868 23.1005 68.7046 32.79 75.3852 41.3476C81.1754 48.764 88.4724 52.8108 97.5924 50.4465C115.57 45.7881 126.536 53.9215 134.616 68.7802C136.652 72.5224 136.519 73.2254 140.338 78.1791C140.338 78.1791 148.263 89.9282 151.223 94.6663C154.7 100.222 160.938 103.493 163.429 109.797Z" fill="#475765"/>
<g opacity="0.79">
<path opacity="0.79" d="M55.7161 292.466C61.511 284.105 77.6585 253.858 83.4534 245.497C40.8458 232.087 72.9298 173.085 105.403 166.531C114.328 163.78 124.838 159.724 133.053 155.281C169.414 145.144 168.13 94.3259 198.827 81.3442C203.047 79.5586 207.806 79.4742 212.108 81.0536C284.468 107.603 251.248 213.366 257.174 273.612C264.098 318.368 190.145 307.352 167.542 289.804C167.539 289.801 126.199 343.012 121.721 345.826C109.944 353.224 63.1912 339.16 40.6302 329.684C36.3162 327.872 33.9964 323.336 36.6888 319.509L56.0606 291.966" fill="#83C7CE"/>
</g>
<path d="M249.504 214.287L247.943 168.985L277 212.413" fill="#E3733B"/>
<path opacity="0.53" d="M109.639 193.121C109.639 193.121 142.602 286.071 168.165 289.323C166.972 292.318 144.317 319.849 144.317 319.849C144.317 319.849 117.138 277.947 109.639 193.121Z" fill="#435363"/>
<path d="M109.638 274.884C169.949 308.002 206.706 231.583 256.437 252.609C256.589 240.412 257.48 227.206 258.302 213.687L276.997 212.413L259.612 186.431C260.749 144.224 256.006 103.512 221.236 85.1077C221.103 84.7351 220.967 84.3625 220.824 83.9947C217.651 75.8448 214.72 67.6035 210.068 60.1144C205.274 52.3933 198.947 49.244 189.982 50.6664C187.664 51.0343 185.307 51.2639 183.041 51.8497C173.23 54.3875 164.51 52.8831 157.01 45.5299C155.489 44.0396 153.464 41.6003 150.95 43.1117C148.7 44.4661 150.024 47.121 150.118 49.2299C150.411 55.9575 153.183 61.9515 155.552 68.0604C156.344 68.6181 157.134 69.1758 157.924 69.7359C154.367 67.491 150.582 65.4477 146.556 63.6645C142.622 61.9234 138.13 64.4518 137.572 68.7189C137.371 70.2678 137.272 72.0276 137.364 73.9748C136.307 72.2502 135.878 71.0996 134.615 68.7751C126.536 53.9188 115.569 45.783 97.5915 50.4414C88.4715 52.8058 81.1722 48.7589 75.3843 41.3425C68.7037 32.7849 63.8859 23.0955 57.9832 14.0715C50.9534 3.32767 41.9084 -2.13683 28.7299 0.778192C24.8775 1.63114 20.8729 2.2357 16.8776 1.46008C14.2555 0.951594 13.2455 2.40676 12.259 4.52976C8.59182 12.4336 4.94569 20.3609 0.870752 28.0562C-0.846863 31.2993 0.0576378 32.6091 2.81098 34.315C9.92514 38.7298 16.9807 37.0332 24.1628 34.7603C39.9283 29.7714 46.4778 32.0538 56.3429 45.4502C61.6129 52.6066 66.1214 60.3441 72.4248 66.7224C78.1892 72.5572 84.8464 75.2051 93.0291 72.7024C95.9277 71.8167 98.9178 71.191 101.753 70.1413C111.918 66.3756 120.218 68.9767 127.234 77.007C132.49 83.0245 136.534 89.902 141.35 96.2124C145.863 102.129 150.54 108.06 157.914 109.534C161.038 112.344 164.609 115.221 168.691 118.152C165.127 125.077 161.469 131.982 156.956 138.012C152.206 132.453 148.03 127.683 145.15 124.976C134.676 115.137 126.196 113.161 108.361 113.26C107.248 113.267 106.058 112.979 104.82 112.458C101.097 108.754 97.7953 105.883 95.3677 104.477C94.7116 104.098 94.0789 103.76 93.465 103.46C84.9987 94.4362 77.4581 82.4364 77.4581 82.4364C77.4581 82.4364 65.2473 98.0285 64.7787 98.7315C64.7787 98.7315 66.5807 100.362 69.4816 102.935C68.1155 102.914 66.651 102.816 65.0622 102.603C61.3903 102.113 58.5315 101.825 56.3546 102.117C50.4309 102.914 50.6886 110.413 50.6886 110.413C50.7214 110.549 50.7542 110.684 50.787 110.818C52.7976 119.031 56.2445 126.166 60.6241 132.357C60.5163 142.541 55.6446 151.183 53.2967 152.812C47.2557 157.004 47.9634 152.948 30.5928 163.242C17.1049 171.242 6.89529 151.354 6.89529 151.354C6.89529 151.354 9.70721 184.399 22.5179 187.909C35.3285 191.419 41.8897 207.504 41.8897 207.504C55.4923 237.291 57.1209 235.92 66.1823 235.503C66.583 235.485 67.1548 235.295 67.7406 235.063C71.0282 239.552 76.1388 243.196 83.4498 245.497C80.7949 249.329 75.9654 257.757 70.9532 266.568C84.6332 266.095 97.8563 268.414 109.638 274.884ZM165.776 75.2777C168.241 77.0164 170.704 78.7551 173.169 80.4938C176.391 80.3977 179.627 80.4657 182.835 80.1775C187.819 79.7299 192.117 80.618 195.758 82.8207C190.98 85.4123 187.027 88.9882 183.578 93.1779C178.584 86.8698 172.691 80.7094 165.776 75.2777ZM130.704 134.616C135.695 133.667 143.175 138.141 151.109 144.746C147.623 148.153 143.637 151.036 138.938 153.152C136.309 149.405 131.36 142.947 125.612 135.907C128.663 135.345 130.704 134.616 130.704 134.616ZM81.8799 170.656C80.4926 169.418 73.5823 153.449 67.9421 141.079C80.0357 153.348 95.7965 160.889 108.905 165.409C107.717 165.803 106.545 166.178 105.399 166.532C99.5153 167.72 93.6454 170.63 88.2278 174.677C85.2682 172.851 82.8406 171.511 81.8799 170.656Z" fill="#435363"/>
<path d="M56.0415 291.988L55.7158 292.466C55.8189 292.316 55.9291 292.154 56.0415 291.988Z" fill="#435363"/>
</g>
</g>
<defs>
<clipPath id="clip0">
<rect width="277" height="347.898" fill="white"/>
</clipPath>
<clipPath id="clip1">
<rect width="277" height="347.898" fill="white"/>
</clipPath>
</defs>
</svg>
