<svg width="40" height="31" viewBox="0 0 40 31" fill="none" xmlns="http://www.w3.org/2000/svg">
<path d="M1 18.5074C1.27437 17.1665 1.45153 15.7966 1.83839 14.4891C4.03647 7.06232 10.5778 1.73644 18.2339 1.07443C28.4192 0.193704 37.344 7.22145 38.8095 17.2751C38.8695 17.6862 38.9365 18.0966 39 18.5074C39 19.4645 39 20.4221 39 21.3792C38.6065 23.096 38.2251 24.8159 37.8112 26.528C37.7144 26.9289 37.5074 27.3032 37.3228 27.7599C36.4985 27.3569 35.7346 26.9834 34.9198 26.5848C36.6694 22.3446 36.8047 18.1005 35.1004 13.8553C33.8278 10.6848 31.7394 8.16253 28.8739 6.29997C23.0106 2.48977 15.3714 2.85743 9.95303 7.12307C4.68594 11.2692 1.87171 18.8531 5.07202 26.575C4.31358 26.9548 3.54692 27.3385 2.71637 27.7544C1.86034 26.0149 1.40802 24.1786 1.15992 22.2807C1.12033 21.9785 1.05409 21.6795 1 21.3792C1 20.4221 1 19.4645 1 18.5074Z" stroke="#3B4B5B" stroke-width="1.45031" stroke-miterlimit="10"/>
<path d="M20.0614 12.2843C20.6324 15.6907 21.1925 19.0988 21.7926 22.5002C21.8518 22.8365 22.0909 23.2151 22.3613 23.4271C23.8073 24.5603 24.3995 26.3154 23.8457 28.0134C23.3044 29.6733 21.7671 30.801 20.0273 30.8139C18.2909 30.8265 16.7309 29.7153 16.17 28.0659C15.5848 26.3445 16.1767 24.5732 17.6622 23.4091C17.9303 23.199 18.1467 22.8118 18.2109 22.4727C18.5355 20.7615 18.8 19.0388 19.0889 17.3205C19.3723 15.6335 19.6596 13.9473 19.9453 12.2607C19.9845 12.2682 20.0229 12.276 20.0614 12.2843Z" fill="#3B4B5B"/>
<path d="M6.21216 25.8873C5.91741 24.9869 5.65951 24.1995 5.37573 23.3337C7.07407 22.781 8.734 22.2409 10.4951 21.6675C10.778 22.5121 11.0477 23.3176 11.3476 24.2117C9.65196 24.7651 7.99203 25.3068 6.21216 25.8873Z" fill="white"/>
<path d="M34.6243 23.3282C34.3766 24.0929 34.1916 24.7671 33.927 25.4083C33.858 25.5757 33.4982 25.7776 33.3426 25.7301C31.7975 25.2598 30.2673 24.7404 28.665 24.2125C28.9441 23.3541 29.2063 22.5467 29.4917 21.6687C31.2221 22.228 32.8864 22.7662 34.6243 23.3282Z" fill="white"/>
<path d="M10.1245 8.68817C10.9018 8.1265 11.5763 7.6393 12.3093 7.10938C13.3828 8.58979 14.4145 10.0126 15.479 11.4805C14.7378 12.0174 14.0613 12.5074 13.304 13.0561C12.2399 11.5941 11.209 10.178 10.1245 8.68817Z" fill="white"/>
<path d="M24.5156 11.4794C25.5943 9.99584 26.6145 8.59264 27.6956 7.10596C28.4258 7.63745 29.1148 8.13915 29.8713 8.68985C28.8052 10.1573 27.7743 11.5758 26.6988 13.0562C25.9627 12.5243 25.2866 12.0364 24.5156 11.4794Z" fill="white"/>
<path d="M6.2127 14.0886C7.9808 14.6664 9.62388 15.2037 11.3324 15.7619C11.0616 16.6105 10.8095 17.3999 10.5183 18.3112C8.80156 17.7561 7.12007 17.2129 5.37744 16.6497C5.66318 15.774 5.92735 14.9635 6.2127 14.0886Z" fill="white"/>
<path d="M33.7898 14.0867C34.0724 14.9513 34.3311 15.7439 34.6235 16.6387C32.9236 17.1937 31.2378 17.744 29.4924 18.3135C29.2106 17.4532 28.9519 16.6646 28.658 15.7682C30.3504 15.2135 32.0103 14.6699 33.7898 14.0867Z" fill="white"/>
<path d="M18.7393 5.07715C19.6208 5.07715 20.4211 5.07715 21.2768 5.07715C21.2768 6.84643 21.2768 8.57142 21.2768 10.3623C20.4607 10.3623 19.636 10.3623 18.7393 10.3623C18.7393 8.63139 18.7393 6.88798 18.7393 5.07715Z" fill="white"/>
</svg>
