<svg width="38" height="18" viewBox="0 0 38 18" fill="none" xmlns="http://www.w3.org/2000/svg">
<g clip-path="url(#clip0)">
<path d="M24.6604 12.6759C23.6819 11.6874 22.1548 11.5653 21.039 12.3102L14.826 6.19388C14.9451 5.87893 15.0106 5.5427 15.0123 5.19583C15.0158 4.43143 14.7217 3.71128 14.1834 3.16817C13.0728 2.04695 11.2569 2.03872 10.136 3.1493C9.12901 4.14666 9.02265 5.7115 9.81588 6.83272L5.10353 11.1776C4.56865 10.6527 3.86326 10.3587 3.11429 10.3583C2.34989 10.3545 1.62974 10.6489 1.08663 11.1869C-0.0345931 12.2978 -0.0428272 14.1134 1.06776 15.2343C1.53642 15.7074 2.1406 15.9967 2.79419 16.066C2.89128 16.0763 2.98906 16.0817 3.08787 16.0821C3.85228 16.0855 4.57242 15.7915 5.11554 15.2532C5.65865 14.7152 5.95954 13.9978 5.96331 13.2334C5.96537 12.843 5.88818 12.4639 5.74133 12.1139L10.6362 7.60055C11.0098 7.8342 11.4219 7.98207 11.8466 8.02702C12.6728 8.1145 13.5302 7.84415 14.1649 7.21561C14.182 7.19879 14.1965 7.18027 14.2129 7.16277L20.2455 13.1013C19.5065 14.2085 19.6211 15.7225 20.5934 16.7041C21.0754 17.1903 21.6895 17.4671 22.3225 17.534C23.1487 17.6215 24.0061 17.3515 24.6408 16.7226C25.1839 16.1847 25.4848 15.4673 25.4886 14.7029C25.4927 13.9391 25.1976 13.219 24.6604 12.6759ZM4.32643 14.4572C3.99603 14.7849 3.55791 14.9636 3.09268 14.9616C2.62916 14.9609 2.19138 14.7763 1.86338 14.4459C1.18749 13.7638 1.19298 12.6594 1.8747 11.9828C2.55677 11.307 3.66186 11.3124 4.33707 11.9945C4.40225 12.0604 4.4568 12.1335 4.51033 12.2072C4.53469 12.2707 4.57037 12.3311 4.61977 12.3846C4.76112 12.6412 4.84278 12.9274 4.84175 13.2286C4.84004 13.6935 4.65717 14.1296 4.32643 14.4572ZM13.3758 6.41964C13.0454 6.74694 12.6073 6.92569 12.1424 6.92398C11.6771 6.92158 11.2407 6.73871 10.9131 6.40831C10.2372 5.72625 10.2423 4.6215 10.9244 3.94561C11.6065 3.26938 12.7116 3.27487 13.3871 3.95693C13.7148 4.28733 13.8935 4.72546 13.8914 5.19069C13.8897 5.65592 13.7062 6.09199 13.3758 6.41964ZM23.8524 15.9274C23.1707 16.6029 22.0659 16.5984 21.3897 15.916C20.7138 15.234 20.7189 14.1292 21.401 13.453C21.787 13.0704 22.3088 12.9064 22.8115 12.9596C23.1964 13.0005 23.5704 13.1689 23.8637 13.4647C24.5393 14.1467 24.5345 15.2511 23.8524 15.9274Z" fill="#606E7B" stroke="#606E7B" stroke-width="0.480327" stroke-miterlimit="10"/>
<path d="M27.4849 10.5511C27.2643 10.3339 26.9096 10.3377 26.6928 10.5573L25.7352 11.5306C25.518 11.7512 25.5211 12.1063 25.7414 12.3228C25.8354 12.4155 25.9534 12.4676 26.0752 12.4806C26.2392 12.4981 26.4094 12.4432 26.5339 12.3166L27.4915 11.3433C27.7083 11.123 27.7059 10.7676 27.4849 10.5511Z" fill="#606E7B" stroke="#606E7B" stroke-width="0.480327" stroke-miterlimit="10"/>
<path d="M31.4642 6.50972C31.2447 6.29288 30.8889 6.29563 30.672 6.51589L28.6825 8.5367C28.4653 8.7573 28.4684 9.11206 28.6886 9.32923C28.7823 9.42187 28.9007 9.47402 29.0225 9.48706C29.1865 9.50455 29.3566 9.44966 29.4812 9.32306L31.4708 7.30226C31.6872 7.08165 31.6845 6.72689 31.4642 6.50972Z" fill="#606E7B" stroke="#606E7B" stroke-width="0.480327" stroke-miterlimit="10"/>
<path d="M34.4124 3.51509C34.1928 3.29792 33.837 3.30135 33.6202 3.52127L32.6619 4.49461C32.4448 4.71522 32.4479 5.06998 32.6681 5.28715C32.7618 5.37979 32.8802 5.43194 33.002 5.44497C33.1659 5.46247 33.3361 5.40758 33.4607 5.28098L34.4189 4.30763C34.6354 4.08737 34.633 3.73227 34.4124 3.51509Z" fill="#606E7B" stroke="#606E7B" stroke-width="0.480327" stroke-miterlimit="10"/>
<path d="M37.2209 0.380257C37.0816 0.257431 36.8909 0.2118 36.7121 0.257774L32.3751 1.36184C32.0756 1.43835 31.8941 1.74336 31.9706 2.04322C32.0468 2.34273 32.3515 2.52423 32.652 2.44841L36.1944 1.54642L35.7467 5.17426C35.7089 5.48167 35.9271 5.76094 36.2346 5.79937C36.238 5.79971 36.2411 5.80006 36.2442 5.8004C36.5475 5.83265 36.8212 5.61547 36.859 5.31184L37.4069 0.869847C37.4295 0.685608 37.3602 0.502397 37.2209 0.380257Z" fill="#606E7B" stroke="#606E7B" stroke-width="0.480327" stroke-miterlimit="10"/>
</g>
<defs>
<clipPath id="clip0">
<rect width="37.6511" height="17.791" fill="white"/>
</clipPath>
</defs>
</svg>
