<svg width="41" height="43" viewBox="0 0 41 43" fill="none" xmlns="http://www.w3.org/2000/svg">
<path d="M39.0005 24.8932L38.1518 22.1355L35.0319 22.7861C34.2438 21.1722 33.0949 19.8156 31.7176 18.7842L32.9404 15.841L30.3898 14.4918L28.6428 17.1585C27.0148 16.6003 25.2471 16.414 23.469 16.6698L22.2521 13.7251L19.4937 14.5746L20.1436 17.6937C18.5297 18.4818 17.1723 19.6307 16.1402 21.0073L13.1963 19.7853L11.8462 22.3359L14.513 24.0822C13.9541 25.7094 13.7677 27.4771 14.0235 29.2551L11.0781 30.472L11.9269 33.2297L15.0467 32.5791C15.8349 34.193 16.9838 35.5497 18.3611 36.581L17.1383 39.5242L19.6889 40.8735L21.4359 38.2068C23.0639 38.7649 24.8316 38.9512 26.6096 38.6954L27.8266 41.6401L30.5849 40.7907L29.9351 37.6715C31.549 36.8834 32.9064 35.7345 33.9385 34.3579L36.8824 35.58L38.2324 33.0293L35.5657 31.2831C36.1246 29.6558 36.3109 27.8881 36.0551 26.1101L39.0005 24.8932Z" stroke="#44ADBF" stroke-width="1.77435" stroke-miterlimit="10"/>
<path d="M26.8204 33.4248C30.002 32.4502 31.7914 29.0816 30.817 25.9008C29.8427 22.72 26.4737 20.9314 23.2921 21.906C20.1105 22.8806 18.3211 26.2492 19.2954 29.43C20.2698 32.6109 23.6388 34.3994 26.8204 33.4248Z" stroke="#F2EED1" stroke-width="1.03504" stroke-miterlimit="10"/>
<path d="M27.4745 30.1207C28.8205 28.7747 28.8205 26.5925 27.4745 25.2465C26.1285 23.9005 23.9462 23.9004 22.6002 25.2464C21.2542 26.5924 21.2542 28.7747 22.6002 30.1207C23.9462 31.4667 26.1285 31.4667 27.4745 30.1207Z" stroke="#3B4B5B" stroke-width="1.03504" stroke-miterlimit="10"/>
<path d="M17.9961 11.5855L18.2223 9.85403L16.3415 9.42744C16.3134 8.34139 16.0221 7.30561 15.5238 6.39108L16.9374 5.07806L15.8728 3.69406L14.2411 4.72245C13.4855 4.00605 12.5592 3.45896 11.516 3.15288L11.587 1.22623L9.85549 1L9.42891 2.88008C8.34211 2.90817 7.30635 3.19872 6.39255 3.69776L5.07955 2.28493L3.69478 3.34954L4.72394 4.98121C4.0068 5.73679 3.45969 6.66241 3.15361 7.70558L1.22623 7.63461L1 9.36608L2.88081 9.79267C2.90891 10.8787 3.2002 11.9145 3.6985 12.829L2.28492 14.1421L3.34953 15.526L4.98122 14.4977C5.73679 15.2141 6.66315 15.7612 7.70632 16.0672L7.63535 17.9939L9.36682 18.2201L9.7934 16.34C10.8802 16.3119 11.916 16.0214 12.8298 15.5224L14.1428 16.9352L15.5275 15.8706L14.4984 14.2389C15.2155 13.4833 15.7626 12.5577 16.0687 11.5145L17.9961 11.5855ZM9.13838 13.2246C7.14149 12.9636 5.73457 11.1345 5.99481 9.13837C6.25579 7.14222 8.08558 5.73531 10.0817 5.99629C12.0786 6.25726 13.4855 8.08633 13.2253 10.0825C12.9651 12.0786 11.1353 13.4855 9.13838 13.2246Z" stroke="#3B4B5B" stroke-width="1.25683" stroke-miterlimit="10"/>
<path d="M32.3904 7.60432C32.3727 6.9212 32.1901 6.2706 31.8766 5.69541L32.7653 4.87034L32.0962 4.00017L31.0707 4.64633C30.5953 4.19608 30.0135 3.8523 29.3577 3.65934L29.4021 2.44834L28.3138 2.3064L28.0462 3.48856C27.3631 3.5063 26.7125 3.68891 26.1373 4.00238L25.3122 3.11447L24.442 3.78355L25.0889 4.80898C24.6387 5.28362 24.2942 5.86546 24.102 6.52123L22.891 6.47687L22.749 7.56514L23.9312 7.83277C23.9489 8.51516 24.1315 9.1665 24.445 9.74094L23.5563 10.566L24.2254 11.4362L25.2509 10.79C25.7255 11.2403 26.3081 11.5841 26.9638 11.7763L26.9195 12.9873L28.0078 13.13L28.2754 11.9478C28.9585 11.9301 29.6091 11.7474 30.1843 11.434L31.0094 12.3219L31.8796 11.6536L31.2327 10.6274C31.6829 10.1527 32.0274 9.5709 32.2196 8.91513L33.4306 8.96023L33.5726 7.87196L32.3904 7.60432ZM30.4327 8.01538C30.2686 9.27 29.1189 10.1542 27.8636 9.99083C26.609 9.8267 25.724 8.67707 25.8881 7.42245C26.0523 6.16784 27.2019 5.28362 28.4573 5.44774C29.7119 5.61113 30.5961 6.76077 30.4327 8.01538Z" stroke="#F2EED1" stroke-width="1.10897" stroke-miterlimit="10"/>
</svg>
