<svg width="36" height="39" viewBox="0 0 36 39" fill="none" xmlns="http://www.w3.org/2000/svg">
<path d="M35.0002 22.2461L34.218 19.678L31.3448 20.2838C30.6182 18.7813 29.5615 17.5187 28.2927 16.5576L29.4197 13.8165L27.0702 12.5606L25.462 15.043C23.9624 14.5229 22.3343 14.35 20.6968 14.5886L19.5765 11.8462L17.0361 12.637L17.6354 15.5416C16.1491 16.2761 14.8988 17.3444 13.9482 18.6271L11.2368 17.4892L9.99317 19.8643L12.4487 21.4902C11.9342 23.0061 11.7619 24.6521 11.9979 26.3061L9.28516 27.4388L10.0674 30.0069L12.9406 29.4011C13.6671 30.9036 14.7238 32.1662 15.9927 33.1273L14.867 35.8684L17.2165 37.1243L18.8247 34.6419C20.3243 35.162 21.9524 35.3349 23.5899 35.0963L24.7102 37.8387L27.2506 37.0479L26.6513 34.1433C28.1376 33.4088 29.3878 32.3405 30.3385 31.0578L33.0499 32.1957L34.2935 29.8206L31.838 28.1947C32.3525 26.6788 32.5248 25.0328 32.2888 23.3788L35.0002 22.2461Z" fill="#44ADBF" stroke="#44ADBF" stroke-width="1.62413" stroke-miterlimit="10"/>
<path d="M23.7682 30.205C26.6985 29.2976 28.3465 26.1611 27.4491 23.1995C26.5517 20.2379 23.4488 18.5726 20.5186 19.48C17.5883 20.3874 15.9404 23.5239 16.8377 26.4855C17.7351 29.4472 20.838 31.1124 23.7682 30.205Z" fill="#F2EED1"/>
<path d="M23.3452 27.8111C24.9673 27.1391 25.7433 25.265 25.0786 23.6252C24.4139 21.9853 22.56 21.2008 20.938 21.8728C19.3159 22.5448 18.5399 24.4189 19.2046 26.0588C19.8693 27.6986 21.7232 28.4831 23.3452 27.8111Z" fill="#44ADBF" stroke="#44ADBF" stroke-width="1.62413" stroke-miterlimit="10"/>
<path d="M15.6544 9.85576L15.8626 8.24329L14.131 7.84654C14.1045 6.83456 13.8367 5.87083 13.3779 5.0197L14.6799 3.79728L13.6988 2.50784L12.1953 3.46486C11.4992 2.79736 10.6467 2.28802 9.68541 2.00252L9.75038 0.209098L8.15537 0L7.76291 1.75053C6.76189 1.77733 5.80859 2.04809 4.96535 2.51186L3.75616 1.19561L2.48068 2.18615L3.42867 3.70479C2.7684 4.40849 2.26457 5.27035 1.98216 6.24078L0.20816 6.17778L0 7.78891L1.73157 8.18566C1.75809 9.19764 2.02591 10.1614 2.48466 11.0125L1.18267 12.2349L2.1638 13.5244L3.66733 12.5673C4.36341 13.2348 5.21593 13.7442 6.17718 14.0297L6.11222 15.8231L7.70723 16.0335L8.09968 14.283C9.1007 14.2562 10.054 13.9855 10.8972 13.5217L12.1064 14.8379L13.3819 13.8474L12.4339 12.3288C13.0942 11.6251 13.598 10.7632 13.8804 9.79276L15.6544 9.85576ZM7.49641 11.3824C5.65745 11.1385 4.36208 9.43623 4.60206 7.57713C4.84204 5.71803 6.52721 4.40849 8.36618 4.65109C10.2051 4.8937 11.5018 6.59732 11.2619 8.45641C11.0219 10.3142 9.33538 11.6251 7.49641 11.3824Z" fill="#F2EED1"/>
<path d="M28.9135 6.14827C28.8976 5.5116 28.7292 4.90575 28.4402 4.37094L29.2583 3.6029L28.6417 2.79332L27.6964 3.39515C27.2589 2.97561 26.7232 2.65526 26.1186 2.47699L26.1597 1.34974L25.1574 1.21704L24.9108 2.31749C24.2823 2.33357 23.6817 2.5038 23.1527 2.796L22.393 1.96899L21.5908 2.59226L22.1861 3.54661C21.7711 3.98893 21.4542 4.53044 21.2766 5.14031L20.1615 5.09876L20.0303 6.11208L21.1188 6.36139C21.1347 6.99673 21.3031 7.60258 21.5921 8.13873L20.7741 8.90676L21.3906 9.71635L22.3359 9.11452C22.7735 9.53406 23.3091 9.8544 23.9137 10.0327L23.8726 11.1599L24.875 11.2926L25.1216 10.1922C25.75 10.1761 26.3506 10.0059 26.8797 9.71367L27.6394 10.5407L28.4415 9.91874L27.8462 8.96306C28.2612 8.52073 28.5781 7.97922 28.7558 7.36935L29.8708 7.4109L30.0021 6.39758L28.9135 6.14827ZM27.1104 6.53162C26.9592 7.70043 25.8999 8.52341 24.7437 8.37061C23.5876 8.21781 22.7735 7.14685 22.9246 5.97939C23.0758 4.81058 24.1351 3.98759 25.2913 4.14039C26.4461 4.2932 27.2602 5.36281 27.1104 6.53162Z" fill="white"/>
</svg>
