<svg width="87" height="94" viewBox="0 0 87 94" fill="none" xmlns="http://www.w3.org/2000/svg">
<g clip-path="url(#clip0)">
<path d="M86.1996 54.7891L84.273 48.4641L77.1969 49.9562C75.4075 46.2556 72.8049 43.146 69.6799 40.779L72.4555 34.0282L66.6692 30.935L62.7083 37.0488C59.0151 35.7679 55.0052 35.3421 50.9725 35.9297L48.2132 29.1755L41.9567 31.1232L43.4327 38.2768C39.7722 40.0858 36.6929 42.7168 34.3516 45.876L27.6739 43.0733L24.6109 48.923L30.6584 52.9272C29.3915 56.6608 28.967 60.7146 29.5482 64.7882L22.8672 67.5777L24.7938 73.9027L31.8699 72.4106C33.6593 76.1112 36.2619 79.2208 39.3868 81.5878L36.6145 88.3386L42.4008 91.4318L46.3617 85.3181C50.0549 86.5989 54.0648 87.0247 58.0976 86.4371L60.8568 93.1913L67.1133 91.2436L65.6374 84.09C69.2979 82.281 72.3772 79.65 74.7185 76.4908L81.3962 79.2935L84.4591 73.4438L78.4116 69.4396C79.6786 65.706 80.1031 61.6522 79.5219 57.5786L86.1996 54.7891Z" fill="#44ADBF" stroke="#44ADBF" stroke-width="4" stroke-miterlimit="10"/>
<path d="M58.5384 74.3905C65.7551 72.1557 69.8139 64.431 67.6038 57.137C65.3937 49.8429 57.7517 45.7416 50.5349 47.9765C43.3181 50.2113 39.2594 57.9359 41.4695 65.23C43.6796 72.524 51.3216 76.6253 58.5384 74.3905Z" fill="#F2EED1"/>
<path d="M57.4951 68.4948C61.49 66.8397 63.4013 62.2241 61.7642 58.1855C60.127 54.1468 55.5613 52.2146 51.5664 53.8697C47.5715 55.5247 45.6602 60.1404 47.2974 64.179C48.9345 68.2177 53.5002 70.1499 57.4951 68.4948Z" fill="#44ADBF" stroke="#44ADBF" stroke-width="4" stroke-miterlimit="10"/>
<path d="M38.5546 24.2733L39.0672 20.302L34.8026 19.3249C34.7373 16.8325 34.0777 14.459 32.9479 12.3628L36.1545 9.35213L33.7381 6.17644L30.0351 8.53345C28.3208 6.88948 26.2211 5.63505 23.8537 4.93191L24.0137 0.514978L20.0855 0L19.1189 4.31129C16.6535 4.37731 14.3057 5.04414 12.2289 6.18634L9.25087 2.94462L6.10956 5.38416L8.44432 9.12436C6.81815 10.8575 5.5773 12.9801 4.88177 15.3701L0.512668 15.215L0 19.1829L4.26461 20.1601C4.32992 22.6524 4.98953 25.026 6.11936 27.1222L2.91274 30.1328L5.32913 33.3085L9.03209 30.9515C10.7464 32.5955 12.8461 33.8499 15.2135 34.553L15.0535 38.97L18.9818 39.4883L19.9483 35.177C22.4137 35.1109 24.7615 34.4441 26.8383 33.3019L29.8163 36.5436L32.9577 34.1041L30.6229 30.3639C32.2491 28.6308 33.4899 26.5082 34.1855 24.1181L38.5546 24.2733ZM18.4626 28.0333C13.9335 27.4325 10.7432 23.24 11.3342 18.6614C11.9252 14.0827 16.0756 10.8575 20.6047 11.455C25.1338 12.0525 28.3273 16.2482 27.7363 20.8269C27.1453 25.4023 22.9917 28.6308 18.4626 28.0333Z" fill="#F2EED1"/>
<path d="M71.2083 15.1425C71.1691 13.5744 70.7544 12.0823 70.0425 10.7651L72.0573 8.87359L70.5388 6.8797L68.2106 8.36191C67.133 7.32866 65.8138 6.53968 64.3248 6.10063L64.426 3.32437L61.9574 2.99756L61.35 5.7078C59.8022 5.74741 58.323 6.16665 57.0201 6.8863L55.149 4.8495L53.1734 6.38453L54.6396 8.73494C53.6175 9.82432 52.8371 11.158 52.3996 12.66L49.6533 12.5577L49.3301 15.0533L52.011 15.6673C52.0502 17.2321 52.4649 18.7242 53.1767 20.0447L51.162 21.9362L52.6804 23.9301L55.0086 22.4479C56.0862 23.4811 57.4054 24.2701 58.8944 24.7092L58.7932 27.4854L61.2618 27.8122L61.8692 25.102C63.417 25.0624 64.8962 24.6431 66.1991 23.9235L68.0702 25.9603L70.0458 24.4286L68.5796 22.0749C69.6017 20.9855 70.3821 19.6518 70.8197 18.1498L73.5659 18.2521L73.8891 15.7565L71.2083 15.1425ZM66.7673 16.0866C66.3951 18.9652 63.786 20.9921 60.9386 20.6158C58.0911 20.2394 56.0862 17.6018 56.4584 14.7265C56.8307 11.8479 59.4398 9.82102 62.2872 10.1973C65.1313 10.5737 67.1363 13.208 66.7673 16.0866Z" fill="#3B4B5B"/>
</g>
<defs>
<clipPath id="clip0">
<rect width="87" height="94" fill="white"/>
</clipPath>
</defs>
</svg>
