<svg width="27" height="37" viewBox="0 0 27 37" fill="none" xmlns="http://www.w3.org/2000/svg">
<g clip-path="url(#clip0)">
<path d="M23.1396 5.30094C25.6445 5.31772 26.1503 4.90543 26.0241 2.9486C26.0121 1.52234 25.5039 0.98379 24.1096 0.966212C20.5731 0.958221 17.0374 0.958221 13.5009 0.959819C10.0683 0.959819 6.63562 0.961417 3.20379 0.966212C1.4675 0.968609 0.88341 1.59505 0.978494 3.27061C0.812296 5.253 2.30728 5.43838 3.89735 5.42879C3.90614 5.55104 3.91653 5.67329 3.92851 5.79395H23.11C23.1092 5.62056 23.1156 5.45436 23.1396 5.30094Z" stroke="#3B4B5B" stroke-width="1.91767" stroke-miterlimit="10"/>
<path d="M3.86073 31.5209C1.35577 31.5041 0.849983 31.9164 0.97623 33.8733C0.988215 35.2995 1.4964 35.8381 2.8907 35.8557C6.42721 35.8636 9.96291 35.8636 13.4994 35.8621C16.932 35.8621 20.3647 35.8605 23.7965 35.8557C25.5328 35.8533 26.1169 35.2268 26.0218 33.5513C26.188 31.5689 24.693 31.3835 23.1029 31.3931C23.0918 31.2405 23.079 31.0879 23.0646 30.936H3.89109C3.89349 31.1422 3.88949 31.3403 3.86073 31.5209Z" stroke="#3B4B5B" stroke-width="1.91767" stroke-miterlimit="10"/>
<path d="M18.5636 21.6169C18.2632 21.3772 17.7198 21.116 17.4985 20.8978C15.958 19.3805 15.7814 16.6941 17.3922 15.2511C19.4361 13.4205 22.6738 12.4225 22.9391 7.64991C23.1892 7.07142 23.1085 6.38904 23.1085 5.79297H3.92697C4.27695 9.41177 5.95092 12.2931 8.87696 14.627C9.1774 14.8667 9.42669 15.0945 9.64802 15.3126C11.1886 16.83 11.119 19.3197 9.50819 20.762C7.46428 22.5926 4.32649 24.3976 4.06121 29.171C3.8239 29.7199 3.88463 30.3623 3.89182 30.936H23.0661C22.7297 27.3164 21.4665 23.9317 18.5636 21.6169Z" stroke="white" stroke-width="1.91767" stroke-miterlimit="10" stroke-linecap="round" stroke-linejoin="round"/>
</g>
<defs>
<clipPath id="clip0">
<rect width="27" height="36.8217" fill="white"/>
</clipPath>
</defs>
</svg>
