<svg width="33" height="31" viewBox="0 0 33 31" fill="none" xmlns="http://www.w3.org/2000/svg">
<g clip-path="url(#clip0)">
<path d="M32.1107 21.6522C32.1375 21.8659 32.1375 21.8659 32.1482 21.9407C32.1803 22.2452 32.175 22.2666 32.1911 22.4535C32.2446 23.1427 32.1053 23.3831 31.3284 23.0679C27.5617 21.54 23.7629 20.0869 19.9909 18.575C17.7726 17.6829 17.8798 17.6508 17.7619 15.3216C17.5262 10.8234 17.5851 6.32518 17.5422 1.82698C17.5262 0.897418 17.569 0.534142 18.6835 1.00961C22.6806 2.70845 26.7259 4.29511 30.7605 5.90848C31.2855 6.11683 31.4677 6.42134 31.4838 6.98228C31.6285 11.192 31.966 15.3964 31.9499 19.6114C32.0732 21.727 32.0892 21.4545 32.1107 21.6522Z" stroke="#F8FEFF" stroke-width="1.52308" stroke-miterlimit="10"/>
<path d="M15.5704 9.24739C15.5704 11.7209 15.549 14.189 15.5865 16.6571C15.5972 17.3303 15.3614 17.6401 14.7292 17.8592C10.4428 19.371 6.16174 20.9149 1.8914 22.4695C1.24309 22.7046 0.894815 22.8382 0.921605 21.8872C1.0502 16.9884 1.13593 12.0895 1.20558 7.19061C1.2163 6.61365 1.43062 6.34653 1.94499 6.14352C6.13495 4.47673 10.3196 2.8046 14.4935 1.09507C15.3239 0.753159 15.6079 0.865347 15.5918 1.82162C15.5383 4.30578 15.5704 6.77391 15.5704 9.24739Z" stroke="#F8FEFF" stroke-width="1.52308" stroke-miterlimit="10"/>
<path d="M1.84863 24.5479C3.51497 23.9122 4.98843 23.3406 6.46724 22.7903C9.49452 21.6631 12.5272 20.5572 15.5544 19.4247C16.0956 19.2217 16.5992 19.1148 17.1672 19.3392C21.6411 21.1449 26.1258 22.9346 30.5997 24.7403C30.7069 24.783 30.7873 24.8738 31.0498 25.0661C29.7317 25.5523 28.5315 26.0171 27.3206 26.4444C23.9719 27.6251 20.6124 28.7737 17.2744 29.9757C16.4706 30.2642 15.8009 30.2375 14.9972 29.9062C10.8662 28.2127 6.69763 26.5994 2.54517 24.9539C2.36836 24.8792 2.21834 24.7616 1.84863 24.5479Z" stroke="#3B4B5B" stroke-width="1.52308" stroke-miterlimit="10"/>
</g>
<defs>
<clipPath id="clip0">
<rect width="33" height="30.9692" fill="white"/>
</clipPath>
</defs>
</svg>
