<svg width="21" height="28" viewBox="0 0 21 28" fill="none" xmlns="http://www.w3.org/2000/svg">
<g clip-path="url(#clip0)">
<path d="M10.5871 8.63696L10.5811 9.61975" stroke="#3B4B5B" stroke-width="0.606657" stroke-miterlimit="10"/>
<path d="M10.582 23.6971L10.5881 22.7144" stroke="#3B4B5B" stroke-width="0.606657" stroke-miterlimit="10"/>
<path d="M6.16016 10.0735L6.73301 10.8725" stroke="#3B4B5B" stroke-width="0.606657" stroke-miterlimit="10"/>
<path d="M15.0089 22.2603L14.4365 21.4617" stroke="#3B4B5B" stroke-width="0.606657" stroke-miterlimit="10"/>
<path d="M3.42383 13.8376L4.35678 14.1475" stroke="#3B4B5B" stroke-width="0.606657" stroke-miterlimit="10"/>
<path d="M16.8125 18.1865L17.7455 18.4959" stroke="#3B4B5B" stroke-width="0.606657" stroke-miterlimit="10"/>
<path d="M3.42188 18.4918L4.35873 18.1941" stroke="#3B4B5B" stroke-width="0.606657" stroke-miterlimit="10"/>
<path d="M16.8096 14.1402L17.7464 13.842" stroke="#3B4B5B" stroke-width="0.606657" stroke-miterlimit="10"/>
<path d="M11.4902 14.6766L13.1642 12.4905" stroke="#3B4B5B" stroke-width="0.606657" stroke-miterlimit="10"/>
<path d="M6.15625 22.2578L6.73907 21.4661" stroke="#3B4B5B" stroke-width="0.606657" stroke-miterlimit="10"/>
<path d="M14.4297 10.8677L15.0125 10.0764" stroke="#3B4B5B" stroke-width="0.606657" stroke-miterlimit="10"/>
<path d="M8.62996 23.5851C5.34189 22.7201 2.91699 19.7267 2.91699 16.1669C2.91699 11.9307 6.3511 8.49707 10.5869 8.49707" stroke="#3B4B5B" stroke-width="0.606657" stroke-miterlimit="10"/>
<path d="M12.683 8.78711C15.9005 9.69883 18.2578 12.658 18.2578 16.1675C18.2578 20.4037 14.8237 23.8374 10.5879 23.8374" stroke="#3B4B5B" stroke-width="0.606657" stroke-miterlimit="10"/>
<path d="M12.0466 16.7818C11.9327 17.0439 11.7468 17.2788 11.4954 17.4547C10.7705 17.9608 9.77211 17.7836 9.26598 17.0587C8.75986 16.3337 8.93709 15.3353 9.66204 14.8292C10.2353 14.4288 10.9798 14.4561 11.5167 14.8439" stroke="#3B4B5B" stroke-width="0.606657" stroke-miterlimit="10"/>
<path d="M17.556 9.19769C21.405 13.0467 21.405 19.2873 17.556 23.1363C13.707 26.9853 7.46644 26.9853 3.6174 23.1363C-0.231641 19.2873 -0.231641 13.0467 3.6174 9.19769C7.46644 5.34865 13.707 5.34865 17.556 9.19769Z" stroke="#3B4B5B" stroke-width="0.953844"/>
<path d="M10.616 23.8503C14.9074 23.8503 18.3862 20.3715 18.3862 16.0801C18.3862 11.7887 14.9074 8.30981 10.616 8.30981C6.32457 8.30981 2.8457 11.7887 2.8457 16.0801C2.8457 20.3715 6.32457 23.8503 10.616 23.8503Z" stroke="#3B4B5B" stroke-width="0.924664" stroke-miterlimit="10"/>
<path d="M10.5027 8.41333L10.4961 9.41197" stroke="#3B4B5B" stroke-width="0.660474" stroke-miterlimit="10"/>
<path d="M10.5047 22.7178L10.498 23.7164" stroke="#3B4B5B" stroke-width="0.660474" stroke-miterlimit="10"/>
<path d="M6.00488 9.87305L6.58698 10.685" stroke="#3B4B5B" stroke-width="0.660474" stroke-miterlimit="10"/>
<path d="M14.4141 21.4451L14.9957 22.2566" stroke="#3B4B5B" stroke-width="0.660474" stroke-miterlimit="10"/>
<path d="M3.22461 13.698L4.17261 14.0128" stroke="#3B4B5B" stroke-width="0.660474" stroke-miterlimit="10"/>
<path d="M16.8291 18.1169L17.7771 18.4313" stroke="#3B4B5B" stroke-width="0.660474" stroke-miterlimit="10"/>
<path d="M3.22266 18.427L4.17418 18.1245" stroke="#3B4B5B" stroke-width="0.660474" stroke-miterlimit="10"/>
<path d="M16.8262 14.0053L17.7781 13.7024" stroke="#3B4B5B" stroke-width="0.660474" stroke-miterlimit="10"/>
<path d="M6.00098 22.2537L6.5932 21.4492" stroke="#3B4B5B" stroke-width="0.660474" stroke-miterlimit="10"/>
<path d="M14.4072 10.68L14.9995 9.87598" stroke="#3B4B5B" stroke-width="0.660474" stroke-miterlimit="10"/>
<path d="M12.5079 16.0136C12.5079 17.0584 11.6609 17.9053 10.6162 17.9053C9.57139 17.9053 8.72444 17.0584 8.72444 16.0136C8.72444 14.9689 9.57139 14.1219 10.6162 14.1219C11.6609 14.1219 12.5079 14.9689 12.5079 16.0136Z" fill="#3B4B5B" stroke="#3B4B5B" stroke-width="0.646154"/>
<path opacity="0.38" d="M10.3278 18.2099L10.168 23.407C10.168 23.407 15.804 23.8556 17.6093 18.2742C17.6093 18.2742 19.3045 13.5734 14.8609 10.0627C14.8939 10.1244 13.1912 12.5312 13.1912 12.5312L13.3818 12.6879L12.1261 14.3946C12.1261 14.3946 13.0459 15.1634 12.7874 16.516C12.6342 17.3236 11.7461 18.3878 10.3278 18.2099Z" fill="#CCCED0"/>
</g>
<rect x="7.52832" y="1" width="6.33962" height="3.56604" rx="0.396226" stroke="#3B4B5B" stroke-width="0.792453"/>
<rect x="9.11328" y="4.56592" width="3.16981" height="1.58491" rx="0.396226" stroke="#3B4B5B" stroke-width="0.792453"/>
<defs>
<clipPath id="clip0">
<rect width="21" height="21" fill="white" transform="translate(0 5.75464)"/>
</clipPath>
</defs>
</svg>
