<svg width="32" height="19" viewBox="0 0 32 19" fill="none" xmlns="http://www.w3.org/2000/svg">
<path d="M30.7469 1H22.8594C22.2375 1 21.7326 1.50483 21.7326 2.12678V7.30987H11.1411V2.12678C11.1411 1.50483 10.6362 1 10.0143 1H2.12678C1.50483 1 1 1.50483 1 2.12678V17.2255C1 17.8475 1.50483 18.3523 2.12678 18.3523H10.0143C10.6362 18.3523 11.1411 17.8475 11.1411 17.2255V12.0424H21.7326V17.2255C21.7326 17.8475 22.2375 18.3523 22.8594 18.3523H30.7469C31.3689 18.3523 31.8737 17.8475 31.8737 17.2255V2.12678C31.8737 1.50483 31.3689 1 30.7469 1ZM5.28172 17.0001H2.3522V2.3522H5.28172V17.0001ZM9.78886 17.0001H6.85934V2.3522H9.78886V17.0001ZM26.0144 17.0001H23.0849V2.3522H26.0144V17.0001ZM30.5215 17.0001H27.592V2.3522H30.5215V17.0001ZM21.7589 10.909H11.1508V8.36941H21.7589V10.909Z" fill="#606E7B" stroke="#606E7B" stroke-width="0.126286" stroke-miterlimit="10"/>
</svg>
