<svg width="333" height="329" viewBox="0 0 333 329" fill="none" xmlns="http://www.w3.org/2000/svg">
<path d="M24.976 5.312V3.936H19.136V16H20.64V10.08H24.832V8.704H20.64V5.312H24.976ZM28.3301 8.512H26.8901V16H28.3301V8.512ZM27.6101 4.08C27.0661 4.08 26.6181 4.528 26.6181 5.088C26.6181 5.632 27.0661 6.064 27.6101 6.064C28.1541 6.064 28.6021 5.632 28.6021 5.088C28.6021 4.528 28.1541 4.08 27.6101 4.08ZM32.1686 8.512H30.7286V16H32.1686V12.32C32.1686 11.104 32.3606 9.664 33.9126 9.664C34.2486 9.664 34.5366 9.744 34.7926 9.968L35.4486 8.656C35.0966 8.432 34.6806 8.288 34.2646 8.288C33.3046 8.288 32.5686 8.848 32.2166 9.728H32.1686V8.512ZM40.418 9.6C40.018 8.784 39.282 8.288 38.37 8.288C37.154 8.288 36.162 9.248 36.162 10.464C36.162 11.488 36.77 11.904 37.602 12.352L39.01 13.104C39.346 13.328 39.538 13.52 39.538 13.92C39.538 14.56 39.01 14.976 38.402 14.976C37.714 14.976 37.346 14.576 37.042 14.016L35.81 14.576C36.21 15.632 37.314 16.256 38.402 16.256C39.794 16.256 40.978 15.2 40.978 13.776C40.978 12.592 40.13 12.048 39.25 11.648C38.37 11.248 37.506 10.96 37.506 10.304C37.506 9.888 37.89 9.568 38.29 9.568C38.706 9.568 39.074 9.856 39.25 10.224L40.418 9.6ZM44.0306 9.856H45.4386V8.512H44.0306V5.648H42.5906V8.512H41.8066V9.856H42.5906V16H44.0306V9.856ZM52.2914 8.512H50.8514V16H52.2914V12.56C52.2914 11.2 52.2914 9.568 54.1474 9.568C55.6194 9.568 55.7954 10.432 55.7954 11.712V16H57.2354V11.536C57.2354 9.712 56.6914 8.288 54.5794 8.288C53.6674 8.288 52.7714 8.72 52.3234 9.52H52.2914V8.512ZM62.4584 14.976C60.9384 14.976 60.0904 13.664 60.0904 12.256C60.0904 10.864 60.9704 9.568 62.4584 9.568C64.0104 9.568 64.8904 10.8 64.8904 12.256C64.8904 13.728 64.0264 14.976 62.4584 14.976ZM66.2504 8.512H64.8104V9.76H64.7784C64.1864 8.864 63.2904 8.288 62.1864 8.288C60.0104 8.288 58.6504 10.16 58.6504 12.208C58.6504 14.352 59.9464 16.256 62.2344 16.256C63.3064 16.256 64.2024 15.68 64.7784 14.832H64.8104V16H66.2504V8.512ZM69.509 8.512H68.069V16H69.509V12.32C69.509 11.152 69.637 9.568 71.173 9.568C72.501 9.568 72.549 11.056 72.549 12.032V16H73.989V12.32C73.989 11.168 74.101 9.568 75.637 9.568C76.901 9.568 77.029 10.8 77.029 11.76V16H78.469V11.52C78.469 9.824 77.957 8.288 75.989 8.288C75.045 8.288 74.149 8.816 73.685 9.616C73.205 8.784 72.501 8.288 71.525 8.288C70.709 8.288 69.957 8.8 69.541 9.456H69.509V8.512ZM86.9586 12.496V12.272C86.9586 10.048 85.8386 8.288 83.4546 8.288C81.0386 8.288 79.8066 10.016 79.8066 12.32C79.8066 14.528 81.1986 16.256 83.4866 16.256C84.9426 16.256 86.2546 15.504 86.9586 14.208L85.7426 13.52C85.1986 14.416 84.6066 14.976 83.5026 14.976C82.1266 14.976 81.2626 13.776 81.2466 12.496H86.9586ZM81.3266 11.408C81.5026 10.336 82.3346 9.536 83.4546 9.536C84.6066 9.536 85.3426 10.288 85.5186 11.408H81.3266Z" fill="white"/>
<path d="M22.656 84.936H21.152V97H26.32V95.624H22.656V84.936ZM30.3802 95.976C28.8603 95.976 28.0123 94.664 28.0123 93.256C28.0123 91.864 28.8923 90.568 30.3802 90.568C31.9323 90.568 32.8123 91.8 32.8123 93.256C32.8123 94.728 31.9483 95.976 30.3802 95.976ZM34.1723 89.512H32.7323V90.76H32.7003C32.1083 89.864 31.2123 89.288 30.1083 89.288C27.9323 89.288 26.5723 91.16 26.5723 93.208C26.5723 95.352 27.8683 97.256 30.1562 97.256C31.2283 97.256 32.1243 96.68 32.7003 95.832H32.7323V97H34.1723V89.512ZM40.2149 90.6C39.8149 89.784 39.0789 89.288 38.1669 89.288C36.9509 89.288 35.9589 90.248 35.9589 91.464C35.9589 92.488 36.5669 92.904 37.3989 93.352L38.8069 94.104C39.1429 94.328 39.3349 94.52 39.3349 94.92C39.3349 95.56 38.8069 95.976 38.1989 95.976C37.5109 95.976 37.1429 95.576 36.8389 95.016L35.6069 95.576C36.0069 96.632 37.1109 97.256 38.1989 97.256C39.5909 97.256 40.7749 96.2 40.7749 94.776C40.7749 93.592 39.9269 93.048 39.0469 92.648C38.1669 92.248 37.3029 91.96 37.3029 91.304C37.3029 90.888 37.6869 90.568 38.0869 90.568C38.5029 90.568 38.8709 90.856 39.0469 91.224L40.2149 90.6ZM43.8275 90.856H45.2355V89.512H43.8275V86.648H42.3875V89.512H41.6035V90.856H42.3875V97H43.8275V90.856ZM52.0883 89.512H50.6483V97H52.0883V93.56C52.0883 92.2 52.0883 90.568 53.9443 90.568C55.4163 90.568 55.5923 91.432 55.5923 92.712V97H57.0323V92.536C57.0323 90.712 56.4883 89.288 54.3763 89.288C53.4643 89.288 52.5683 89.72 52.1203 90.52H52.0883V89.512ZM62.2552 95.976C60.7353 95.976 59.8873 94.664 59.8873 93.256C59.8873 91.864 60.7673 90.568 62.2552 90.568C63.8073 90.568 64.6873 91.8 64.6873 93.256C64.6873 94.728 63.8233 95.976 62.2552 95.976ZM66.0473 89.512H64.6073V90.76H64.5753C63.9833 89.864 63.0873 89.288 61.9833 89.288C59.8073 89.288 58.4473 91.16 58.4473 93.208C58.4473 95.352 59.7433 97.256 62.0312 97.256C63.1033 97.256 63.9993 96.68 64.5753 95.832H64.6073V97H66.0473V89.512ZM69.3059 89.512H67.8659V97H69.3059V93.32C69.3059 92.152 69.4339 90.568 70.9699 90.568C72.2979 90.568 72.3459 92.056 72.3459 93.032V97H73.7859V93.32C73.7859 92.168 73.8979 90.568 75.4339 90.568C76.6979 90.568 76.8259 91.8 76.8259 92.76V97H78.2659V92.52C78.2659 90.824 77.7539 89.288 75.7859 89.288C74.8419 89.288 73.9459 89.816 73.4819 90.616C73.0019 89.784 72.2979 89.288 71.3219 89.288C70.5059 89.288 69.7539 89.8 69.3379 90.456H69.3059V89.512ZM86.7555 93.496V93.272C86.7555 91.048 85.6355 89.288 83.2515 89.288C80.8355 89.288 79.6035 91.016 79.6035 93.32C79.6035 95.528 80.9955 97.256 83.2835 97.256C84.7395 97.256 86.0515 96.504 86.7555 95.208L85.5395 94.52C84.9955 95.416 84.4035 95.976 83.2995 95.976C81.9235 95.976 81.0595 94.776 81.0435 93.496H86.7555ZM81.1235 92.408C81.2995 91.336 82.1315 90.536 83.2515 90.536C84.4035 90.536 85.1395 91.288 85.3155 92.408H81.1235Z" fill="white"/>
<path d="M21.528 171.28H21.944C23.352 171.28 24.504 171.568 24.504 173.264C24.504 174.992 23.336 175.28 21.912 175.28H21.528V171.28ZM21.528 176.48H22.456C23.8 176.48 25.528 176.832 25.528 178.528C25.528 180.24 24.072 180.656 22.68 180.656H21.528V176.48ZM20.024 182H22.84C24.968 182 27.032 181.04 27.032 178.624C27.032 177.216 26.04 175.824 24.616 175.568V175.536C25.432 175.152 25.912 174.128 25.912 173.248C25.912 170.528 23.768 169.936 21.496 169.936H20.024V182ZM30.3145 174.512H28.8745V182H30.3145V174.512ZM29.5945 170.08C29.0505 170.08 28.6025 170.528 28.6025 171.088C28.6025 171.632 29.0505 172.064 29.5945 172.064C30.1385 172.064 30.5865 171.632 30.5865 171.088C30.5865 170.528 30.1385 170.08 29.5945 170.08ZM34.153 174.512H32.713V182H34.153V178.32C34.153 177.104 34.345 175.664 35.897 175.664C36.233 175.664 36.521 175.744 36.777 175.968L37.433 174.656C37.081 174.432 36.665 174.288 36.249 174.288C35.289 174.288 34.553 174.848 34.201 175.728H34.153V174.512ZM40.1869 175.856H41.5949V174.512H40.1869V171.648H38.7469V174.512H37.9629V175.856H38.7469V182H40.1869V175.856ZM42.3826 168.112V182H43.8226V178.56C43.8226 177.2 43.8226 175.568 45.6786 175.568C47.1506 175.568 47.3266 176.432 47.3266 177.712V182H48.7666V177.536C48.7666 175.712 48.2226 174.288 46.1106 174.288C45.1986 174.288 44.3026 174.72 43.8546 175.52H43.8226V168.112H42.3826ZM53.9896 180.976C52.4696 180.976 51.6216 179.664 51.6216 178.256C51.6216 176.864 52.5016 175.568 53.9896 175.568C55.5416 175.568 56.4216 176.8 56.4216 178.256C56.4216 179.728 55.5576 180.976 53.9896 180.976ZM56.3416 182H57.7816V168.112H56.3416V175.76H56.3096C55.7176 174.864 54.8216 174.288 53.7016 174.288C51.5416 174.288 50.1816 176.16 50.1816 178.208C50.1816 180.352 51.4616 182.256 53.7656 182.256C54.8216 182.256 55.7336 181.68 56.3096 180.832H56.3416V182ZM62.8802 180.976C61.3603 180.976 60.5123 179.664 60.5123 178.256C60.5123 176.864 61.3923 175.568 62.8802 175.568C64.4323 175.568 65.3123 176.8 65.3123 178.256C65.3123 179.728 64.4483 180.976 62.8802 180.976ZM66.6723 174.512H65.2323V175.76H65.2003C64.6083 174.864 63.7123 174.288 62.6083 174.288C60.4323 174.288 59.0723 176.16 59.0723 178.208C59.0723 180.352 60.3683 182.256 62.6562 182.256C63.7283 182.256 64.6243 181.68 65.2003 180.832H65.2323V182H66.6723V174.512ZM70.7629 180.72L67.8189 186.288H69.4509L75.5149 174.512H73.8989L71.5469 179.264L69.0189 174.512H67.3389L70.7629 180.72Z" fill="white"/>
<path d="M22.656 251.936H21.152V264H26.32V262.624H22.656V251.936ZM30.3802 262.976C28.8603 262.976 28.0123 261.664 28.0123 260.256C28.0123 258.864 28.8923 257.568 30.3802 257.568C31.9323 257.568 32.8123 258.8 32.8123 260.256C32.8123 261.728 31.9483 262.976 30.3802 262.976ZM34.1723 256.512H32.7323V257.76H32.7003C32.1083 256.864 31.2123 256.288 30.1083 256.288C27.9323 256.288 26.5723 258.16 26.5723 260.208C26.5723 262.352 27.8683 264.256 30.1562 264.256C31.2283 264.256 32.1243 263.68 32.7003 262.832H32.7323V264H34.1723V256.512ZM37.4789 256.512H36.0389V264H37.4789V260.56C37.4789 259.2 37.4789 257.568 39.3349 257.568C40.8069 257.568 40.9829 258.432 40.9829 259.712V264H42.4229V259.536C42.4229 257.712 41.8789 256.288 39.7669 256.288C38.8549 256.288 37.9589 256.72 37.5109 257.52H37.4789V256.512ZM47.6299 262.976C46.1099 262.976 45.2619 261.664 45.2619 260.256C45.2619 258.864 46.1419 257.568 47.6299 257.568C49.1819 257.568 50.0619 258.8 50.0619 260.256C50.0619 261.728 49.1979 262.976 47.6299 262.976ZM51.4219 256.512H49.9819V257.792H49.9499C49.3579 256.864 48.4619 256.288 47.3419 256.288C45.1819 256.288 43.8219 258.16 43.8219 260.208C43.8219 262.352 45.1019 264.256 47.4059 264.256C48.4619 264.256 49.3739 263.68 49.9499 262.832H49.9819V264.256C49.9819 265.792 49.6139 267.008 47.8379 267.008C46.5259 267.008 45.5979 266.24 45.5979 264.896H44.1579C44.1899 267.008 45.6939 268.288 47.7739 268.288C50.6859 268.288 51.4219 266.432 51.4219 263.856V256.512ZM53.2249 256.512V260.816C53.2249 262.864 54.1849 264.256 56.3929 264.256C58.6009 264.256 59.5609 262.864 59.5609 260.816V256.512H58.1209V260.656C58.1209 261.856 57.8169 262.912 56.3929 262.912C54.9689 262.912 54.6649 261.856 54.6649 260.656V256.512H53.2249ZM64.7084 262.976C63.1884 262.976 62.3404 261.664 62.3404 260.256C62.3404 258.864 63.2204 257.568 64.7084 257.568C66.2604 257.568 67.1404 258.8 67.1404 260.256C67.1404 261.728 66.2764 262.976 64.7084 262.976ZM68.5004 256.512H67.0604V257.76H67.0284C66.4364 256.864 65.5404 256.288 64.4364 256.288C62.2604 256.288 60.9004 258.16 60.9004 260.208C60.9004 262.352 62.1964 264.256 64.4844 264.256C65.5564 264.256 66.4524 263.68 67.0284 262.832H67.0604V264H68.5004V256.512ZM73.583 262.976C72.063 262.976 71.215 261.664 71.215 260.256C71.215 258.864 72.095 257.568 73.583 257.568C75.135 257.568 76.015 258.8 76.015 260.256C76.015 261.728 75.151 262.976 73.583 262.976ZM77.375 256.512H75.935V257.792H75.903C75.311 256.864 74.415 256.288 73.295 256.288C71.135 256.288 69.775 258.16 69.775 260.208C69.775 262.352 71.055 264.256 73.359 264.256C74.415 264.256 75.327 263.68 75.903 262.832H75.935V264.256C75.935 265.792 75.567 267.008 73.791 267.008C72.479 267.008 71.551 266.24 71.551 264.896H70.111C70.143 267.008 71.647 268.288 73.727 268.288C76.639 268.288 77.375 266.432 77.375 263.856V256.512ZM85.818 260.496V260.272C85.818 258.048 84.698 256.288 82.314 256.288C79.898 256.288 78.666 258.016 78.666 260.32C78.666 262.528 80.058 264.256 82.346 264.256C83.802 264.256 85.114 263.504 85.818 262.208L84.602 261.52C84.058 262.416 83.466 262.976 82.362 262.976C80.986 262.976 80.122 261.776 80.106 260.496H85.818ZM80.186 259.408C80.362 258.336 81.194 257.536 82.314 257.536C83.466 257.536 84.202 258.288 84.378 259.408H80.186Z" fill="white"/>
<rect x="17" y="26" width="313" height="38" rx="7" fill="white"/>
<rect x="19" y="106" width="313" height="38" rx="7" fill="white"/>
<rect x="19" y="193" width="313" height="38" rx="7" fill="white"/>
<rect x="19" y="277" width="313" height="38" rx="7" fill="white"/>
<path d="M34.7061 217.042C35.4854 217.042 36.1475 216.717 36.6924 216.066C37.2373 215.416 37.5098 214.607 37.5098 213.641C37.5098 212.826 37.2959 212.167 36.8682 211.663C36.4463 211.159 35.8926 210.907 35.207 210.907C34.3164 210.907 33.5898 211.224 33.0273 211.856C32.4648 212.483 32.1836 213.289 32.1836 214.273C32.1836 215.1 32.415 215.768 32.8779 216.277C33.3467 216.787 33.9561 217.042 34.7061 217.042ZM38.7578 204.377H40.1553L38.3535 218H36.9561L37.1494 216.796C36.7627 217.317 36.3291 217.704 35.8486 217.956C35.374 218.202 34.8291 218.325 34.2139 218.325C33.1885 218.325 32.3535 217.95 31.709 217.2C31.0645 216.45 30.7422 215.475 30.7422 214.273C30.7422 212.943 31.1348 211.845 31.9199 210.978C32.7051 210.104 33.6924 209.668 34.8818 209.668C35.5967 209.668 36.1973 209.826 36.6836 210.143C37.1699 210.459 37.5479 210.937 37.8174 211.575L38.7578 204.377ZM44.9189 217.042C45.6982 217.042 46.3604 216.717 46.9053 216.066C47.4502 215.416 47.7227 214.607 47.7227 213.641C47.7227 212.826 47.5088 212.167 47.0811 211.663C46.6592 211.159 46.1055 210.907 45.4199 210.907C44.5293 210.907 43.8027 211.224 43.2402 211.856C42.6777 212.483 42.3965 213.289 42.3965 214.273C42.3965 215.1 42.6279 215.768 43.0908 216.277C43.5596 216.787 44.1689 217.042 44.9189 217.042ZM48.9707 204.377H50.3682L48.5664 218H47.1689L47.3623 216.796C46.9756 217.317 46.542 217.704 46.0615 217.956C45.5869 218.202 45.042 218.325 44.4268 218.325C43.4014 218.325 42.5664 217.95 41.9219 217.2C41.2773 216.45 40.9551 215.475 40.9551 214.273C40.9551 212.943 41.3477 211.845 42.1328 210.978C42.918 210.104 43.9053 209.668 45.0947 209.668C45.8096 209.668 46.4102 209.826 46.8965 210.143C47.3828 210.459 47.7607 210.937 48.0303 211.575L48.9707 204.377ZM51.4053 213.324H55.5449L55.3604 214.687H51.2383L51.4053 213.324ZM62.2246 218L62.875 213.061C62.8926 212.938 62.9043 212.814 62.9102 212.691C62.9219 212.568 62.9277 212.448 62.9277 212.331C62.9277 211.845 62.8018 211.479 62.5498 211.232C62.3037 210.98 61.9375 210.854 61.4512 210.854C60.8184 210.854 60.3115 211.112 59.9307 211.628C59.5557 212.138 59.3008 212.905 59.166 213.931L58.6211 218H57.2412L58.3135 209.958H59.6494L59.4648 211.197C59.8457 210.682 60.2617 210.298 60.7129 210.046C61.1641 209.794 61.6562 209.668 62.1895 209.668C62.7285 209.668 63.1855 209.803 63.5605 210.072C63.9355 210.336 64.1846 210.705 64.3076 211.18C64.7119 210.676 65.1514 210.298 65.626 210.046C66.1064 209.794 66.6162 209.668 67.1553 209.668C67.8408 209.668 68.3828 209.879 68.7812 210.301C69.1855 210.723 69.3877 211.297 69.3877 212.023C69.3877 212.193 69.3672 212.463 69.3262 212.832C69.3203 212.873 69.3174 212.902 69.3174 212.92L68.6494 218H67.2432L67.8936 213.069C67.9111 212.946 67.9229 212.823 67.9287 212.7C67.9404 212.577 67.9463 212.454 67.9463 212.331C67.9463 211.845 67.8203 211.479 67.5684 211.232C67.3223 210.98 66.9561 210.854 66.4697 210.854C65.8193 210.854 65.3096 211.101 64.9404 211.593C64.5771 212.085 64.3252 212.864 64.1846 213.931L63.6484 218H62.2246ZM76.375 218L77.0254 213.061C77.043 212.938 77.0547 212.814 77.0605 212.691C77.0723 212.568 77.0781 212.448 77.0781 212.331C77.0781 211.845 76.9521 211.479 76.7002 211.232C76.4541 210.98 76.0879 210.854 75.6016 210.854C74.9688 210.854 74.4619 211.112 74.0811 211.628C73.7061 212.138 73.4512 212.905 73.3164 213.931L72.7715 218H71.3916L72.4639 209.958H73.7998L73.6152 211.197C73.9961 210.682 74.4121 210.298 74.8633 210.046C75.3145 209.794 75.8066 209.668 76.3398 209.668C76.8789 209.668 77.3359 209.803 77.7109 210.072C78.0859 210.336 78.335 210.705 78.458 211.18C78.8623 210.676 79.3018 210.298 79.7764 210.046C80.2568 209.794 80.7666 209.668 81.3057 209.668C81.9912 209.668 82.5332 209.879 82.9316 210.301C83.3359 210.723 83.5381 211.297 83.5381 212.023C83.5381 212.193 83.5176 212.463 83.4766 212.832C83.4707 212.873 83.4678 212.902 83.4678 212.92L82.7998 218H81.3936L82.0439 213.069C82.0615 212.946 82.0732 212.823 82.0791 212.7C82.0908 212.577 82.0967 212.454 82.0967 212.331C82.0967 211.845 81.9707 211.479 81.7188 211.232C81.4727 210.98 81.1064 210.854 80.6201 210.854C79.9697 210.854 79.46 211.101 79.0908 211.593C78.7275 212.085 78.4756 212.864 78.335 213.931L77.7988 218H76.375ZM85.6299 213.324H89.7695L89.585 214.687H85.4629L85.6299 213.324ZM90.7803 221.92L93.584 217.121L91.3867 209.958H92.8809L94.542 215.697L97.6709 209.958H99.2705L92.3447 221.92H90.7803ZM107.462 214.212L101.02 214.221V214.361C101.02 215.223 101.239 215.902 101.679 216.4C102.118 216.893 102.719 217.139 103.48 217.139C103.955 217.139 104.392 217.024 104.79 216.796C105.188 216.567 105.575 216.213 105.95 215.732L106.917 216.523C106.448 217.133 105.933 217.59 105.37 217.895C104.808 218.193 104.195 218.343 103.533 218.343C102.332 218.343 101.377 217.982 100.668 217.262C99.9648 216.535 99.6133 215.557 99.6133 214.326C99.6133 212.984 100.023 211.874 100.844 210.995C101.664 210.11 102.692 209.668 103.929 209.668C105.054 209.668 105.927 210.011 106.548 210.696C107.169 211.382 107.479 212.346 107.479 213.588C107.479 213.758 107.477 213.887 107.471 213.975C107.471 214.062 107.468 214.142 107.462 214.212ZM106.126 213.069C106.114 212.343 105.915 211.783 105.528 211.391C105.147 210.998 104.608 210.802 103.911 210.802C103.22 210.802 102.622 211.007 102.118 211.417C101.62 211.827 101.295 212.378 101.143 213.069H106.126ZM112.823 217.042C113.608 217.042 114.271 216.717 114.81 216.066C115.354 215.416 115.627 214.607 115.627 213.641C115.627 212.826 115.413 212.167 114.985 211.663C114.563 211.159 114.01 210.907 113.324 210.907C112.434 210.907 111.704 211.224 111.136 211.856C110.567 212.489 110.283 213.295 110.283 214.273C110.283 215.1 110.518 215.768 110.986 216.277C111.461 216.787 112.073 217.042 112.823 217.042ZM116.154 209.958H117.534L116.479 218H115.073L115.267 216.796C114.88 217.317 114.446 217.704 113.966 217.956C113.491 218.202 112.949 218.325 112.34 218.325C111.309 218.325 110.471 217.95 109.826 217.2C109.182 216.45 108.859 215.475 108.859 214.273C108.859 212.943 109.252 211.845 110.037 210.978C110.822 210.104 111.81 209.668 112.999 209.668C113.714 209.668 114.314 209.826 114.801 210.143C115.287 210.459 115.665 210.937 115.935 211.575L116.154 209.958ZM124.223 211.268C124.07 211.191 123.915 211.133 123.757 211.092C123.599 211.051 123.44 211.03 123.282 211.03C122.667 211.03 122.178 211.288 121.814 211.804C121.457 212.319 121.205 213.119 121.059 214.203L120.549 218H119.187L120.241 209.958H121.63L121.41 211.232C121.779 210.688 122.151 210.292 122.526 210.046C122.907 209.794 123.323 209.668 123.774 209.668C123.903 209.668 124.035 209.683 124.17 209.712C124.311 209.741 124.448 209.785 124.583 209.844L124.223 211.268Z" fill="#606E7B" fill-opacity="0.5"/>
<path d="M35.3789 52L36.1172 46.3838L32.6631 39.1328H34.3154L36.9785 44.96L40.6699 39.1328H42.4189L37.6641 46.4014L36.9258 52H35.3789ZM44.9678 44.8018C44.083 44.8018 43.3506 45.1299 42.7705 45.7861C42.1963 46.4365 41.9092 47.2656 41.9092 48.2734C41.9092 49.1582 42.1582 49.873 42.6562 50.418C43.1602 50.957 43.8223 51.2266 44.6426 51.2266C45.5215 51.2266 46.248 50.9014 46.8223 50.251C47.3965 49.6006 47.6836 48.7744 47.6836 47.7725C47.6836 46.9053 47.4287 46.1934 46.9189 45.6367C46.415 45.0801 45.7646 44.8018 44.9678 44.8018ZM40.5029 48.3086C40.5029 46.9902 40.9365 45.8887 41.8037 45.0039C42.6709 44.1133 43.749 43.668 45.0381 43.668C46.2041 43.668 47.168 44.0371 47.9297 44.7754C48.6914 45.5078 49.0723 46.4219 49.0723 47.5176C49.0723 48.9473 48.6504 50.1104 47.8066 51.0068C46.9688 51.8975 45.8848 52.3428 44.5547 52.3428C43.3301 52.3428 42.3486 51.9736 41.6104 51.2354C40.8721 50.4971 40.5029 49.5215 40.5029 48.3086ZM51.6211 43.958H53.0273L52.5615 47.5176C52.5498 47.6113 52.5322 47.7461 52.5088 47.9219C52.3857 48.8184 52.3242 49.4102 52.3242 49.6973C52.3242 50.1309 52.4736 50.4678 52.7725 50.708C53.0713 50.9482 53.4932 51.0684 54.0381 51.0684C54.7588 51.0684 55.2832 50.875 55.6113 50.4883C55.9395 50.1016 56.1885 49.2549 56.3584 47.9482L56.877 43.958H58.2656L57.7207 48.0449C57.7148 48.1094 57.7031 48.2031 57.6855 48.3262C57.4922 49.7969 57.1406 50.8047 56.6309 51.3496C56.3262 51.6719 55.9453 51.918 55.4883 52.0879C55.0371 52.2578 54.5273 52.3428 53.959 52.3428C53.0391 52.3428 52.3008 52.1172 51.7441 51.666C51.1934 51.209 50.918 50.6055 50.918 49.8555C50.918 49.5684 50.9854 48.8887 51.1201 47.8164L51.1377 47.6934L51.6211 43.958ZM64.9014 45.2676C64.749 45.1914 64.5938 45.1328 64.4355 45.0918C64.2773 45.0508 64.1191 45.0303 63.9609 45.0303C63.3457 45.0303 62.8564 45.2881 62.4932 45.8037C62.1357 46.3193 61.8838 47.1191 61.7373 48.2031L61.2275 52H59.8652L60.9199 43.958H62.3086L62.0889 45.2324C62.458 44.6875 62.8301 44.292 63.2051 44.0459C63.5859 43.7939 64.002 43.668 64.4531 43.668C64.582 43.668 64.7139 43.6826 64.8486 43.7119C64.9893 43.7412 65.127 43.7852 65.2617 43.8438L64.9014 45.2676ZM71.2207 52L72.9434 38.623L80.6162 48.6865L81.8906 39.1328H83.4199L81.6621 52.501L74.0244 42.5342L72.75 52H71.2207ZM88.5176 51.042C89.3027 51.042 89.9648 50.7168 90.5039 50.0664C91.0488 49.416 91.3213 48.6074 91.3213 47.6406C91.3213 46.8262 91.1074 46.167 90.6797 45.6631C90.2578 45.1592 89.7041 44.9072 89.0186 44.9072C88.1279 44.9072 87.3984 45.2236 86.8301 45.8564C86.2617 46.4893 85.9775 47.2949 85.9775 48.2734C85.9775 49.0996 86.2119 49.7676 86.6807 50.2773C87.1553 50.7871 87.7676 51.042 88.5176 51.042ZM91.8486 43.958H93.2285L92.1738 52H90.7676L90.9609 50.7959C90.5742 51.3174 90.1406 51.7041 89.6602 51.9561C89.1855 52.2021 88.6436 52.3252 88.0342 52.3252C87.0029 52.3252 86.165 51.9502 85.5205 51.2002C84.876 50.4502 84.5537 49.4746 84.5537 48.2734C84.5537 46.9434 84.9463 45.8447 85.7314 44.9775C86.5166 44.1045 87.5039 43.668 88.6934 43.668C89.4082 43.668 90.0088 43.8262 90.4951 44.1426C90.9814 44.459 91.3594 44.9365 91.6289 45.5752L91.8486 43.958ZM99.8643 52L100.515 47.0605C100.532 46.9375 100.544 46.8145 100.55 46.6914C100.562 46.5684 100.567 46.4482 100.567 46.3311C100.567 45.8447 100.441 45.4785 100.189 45.2324C99.9434 44.9805 99.5771 44.8545 99.0908 44.8545C98.458 44.8545 97.9512 45.1123 97.5703 45.6279C97.1953 46.1377 96.9404 46.9053 96.8057 47.9307L96.2607 52H94.8809L95.9531 43.958H97.2891L97.1045 45.1973C97.4854 44.6816 97.9014 44.2979 98.3525 44.0459C98.8037 43.7939 99.2959 43.668 99.8291 43.668C100.368 43.668 100.825 43.8027 101.2 44.0723C101.575 44.3359 101.824 44.7051 101.947 45.1797C102.352 44.6758 102.791 44.2979 103.266 44.0459C103.746 43.7939 104.256 43.668 104.795 43.668C105.48 43.668 106.022 43.8789 106.421 44.3008C106.825 44.7227 107.027 45.2969 107.027 46.0234C107.027 46.1934 107.007 46.4629 106.966 46.832C106.96 46.873 106.957 46.9023 106.957 46.9199L106.289 52H104.883L105.533 47.0693C105.551 46.9463 105.562 46.8232 105.568 46.7002C105.58 46.5771 105.586 46.4541 105.586 46.3311C105.586 45.8447 105.46 45.4785 105.208 45.2324C104.962 44.9805 104.596 44.8545 104.109 44.8545C103.459 44.8545 102.949 45.1006 102.58 45.5928C102.217 46.085 101.965 46.8643 101.824 47.9307L101.288 52H99.8643ZM116.66 48.2119L110.218 48.2207V48.3613C110.218 49.2227 110.438 49.9023 110.877 50.4004C111.316 50.8926 111.917 51.1387 112.679 51.1387C113.153 51.1387 113.59 51.0244 113.988 50.7959C114.387 50.5674 114.773 50.2129 115.148 49.7324L116.115 50.5234C115.646 51.1328 115.131 51.5898 114.568 51.8945C114.006 52.1934 113.394 52.3428 112.731 52.3428C111.53 52.3428 110.575 51.9824 109.866 51.2617C109.163 50.5352 108.812 49.5566 108.812 48.3262C108.812 46.9844 109.222 45.874 110.042 44.9951C110.862 44.1104 111.891 43.668 113.127 43.668C114.252 43.668 115.125 44.0107 115.746 44.6963C116.367 45.3818 116.678 46.3457 116.678 47.5879C116.678 47.7578 116.675 47.8867 116.669 47.9746C116.669 48.0625 116.666 48.1416 116.66 48.2119ZM115.324 47.0693C115.312 46.3428 115.113 45.7832 114.727 45.3906C114.346 44.998 113.807 44.8018 113.109 44.8018C112.418 44.8018 111.82 45.0068 111.316 45.417C110.818 45.8271 110.493 46.3779 110.341 47.0693H115.324Z" fill="#606E7B" fill-opacity="0.5"/>
<path d="M35.123 130L35.8613 124.384L32.4072 117.133H34.0596L36.7227 122.96L40.4141 117.133H42.1631L37.4082 124.401L36.6699 130H35.123ZM44.7119 122.802C43.8271 122.802 43.0947 123.13 42.5146 123.786C41.9404 124.437 41.6533 125.266 41.6533 126.273C41.6533 127.158 41.9023 127.873 42.4004 128.418C42.9043 128.957 43.5664 129.227 44.3867 129.227C45.2656 129.227 45.9922 128.901 46.5664 128.251C47.1406 127.601 47.4277 126.774 47.4277 125.772C47.4277 124.905 47.1729 124.193 46.6631 123.637C46.1592 123.08 45.5088 122.802 44.7119 122.802ZM40.2471 126.309C40.2471 124.99 40.6807 123.889 41.5479 123.004C42.415 122.113 43.4932 121.668 44.7822 121.668C45.9482 121.668 46.9121 122.037 47.6738 122.775C48.4355 123.508 48.8164 124.422 48.8164 125.518C48.8164 126.947 48.3945 128.11 47.5508 129.007C46.7129 129.897 45.6289 130.343 44.2988 130.343C43.0742 130.343 42.0928 129.974 41.3545 129.235C40.6162 128.497 40.2471 127.521 40.2471 126.309ZM51.3652 121.958H52.7715L52.3057 125.518C52.2939 125.611 52.2764 125.746 52.2529 125.922C52.1299 126.818 52.0684 127.41 52.0684 127.697C52.0684 128.131 52.2178 128.468 52.5166 128.708C52.8154 128.948 53.2373 129.068 53.7822 129.068C54.5029 129.068 55.0273 128.875 55.3555 128.488C55.6836 128.102 55.9326 127.255 56.1025 125.948L56.6211 121.958H58.0098L57.4648 126.045C57.459 126.109 57.4473 126.203 57.4297 126.326C57.2363 127.797 56.8848 128.805 56.375 129.35C56.0703 129.672 55.6895 129.918 55.2324 130.088C54.7812 130.258 54.2715 130.343 53.7031 130.343C52.7832 130.343 52.0449 130.117 51.4883 129.666C50.9375 129.209 50.6621 128.605 50.6621 127.855C50.6621 127.568 50.7295 126.889 50.8643 125.816L50.8818 125.693L51.3652 121.958ZM64.6455 123.268C64.4932 123.191 64.3379 123.133 64.1797 123.092C64.0215 123.051 63.8633 123.03 63.7051 123.03C63.0898 123.03 62.6006 123.288 62.2373 123.804C61.8799 124.319 61.6279 125.119 61.4814 126.203L60.9717 130H59.6094L60.6641 121.958H62.0527L61.833 123.232C62.2021 122.688 62.5742 122.292 62.9492 122.046C63.3301 121.794 63.7461 121.668 64.1973 121.668C64.3262 121.668 64.458 121.683 64.5928 121.712C64.7334 121.741 64.8711 121.785 65.0059 121.844L64.6455 123.268ZM72.3271 130H70.9121L72.7051 116.377H74.1113L72.3271 130ZM79.0684 129.042C79.8535 129.042 80.5156 128.717 81.0547 128.066C81.5996 127.416 81.8721 126.607 81.8721 125.641C81.8721 124.826 81.6582 124.167 81.2305 123.663C80.8086 123.159 80.2549 122.907 79.5693 122.907C78.6787 122.907 77.9492 123.224 77.3809 123.856C76.8125 124.489 76.5283 125.295 76.5283 126.273C76.5283 127.1 76.7627 127.768 77.2314 128.277C77.7061 128.787 78.3184 129.042 79.0684 129.042ZM82.3994 121.958H83.7793L82.7246 130H81.3184L81.5117 128.796C81.125 129.317 80.6914 129.704 80.2109 129.956C79.7363 130.202 79.1943 130.325 78.585 130.325C77.5537 130.325 76.7158 129.95 76.0713 129.2C75.4268 128.45 75.1045 127.475 75.1045 126.273C75.1045 124.943 75.4971 123.845 76.2822 122.978C77.0674 122.104 78.0547 121.668 79.2441 121.668C79.959 121.668 80.5596 121.826 81.0459 122.143C81.5322 122.459 81.9102 122.937 82.1797 123.575L82.3994 121.958ZM84.8164 128.831L85.7129 127.768C86.0059 128.242 86.3369 128.6 86.7061 128.84C87.0811 129.074 87.4941 129.191 87.9453 129.191C88.4492 129.191 88.8477 129.077 89.1406 128.849C89.4395 128.614 89.5889 128.301 89.5889 127.908C89.5889 127.469 89.1729 127.059 88.3408 126.678C88.1299 126.578 87.9629 126.496 87.8398 126.432C87.0723 126.062 86.5625 125.72 86.3105 125.403C86.0586 125.087 85.9326 124.688 85.9326 124.208C85.9326 123.47 86.2051 122.863 86.75 122.389C87.2949 121.908 87.9951 121.668 88.8506 121.668C89.3896 121.668 89.8877 121.768 90.3447 121.967C90.8018 122.166 91.2148 122.462 91.584 122.854L90.7402 123.865C90.4941 123.537 90.2041 123.291 89.8701 123.127C89.5361 122.957 89.1641 122.872 88.7539 122.872C88.3496 122.872 88.0068 122.989 87.7256 123.224C87.4443 123.452 87.3037 123.725 87.3037 124.041C87.3037 124.475 87.7988 124.905 88.7891 125.333C88.8535 125.356 88.9033 125.377 88.9385 125.395C89.7295 125.734 90.2598 126.071 90.5293 126.405C90.7988 126.739 90.9336 127.176 90.9336 127.715C90.9336 128.529 90.6699 129.171 90.1426 129.64C89.6152 130.108 88.8945 130.343 87.9805 130.343C87.3008 130.343 86.7031 130.22 86.1875 129.974C85.6719 129.728 85.2148 129.347 84.8164 128.831ZM93.1484 130L94.0537 123.127H92.5596L92.7178 121.958H94.2119L94.625 118.715H96.0488L95.6182 121.958H97.3848L97.2354 123.127H95.46L94.5547 130H93.1484ZM103.168 130L104.223 121.958H105.559L105.374 123.268C105.825 122.723 106.297 122.321 106.789 122.063C107.281 121.8 107.82 121.668 108.406 121.668C109.174 121.668 109.78 121.879 110.226 122.301C110.677 122.723 110.902 123.297 110.902 124.023C110.902 124.152 110.896 124.293 110.885 124.445C110.873 124.598 110.855 124.756 110.832 124.92L110.164 130H108.758L109.391 125.069C109.396 125.028 109.402 124.973 109.408 124.902C109.443 124.615 109.461 124.425 109.461 124.331C109.461 123.851 109.314 123.484 109.021 123.232C108.729 122.98 108.301 122.854 107.738 122.854C107 122.854 106.405 123.118 105.954 123.646C105.503 124.167 105.21 124.929 105.075 125.931L104.53 130H103.168ZM116.773 129.042C117.559 129.042 118.221 128.717 118.76 128.066C119.305 127.416 119.577 126.607 119.577 125.641C119.577 124.826 119.363 124.167 118.936 123.663C118.514 123.159 117.96 122.907 117.274 122.907C116.384 122.907 115.654 123.224 115.086 123.856C114.518 124.489 114.233 125.295 114.233 126.273C114.233 127.1 114.468 127.768 114.937 128.277C115.411 128.787 116.023 129.042 116.773 129.042ZM120.104 121.958H121.484L120.43 130H119.023L119.217 128.796C118.83 129.317 118.396 129.704 117.916 129.956C117.441 130.202 116.899 130.325 116.29 130.325C115.259 130.325 114.421 129.95 113.776 129.2C113.132 128.45 112.81 127.475 112.81 126.273C112.81 124.943 113.202 123.845 113.987 122.978C114.772 122.104 115.76 121.668 116.949 121.668C117.664 121.668 118.265 121.826 118.751 122.143C119.237 122.459 119.615 122.937 119.885 123.575L120.104 121.958ZM128.12 130L128.771 125.061C128.788 124.938 128.8 124.814 128.806 124.691C128.817 124.568 128.823 124.448 128.823 124.331C128.823 123.845 128.697 123.479 128.445 123.232C128.199 122.98 127.833 122.854 127.347 122.854C126.714 122.854 126.207 123.112 125.826 123.628C125.451 124.138 125.196 124.905 125.062 125.931L124.517 130H123.137L124.209 121.958H125.545L125.36 123.197C125.741 122.682 126.157 122.298 126.608 122.046C127.06 121.794 127.552 121.668 128.085 121.668C128.624 121.668 129.081 121.803 129.456 122.072C129.831 122.336 130.08 122.705 130.203 123.18C130.607 122.676 131.047 122.298 131.521 122.046C132.002 121.794 132.512 121.668 133.051 121.668C133.736 121.668 134.278 121.879 134.677 122.301C135.081 122.723 135.283 123.297 135.283 124.023C135.283 124.193 135.263 124.463 135.222 124.832C135.216 124.873 135.213 124.902 135.213 124.92L134.545 130H133.139L133.789 125.069C133.807 124.946 133.818 124.823 133.824 124.7C133.836 124.577 133.842 124.454 133.842 124.331C133.842 123.845 133.716 123.479 133.464 123.232C133.218 122.98 132.852 122.854 132.365 122.854C131.715 122.854 131.205 123.101 130.836 123.593C130.473 124.085 130.221 124.864 130.08 125.931L129.544 130H128.12ZM144.916 126.212L138.474 126.221V126.361C138.474 127.223 138.693 127.902 139.133 128.4C139.572 128.893 140.173 129.139 140.935 129.139C141.409 129.139 141.846 129.024 142.244 128.796C142.643 128.567 143.029 128.213 143.404 127.732L144.371 128.523C143.902 129.133 143.387 129.59 142.824 129.895C142.262 130.193 141.649 130.343 140.987 130.343C139.786 130.343 138.831 129.982 138.122 129.262C137.419 128.535 137.067 127.557 137.067 126.326C137.067 124.984 137.478 123.874 138.298 122.995C139.118 122.11 140.146 121.668 141.383 121.668C142.508 121.668 143.381 122.011 144.002 122.696C144.623 123.382 144.934 124.346 144.934 125.588C144.934 125.758 144.931 125.887 144.925 125.975C144.925 126.062 144.922 126.142 144.916 126.212ZM143.58 125.069C143.568 124.343 143.369 123.783 142.982 123.391C142.602 122.998 142.062 122.802 141.365 122.802C140.674 122.802 140.076 123.007 139.572 123.417C139.074 123.827 138.749 124.378 138.597 125.069H143.58Z" fill="#606E7B" fill-opacity="0.5"/>
<path d="M31.4542 302H38.7442V300.452H33.1462V295.322H38.5822V293.774H33.1462V289.976H38.7442V288.428H31.4542V302ZM42.2809 293.576H40.6609V302H42.2809V298.13C42.2809 296.6 42.2809 294.764 44.3689 294.764C46.0249 294.764 46.2229 295.736 46.2229 297.176V302H47.8429V296.978C47.8429 294.926 47.2309 293.324 44.8549 293.324C43.8289 293.324 42.8209 293.81 42.3169 294.71H42.2809V293.576ZM53.7008 300.848C51.9908 300.848 51.0368 299.372 51.0368 297.788C51.0368 296.222 52.0268 294.764 53.7008 294.764C55.4468 294.764 56.4368 296.15 56.4368 297.788C56.4368 299.444 55.4648 300.848 53.7008 300.848ZM57.9668 293.576H56.3468V295.016H56.3108C55.6448 293.972 54.6368 293.324 53.3768 293.324C50.9468 293.324 49.4168 295.43 49.4168 297.734C49.4168 300.146 50.8568 302.288 53.4488 302.288C54.6368 302.288 55.6628 301.64 56.3108 300.686H56.3468V302.288C56.3468 304.016 55.9328 305.384 53.9348 305.384C52.4588 305.384 51.4148 304.52 51.4148 303.008H49.7948C49.8308 305.384 51.5228 306.824 53.8628 306.824C57.1388 306.824 57.9668 304.736 57.9668 301.838V293.576ZM61.7592 286.376H60.1392V302H61.7592V286.376ZM66.0374 293.576H64.4174V302H66.0374V293.576ZM65.2274 288.59C64.6154 288.59 64.1114 289.094 64.1114 289.724C64.1114 290.336 64.6154 290.822 65.2274 290.822C65.8394 290.822 66.3434 290.336 66.3434 289.724C66.3434 289.094 65.8394 288.59 65.2274 288.59ZM73.3257 294.8C72.8757 293.882 72.0477 293.324 71.0217 293.324C69.6537 293.324 68.5377 294.404 68.5377 295.772C68.5377 296.924 69.2217 297.392 70.1577 297.896L71.7417 298.742C72.1197 298.994 72.3357 299.21 72.3357 299.66C72.3357 300.38 71.7417 300.848 71.0577 300.848C70.2837 300.848 69.8697 300.398 69.5277 299.768L68.1417 300.398C68.5917 301.586 69.8337 302.288 71.0577 302.288C72.6237 302.288 73.9557 301.1 73.9557 299.498C73.9557 298.166 73.0017 297.554 72.0117 297.104C71.0217 296.654 70.0497 296.33 70.0497 295.592C70.0497 295.124 70.4817 294.764 70.9317 294.764C71.3997 294.764 71.8137 295.088 72.0117 295.502L73.3257 294.8ZM75.5359 286.376V302H77.1559V298.13C77.1559 296.6 77.1559 294.764 79.2439 294.764C80.8999 294.764 81.0979 295.736 81.0979 297.176V302H82.7179V296.978C82.7179 294.926 82.1059 293.324 79.7299 293.324C78.7039 293.324 77.6959 293.81 77.1919 294.71H77.1559V286.376H75.5359Z" fill="black"/>
</svg>
