<svg width="257" height="245" viewBox="0 0 257 245" fill="none" xmlns="http://www.w3.org/2000/svg">
<ellipse cx="199.641" cy="54.8902" rx="56.391" ry="54.8902" fill="#F7F8F9"/>
<ellipse cx="56.391" cy="189.89" rx="56.391" ry="54.8902" fill="#F7F8F9"/>
<ellipse cx="56.641" cy="54.8902" rx="56.391" ry="54.8902" fill="#F7F8F9"/>
<ellipse cx="199.391" cy="189.89" rx="56.391" ry="54.8902" fill="#F7F8F9"/>
<g clip-path="url(#clip0)">
<path d="M223.788 179.005C223.456 180.47 221.933 180.491 220.851 181.058C219.768 181.625 218.835 181.796 218.138 180.448C215.708 176.602 212.457 173.337 208.618 170.887C206.195 169.582 207.964 167.818 208.618 166.535C209.272 165.251 209.69 164.813 211.02 165.519C216.348 168.192 220.666 172.514 223.327 177.839C223.488 178.16 223.595 178.502 223.788 179.005Z" fill="#3B4B5B"/>
<path d="M178.053 181.4C174.601 181.325 173.443 179.261 175.191 176.427C177.794 171.921 181.653 168.265 186.297 165.903C187.498 165.305 188.302 164.941 189.117 166.524C190.328 168.866 191.208 169.732 189.278 170.802C185.199 172.944 181.868 176.27 179.726 180.341C179.361 181.036 178.932 181.646 178.053 181.4Z" fill="#3B4B5B"/>
<path d="M190.146 211.163C189.728 214.821 188.173 215.57 185.021 213.645C180.63 211.074 177.055 207.319 174.708 202.811C173.99 201.41 173.636 200.287 175.491 199.752C176.895 199.346 178.471 197.442 179.779 199.913C182.77 205.549 184.153 206.607 189.063 209.217C190.36 209.891 190.275 210.051 190.146 211.163Z" fill="#3B4B5B"/>
<path d="M224.013 201.003C223.823 201.521 223.605 202.028 223.359 202.522C220.796 207.467 216.778 211.512 211.845 214.115C210.666 214.714 209.701 215.548 208.704 213.645C207.921 212.094 206.174 210.532 208.876 209.099C213.721 206.554 215.308 205.431 218.117 199.774C218.781 198.447 219.607 198.704 220.829 199.121C222.051 199.538 223.391 199.741 224.013 201.003Z" fill="#3B4B5B"/>
<path d="M186.501 161.326C186.641 162.802 185.493 163.027 184.668 163.465C179.206 166.213 174.772 170.636 172.017 176.085C171.117 177.849 170.206 178.448 168.265 177.475C165.896 176.299 167.461 174.973 168.029 173.86C171.334 167.584 176.511 162.487 182.845 159.273C185.676 157.743 185.901 159.754 186.501 161.326Z" fill="#44ADBF"/>
<path d="M231.957 175.165C232.204 176.545 230.981 176.652 230.167 177.058C229.352 177.464 228.226 177.71 227.637 176.502C224.671 170.334 219.687 165.358 213.507 162.396C211.845 161.561 212.724 160.374 213.121 159.187C213.517 158 214.354 157.765 215.436 158.278C222.811 161.726 228.682 167.726 231.957 175.165Z" fill="#44ADBF"/>
<path d="M169.82 202.907C171.117 202.682 171.385 203.784 171.825 204.618C174.61 210.17 179.124 214.673 184.689 217.452C186.394 218.307 186.694 219.206 185.933 220.949C185.043 223.013 183.885 222.157 182.717 221.548C176.291 218.244 171.047 213.036 167.708 206.639C166.26 204.019 167.794 203.463 169.82 202.907Z" fill="#44ADBF"/>
<path d="M230.778 204.992C227.572 212.091 222.004 217.864 215.018 221.334C213.871 221.922 212.81 222.607 212.006 220.821C211.32 219.291 211.03 218.179 212.971 217.249C218.7 214.469 223.337 209.863 226.146 204.158C226.811 202.853 227.551 202.116 229.02 202.886C229.813 203.303 231.099 203.324 230.778 204.992Z" fill="#44ADBF"/>
<path d="M192.494 200.971C190.044 199.491 188.147 197.252 187.092 194.596C186.037 191.939 185.882 189.012 186.651 186.259C187.42 183.507 189.071 181.081 191.351 179.352C193.631 177.623 196.416 176.686 199.28 176.684C201.255 176.682 203.205 177.126 204.984 177.982C206.763 178.838 208.325 180.083 209.554 181.626C210.782 183.168 211.646 184.968 212.08 186.89C212.514 188.812 212.507 190.807 212.06 192.726L206.045 191.303C206.165 190.78 206.226 190.246 206.227 189.71C206.231 188.148 205.702 186.632 204.728 185.41C203.754 184.188 202.393 183.332 200.867 182.983C200.344 182.858 199.807 182.797 199.27 182.801C197.705 182.8 196.186 183.328 194.961 184.299C193.736 185.27 192.878 186.627 192.526 188.148C192.407 188.675 192.346 189.213 192.344 189.752C192.347 190.94 192.656 192.107 193.242 193.141C193.828 194.175 194.67 195.041 195.689 195.656L192.494 200.971Z" fill="#44ADBF"/>
<path d="M192.484 201.121C190.103 199.693 188.241 197.545 187.169 194.989C186.096 192.432 185.87 189.601 186.523 186.908C186.894 185.209 187.601 183.602 188.601 182.179C189.602 180.756 190.877 179.546 192.351 178.62C193.826 177.694 195.47 177.07 197.189 176.784C198.908 176.499 200.666 176.558 202.362 176.957C204.058 177.357 205.657 178.09 207.066 179.113C208.474 180.136 209.665 181.428 210.568 182.915C211.47 184.402 212.067 186.053 212.323 187.772C212.58 189.491 212.49 191.244 212.06 192.929L206.035 191.506C206.162 190.985 206.227 190.45 206.228 189.913C206.231 188.351 205.702 186.835 204.728 185.613C203.754 184.391 202.393 183.535 200.867 183.186C200.344 183.058 199.808 182.993 199.27 182.993C197.705 182.99 196.185 183.518 194.96 184.489C193.734 185.461 192.876 186.819 192.527 188.341C192.398 188.862 192.334 189.397 192.334 189.934C192.338 191.123 192.647 192.291 193.233 193.326C193.818 194.362 194.66 195.23 195.678 195.848L192.484 201.121Z" fill="#44ADBF"/>
<path d="M208.565 199.025L204.191 194.661C205.009 193.861 205.615 192.871 205.956 191.78C206.297 190.688 206.362 189.53 206.144 188.408C205.927 187.286 205.434 186.235 204.71 185.349C203.986 184.463 203.053 183.77 201.995 183.331C200.937 182.893 199.787 182.722 198.646 182.836C197.506 182.949 196.412 183.342 195.461 183.98C194.511 184.618 193.734 185.482 193.199 186.493C192.664 187.504 192.389 188.631 192.398 189.774C192.398 190.869 192.655 191.95 193.148 192.929L187.649 195.731C186.546 193.581 186.06 191.168 186.247 188.76C186.433 186.352 187.283 184.042 188.704 182.087C190.124 180.131 192.06 178.605 194.296 177.679C196.531 176.752 198.981 176.461 201.372 176.836C203.764 177.212 206.004 178.241 207.846 179.808C209.688 181.376 211.06 183.421 211.809 185.718C212.557 188.015 212.655 190.473 212.09 192.822C211.525 195.17 210.32 197.317 208.608 199.025H208.565Z" fill="#44ADBF"/>
<path d="M199.291 196.725C198.75 196.729 198.21 196.668 197.683 196.544C196.154 196.186 194.792 195.322 193.818 194.092C192.845 192.863 192.317 191.341 192.323 189.774C192.323 189.233 192.388 188.695 192.516 188.17C192.874 186.644 193.74 185.285 194.973 184.314C196.205 183.343 197.731 182.817 199.302 182.822C199.84 182.822 200.376 182.887 200.899 183.015C202.428 183.373 203.791 184.237 204.764 185.466C205.738 186.696 206.265 188.218 206.26 189.785C206.258 190.321 206.197 190.855 206.077 191.378C205.719 192.903 204.852 194.262 203.62 195.234C202.388 196.205 200.862 196.731 199.291 196.725ZM199.291 188.982C199.113 188.984 198.94 189.045 198.801 189.156C198.661 189.266 198.562 189.419 198.519 189.592C198.514 189.653 198.514 189.713 198.519 189.774C198.522 189.95 198.583 190.121 198.694 190.258C198.804 190.396 198.958 190.493 199.13 190.533C199.23 190.56 199.335 190.566 199.437 190.552C199.54 190.537 199.638 190.501 199.727 190.447C199.815 190.393 199.891 190.322 199.951 190.237C200.011 190.153 200.052 190.057 200.074 189.956C200.078 189.895 200.078 189.834 200.074 189.774C200.072 189.596 200.011 189.424 199.9 189.285C199.789 189.145 199.636 189.046 199.463 189.004L199.291 188.982Z" fill="#44ADBF"/>
<path d="M208.565 199.025L204.191 194.661C205.009 193.861 205.615 192.871 205.956 191.78C206.297 190.688 206.362 189.53 206.144 188.408C205.927 187.286 205.434 186.235 204.71 185.349C203.986 184.463 203.053 183.77 201.995 183.331C200.937 182.893 199.787 182.722 198.646 182.836C197.506 182.949 196.412 183.342 195.461 183.98C194.511 184.618 193.734 185.482 193.199 186.493C192.664 187.504 192.389 188.631 192.398 189.774C192.398 190.869 192.655 191.95 193.148 192.929L187.649 195.731C186.546 193.581 186.06 191.168 186.247 188.76C186.433 186.352 187.283 184.042 188.704 182.087C190.124 180.131 192.06 178.605 194.296 177.679C196.531 176.752 198.981 176.461 201.372 176.836C203.764 177.212 206.004 178.241 207.846 179.808C209.688 181.376 211.06 183.421 211.809 185.718C212.557 188.015 212.655 190.473 212.09 192.822C211.525 195.17 210.32 197.317 208.608 199.025H208.565Z" fill="#44ADBF"/>
<path d="M199.291 196.725C198.75 196.729 198.21 196.668 197.683 196.544C196.154 196.186 194.792 195.322 193.818 194.092C192.845 192.863 192.317 191.341 192.323 189.774C192.323 189.233 192.388 188.695 192.516 188.17C192.874 186.644 193.74 185.285 194.973 184.314C196.205 183.343 197.731 182.817 199.302 182.822C199.84 182.822 200.376 182.887 200.899 183.015C202.428 183.373 203.791 184.237 204.764 185.466C205.738 186.696 206.265 188.218 206.26 189.785C206.258 190.321 206.197 190.855 206.077 191.378C205.719 192.903 204.852 194.262 203.62 195.234C202.388 196.205 200.862 196.731 199.291 196.725ZM199.291 188.982C199.113 188.984 198.94 189.045 198.801 189.156C198.661 189.266 198.562 189.419 198.519 189.592C198.514 189.653 198.514 189.713 198.519 189.774C198.522 189.95 198.583 190.121 198.694 190.258C198.804 190.396 198.958 190.493 199.13 190.533C199.23 190.56 199.335 190.566 199.437 190.552C199.54 190.537 199.638 190.501 199.727 190.447C199.815 190.393 199.891 190.322 199.951 190.237C200.011 190.153 200.052 190.057 200.074 189.956C200.078 189.895 200.078 189.834 200.074 189.774C200.072 189.596 200.011 189.424 199.9 189.285C199.789 189.145 199.636 189.046 199.463 189.004L199.291 188.982Z" fill="#44ADBF"/>
<path d="M208.565 199.025L204.191 194.661C205.009 193.861 205.615 192.871 205.956 191.78C206.297 190.688 206.362 189.53 206.144 188.408C205.927 187.286 205.434 186.235 204.71 185.349C203.986 184.463 203.053 183.77 201.995 183.331C200.937 182.893 199.787 182.722 198.646 182.836C197.506 182.949 196.412 183.342 195.461 183.98C194.511 184.618 193.734 185.482 193.199 186.493C192.664 187.504 192.389 188.631 192.398 189.774C192.398 190.869 192.655 191.95 193.148 192.929L187.649 195.731C186.546 193.581 186.06 191.168 186.247 188.76C186.433 186.352 187.283 184.042 188.704 182.087C190.124 180.131 192.06 178.605 194.296 177.679C196.531 176.752 198.981 176.461 201.372 176.836C203.764 177.212 206.004 178.241 207.846 179.808C209.688 181.376 211.06 183.421 211.809 185.718C212.557 188.015 212.655 190.473 212.09 192.822C211.525 195.17 210.32 197.317 208.608 199.025H208.565Z" fill="#44ADBF"/>
<path d="M199.291 196.725C198.75 196.729 198.21 196.668 197.683 196.544C196.154 196.186 194.792 195.322 193.818 194.092C192.845 192.863 192.317 191.341 192.323 189.774C192.323 189.233 192.388 188.695 192.516 188.17C192.874 186.644 193.74 185.285 194.973 184.314C196.205 183.343 197.731 182.817 199.302 182.822C199.84 182.822 200.376 182.887 200.899 183.015C202.428 183.373 203.791 184.237 204.764 185.466C205.738 186.696 206.265 188.218 206.26 189.785C206.258 190.321 206.197 190.855 206.077 191.378C205.719 192.903 204.852 194.262 203.62 195.234C202.388 196.205 200.862 196.731 199.291 196.725ZM199.291 188.982C199.113 188.984 198.94 189.045 198.801 189.156C198.661 189.266 198.562 189.419 198.519 189.592C198.514 189.653 198.514 189.713 198.519 189.774C198.522 189.95 198.583 190.121 198.694 190.258C198.804 190.396 198.958 190.493 199.13 190.533C199.23 190.56 199.335 190.566 199.437 190.552C199.54 190.537 199.638 190.501 199.727 190.447C199.815 190.393 199.891 190.322 199.951 190.237C200.011 190.153 200.052 190.057 200.074 189.956C200.078 189.895 200.078 189.834 200.074 189.774C200.072 189.596 200.011 189.424 199.9 189.285C199.789 189.145 199.636 189.046 199.463 189.004L199.291 188.982Z" fill="#44ADBF"/>
<path d="M208.565 199.025L204.191 194.661C205.009 193.861 205.615 192.871 205.956 191.78C206.297 190.688 206.362 189.53 206.144 188.408C205.927 187.286 205.434 186.235 204.71 185.349C203.986 184.463 203.053 183.77 201.995 183.331C200.937 182.893 199.787 182.722 198.646 182.836C197.506 182.949 196.412 183.342 195.461 183.98C194.511 184.618 193.734 185.482 193.199 186.493C192.664 187.504 192.389 188.631 192.398 189.774C192.398 190.869 192.655 191.95 193.148 192.929L187.649 195.731C186.546 193.581 186.06 191.168 186.247 188.76C186.433 186.352 187.283 184.042 188.704 182.087C190.124 180.131 192.06 178.605 194.296 177.679C196.531 176.752 198.981 176.461 201.372 176.836C203.764 177.212 206.004 178.241 207.846 179.808C209.688 181.376 211.06 183.421 211.809 185.718C212.557 188.015 212.655 190.473 212.09 192.822C211.525 195.17 210.32 197.317 208.608 199.025H208.565Z" fill="#44ADBF"/>
<path d="M199.291 196.725C198.75 196.729 198.21 196.668 197.683 196.544C196.154 196.186 194.792 195.322 193.818 194.092C192.845 192.863 192.317 191.341 192.323 189.774C192.323 189.233 192.388 188.695 192.516 188.17C192.874 186.644 193.74 185.285 194.973 184.314C196.205 183.343 197.731 182.817 199.302 182.822C199.84 182.822 200.376 182.887 200.899 183.015C202.428 183.373 203.791 184.237 204.764 185.466C205.738 186.696 206.265 188.218 206.26 189.785C206.258 190.321 206.197 190.855 206.077 191.378C205.719 192.903 204.852 194.262 203.62 195.234C202.388 196.205 200.862 196.731 199.291 196.725ZM199.291 188.982C199.113 188.984 198.94 189.045 198.801 189.156C198.661 189.266 198.562 189.419 198.519 189.592C198.514 189.653 198.514 189.713 198.519 189.774C198.522 189.95 198.583 190.121 198.694 190.258C198.804 190.396 198.958 190.493 199.13 190.533C199.23 190.56 199.335 190.566 199.437 190.552C199.54 190.537 199.638 190.501 199.727 190.447C199.815 190.393 199.891 190.322 199.951 190.237C200.011 190.153 200.052 190.057 200.074 189.956C200.078 189.895 200.078 189.834 200.074 189.774C200.072 189.596 200.011 189.424 199.9 189.285C199.789 189.145 199.636 189.046 199.463 189.004L199.291 188.982Z" fill="#44ADBF"/>
<path d="M208.565 199.025L204.191 194.661C205.009 193.861 205.615 192.871 205.956 191.78C206.297 190.688 206.362 189.53 206.144 188.408C205.927 187.286 205.434 186.235 204.71 185.349C203.986 184.463 203.053 183.77 201.995 183.331C200.937 182.893 199.787 182.722 198.646 182.836C197.506 182.949 196.412 183.342 195.461 183.98C194.511 184.618 193.734 185.482 193.199 186.493C192.664 187.504 192.389 188.631 192.398 189.774C192.398 190.869 192.655 191.95 193.148 192.929L187.649 195.731C186.546 193.581 186.06 191.168 186.247 188.76C186.433 186.352 187.283 184.042 188.704 182.087C190.124 180.131 192.06 178.605 194.296 177.679C196.531 176.752 198.981 176.461 201.372 176.836C203.764 177.212 206.004 178.241 207.846 179.808C209.688 181.376 211.06 183.421 211.809 185.718C212.557 188.015 212.655 190.473 212.09 192.822C211.525 195.17 210.32 197.317 208.608 199.025H208.565Z" fill="#44ADBF"/>
<path d="M199.291 196.725C198.75 196.729 198.21 196.668 197.683 196.544C196.154 196.186 194.792 195.322 193.818 194.092C192.845 192.863 192.317 191.341 192.323 189.774C192.323 189.233 192.388 188.695 192.516 188.17C192.874 186.644 193.74 185.285 194.973 184.314C196.205 183.343 197.731 182.817 199.302 182.822C199.84 182.822 200.376 182.887 200.899 183.015C202.428 183.373 203.791 184.237 204.764 185.466C205.738 186.696 206.265 188.218 206.26 189.785C206.258 190.321 206.197 190.855 206.077 191.378C205.719 192.903 204.852 194.262 203.62 195.234C202.388 196.205 200.862 196.731 199.291 196.725ZM199.291 188.982C199.113 188.984 198.94 189.045 198.801 189.156C198.661 189.266 198.562 189.419 198.519 189.592C198.514 189.653 198.514 189.713 198.519 189.774C198.522 189.95 198.583 190.121 198.694 190.258C198.804 190.396 198.958 190.493 199.13 190.533C199.23 190.56 199.335 190.566 199.437 190.552C199.54 190.537 199.638 190.501 199.727 190.447C199.815 190.393 199.891 190.322 199.951 190.237C200.011 190.153 200.052 190.057 200.074 189.956C200.078 189.895 200.078 189.834 200.074 189.774C200.072 189.596 200.011 189.424 199.9 189.285C199.789 189.145 199.636 189.046 199.463 189.004L199.291 188.982Z" fill="#44ADBF"/>
<path d="M223.37 189.389C198.165 160.716 177.678 185.111 174.676 189.389C174.676 189.389 174.355 189.528 174.483 189.699C174.355 189.859 174.676 189.998 174.676 189.998C177.678 193.656 198.165 218.671 223.37 189.998C223.37 189.998 223.67 189.784 223.595 189.699C223.681 189.603 223.37 189.389 223.37 189.389Z" fill="#F2EED1"/>
<path d="M198.648 175.379C195.83 175.381 193.077 176.216 190.735 177.779C188.393 179.342 186.569 181.563 185.492 184.16C184.415 186.757 184.135 189.615 184.686 192.371C185.237 195.128 186.595 197.659 188.588 199.646C190.581 201.633 193.119 202.985 195.883 203.533C198.646 204.08 201.511 203.798 204.113 202.722C206.716 201.646 208.941 199.824 210.506 197.487C212.071 195.15 212.906 192.403 212.906 189.592C212.901 185.822 211.396 182.209 208.723 179.544C206.05 176.88 202.427 175.381 198.648 175.379Z" fill="#44ADBF"/>
<path d="M205.22 187.763C204.901 186.947 204.506 186.163 204.041 185.421L199.152 189.699V183.164C198.362 183.17 197.581 183.332 196.855 183.64C196.128 183.949 195.47 184.398 194.919 184.962C194.368 185.526 193.934 186.193 193.643 186.926C193.352 187.658 193.209 188.441 193.223 189.228C193.188 190.758 193.727 192.246 194.733 193.402C195.739 194.557 197.141 195.297 198.665 195.476C200.188 195.655 201.724 195.261 202.972 194.37C204.22 193.48 205.09 192.158 205.413 190.661C205.549 189.692 205.483 188.706 205.22 187.763Z" fill="#3B4B5B"/>
</g>
<path d="M87.4656 63.475C87.4419 61.9975 86.6534 60.6419 85.3865 59.9031V44.5632H81.2296V59.9031C79.964 60.6419 79.1741 61.9975 79.1505 63.475C79.1846 64.8515 79.8838 66.1231 81.0206 66.8789L79.1505 78.1837C79.1505 79.7387 81.0206 80.9998 83.3074 80.9998C85.5941 80.9998 87.4643 79.7387 87.4643 78.1837L85.5941 66.8789C86.7322 66.1231 87.4301 64.8515 87.4656 63.475Z" fill="#3B4B5B"/>
<path d="M56.8284 59.6904H56.2883H55.7481L35.5038 53.9324V68.0952C35.5038 72.7182 44.8151 76.5 56.2883 76.5C67.7615 76.5 77.0728 72.7182 77.0728 68.0952V53.9324L56.8284 59.6904Z" fill="#44ADBF" stroke="#44ADBF" stroke-width="3.36792" stroke-miterlimit="10"/>
<path d="M92.8105 40.0758L57.4016 30.0889C57.0708 29.9704 56.71 29.9704 56.3792 30.0889L20.9678 40.0758C19.8819 40.0758 19 40.9701 19 42.0727C19 43.1753 19.8807 44.0696 20.9678 44.0696L56.3779 54.0566L56.8892 53.9768H57.4004L92.8105 43.9911C93.8977 43.9911 94.7783 43.0968 94.7783 41.9929C94.7783 40.8903 93.8977 39.996 92.8105 39.996V40.0758Z" fill="#44ADBF" stroke="#44ADBF" stroke-width="3.36792" stroke-miterlimit="10"/>
<g clip-path="url(#clip1)">
<g opacity="0.9" filter="url(#filter0_d)">
<path d="M171.001 32.0679L198.641 32.1839L212.36 56.118L198.438 79.936L170.797 79.8173L157.079 55.8859L171.001 32.0679Z" fill="#44ADBF"/>
<path d="M171.001 32.0679L198.641 32.1839L212.36 56.118L198.438 79.936L170.797 79.8173L157.079 55.8859L171.001 32.0679Z" stroke="#44ADBF" stroke-width="0.5" stroke-miterlimit="10"/>
</g>
<g opacity="0.8" filter="url(#filter1_d)">
<path d="M199.641 32.0659L227.281 32.182L241 56.116L227.078 79.934L199.437 79.8154L185.719 55.8839L199.641 32.0659Z" fill="#3B4B5B"/>
</g>
</g>
<g clip-path="url(#clip2)">
<path d="M72.7712 187.194C63.2575 187.194 55.5427 194.913 55.5427 204.439C55.5427 213.961 63.2546 221.683 72.7712 221.683C82.2879 221.683 89.9997 213.964 89.9997 204.439C89.9997 194.916 82.2879 187.194 72.7712 187.194ZM79.1913 206.083H66.354V202.794H79.1913V206.083Z" fill="#3B4B5B"/>
<path d="M69.7399 158C63.5734 158 58.5747 163.003 58.5747 169.176C58.5747 175.348 63.5734 180.351 69.7399 180.351C75.9064 180.351 80.9051 175.348 80.9051 169.176C80.9051 163.003 75.9064 158 69.7399 158ZM72.1965 172.623L69.9699 170.472L67.6195 172.91L66.0889 171.431L68.4394 168.993L66.2128 166.841L67.6903 165.309L69.9168 167.461L71.8662 165.439L73.3967 166.918L71.4474 168.94L73.674 171.091L72.1965 172.623Z" fill="#F2EED1"/>
<path d="M47.9898 171.478C35.2469 171.478 24.9163 181.818 24.9163 194.573C24.9163 207.328 35.2469 217.669 47.9898 217.669C60.7328 217.669 71.0634 207.328 71.0634 194.573C71.0634 181.818 60.7357 171.478 47.9898 171.478ZM56.5893 196.176H50.1898V203.181H45.7928V196.176H39.3933V191.772H45.7898V185.969H50.1898V191.772H56.5864V196.176H56.5893Z" fill="#44ADBF" stroke="#44ADBF" stroke-width="2.65347" stroke-miterlimit="10"/>
</g>
<defs>
<filter id="filter0_d" x="152.79" y="31.8174" width="63.8585" height="56.3693" filterUnits="userSpaceOnUse" color-interpolation-filters="sRGB">
<feFlood flood-opacity="0" result="BackgroundImageFix"/>
<feColorMatrix in="SourceAlpha" type="matrix" values="0 0 0 0 0 0 0 0 0 0 0 0 0 0 0 0 0 0 127 0" result="hardAlpha"/>
<feOffset dy="4"/>
<feGaussianBlur stdDeviation="2"/>
<feColorMatrix type="matrix" values="0 0 0 0 0 0 0 0 0 0 0 0 0 0 0 0 0 0 0.25 0"/>
<feBlend mode="normal" in2="BackgroundImageFix" result="effect1_dropShadow"/>
<feBlend mode="normal" in="SourceGraphic" in2="effect1_dropShadow" result="shape"/>
</filter>
<filter id="filter1_d" x="181.719" y="32.0659" width="63.2808" height="55.8681" filterUnits="userSpaceOnUse" color-interpolation-filters="sRGB">
<feFlood flood-opacity="0" result="BackgroundImageFix"/>
<feColorMatrix in="SourceAlpha" type="matrix" values="0 0 0 0 0 0 0 0 0 0 0 0 0 0 0 0 0 0 127 0" result="hardAlpha"/>
<feOffset dy="4"/>
<feGaussianBlur stdDeviation="2"/>
<feColorMatrix type="matrix" values="0 0 0 0 0 0 0 0 0 0 0 0 0 0 0 0 0 0 0.25 0"/>
<feBlend mode="normal" in2="BackgroundImageFix" result="effect1_dropShadow"/>
<feBlend mode="normal" in="SourceGraphic" in2="effect1_dropShadow" result="shape"/>
</filter>
<clipPath id="clip0">
<rect width="65" height="64.2857" fill="white" transform="translate(167 158)"/>
</clipPath>
<clipPath id="clip1">
<rect width="84" height="48" fill="white" transform="translate(157 32)"/>
</clipPath>
<clipPath id="clip2">
<rect width="67" height="63.6832" fill="white" transform="translate(23 158)"/>
</clipPath>
</defs>
</svg>
