<svg width="36" height="32" viewBox="0 0 36 32" fill="none" xmlns="http://www.w3.org/2000/svg">
<path d="M17.8285 30.9989C13.5273 30.9989 9.22673 31.0007 4.92554 30.9983C2.6063 30.9966 1.03627 29.6114 1.02552 27.3993C0.991493 20.407 0.991493 13.4146 1.02552 6.42229C1.03627 4.20897 2.60571 2.82148 4.92315 2.82088C13.5918 2.8185 22.2604 2.8185 30.9291 2.82088C33.2644 2.82148 34.841 4.27456 34.847 6.5159C34.8667 13.4444 34.8661 20.373 34.847 27.3015C34.841 29.5435 33.2656 30.9971 30.9314 30.9989C26.5634 31.0013 22.1959 30.9989 17.8285 30.9989Z" stroke="#3B4B5B" stroke-width="1.90769" stroke-miterlimit="10"/>
<path d="M24.6879 16.3441C24.679 20.0977 21.6992 23.0327 18.1294 22.9303L18.1293 22.9303C14.6036 22.8291 11.7593 19.8707 11.774 16.2704M24.6879 16.3441L25.6418 16.3464M24.6879 16.3441L25.6418 16.3464M24.6879 16.3441C24.6969 12.5567 21.8013 9.64081 18.1931 9.68057L18.1931 9.68057C14.7146 9.7188 11.7886 12.6921 11.774 16.2704M25.6418 16.3464C25.6316 20.6085 22.236 24.0024 18.102 23.8837C14.048 23.7674 10.8034 20.3735 10.8201 16.2665M25.6418 16.3464L18.1826 8.72678C14.168 8.7709 10.8368 12.1821 10.8201 16.2665M11.774 16.2704L10.8201 16.2665M11.774 16.2704L10.8201 16.2665" stroke="white" stroke-width="1.90769"/>
<path d="M22.1746 16.3275C22.1692 18.5951 20.3622 20.4018 18.1623 20.3386C16.0049 20.2765 14.2784 18.4705 14.2874 16.2852C14.2963 14.1118 16.0688 12.2968 18.2053 12.273C20.4225 12.2485 22.18 14.0438 22.1746 16.3275Z" fill="#3B4B5B"/>
<path d="M29.7562 7.09338C29.7541 7.89656 29.1171 8.52294 28.3556 8.50131C27.6023 8.47942 26.9944 7.84769 26.9975 7.07765C27.0006 6.31277 27.6264 5.67755 28.3687 5.66947L28.3689 5.66947C29.1389 5.66039 29.7582 6.28221 29.7562 7.09338ZM29.7562 7.09338L29.9946 7.09399L29.7562 7.09338Z" stroke="white" stroke-width="0.476923"/>
<mask id="path-5-inside-1" fill="white">
<rect x="8.63086" width="18.1231" height="3.33846" rx="1.43077"/>
</mask>
<rect x="8.63086" width="18.1231" height="3.33846" rx="1.43077" stroke="#3B4B5B" stroke-width="3.33846" mask="url(#path-5-inside-1)"/>
</svg>
