<?xml version="1.0" encoding="utf-8"?>
<!-- Generator: Adobe Illustrator 25.1.0, SVG Export Plug-In . SVG Version: 6.00 Build 0)  -->
<svg version="1.1" xmlns="http://www.w3.org/2000/svg" xmlns:xlink="http://www.w3.org/1999/xlink" x="0px" y="0px"
	 viewBox="0 0 64 64" style="enable-background:new 0 0 64 64;" xml:space="preserve">
<style type="text/css">
	.st0{fill:#3B4B5B;}
	.st1{fill:#44ADBF;}
	.st2{clip-path:url(#SVGID_2_);}
	.st3{fill:#F2EED1;}
</style>
<g id="Layer_2">
	<g>
		<g>
			<g>
				<path class="st0" d="M54.7,22.5c-0.3,1.4-1.7,1.4-2.7,1.9c-1,0.5-1.9,0.7-2.5-0.6c-1.3-2.4-5.8-7.3-8.9-8.9
					c-2.3-1.2-0.6-2.9,0-4.1c0.6-1.1,1-1.6,2.2-1c5,2.7,9,6.3,11.4,11.5C54.4,21.7,54.5,22.1,54.7,22.5z"/>
			</g>
			<g>
				<path class="st0" d="M12,24.8c-3.2-0.1-4.3-2-2.7-4.6c2.6-4.2,5.9-7.6,10.4-9.8c1.1-0.6,1.9-0.9,2.6,0.6c1.1,2.2,1.9,3,0.1,4
					c-3.8,2.2-6.9,5-8.9,8.9C13.2,24.4,12.8,25,12,24.8z"/>
			</g>
			<g>
				<path class="st0" d="M23.3,52.6c-0.4,3.4-1.8,4.1-4.8,2.3c-4.1-2.5-7.4-5.8-9.6-10.1c-0.7-1.3-1-2.4,0.7-2.9
					c1.3-0.4,2.8-2.2,4,0.1c2.8,5.3,4.1,6.3,8.7,8.7C23.5,51.4,23.4,51.6,23.3,52.6z"/>
			</g>
			<g>
				<path class="st0" d="M54.9,43.1c-0.3,0.6-0.4,1-0.6,1.4c-2.6,4.6-6,8.4-10.7,10.8c-1.1,0.6-2,1.3-2.9-0.4
					c-0.7-1.4-2.4-2.9,0.2-4.2c4.5-2.4,6-3.4,8.6-8.7c0.6-1.2,1.4-1,2.5-0.6C53,41.7,54.3,41.9,54.9,43.1z"/>
			</g>
			<g>
				<path class="st1" d="M19.9,6c0.1,1.4-0.9,1.6-1.7,2C13,10.7,9,14.6,6.4,19.8c-0.8,1.6-1.7,2.2-3.5,1.3c-2.2-1.1-0.8-2.3-0.2-3.4
					c3.1-6,7.8-10.4,13.8-13.7C19.1,2.6,19.3,4.5,19.9,6z"/>
			</g>
			<g>
				<path class="st1" d="M62.3,18.9c0.2,1.3-0.9,1.4-1.7,1.8c-0.9,0.4-1.8,0.6-2.4-0.5c-2.9-5.9-7.3-10.3-13.2-13.2
					c-1.6-0.8-0.7-1.9-0.4-3c0.4-1.2,1.1-1.3,2.2-0.8C53.8,6.5,59.1,11.8,62.3,18.9z"/>
			</g>
			<g>
				<path class="st1" d="M4.3,44.9c1.2-0.2,1.5,0.8,1.9,1.6c2.7,5.3,6.7,9.3,12.1,12c1.6,0.8,1.9,1.6,1.2,3.3
					c-0.8,1.9-1.9,1.1-3,0.6c-6.2-3.1-10.7-7.9-14-13.9C1,45.9,2.4,45.4,4.3,44.9z"/>
			</g>
			<g>
				<path class="st1" d="M61.2,46.8c-3.1,6.8-8.1,11.9-14.7,15.3c-1.1,0.5-2.1,1.2-2.8-0.5c-0.6-1.4-0.9-2.5,0.9-3.3
					c5.5-2.7,9.5-6.8,12.3-12.2c0.6-1.2,1.3-1.9,2.7-1.2C60.3,45.3,61.5,45.3,61.2,46.8z"/>
			</g>
		</g>
	</g>
</g>
<g id="Layer_1">
	<g>
		<defs>
			<rect id="SVGID_1_" y="1" width="63.5" height="63.5"/>
		</defs>
		<clipPath id="SVGID_2_">
			<use xlink:href="#SVGID_1_"  style="overflow:visible;"/>
		</clipPath>
		<g class="st2">
			<g>
				<path class="st1" d="M25.5,43.1c-3.6-2.2-5.9-6.2-5.9-10.5c0-0.9,0.1-1.9,0.3-2.8c1.3-5.6,6.2-9.4,11.9-9.4
					c0.9,0,1.9,0.1,2.8,0.3C40.2,22,44,26.9,44,32.6c0,0.9-0.1,1.9-0.3,2.8l-5.6-1.3c0.1-0.5,0.2-1,0.2-1.5c0-3-2-5.6-5-6.3
					c-0.5-0.1-1-0.2-1.5-0.2c-3,0-5.6,2-6.3,5c-0.1,0.5-0.2,1-0.2,1.5c0,2.2,1.2,4.4,3.1,5.5L25.5,43.1z"/>
			</g>
			<g>
				<path class="st1" d="M25.5,43.2c-3.6-2.2-5.9-6.2-5.9-10.5c0-0.9,0.1-1.9,0.3-2.8c1.3-5.6,6.2-9.4,11.9-9.4
					c0.9,0,1.9,0.1,2.8,0.3C40.2,22.1,44,27,44,32.7c0,0.9-0.1,1.9-0.3,2.8l-5.6-1.3c0.1-0.5,0.2-1,0.2-1.5c0-3-2-5.6-5-6.3
					c-0.5-0.1-1-0.2-1.5-0.2c-3,0-5.6,2-6.3,5c-0.1,0.5-0.2,1-0.2,1.5c0,2.2,1.2,4.4,3.1,5.5L25.5,43.2z"/>
			</g>
			<g>
				<path class="st1" d="M40.5,41.3l-4.1-4.1c1.2-1.2,1.9-2.8,1.9-4.6s-0.7-3.4-1.9-4.6c-1.2-1.2-2.8-1.9-4.6-1.9
					c-1.7,0-3.4,0.7-4.6,1.9c-1.2,1.2-1.9,2.8-1.9,4.6c0,1,0.2,2,0.7,2.9l-5.1,2.6c-0.9-1.7-1.3-3.6-1.3-5.6c0-3.3,1.3-6.3,3.6-8.7
					c2.3-2.3,5.4-3.6,8.7-3.6s6.3,1.3,8.7,3.6c2.3,2.3,3.6,5.4,3.6,8.7C44,35.9,42.8,38.9,40.5,41.3z"/>
			</g>
			<g>
				<path class="st1" d="M31.8,39.1c-0.5,0-1-0.1-1.5-0.2c-2.9-0.7-5-3.3-5-6.3c0-0.5,0.1-1,0.2-1.5c0.7-3,3.3-5,6.3-5
					c0.5,0,1,0.1,1.5,0.2c3,0.7,5,3.3,5,6.3c0,0.5-0.1,1-0.2,1.5l0,0C37.4,37,34.8,39.1,31.8,39.1z M31.8,31.9
					c-0.3,0-0.6,0.2-0.7,0.6c0,0.1,0,0.1,0,0.2c0,0.3,0.2,0.6,0.6,0.7c0.4,0.1,0.8-0.1,0.9-0.5l0,0c0-0.1,0-0.1,0-0.2
					c0-0.3-0.2-0.6-0.6-0.7C31.9,31.9,31.9,31.9,31.8,31.9z"/>
			</g>
			<g>
				<path class="st1" d="M40.5,41.3l-4.1-4.1c1.2-1.2,1.9-2.8,1.9-4.6s-0.7-3.4-1.9-4.6c-1.2-1.2-2.8-1.9-4.6-1.9
					c-1.7,0-3.4,0.7-4.6,1.9c-1.2,1.2-1.9,2.8-1.9,4.6c0,1,0.2,2,0.7,2.9l-5.1,2.6c-0.9-1.7-1.3-3.6-1.3-5.6c0-3.3,1.3-6.3,3.6-8.7
					c2.3-2.3,5.4-3.6,8.7-3.6s6.3,1.3,8.7,3.6c2.3,2.3,3.6,5.4,3.6,8.7C44,35.9,42.8,38.9,40.5,41.3z"/>
			</g>
			<g>
				<path class="st1" d="M31.8,39.1c-0.5,0-1-0.1-1.5-0.2c-2.9-0.7-5-3.3-5-6.3c0-0.5,0.1-1,0.2-1.5c0.7-3,3.3-5,6.3-5
					c0.5,0,1,0.1,1.5,0.2c3,0.7,5,3.3,5,6.3c0,0.5-0.1,1-0.2,1.5l0,0C37.4,37,34.8,39.1,31.8,39.1z M31.8,31.9
					c-0.3,0-0.6,0.2-0.7,0.6c0,0.1,0,0.1,0,0.2c0,0.3,0.2,0.6,0.6,0.7c0.4,0.1,0.8-0.1,0.9-0.5l0,0c0-0.1,0-0.1,0-0.2
					c0-0.3-0.2-0.6-0.6-0.7C31.9,31.9,31.9,31.9,31.8,31.9z"/>
			</g>
			<g>
				<path class="st1" d="M40.5,41.3l-4.1-4.1c1.2-1.2,1.9-2.8,1.9-4.6s-0.7-3.4-1.9-4.6c-1.2-1.2-2.8-1.9-4.6-1.9
					c-1.7,0-3.4,0.7-4.6,1.9c-1.2,1.2-1.9,2.8-1.9,4.6c0,1,0.2,2,0.7,2.9l-5.1,2.6c-0.9-1.7-1.3-3.6-1.3-5.6c0-3.3,1.3-6.3,3.6-8.7
					c2.3-2.3,5.4-3.6,8.7-3.6s6.3,1.3,8.7,3.6c2.3,2.3,3.6,5.4,3.6,8.7C44,35.9,42.8,38.9,40.5,41.3z"/>
			</g>
			<g>
				<path class="st1" d="M31.8,39.1c-0.5,0-1-0.1-1.5-0.2c-2.9-0.7-5-3.3-5-6.3c0-0.5,0.1-1,0.2-1.5c0.7-3,3.3-5,6.3-5
					c0.5,0,1,0.1,1.5,0.2c3,0.7,5,3.3,5,6.3c0,0.5-0.1,1-0.2,1.5l0,0C37.4,37,34.8,39.1,31.8,39.1z M31.8,31.9
					c-0.3,0-0.6,0.2-0.7,0.6c0,0.1,0,0.1,0,0.2c0,0.3,0.2,0.6,0.6,0.7c0.4,0.1,0.8-0.1,0.9-0.5l0,0c0-0.1,0-0.1,0-0.2
					c0-0.3-0.2-0.6-0.6-0.7C31.9,31.9,31.9,31.9,31.8,31.9z"/>
			</g>
			<g>
				<path class="st1" d="M40.5,41.3l-4.1-4.1c1.2-1.2,1.9-2.8,1.9-4.6s-0.7-3.4-1.9-4.6c-1.2-1.2-2.8-1.9-4.6-1.9
					c-1.7,0-3.4,0.7-4.6,1.9c-1.2,1.2-1.9,2.8-1.9,4.6c0,1,0.2,2,0.7,2.9l-5.1,2.6c-0.9-1.7-1.3-3.6-1.3-5.6c0-3.3,1.3-6.3,3.6-8.7
					c2.3-2.3,5.4-3.6,8.7-3.6s6.3,1.3,8.7,3.6c2.3,2.3,3.6,5.4,3.6,8.7C44,35.9,42.8,38.9,40.5,41.3z"/>
			</g>
			<g>
				<path class="st1" d="M31.8,39.1c-0.5,0-1-0.1-1.5-0.2c-2.9-0.7-5-3.3-5-6.3c0-0.5,0.1-1,0.2-1.5c0.7-3,3.3-5,6.3-5
					c0.5,0,1,0.1,1.5,0.2c3,0.7,5,3.3,5,6.3c0,0.5-0.1,1-0.2,1.5l0,0C37.4,37,34.8,39.1,31.8,39.1z M31.8,31.9
					c-0.3,0-0.6,0.2-0.7,0.6c0,0.1,0,0.1,0,0.2c0,0.3,0.2,0.6,0.6,0.7c0.4,0.1,0.8-0.1,0.9-0.5l0,0c0-0.1,0-0.1,0-0.2
					c0-0.3-0.2-0.6-0.6-0.7C31.9,31.9,31.9,31.9,31.8,31.9z"/>
			</g>
			<g>
				<path class="st1" d="M40.5,41.3l-4.1-4.1c1.2-1.2,1.9-2.8,1.9-4.6s-0.7-3.4-1.9-4.6c-1.2-1.2-2.8-1.9-4.6-1.9
					c-1.7,0-3.4,0.7-4.6,1.9c-1.2,1.2-1.9,2.8-1.9,4.6c0,1,0.2,2,0.7,2.9l-5.1,2.6c-0.9-1.7-1.3-3.6-1.3-5.6c0-3.3,1.3-6.3,3.6-8.7
					c2.3-2.3,5.4-3.6,8.7-3.6s6.3,1.3,8.7,3.6c2.3,2.3,3.6,5.4,3.6,8.7C44,35.9,42.8,38.9,40.5,41.3z"/>
			</g>
			<g>
				<path class="st1" d="M31.8,39.1c-0.5,0-1-0.1-1.5-0.2c-2.9-0.7-5-3.3-5-6.3c0-0.5,0.1-1,0.2-1.5c0.7-3,3.3-5,6.3-5
					c0.5,0,1,0.1,1.5,0.2c3,0.7,5,3.3,5,6.3c0,0.5-0.1,1-0.2,1.5l0,0C37.4,37,34.8,39.1,31.8,39.1z M31.8,31.9
					c-0.3,0-0.6,0.2-0.7,0.6c0,0.1,0,0.1,0,0.2c0,0.3,0.2,0.6,0.6,0.7c0.4,0.1,0.8-0.1,0.9-0.5l0,0c0-0.1,0-0.1,0-0.2
					c0-0.3-0.2-0.6-0.6-0.7C31.9,31.9,31.9,31.9,31.8,31.9z"/>
			</g>
			<path class="st3" d="M54.3,32.2c-23.5-26.8-42.6-4-45.4,0c0,0-0.3,0.1-0.2,0.3c-0.1,0.2,0.2,0.3,0.2,0.3
				c2.8,3.4,21.9,26.8,45.4,0c0,0,0.3-0.2,0.2-0.3C54.6,32.4,54.3,32.2,54.3,32.2z"/>
			<path class="st1" d="M31.2,19.1c-7.3,0-13.3,6-13.3,13.3c0,7.3,6,13.3,13.3,13.3c7.3,0,13.3-6,13.3-13.3
				C44.5,25.1,38.5,19.1,31.2,19.1z"/>
			<path class="st0" d="M37.3,30.7c-0.5-1.4-1.1-2-1.1-2.2l-4.6,4v-6.1c-3.1,0-5.5,2.6-5.5,5.7c0,3.1,2.6,5.9,5.7,5.9
				c2.8,0,5.2-2.1,5.7-4.5C37.5,33.3,37.7,31.8,37.3,30.7z"/>
		</g>
	</g>
</g>
</svg>
