<svg width="91" height="90" viewBox="0 0 91 90" fill="none" xmlns="http://www.w3.org/2000/svg">
<g clip-path="url(#clip0)">
<path d="M79.5034 29.4063C79.0381 31.4575 76.9068 31.4875 75.3909 32.281C73.875 33.0746 72.5692 33.3141 71.5936 31.4276C68.1912 26.0428 63.6405 21.4725 58.2656 18.0421C54.8735 16.2155 57.35 13.745 58.2656 11.9483C59.1811 10.1516 59.7665 9.53774 61.6276 10.5259C69.0875 14.2684 75.1323 20.3196 78.858 27.7743C79.0831 28.2235 79.2332 28.7026 79.5034 29.4063Z" fill="#3B4B5B"/>
<path d="M15.4753 32.7601C10.6424 32.6552 9.02144 29.7655 11.4679 25.7978C15.1128 19.4894 20.5143 14.3715 27.0173 11.0648C28.6983 10.2264 29.824 9.7173 30.9647 11.9332C32.6607 15.2122 33.8915 16.425 31.1898 17.9223C25.4799 20.9213 20.8167 25.5783 17.8168 31.2778C17.3064 32.251 16.7061 33.1044 15.4753 32.7601Z" fill="#3B4B5B"/>
<path d="M32.4051 74.4288C31.8198 79.5494 29.6434 80.5974 25.2308 77.9024C19.0822 74.3038 14.0773 69.0464 10.7921 62.7352C9.78645 60.7738 9.29115 59.2017 11.8877 58.453C13.8539 57.8841 16.0602 55.219 17.8913 58.6776C22.0789 66.5682 24.015 68.0504 30.8892 71.7038C32.7053 72.647 32.5852 72.8716 32.4051 74.4288Z" fill="#3B4B5B"/>
<path d="M79.8187 60.2048C79.5522 60.9294 79.2466 61.6392 78.9031 62.3309C75.3142 69.2538 69.6896 74.9169 62.7834 78.5611C61.1324 79.3996 59.7816 80.5674 58.3857 77.9023C57.2901 75.7313 54.8436 73.5453 58.6259 71.539C65.41 67.9755 67.6313 66.4034 71.5637 58.4829C72.4942 56.6263 73.6499 56.9857 75.361 57.5696C77.072 58.1535 78.9481 58.438 79.8187 60.2048Z" fill="#3B4B5B"/>
<path d="M27.3019 4.65667C27.497 6.72288 25.8911 7.0373 24.7354 7.65118C17.0887 11.498 10.8809 17.6907 7.02468 25.3188C5.76391 27.7893 4.48814 28.6277 1.7715 27.2652C-1.5455 25.6182 0.64582 23.7616 1.4413 22.2045C6.06818 13.4181 13.3161 6.28198 22.1838 1.78194C26.1462 -0.359137 26.4614 2.4557 27.3019 4.65667Z" fill="#44ADBF"/>
<path d="M90.9403 24.0311C91.2855 25.9625 89.5744 26.1122 88.4338 26.6812C87.2931 27.2501 85.7171 27.5945 84.8916 25.9026C80.7401 17.2676 73.7626 10.3018 65.1097 6.15383C62.7833 4.98597 64.014 3.32401 64.5693 1.66206C65.1247 0.000106834 66.2954 -0.329289 67.8113 0.389393C78.1363 5.21613 86.3547 13.6166 90.9403 24.0311Z" fill="#44ADBF"/>
<path d="M3.94756 62.8698C5.76366 62.5554 6.13889 64.0975 6.75426 65.2654C10.6546 73.0381 16.9735 79.3416 24.7652 83.2324C27.1516 84.4302 27.5718 85.6879 26.5062 88.1285C25.2604 91.0182 23.6395 89.8204 22.0035 88.9669C13.0066 84.3413 5.66625 77.0502 0.990777 68.0952C-1.03545 64.4269 1.11085 63.6483 3.94756 62.8698Z" fill="#44ADBF"/>
<path d="M89.2892 65.7896C84.8017 75.7271 77.0065 83.8101 67.2259 88.6677C65.6199 89.4912 64.134 90.4494 63.0083 87.949C62.0477 85.8079 61.6425 84.2508 64.3591 82.9482C72.381 79.0575 78.8725 72.6082 82.8053 64.6218C83.7359 62.7951 84.7715 61.762 86.8277 62.84C87.9384 63.424 89.7395 63.4539 89.2892 65.7896Z" fill="#44ADBF"/>
<path d="M35.6912 60.1596C32.2611 58.0876 29.6048 54.9529 28.1277 51.234C26.6506 47.515 26.4339 43.4161 27.5105 39.5628C28.5872 35.7095 30.8981 32.3134 34.0907 29.8928C37.2832 27.4723 41.1819 26.1603 45.1919 26.157C47.9569 26.1552 50.6865 26.7766 53.177 27.9747C55.6675 29.1728 57.8545 30.9166 59.5747 33.076C61.2949 35.2354 62.5038 37.7546 63.1113 40.4455C63.7187 43.1363 63.709 45.9293 63.0827 48.6158L54.6626 46.6245C54.8298 45.8925 54.9153 45.1443 54.9178 44.3936C54.9222 42.2076 54.182 40.0851 52.8185 38.3739C51.4549 36.6628 49.549 35.4646 47.4133 34.9758C46.6808 34.8017 45.9299 34.7163 45.1769 34.7213C42.9864 34.7196 40.86 35.459 39.1452 36.8188C37.4304 38.1785 36.2286 40.0783 35.7362 42.2076C35.5691 42.9446 35.4835 43.6978 35.481 44.4534C35.485 46.1161 35.9178 47.7499 36.738 49.1973C37.5581 50.6448 38.7379 51.8574 40.1639 52.7183L35.6912 60.1596Z" fill="#44ADBF"/>
<path d="M35.6766 60.3693C32.3433 58.3707 29.7365 55.3631 28.2355 51.7841C26.7346 48.2051 26.4179 44.2417 27.3315 40.4707C27.8513 38.0932 28.8405 35.8426 30.2415 33.8505C31.6425 31.8584 33.4271 30.1645 35.4913 28.8678C37.5555 27.571 39.858 26.6974 42.2642 26.2978C44.6705 25.8982 47.1325 25.9807 49.5065 26.5405C51.8805 27.1002 54.119 28.126 56.0913 29.558C58.0636 30.99 59.7304 32.7994 60.9942 34.8809C62.258 36.9623 63.0936 39.2739 63.4523 41.681C63.8109 44.088 63.6855 46.5422 63.0832 48.9003L54.6481 46.9089C54.8266 46.1786 54.9173 45.4297 54.9182 44.678C54.9227 42.4921 54.1824 40.3696 52.8189 38.6584C51.4554 36.9473 49.5495 35.7491 47.4137 35.2603C46.6818 35.0813 45.9309 34.9908 45.1773 34.9908C42.9861 34.9864 40.8584 35.7248 39.143 37.085C37.4277 38.4452 36.2266 40.3465 35.7366 42.4771C35.5572 43.2072 35.4665 43.9562 35.4665 44.708C35.4721 46.3724 35.9056 48.0075 36.7255 49.4571C37.5453 50.9067 38.7241 52.1223 40.1493 52.9878L35.6766 60.3693Z" fill="#44ADBF"/>
<path d="M58.1904 57.4347L52.0667 51.3259C53.212 50.2055 54.0612 48.8195 54.5384 47.2918C55.0157 45.764 55.1061 44.1421 54.8017 42.571C54.4972 40.9999 53.8074 39.5285 52.7938 38.2883C51.7801 37.048 50.4743 36.0776 48.993 35.4637C47.5116 34.8497 45.9009 34.6114 44.3047 34.77C42.7085 34.9287 41.1766 35.4793 39.8458 36.3726C38.5149 37.266 37.4267 38.4744 36.6782 39.8897C35.9298 41.3051 35.5445 42.8833 35.5567 44.4835C35.5569 46.0173 35.9167 47.5299 36.6074 48.9004L28.9077 52.8232C27.3636 49.8131 26.6843 46.4356 26.9451 43.0644C27.2059 39.6932 28.3965 36.4596 30.3853 33.7215C32.374 30.9835 35.0834 28.8476 38.2135 27.5504C41.3436 26.2531 44.7725 25.845 48.1207 26.3712C51.469 26.8975 54.606 28.3375 57.1847 30.5319C59.7634 32.7264 61.6832 35.5897 62.7317 38.8051C63.7803 42.0206 63.9166 45.4627 63.1257 48.7506C62.3348 52.0385 60.6475 55.0441 58.2504 57.4347H58.1904Z" fill="#44ADBF"/>
<path d="M45.2071 54.2156C44.4492 54.2206 43.6933 54.1352 42.9558 53.9611C40.8151 53.4601 38.9078 52.2504 37.5449 50.5291C36.182 48.8079 35.444 46.6768 35.4512 44.4834C35.4522 43.7268 35.5429 42.9729 35.7214 42.2375C36.2236 40.1021 37.4363 38.1994 39.1617 36.8399C40.8871 35.4803 43.0234 34.7441 45.2221 34.7513C45.9757 34.7513 46.7266 34.8418 47.4585 35.0208C49.5991 35.5217 51.5064 36.7315 52.8693 38.4527C54.2322 40.1739 54.9702 42.305 54.963 44.4984C54.9606 45.2491 54.875 45.9973 54.7079 46.7293C54.2057 48.8647 52.993 50.7674 51.2676 52.127C49.5422 53.4866 47.4059 54.2228 45.2071 54.2156ZM45.2071 43.3755C44.9577 43.3781 44.7162 43.4634 44.5206 43.6179C44.325 43.7724 44.1863 43.9873 44.1265 44.2289C44.1199 44.3136 44.1199 44.3987 44.1265 44.4834C44.1299 44.7304 44.2159 44.9691 44.3709 45.1617C44.5259 45.3543 44.741 45.4898 44.982 45.5465C45.1221 45.5842 45.2684 45.593 45.412 45.5723C45.5556 45.5516 45.6934 45.5019 45.8171 45.4262C45.9408 45.3505 46.0476 45.2504 46.1311 45.1321C46.2147 45.0137 46.2731 44.8796 46.3028 44.738C46.3093 44.6532 46.3093 44.5681 46.3028 44.4834C46.3001 44.2346 46.2146 43.9937 46.0598 43.7985C45.9049 43.6034 45.6895 43.4651 45.4473 43.4054L45.2071 43.3755Z" fill="#44ADBF"/>
<path d="M58.1904 57.4347L52.0667 51.3259C53.212 50.2055 54.0612 48.8195 54.5384 47.2918C55.0157 45.764 55.1061 44.1421 54.8017 42.571C54.4972 40.9999 53.8074 39.5285 52.7938 38.2883C51.7801 37.048 50.4743 36.0776 48.993 35.4637C47.5116 34.8497 45.9009 34.6114 44.3047 34.77C42.7085 34.9287 41.1766 35.4793 39.8458 36.3726C38.5149 37.266 37.4267 38.4744 36.6782 39.8897C35.9298 41.3051 35.5445 42.8833 35.5567 44.4835C35.5569 46.0173 35.9167 47.5299 36.6074 48.9004L28.9077 52.8232C27.3636 49.8131 26.6843 46.4356 26.9451 43.0644C27.2059 39.6932 28.3965 36.4596 30.3853 33.7215C32.374 30.9835 35.0834 28.8476 38.2135 27.5504C41.3436 26.2531 44.7725 25.845 48.1207 26.3712C51.469 26.8975 54.606 28.3375 57.1847 30.5319C59.7634 32.7264 61.6832 35.5897 62.7317 38.8051C63.7803 42.0206 63.9166 45.4627 63.1257 48.7506C62.3348 52.0385 60.6475 55.0441 58.2504 57.4347H58.1904Z" fill="#44ADBF"/>
<path d="M45.2071 54.2156C44.4492 54.2206 43.6933 54.1352 42.9558 53.9611C40.8151 53.4601 38.9078 52.2504 37.5449 50.5291C36.182 48.8079 35.444 46.6768 35.4512 44.4834C35.4522 43.7268 35.5429 42.9729 35.7214 42.2375C36.2236 40.1021 37.4363 38.1994 39.1617 36.8399C40.8871 35.4803 43.0234 34.7441 45.2221 34.7513C45.9757 34.7513 46.7266 34.8418 47.4585 35.0208C49.5991 35.5217 51.5064 36.7315 52.8693 38.4527C54.2322 40.1739 54.9702 42.305 54.963 44.4984C54.9606 45.2491 54.875 45.9973 54.7079 46.7293C54.2057 48.8647 52.993 50.7674 51.2676 52.127C49.5422 53.4866 47.4059 54.2228 45.2071 54.2156ZM45.2071 43.3755C44.9577 43.3781 44.7162 43.4634 44.5206 43.6179C44.325 43.7724 44.1863 43.9873 44.1265 44.2289C44.1199 44.3136 44.1199 44.3987 44.1265 44.4834C44.1299 44.7304 44.2159 44.9691 44.3709 45.1617C44.5259 45.3543 44.741 45.4898 44.982 45.5465C45.1221 45.5842 45.2684 45.593 45.412 45.5723C45.5556 45.5516 45.6934 45.5019 45.8171 45.4262C45.9408 45.3505 46.0476 45.2504 46.1311 45.1321C46.2147 45.0137 46.2731 44.8796 46.3028 44.738C46.3093 44.6532 46.3093 44.5681 46.3028 44.4834C46.3001 44.2346 46.2146 43.9937 46.0598 43.7985C45.9049 43.6034 45.6895 43.4651 45.4473 43.4054L45.2071 43.3755Z" fill="#44ADBF"/>
<path d="M58.1904 57.4347L52.0667 51.3259C53.212 50.2055 54.0612 48.8195 54.5384 47.2918C55.0157 45.764 55.1061 44.1421 54.8017 42.571C54.4972 40.9999 53.8074 39.5285 52.7938 38.2883C51.7801 37.048 50.4743 36.0776 48.993 35.4637C47.5116 34.8497 45.9009 34.6114 44.3047 34.77C42.7085 34.9287 41.1766 35.4793 39.8458 36.3726C38.5149 37.266 37.4267 38.4744 36.6782 39.8897C35.9298 41.3051 35.5445 42.8833 35.5567 44.4835C35.5569 46.0173 35.9167 47.5299 36.6074 48.9004L28.9077 52.8232C27.3636 49.8131 26.6843 46.4356 26.9451 43.0644C27.2059 39.6932 28.3965 36.4596 30.3853 33.7215C32.374 30.9835 35.0834 28.8476 38.2135 27.5504C41.3436 26.2531 44.7725 25.845 48.1207 26.3712C51.469 26.8975 54.606 28.3375 57.1847 30.5319C59.7634 32.7264 61.6832 35.5897 62.7317 38.8051C63.7803 42.0206 63.9166 45.4627 63.1257 48.7506C62.3348 52.0385 60.6475 55.0441 58.2504 57.4347H58.1904Z" fill="#44ADBF"/>
<path d="M45.2071 54.2156C44.4492 54.2206 43.6933 54.1352 42.9558 53.9611C40.8151 53.4601 38.9078 52.2504 37.5449 50.5291C36.182 48.8079 35.444 46.6768 35.4512 44.4834C35.4522 43.7268 35.5429 42.9729 35.7214 42.2375C36.2236 40.1021 37.4363 38.1994 39.1617 36.8399C40.8871 35.4803 43.0234 34.7441 45.2221 34.7513C45.9757 34.7513 46.7266 34.8418 47.4585 35.0208C49.5991 35.5217 51.5064 36.7315 52.8693 38.4527C54.2322 40.1739 54.9702 42.305 54.963 44.4984C54.9606 45.2491 54.875 45.9973 54.7079 46.7293C54.2057 48.8647 52.993 50.7674 51.2676 52.127C49.5422 53.4866 47.4059 54.2228 45.2071 54.2156ZM45.2071 43.3755C44.9577 43.3781 44.7162 43.4634 44.5206 43.6179C44.325 43.7724 44.1863 43.9873 44.1265 44.2289C44.1199 44.3136 44.1199 44.3987 44.1265 44.4834C44.1299 44.7304 44.2159 44.9691 44.3709 45.1617C44.5259 45.3543 44.741 45.4898 44.982 45.5465C45.1221 45.5842 45.2684 45.593 45.412 45.5723C45.5556 45.5516 45.6934 45.5019 45.8171 45.4262C45.9408 45.3505 46.0476 45.2504 46.1311 45.1321C46.2147 45.0137 46.2731 44.8796 46.3028 44.738C46.3093 44.6532 46.3093 44.5681 46.3028 44.4834C46.3001 44.2346 46.2146 43.9937 46.0598 43.7985C45.9049 43.6034 45.6895 43.4651 45.4473 43.4054L45.2071 43.3755Z" fill="#44ADBF"/>
<path d="M58.1904 57.4347L52.0667 51.3259C53.212 50.2055 54.0612 48.8195 54.5384 47.2918C55.0157 45.764 55.1061 44.1421 54.8017 42.571C54.4972 40.9999 53.8074 39.5285 52.7938 38.2883C51.7801 37.048 50.4743 36.0776 48.993 35.4637C47.5116 34.8497 45.9009 34.6114 44.3047 34.77C42.7085 34.9287 41.1766 35.4793 39.8458 36.3726C38.5149 37.266 37.4267 38.4744 36.6782 39.8897C35.9298 41.3051 35.5445 42.8833 35.5567 44.4835C35.5569 46.0173 35.9167 47.5299 36.6074 48.9004L28.9077 52.8232C27.3636 49.8131 26.6843 46.4356 26.9451 43.0644C27.2059 39.6932 28.3965 36.4596 30.3853 33.7215C32.374 30.9835 35.0834 28.8476 38.2135 27.5504C41.3436 26.2531 44.7725 25.845 48.1207 26.3712C51.469 26.8975 54.606 28.3375 57.1847 30.5319C59.7634 32.7264 61.6832 35.5897 62.7317 38.8051C63.7803 42.0206 63.9166 45.4627 63.1257 48.7506C62.3348 52.0385 60.6475 55.0441 58.2504 57.4347H58.1904Z" fill="#44ADBF"/>
<path d="M45.2071 54.2156C44.4492 54.2206 43.6933 54.1352 42.9558 53.9611C40.8151 53.4601 38.9078 52.2504 37.5449 50.5291C36.182 48.8079 35.444 46.6768 35.4512 44.4834C35.4522 43.7268 35.5429 42.9729 35.7214 42.2375C36.2236 40.1021 37.4363 38.1994 39.1617 36.8399C40.8871 35.4803 43.0234 34.7441 45.2221 34.7513C45.9757 34.7513 46.7266 34.8418 47.4585 35.0208C49.5991 35.5217 51.5064 36.7315 52.8693 38.4527C54.2322 40.1739 54.9702 42.305 54.963 44.4984C54.9606 45.2491 54.875 45.9973 54.7079 46.7293C54.2057 48.8647 52.993 50.7674 51.2676 52.127C49.5422 53.4866 47.4059 54.2228 45.2071 54.2156ZM45.2071 43.3755C44.9577 43.3781 44.7162 43.4634 44.5206 43.6179C44.325 43.7724 44.1863 43.9873 44.1265 44.2289C44.1199 44.3136 44.1199 44.3987 44.1265 44.4834C44.1299 44.7304 44.2159 44.9691 44.3709 45.1617C44.5259 45.3543 44.741 45.4898 44.982 45.5465C45.1221 45.5842 45.2684 45.593 45.412 45.5723C45.5556 45.5516 45.6934 45.5019 45.8171 45.4262C45.9408 45.3505 46.0476 45.2504 46.1311 45.1321C46.2147 45.0137 46.2731 44.8796 46.3028 44.738C46.3093 44.6532 46.3093 44.5681 46.3028 44.4834C46.3001 44.2346 46.2146 43.9937 46.0598 43.7985C45.9049 43.6034 45.6895 43.4651 45.4473 43.4054L45.2071 43.3755Z" fill="#44ADBF"/>
<path d="M58.1904 57.4347L52.0667 51.3259C53.212 50.2055 54.0612 48.8195 54.5384 47.2918C55.0157 45.764 55.1061 44.1421 54.8017 42.571C54.4972 40.9999 53.8074 39.5285 52.7938 38.2883C51.7801 37.048 50.4743 36.0776 48.993 35.4637C47.5116 34.8497 45.9009 34.6114 44.3047 34.77C42.7085 34.9287 41.1766 35.4793 39.8458 36.3726C38.5149 37.266 37.4267 38.4744 36.6782 39.8897C35.9298 41.3051 35.5445 42.8833 35.5567 44.4835C35.5569 46.0173 35.9167 47.5299 36.6074 48.9004L28.9077 52.8232C27.3636 49.8131 26.6843 46.4356 26.9451 43.0644C27.2059 39.6932 28.3965 36.4596 30.3853 33.7215C32.374 30.9835 35.0834 28.8476 38.2135 27.5504C41.3436 26.2531 44.7725 25.845 48.1207 26.3712C51.469 26.8975 54.606 28.3375 57.1847 30.5319C59.7634 32.7264 61.6832 35.5897 62.7317 38.8051C63.7803 42.0206 63.9166 45.4627 63.1257 48.7506C62.3348 52.0385 60.6475 55.0441 58.2504 57.4347H58.1904Z" fill="#44ADBF"/>
<path d="M45.2071 54.2156C44.4492 54.2206 43.6933 54.1352 42.9558 53.9611C40.8151 53.4601 38.9078 52.2504 37.5449 50.5291C36.182 48.8079 35.444 46.6768 35.4512 44.4834C35.4522 43.7268 35.5429 42.9729 35.7214 42.2375C36.2236 40.1021 37.4363 38.1994 39.1617 36.8399C40.8871 35.4803 43.0234 34.7441 45.2221 34.7513C45.9757 34.7513 46.7266 34.8418 47.4585 35.0208C49.5991 35.5217 51.5064 36.7315 52.8693 38.4527C54.2322 40.1739 54.9702 42.305 54.963 44.4984C54.9606 45.2491 54.875 45.9973 54.7079 46.7293C54.2057 48.8647 52.993 50.7674 51.2676 52.127C49.5422 53.4866 47.4059 54.2228 45.2071 54.2156ZM45.2071 43.3755C44.9577 43.3781 44.7162 43.4634 44.5206 43.6179C44.325 43.7724 44.1863 43.9873 44.1265 44.2289C44.1199 44.3136 44.1199 44.3987 44.1265 44.4834C44.1299 44.7304 44.2159 44.9691 44.3709 45.1617C44.5259 45.3543 44.741 45.4898 44.982 45.5465C45.1221 45.5842 45.2684 45.593 45.412 45.5723C45.5556 45.5516 45.6934 45.5019 45.8171 45.4262C45.9408 45.3505 46.0476 45.2504 46.1311 45.1321C46.2147 45.0137 46.2731 44.8796 46.3028 44.738C46.3093 44.6532 46.3093 44.5681 46.3028 44.4834C46.3001 44.2346 46.2146 43.9937 46.0598 43.7985C45.9049 43.6034 45.6895 43.4651 45.4473 43.4054L45.2071 43.3755Z" fill="#44ADBF"/>
<path d="M78.9175 43.9444C43.6312 3.80301 14.9488 37.9554 10.7463 43.9444C10.7463 43.9444 10.296 44.1391 10.4761 44.3786C10.296 44.6032 10.7463 44.7978 10.7463 44.7978C14.9488 49.9185 43.6312 84.9393 78.9175 44.7978C78.9175 44.7978 79.3377 44.4984 79.2327 44.3786C79.3528 44.2439 78.9175 43.9444 78.9175 43.9444Z" fill="#F2EED1"/>
<path d="M44.3061 24.3303C40.3616 24.3333 36.5065 25.5028 33.2282 27.6911C29.9499 29.8794 27.3956 32.9881 25.8881 36.6244C24.3807 40.2606 23.9878 44.2611 24.7591 48.12C25.5305 51.979 27.4315 55.5231 30.2217 58.3045C33.0119 61.0859 36.5662 62.9795 40.4351 63.7461C44.3041 64.5127 48.314 64.1178 51.958 62.6112C55.6019 61.1047 58.7163 58.5543 60.9075 55.2823C63.0986 52.0103 64.2681 48.1638 64.2681 44.2288C64.2602 38.9513 62.154 33.8923 58.4117 30.1619C54.6694 26.4315 49.5965 24.3343 44.3061 24.3303Z" fill="#44ADBF"/>
<path d="M53.5074 41.6684C53.0614 40.5262 52.5086 39.4283 51.8564 38.3894L45.0122 44.3785V35.2302C43.9067 35.238 42.8137 35.4644 41.7964 35.8964C40.7792 36.3283 39.858 36.9573 39.086 37.7468C38.3141 38.5364 37.7068 39.4708 37.2994 40.496C36.8919 41.5213 36.6923 42.617 36.7122 43.7197C36.6632 45.8618 37.4167 47.9451 38.8255 49.5626C40.2342 51.18 42.1969 52.2153 44.3301 52.4661C46.4632 52.7169 48.6134 52.1651 50.3605 50.9187C52.1076 49.6723 53.326 47.8208 53.7775 45.726C53.9678 44.3693 53.8758 42.9881 53.5074 41.6684Z" fill="#3B4B5B"/>
</g>
<defs>
<clipPath id="clip0">
<rect width="91" height="90" fill="white"/>
</clipPath>
</defs>
</svg>
