<svg width="375" height="729" viewBox="0 0 375 729" fill="none" xmlns="http://www.w3.org/2000/svg">
<rect y="-2" width="414" height="2328" fill="url(#paint0_linear)"/>
<g opacity="0.7" clip-path="url(#clip0)">
<path d="M-155.907 147.02C-155.806 147.438 -155.705 147.857 -155.604 148.268C-120.874 290.104 52.806 327.54 92.7677 334.338C97.9848 335.225 103.346 334.634 108.253 332.642C121.74 327.165 128.934 312.401 124.943 298.41C123.832 294.52 122.793 290.963 121.999 288.452C118.961 278.833 18.2417 149.906 -18.3213 128.742C-54.8843 107.578 -68.3492 128.742 -111.645 122.969C-122.952 121.461 -131.755 120.574 -138.459 121.476C-156.701 123.929 -155.907 147.02 -155.907 147.02Z" fill="#FBBB93"/>
<path d="M-290.767 273.083C-290.767 273.083 -259.327 334.317 -217.799 309.703C-164.315 277.997 -166.487 290.495 -147.884 277.585C-139.557 271.805 -120.947 237.443 -126.244 200.137C-130.227 172.096 -67.5424 325.665 -59.8575 332.513C-47.4172 343.596 45.0114 381.141 3.64258 445.081C-31.0371 498.674 -80.7186 522.681 -97.373 528.382C-99.9779 529.276 -105.426 532.083 -108.197 532.206C-136.101 533.49 -141.116 537.704 -183.004 445.983C-183.004 445.983 -203.209 396.453 -242.658 385.644C-282.108 374.849 -290.767 273.083 -290.767 273.083Z" fill="#5B83A3"/>
<path d="M111.652 18.6143C106.593 57.2699 122.584 138.456 301.113 225.603C311.345 230.596 322.393 220.472 318.316 209.843C298.53 158.3 246.82 50.6313 139.325 3.04957C127.202 -2.31185 113.369 5.47412 111.652 18.6143Z" fill="#FBBB93"/>
<path d="M-112.528 111.043C-111.085 108.878 -73.483 60.8633 -73.483 60.8633C-73.483 60.8633 -9.8878 152.695 25.499 152.5C80.4193 152.197 102.722 161.561 134.977 191.861C167.348 222.276 252.741 337.24 283.625 346.281C305.59 352.711 268.068 374.683 268.068 374.683C268.068 374.683 166.756 233 107.999 228C107.999 228 85.999 223 31.999 210C3.85698 199.898 -112.528 111.043 -112.528 111.043Z" fill="#E3733B"/>
<path d="M378.749 88.3052C382.66 106.655 392.445 122.249 401.963 137.814C408.37 148.291 412.974 159.418 401.645 167.55C390.655 175.437 377.4 171.873 368.171 162.903C357.462 152.505 349.034 139.848 341.032 126.961C332.329 112.948 325.929 97.2818 313.662 85.6858C299.208 62.1403 278.506 51.4319 251.028 53.8998C241.156 54.7873 231.191 54.5781 221.262 54.8739C203.186 42.1162 185.103 29.3512 167.027 16.5935C159.732 -2.21838 151.195 -20.6767 150.293 -41.3935C150.012 -47.8879 145.928 -56.0707 152.855 -60.2343C160.598 -64.8886 166.832 -57.384 171.515 -52.7875C194.614 -30.1439 221.464 -25.5113 251.677 -33.3262C258.655 -35.1301 265.907 -35.8373 273.051 -36.9702C300.659 -41.3503 320.142 -31.6593 334.905 -7.87566C349.229 15.1936 358.249 40.5648 368.026 65.6617C371.064 73.4693 373.049 81.7965 378.749 88.3052Z" fill="#6182A2"/>
<path d="M191.268 145.11C158.19 148.141 140.352 125.677 123.28 103.286C108.451 83.8468 95.9962 62.6753 79.8109 44.1449C58.2065 19.4231 32.6477 11.4062 1.34506 23.0022C-7.3862 26.2349 -16.5937 28.1616 -25.5197 30.8892C-50.7249 38.5958 -71.2253 30.4418 -88.9693 12.4742C-108.38 -7.17473 -122.263 -30.9944 -138.492 -53.0318C-168.871 -94.2852 -189.047 -101.306 -237.588 -85.9508C-259.705 -78.9514 -281.425 -73.7343 -303.34 -87.3219C-311.818 -92.5823 -314.596 -96.6159 -309.314 -106.596C-296.766 -130.293 -285.538 -154.704 -274.238 -179.043C-271.2 -185.581 -268.09 -190.062 -260.015 -188.496C-247.712 -186.108 -235.38 -187.977 -223.517 -190.596C-182.935 -199.573 -155.089 -182.738 -133.441 -149.653C-115.264 -121.864 -100.428 -92.0266 -79.8556 -65.6741C-62.0251 -42.8358 -39.5547 -30.3739 -11.4704 -37.6547C43.8901 -52 77.6605 -26.9535 102.541 18.8026C108.812 30.3264 108.4 32.4911 120.162 47.7456C120.162 47.7456 144.566 83.9261 153.68 98.5167C176.5 137 178.5 129 191.268 145.11Z" fill="#475765"/>
<g opacity="0.79">
<path opacity="0.79" d="M-140.43 707.625C-122.585 681.879 -72.8598 588.736 -55.0148 562.989C-186.222 521.693 -87.4215 340.003 12.5766 319.82C40.062 311.349 72.4254 298.858 97.7243 285.177C209.694 253.961 205.739 97.4693 300.268 57.4932C313.264 51.9947 327.919 51.7349 341.167 56.5984C563.995 138.355 461.695 464.045 479.944 649.566C501.267 787.39 273.533 753.468 203.928 699.428C203.921 699.421 76.6178 863.279 62.8282 871.946C26.561 894.726 -117.411 851.417 -186.886 822.235C-200.17 816.657 -207.314 802.688 -199.023 790.904L-139.369 706.088" fill="#83C7CE"/>
</g>
<path opacity="0.53" d="M25.6289 401.699C25.6289 401.699 127.135 687.933 205.853 697.948C202.181 707.17 132.417 791.95 132.417 791.95C132.417 791.95 48.7198 662.915 25.6289 401.699Z" fill="#435363"/>
</g>
<g style="mix-blend-mode:overlay">
<rect x="-60" y="-72" width="524" height="801" fill="url(#paint1_linear)"/>
</g>
<defs>
<linearGradient id="paint0_linear" x1="13.2598" y1="205.446" x2="451.826" y2="215.141" gradientUnits="userSpaceOnUse">
<stop stop-color="#132028"/>
<stop offset="1" stop-color="#395765"/>
</linearGradient>
<linearGradient id="paint1_linear" x1="202" y1="-262" x2="202" y2="729" gradientUnits="userSpaceOnUse">
<stop stop-color="#7AC5E9" stop-opacity="0"/>
<stop offset="1" stop-color="#010202"/>
</linearGradient>
<clipPath id="clip0">
<rect width="853" height="1071.32" fill="white" transform="translate(-312 -193)"/>
</clipPath>
</defs>
</svg>
