<svg width="35" height="23" viewBox="0 0 35 23" fill="none" xmlns="http://www.w3.org/2000/svg">
<g clip-path="url(#clip0)">
<path d="M33.3402 8.12417C33.4533 8.12417 33.5321 8.12417 33.6102 8.12417C34.2039 8.125 34.5236 8.41639 34.5358 9.02484C34.5536 9.9346 34.5423 10.8452 34.5431 11.7558C34.5439 12.5695 34.5455 13.3833 34.5423 14.197C34.539 15.1118 34.26 15.3932 33.3337 15.3733C33.3272 15.5149 33.3142 15.6589 33.3142 15.8022C33.3101 17.2094 33.3296 18.6167 33.2995 20.0232C33.2662 21.5563 32.2935 22.6871 30.8214 22.9594C30.6498 22.9909 30.4717 22.9967 30.2961 22.9967C21.5393 22.9983 12.7835 22.9992 4.02674 22.9975C2.34322 22.9975 1.0875 21.7839 1.01593 20.0662C0.983401 19.2815 1.00373 18.4942 1.00373 17.7078C1.00292 12.9073 1.00943 8.10679 0.998855 3.30629C0.996414 2.30298 1.26073 1.43295 2.01384 0.750827C2.50751 0.304635 3.08414 0.0604301 3.74128 0.0132447C3.87628 0.00331098 4.0121 0.00165536 4.14792 0.00165536C12.8225 0.00331137 21.4979 0.00662301 30.1733 8.70075e-07C31.407 -0.000826891 32.3675 0.482617 32.9466 1.59768C33.1483 1.98593 33.2743 2.45861 33.2865 2.89652C33.3305 4.45447 33.3093 6.01325 33.315 7.57202C33.315 7.74835 33.3305 7.92467 33.3402 8.12417ZM17.163 1.50083C12.8802 1.50083 8.59662 1.5 4.31383 1.50083C3.03615 1.50083 2.48474 2.0654 2.48474 3.36672C2.48474 8.80132 2.48474 14.2359 2.48474 19.6705C2.48474 20.9131 3.04347 21.4859 4.2691 21.5033C4.37727 21.505 4.48625 21.5041 4.59442 21.5041C12.9705 21.5041 21.3466 21.5041 29.7235 21.5041C29.8862 21.5041 30.0488 21.5066 30.2115 21.5C31.2639 21.4553 31.8372 20.8775 31.8389 19.798C31.8462 14.2533 31.8429 8.70778 31.8413 3.16308C31.8413 2.72351 31.734 2.32285 31.4257 1.98841C31.0484 1.57864 30.5734 1.49752 30.0545 1.49752C25.7563 1.50248 21.4596 1.50083 17.163 1.50083Z" fill="#3B4B5B"/>
<path d="M10.0635 3.11937C10.0635 8.71456 10.0635 14.304 10.0635 19.9372C9.65927 19.9372 9.28353 19.9372 8.90779 19.9372C7.60734 19.9372 6.30607 19.929 5.00562 19.943C4.70144 19.9464 4.5762 19.876 4.57701 19.5358C4.58596 14.1856 4.58352 8.83542 4.58271 3.48443C4.58271 3.27168 4.564 3.07135 4.882 3.07301C6.54843 3.08211 8.21487 3.07798 9.88211 3.08046C9.93416 3.08129 9.9854 3.10198 10.0635 3.11937Z" stroke="white" stroke-width="0.752577" stroke-miterlimit="10"/>
<path d="M11.1648 11.471C11.1648 8.851 11.1713 6.23097 11.1575 3.61093C11.1551 3.21275 11.2413 3.05795 11.6723 3.06623C13.1761 3.09438 14.6807 3.08693 16.1853 3.06954C16.5293 3.0654 16.6594 3.14901 16.6594 3.52567C16.6488 8.86342 16.6497 14.2003 16.6594 19.5381C16.6602 19.8858 16.5293 19.9454 16.23 19.9429C14.6986 19.9313 13.1671 19.9238 11.6357 19.947C11.2518 19.9528 11.1567 19.8262 11.1583 19.4561C11.1705 16.7939 11.1648 14.1325 11.1648 11.471Z" stroke="white" stroke-width="0.752577" stroke-miterlimit="10"/>
</g>
<defs>
<clipPath id="clip0">
<rect width="23" height="33.5491" fill="white" transform="translate(34.5469) rotate(90)"/>
</clipPath>
</defs>
</svg>
